ISO-10303-21;
HEADER;
FILE_DESCRIPTION (( 'STEP AP203' ),
    '1' );
FILE_NAME ('base_Default_sldprt.STEP',
    '2025-12-25T11:37:07',
    ( '' ),
    ( '' ),
    'SwSTEP 2.0',
    'SolidWorks 2024',
    '' );
FILE_SCHEMA (( 'CONFIG_CONTROL_DESIGN' ));
ENDSEC;

DATA;
#1 = ORIENTED_EDGE ( 'NONE', *, *, #211, .T. ) ;
#2 = DIRECTION ( 'NONE',  ( 0.000000000000000000, 0.000000000000000000, 1.000000000000000000 ) ) ;
#3 = CARTESIAN_POINT ( 'NONE',  ( 0.000000000000000000, -2.000000000000000000, -6.600000000000012079 ) ) ;
#4 = FACE_BOUND ( 'NONE', #867, .T. ) ;
#5 = AXIS2_PLACEMENT_3D ( 'NONE', #876, #59, #126 ) ;
#6 = EDGE_CURVE ( 'NONE', #57, #1080, #644, .T. ) ;
#7 = VECTOR ( 'NONE', #165, 1000.000000000000000 ) ;
#8 = ADVANCED_FACE ( 'NONE', ( #919 ), #494, .F. ) ;
#9 = CLOSED_SHELL ( 'NONE', ( #196, #732, #323, #286, #1055, #321, #924, #591, #116, #162, #92, #1083, #313, #806, #51, #433, #636, #481, #529, #390, #155, #134, #201, #8, #373, #705, #738, #665, #466, #959 ) ) ;
#10 = ORIENTED_EDGE ( 'NONE', *, *, #6, .T. ) ;
#11 = FACE_OUTER_BOUND ( 'NONE', #969, .T. ) ;
#12 = VECTOR ( 'NONE', #18, 1000.000000000000000 ) ;
#13 = DIRECTION ( 'NONE',  ( -0.000000000000000000, 1.000000000000000000, -0.000000000000000000 ) ) ;
#14 = DIRECTION ( 'NONE',  ( 1.000000000000000000, 0.000000000000000000, 0.000000000000000000 ) ) ;
#15 = EDGE_CURVE ( 'NONE', #826, #424, #558, .T. ) ;
#16 = ORIENTED_EDGE ( 'NONE', *, *, #711, .F. ) ;
#17 = FACE_OUTER_BOUND ( 'NONE', #1047, .T. ) ;
#18 = DIRECTION ( 'NONE',  ( 1.000000000000000000, 0.000000000000000000, 0.000000000000000000 ) ) ;
#19 = DIRECTION ( 'NONE',  ( 1.000000000000000000, 0.000000000000000000, -0.000000000000000000 ) ) ;
#20 = CC_DESIGN_SECURITY_CLASSIFICATION ( #971, ( #185 ) ) ;
#21 = ORIENTED_EDGE ( 'NONE', *, *, #786, .T. ) ;
#22 = DIRECTION ( 'NONE',  ( 0.000000000000000000, 0.000000000000000000, 1.000000000000000000 ) ) ;
#23 = CARTESIAN_POINT ( 'NONE',  ( -64.14999999999999147, -2.000000000000000000, -17.50000000000000711 ) ) ;
#24 = FACE_BOUND ( 'NONE', #750, .T. ) ;
#25 = ORIENTED_EDGE ( 'NONE', *, *, #1010, .T. ) ;
#26 = VECTOR ( 'NONE', #100, 1000.000000000000000 ) ;
#27 = PERSON_AND_ORGANIZATION_ROLE ( 'classification_officer' ) ;
#28 = AXIS2_PLACEMENT_3D ( 'NONE', #796, #216, #395 ) ;
#29 = LINE ( 'NONE', #768, #190 ) ;
#30 = VECTOR ( 'NONE', #301, 1000.000000000000000 ) ;
#31 = PLANE ( 'NONE',  #243 ) ;
#32 = EDGE_CURVE ( 'NONE', #99, #789, #396, .T. ) ;
#33 = VERTEX_POINT ( 'NONE', #330 ) ;
#34 = MECHANICAL_CONTEXT ( 'NONE', #83, 'mechanical' ) ;
#35 = ORIENTED_EDGE ( 'NONE', *, *, #1065, .T. ) ;
#36 = DIRECTION ( 'NONE',  ( 0.000000000000000000, 0.000000000000000000, 1.000000000000000000 ) ) ;
#37 = EDGE_CURVE ( 'NONE', #506, #733, #501, .T. ) ;
#38 = DIRECTION ( 'NONE',  ( -0.000000000000000000, 1.000000000000000000, -0.000000000000000000 ) ) ;
#39 = ORIENTED_EDGE ( 'NONE', *, *, #215, .F. ) ;
#40 = EDGE_LOOP ( 'NONE', ( #803, #483, #302, #572 ) ) ;
#41 = CARTESIAN_POINT ( 'NONE',  ( 58.65000000000000568, 1.310372075087664981E-15, 10.74999999999998934 ) ) ;
#42 = DIRECTION ( 'NONE',  ( 0.000000000000000000, 1.000000000000000000, -0.000000000000000000 ) ) ;
#43 = EDGE_CURVE ( 'NONE', #229, #506, #915, .T. ) ;
#44 = ORIENTED_EDGE ( 'NONE', *, *, #564, .T. ) ;
#45 = DIRECTION ( 'NONE',  ( 1.000000000000000000, 0.000000000000000000, 0.000000000000000000 ) ) ;
#46 = EDGE_CURVE ( 'NONE', #759, #964, #345, .T. ) ;
#47 = AXIS2_PLACEMENT_3D ( 'NONE', #508, #1019, #178 ) ;
#48 = DIRECTION ( 'NONE',  ( 0.000000000000000000, 0.000000000000000000, 1.000000000000000000 ) ) ;
#49 = VECTOR ( 'NONE', #1002, 1000.000000000000000 ) ;
#50 = FACE_OUTER_BOUND ( 'NONE', #618, .T. ) ;
#51 = ADVANCED_FACE ( 'NONE', ( #593 ), #937, .F. ) ;
#52 = ORIENTED_EDGE ( 'NONE', *, *, #980, .F. ) ;
#53 = APPROVAL_DATE_TIME ( #956, #736 ) ;
#54 = DIRECTION ( 'NONE',  ( -0.000000000000000000, 1.000000000000000000, -0.000000000000000000 ) ) ;
#55 = DIRECTION ( 'NONE',  ( 0.000000000000000000, 0.000000000000000000, 1.000000000000000000 ) ) ;
#56 = VERTEX_POINT ( 'NONE', #774 ) ;
#57 = VERTEX_POINT ( 'NONE', #954 ) ;
#58 = DIRECTION ( 'NONE',  ( -1.000000000000000000, 0.000000000000000000, 0.000000000000000000 ) ) ;
#59 = DIRECTION ( 'NONE',  ( -0.000000000000000000, 1.000000000000000000, -0.000000000000000000 ) ) ;
#60 = ORIENTED_EDGE ( 'NONE', *, *, #725, .T. ) ;
#61 = VERTEX_POINT ( 'NONE', #1020 ) ;
#62 = CARTESIAN_POINT ( 'NONE',  ( 64.15000000000000568, -2.000000000000000000, -17.50000000000000711 ) ) ;
#63 = AXIS2_PLACEMENT_3D ( 'NONE', #741, #413, #748 ) ;
#64 = DIRECTION ( 'NONE',  ( -1.000000000000000000, 0.000000000000000000, 0.000000000000000000 ) ) ;
#65 = VECTOR ( 'NONE', #1067, 1000.000000000000000 ) ;
#66 = EDGE_CURVE ( 'NONE', #340, #153, #757, .T. ) ;
#67 = AXIS2_PLACEMENT_3D ( 'NONE', #694, #592, #930 ) ;
#68 = ORIENTED_EDGE ( 'NONE', *, *, #786, .F. ) ;
#69 = LINE ( 'NONE', #746, #1074 ) ;
#70 = DIRECTION ( 'NONE',  ( -1.000000000000000000, 0.000000000000000000, 0.000000000000000000 ) ) ;
#71 = ORIENTED_EDGE ( 'NONE', *, *, #975, .F. ) ;
#72 = LINE ( 'NONE', #181, #429 ) ;
#73 = DIRECTION ( 'NONE',  ( 0.000000000000000000, 0.000000000000000000, 1.000000000000000000 ) ) ;
#74 = ORIENTED_EDGE ( 'NONE', *, *, #944, .T. ) ;
#75 = DIRECTION ( 'NONE',  ( 0.000000000000000000, 1.000000000000000000, 0.000000000000000000 ) ) ;
#76 = EDGE_CURVE ( 'NONE', #625, #376, #606, .T. ) ;
#77 = PLANE ( 'NONE',  #156 ) ;
#78 = VECTOR ( 'NONE', #193, 1000.000000000000000 ) ;
#79 = ORIENTED_EDGE ( 'NONE', *, *, #627, .T. ) ;
#80 = VECTOR ( 'NONE', #305, 1000.000000000000000 ) ;
#81 = VERTEX_POINT ( 'NONE', #779 ) ;
#82 = CYLINDRICAL_SURFACE ( 'NONE', #622, 1.999999999999988010 ) ;
#83 = APPLICATION_CONTEXT ( 'configuration controlled 3d designs of mechanical parts and assemblies' ) ;
#84 = FACE_OUTER_BOUND ( 'NONE', #1075, .T. ) ;
#85 = ORIENTED_EDGE ( 'NONE', *, *, #242, .T. ) ;
#86 = CC_DESIGN_PERSON_AND_ORGANIZATION_ASSIGNMENT ( #122, #27, ( #971 ) ) ;
#87 = ORIENTED_EDGE ( 'NONE', *, *, #66, .F. ) ;
#88 = LINE ( 'NONE', #439, #26 ) ;
#89 = PLANE ( 'NONE',  #137 ) ;
#90 = EDGE_CURVE ( 'NONE', #787, #826, #676, .T. ) ;
#91 = DIRECTION ( 'NONE',  ( -0.000000000000000000, 0.000000000000000000, -1.000000000000000000 ) ) ;
#92 = ADVANCED_FACE ( 'NONE', ( #189, #437, #360, #510, #4, #24, #518 ), #931, .F. ) ;
#93 = ORIENTED_EDGE ( 'NONE', *, *, #617, .T. ) ;
#94 = CARTESIAN_POINT ( 'NONE',  ( 61.65000000000001990, -2.000000000000000000, -6.750000000000013323 ) ) ;
#95 = FACE_OUTER_BOUND ( 'NONE', #922, .T. ) ;
#96 = CARTESIAN_POINT ( 'NONE',  ( 64.15000000000000568, -2.000000000000000000, -10.74999999999998934 ) ) ;
#97 = CIRCLE ( 'NONE', #1046, 3.000000000000002665 ) ;
#98 = AXIS2_PLACEMENT_3D ( 'NONE', #408, #234, #651 ) ;
#99 = VERTEX_POINT ( 'NONE', #689 ) ;
#100 = DIRECTION ( 'NONE',  ( -0.000000000000000000, 1.000000000000000000, -0.000000000000000000 ) ) ;
#101 = CARTESIAN_POINT ( 'NONE',  ( 61.65000000000001990, -2.000000000000000000, -8.750000000000000000 ) ) ;
#102 = DIRECTION ( 'NONE',  ( 0.000000000000000000, 1.000000000000000000, 0.000000000000000000 ) ) ;
#103 = EDGE_LOOP ( 'NONE', ( #381, #297 ) ) ;
#104 = LINE ( 'NONE', #682, #222 ) ;
#105 = CARTESIAN_POINT ( 'NONE',  ( 64.15000000000000568, -2.000000000000000000, 10.74999999999998934 ) ) ;
#106 = CARTESIAN_POINT ( 'NONE',  ( 61.65000000000001990, 0.000000000000000000, -10.74999999999998934 ) ) ;
#107 = AXIS2_PLACEMENT_3D ( 'NONE', #891, #879, #45 ) ;
#108 = ORIENTED_EDGE ( 'NONE', *, *, #32, .F. ) ;
#109 = DIRECTION ( 'NONE',  ( -0.000000000000000000, 1.000000000000000000, -0.000000000000000000 ) ) ;
#110 = VERTEX_POINT ( 'NONE', #522 ) ;
#111 = EDGE_CURVE ( 'NONE', #340, #873, #846, .T. ) ;
#112 = CARTESIAN_POINT ( 'NONE',  ( -67.14999999999999147, -2.000000000000000000, -14.50000000000000533 ) ) ;
#113 = DIRECTION ( 'NONE',  ( 0.000000000000000000, 1.000000000000000000, 0.000000000000000000 ) ) ;
#114 = CIRCLE ( 'NONE', #462, 1.999999999999988010 ) ;
#115 = ORIENTED_EDGE ( 'NONE', *, *, #1078, .T. ) ;
#116 = ADVANCED_FACE ( 'NONE', ( #279 ), #610, .T. ) ;
#117 = VECTOR ( 'NONE', #896, 1000.000000000000000 ) ;
#118 = FACE_OUTER_BOUND ( 'NONE', #478, .T. ) ;
#119 = AXIS2_PLACEMENT_3D ( 'NONE', #296, #637, #720 ) ;
#120 = CARTESIAN_POINT ( 'NONE',  ( 58.65000000000001279, -2.000000000000000000, -10.74999999999998934 ) ) ;
#121 = ORIENTED_EDGE ( 'NONE', *, *, #151, .F. ) ;
#122 = PERSON_AND_ORGANIZATION ( #316, #808 ) ;
#123 = CC_DESIGN_PERSON_AND_ORGANIZATION_ASSIGNMENT ( #537, #203, ( #185 ) ) ;
#124 = ORIENTED_EDGE ( 'NONE', *, *, #711, .T. ) ;
#125 = FACE_OUTER_BOUND ( 'NONE', #582, .T. ) ;
#126 = DIRECTION ( 'NONE',  ( 0.000000000000000000, 0.000000000000000000, 1.000000000000000000 ) ) ;
#127 = EDGE_CURVE ( 'NONE', #916, #667, #623, .T. ) ;
#128 = VERTEX_POINT ( 'NONE', #863 ) ;
#129 = APPROVAL_DATE_TIME ( #965, #987 ) ;
#130 = LOCAL_TIME ( 17, 7, 7.000000000000000000, #698 ) ;
#131 = ORIENTED_EDGE ( 'NONE', *, *, #232, .F. ) ;
#132 = CARTESIAN_POINT ( 'NONE',  ( -64.14999999999999147, 0.000000000000000000, -17.50000000000000711 ) ) ;
#133 = DIRECTION ( 'NONE',  ( 0.000000000000000000, 1.000000000000000000, 0.000000000000000000 ) ) ;
#134 = ADVANCED_FACE ( 'NONE', ( #446 ), #31, .F. ) ;
#135 = VERTEX_POINT ( 'NONE', #616 ) ;
#136 = APPROVAL_STATUS ( 'not_yet_approved' ) ;
#137 = AXIS2_PLACEMENT_3D ( 'NONE', #23, #359, #1029 ) ;
#138 = DIRECTION ( 'NONE',  ( 1.000000000000000000, 0.000000000000000000, -0.000000000000000000 ) ) ;
#139 = VECTOR ( 'NONE', #811, 1000.000000000000000 ) ;
#140 = AXIS2_PLACEMENT_3D ( 'NONE', #419, #531, #945 ) ;
#141 = CARTESIAN_POINT ( 'NONE',  ( -58.64999999999998437, 0.000000000000000000, -10.74999999999998934 ) ) ;
#142 = ORIENTED_EDGE ( 'NONE', *, *, #772, .T. ) ;
#143 = APPLICATION_PROTOCOL_DEFINITION ( 'international standard', 'config_control_design', 1994, #83 ) ;
#144 = EDGE_LOOP ( 'NONE', ( #958, #374, #142, #607 ) ) ;
#145 = CARTESIAN_POINT ( 'NONE',  ( 1.947188410644290197E-15, 1.310372075087664981E-15, 4.400000000000010125 ) ) ;
#146 = CARTESIAN_POINT ( 'NONE',  ( 0.000000000000000000, 1.310372075087664981E-15, -8.599999999999999645 ) ) ;
#147 = ORIENTED_EDGE ( 'NONE', *, *, #516, .F. ) ;
#148 = APPROVAL_PERSON_ORGANIZATION ( #375, #736, #528 ) ;
#149 = ORIENTED_EDGE ( 'NONE', *, *, #422, .T. ) ;
#150 = CARTESIAN_POINT ( 'NONE',  ( -61.64999999999999147, 1.310372075087664981E-15, -6.750000000000013323 ) ) ;
#151 = EDGE_CURVE ( 'NONE', #376, #357, #1035, .T. ) ;
#152 = CYLINDRICAL_SURFACE ( 'NONE', #624, 3.000000000000002665 ) ;
#153 = VERTEX_POINT ( 'NONE', #120 ) ;
#154 = DIRECTION ( 'NONE',  ( 1.000000000000000000, -0.000000000000000000, -0.000000000000000000 ) ) ;
#155 = ADVANCED_FACE ( 'NONE', ( #355 ), #684, .F. ) ;
#156 = AXIS2_PLACEMENT_3D ( 'NONE', #161, #333, #490 ) ;
#157 = CARTESIAN_POINT ( 'NONE',  ( -61.64999999999999147, 0.000000000000000000, -8.750000000000000000 ) ) ;
#158 = AXIS2_PLACEMENT_3D ( 'NONE', #484, #819, #573 ) ;
#159 = ORIENTED_EDGE ( 'NONE', *, *, #538, .F. ) ;
#160 = CYLINDRICAL_SURFACE ( 'NONE', #605, 3.000000000000002665 ) ;
#161 = CARTESIAN_POINT ( 'NONE',  ( 58.65000000000001279, 0.000000000000000000, -10.74999999999998934 ) ) ;
#162 = ADVANCED_FACE ( 'NONE', ( #184 ), #430, .T. ) ;
#163 = EDGE_CURVE ( 'NONE', #638, #810, #747, .T. ) ;
#164 = VERTEX_POINT ( 'NONE', #288 ) ;
#165 = DIRECTION ( 'NONE',  ( 0.000000000000000000, 1.000000000000000000, 0.000000000000000000 ) ) ;
#166 =( GEOMETRIC_REPRESENTATION_CONTEXT ( 3 ) GLOBAL_UNCERTAINTY_ASSIGNED_CONTEXT ( ( #911 ) ) GLOBAL_UNIT_ASSIGNED_CONTEXT ( ( #221, #449, #383 ) ) REPRESENTATION_CONTEXT ( 'NONE', 'WORKASPACE' ) );
#167 = DIRECTION ( 'NONE',  ( 0.000000000000000000, 1.000000000000000000, 0.000000000000000000 ) ) ;
#168 = CARTESIAN_POINT ( 'NONE',  ( 67.15000000000001990, -2.000000000000000000, -14.50000000000000533 ) ) ;
#169 = EDGE_CURVE ( 'NONE', #153, #477, #362, .T. ) ;
#170 = ORIENTED_EDGE ( 'NONE', *, *, #1018, .T. ) ;
#171 = CARTESIAN_POINT ( 'NONE',  ( -61.64999999999998437, -2.000000000000000000, -10.74999999999998934 ) ) ;
#172 = CARTESIAN_POINT ( 'NONE',  ( 1.702259050814820689E-15, 1.310372075087664981E-15, 8.399999999999989697 ) ) ;
#173 = VECTOR ( 'NONE', #287, 1000.000000000000000 ) ;
#174 = CARTESIAN_POINT ( 'NONE',  ( 64.15000000000000568, -2.000000000000000000, 17.50000000000000000 ) ) ;
#175 = CIRCLE ( 'NONE', #5, 1.999999999999988010 ) ;
#176 = ORIENTED_EDGE ( 'NONE', *, *, #812, .F. ) ;
#177 = DIRECTION ( 'NONE',  ( 1.000000000000000000, -0.000000000000000000, -0.000000000000000000 ) ) ;
#178 = DIRECTION ( 'NONE',  ( 0.000000000000000000, 0.000000000000000000, -1.000000000000000000 ) ) ;
#179 = ORIENTED_EDGE ( 'NONE', *, *, #402, .F. ) ;
#180 = EDGE_LOOP ( 'NONE', ( #951, #946, #886, #672 ) ) ;
#181 = CARTESIAN_POINT ( 'NONE',  ( -67.14999999999999147, -2.000000000000000000, -14.50000000000000533 ) ) ;
#182 = CARTESIAN_POINT ( 'NONE',  ( -58.64999999999998437, 0.000000000000000000, 10.75000000000005151 ) ) ;
#183 = EDGE_CURVE ( 'NONE', #739, #577, #981, .T. ) ;
#184 = FACE_OUTER_BOUND ( 'NONE', #319, .T. ) ;
#185 = PRODUCT_DEFINITION_FORMATION_WITH_SPECIFIED_SOURCE ( 'ANY', '', #356, .NOT_KNOWN. ) ;
#186 = EDGE_LOOP ( 'NONE', ( #121, #1062, #884, #170 ) ) ;
#187 = DIRECTION ( 'NONE',  ( 0.000000000000000000, 1.000000000000000000, 0.000000000000000000 ) ) ;
#188 = CARTESIAN_POINT ( 'NONE',  ( -58.64999999999998437, -2.000000000000000000, -8.750000000000000000 ) ) ;
#189 = FACE_BOUND ( 'NONE', #1085, .T. ) ;
#190 = VECTOR ( 'NONE', #440, 1000.000000000000000 ) ;
#191 = AXIS2_PLACEMENT_3D ( 'NONE', #719, #700, #977 ) ;
#192 = ORIENTED_EDGE ( 'NONE', *, *, #211, .F. ) ;
#193 = DIRECTION ( 'NONE',  ( 0.000000000000000000, 1.000000000000000000, 0.000000000000000000 ) ) ;
#194 = CYLINDRICAL_SURFACE ( 'NONE', #621, 1.999999999999988010 ) ;
#195 = DIRECTION ( 'NONE',  ( 0.000000000000000000, -0.000000000000000000, 1.000000000000000000 ) ) ;
#196 = ADVANCED_FACE ( 'NONE', ( #50 ), #648, .F. ) ;
#197 = ORIENTED_EDGE ( 'NONE', *, *, #627, .F. ) ;
#198 = DIRECTION ( 'NONE',  ( 0.000000000000000000, 1.000000000000000000, 0.000000000000000000 ) ) ;
#199 = LINE ( 'NONE', #1034, #604 ) ;
#200 = DIRECTION ( 'NONE',  ( 0.000000000000000000, 0.000000000000000000, 1.000000000000000000 ) ) ;
#201 = ADVANCED_FACE ( 'NONE', ( #551 ), #386, .F. ) ;
#202 = ORIENTED_EDGE ( 'NONE', *, *, #111, .T. ) ;
#203 = PERSON_AND_ORGANIZATION_ROLE ( 'design_supplier' ) ;
#204 = LINE ( 'NONE', #715, #688 ) ;
#205 = CARTESIAN_POINT ( 'NONE',  ( -64.14999999999999147, -2.000000000000000000, 14.49999999999999822 ) ) ;
#206 = ORIENTED_EDGE ( 'NONE', *, *, #246, .F. ) ;
#207 = COORDINATED_UNIVERSAL_TIME_OFFSET ( 5, 30, .AHEAD. ) ;
#208 = EDGE_CURVE ( 'NONE', #766, #739, #888, .T. ) ;
#209 = ORIENTED_EDGE ( 'NONE', *, *, #470, .T. ) ;
#210 = LINE ( 'NONE', #801, #1044 ) ;
#211 = EDGE_CURVE ( 'NONE', #864, #473, #978, .T. ) ;
#212 = CARTESIAN_POINT ( 'NONE',  ( 58.65000000000000568, -2.000000000000000000, 10.74999999999998934 ) ) ;
#213 = ORIENTED_EDGE ( 'NONE', *, *, #1023, .F. ) ;
#214 = DIRECTION ( 'NONE',  ( -1.000000000000000000, -0.000000000000000000, -0.000000000000000000 ) ) ;
#215 = EDGE_CURVE ( 'NONE', #135, #873, #312, .T. ) ;
#216 = DIRECTION ( 'NONE',  ( -0.000000000000000000, 1.000000000000000000, -0.000000000000000000 ) ) ;
#217 = ORIENTED_EDGE ( 'NONE', *, *, #785, .T. ) ;
#218 = FACE_OUTER_BOUND ( 'NONE', #600, .T. ) ;
#219 = DIRECTION ( 'NONE',  ( 0.000000000000000000, 0.000000000000000000, 1.000000000000000000 ) ) ;
#220 = DIRECTION ( 'NONE',  ( -1.000000000000000000, 0.000000000000000000, 0.000000000000000000 ) ) ;
#221 =( LENGTH_UNIT ( ) NAMED_UNIT ( * ) SI_UNIT ( .MILLI., .METRE. ) );
#222 = VECTOR ( 'NONE', #941, 1000.000000000000000 ) ;
#223 = VERTEX_POINT ( 'NONE', #557 ) ;
#224 = CARTESIAN_POINT ( 'NONE',  ( 67.15000000000001990, 0.000000000000000000, -14.50000000000000533 ) ) ;
#225 = VECTOR ( 'NONE', #899, 1000.000000000000000 ) ;
#226 = DIRECTION ( 'NONE',  ( 0.000000000000000000, 0.000000000000000000, 1.000000000000000000 ) ) ;
#227 = ORIENTED_EDGE ( 'NONE', *, *, #262, .F. ) ;
#228 = EDGE_CURVE ( 'NONE', #81, #299, #835, .T. ) ;
#229 = VERTEX_POINT ( 'NONE', #541 ) ;
#230 = CARTESIAN_POINT ( 'NONE',  ( 58.65000000000000568, 0.000000000000000000, 8.750000000000000000 ) ) ;
#231 = DIRECTION ( 'NONE',  ( 0.000000000000000000, 0.000000000000000000, -1.000000000000000000 ) ) ;
#232 = EDGE_CURVE ( 'NONE', #770, #759, #968, .T. ) ;
#233 = ORIENTED_EDGE ( 'NONE', *, *, #111, .F. ) ;
#234 = DIRECTION ( 'NONE',  ( -0.000000000000000000, 1.000000000000000000, -0.000000000000000000 ) ) ;
#235 = FACE_OUTER_BOUND ( 'NONE', #703, .T. ) ;
#236 = ORIENTED_EDGE ( 'NONE', *, *, #1016, .T. ) ;
#237 = LINE ( 'NONE', #901, #328 ) ;
#238 = CIRCLE ( 'NONE', #675, 1.999999999999988010 ) ;
#239 = EDGE_CURVE ( 'NONE', #81, #459, #642, .T. ) ;
#240 = FACE_OUTER_BOUND ( 'NONE', #527, .T. ) ;
#241 = AXIS2_PLACEMENT_3D ( 'NONE', #608, #771, #276 ) ;
#242 = EDGE_CURVE ( 'NONE', #57, #625, #645, .T. ) ;
#243 = AXIS2_PLACEMENT_3D ( 'NONE', #368, #696, #19 ) ;
#244 = ORIENTED_EDGE ( 'NONE', *, *, #776, .F. ) ;
#245 = DIRECTION ( 'NONE',  ( 1.000000000000000000, -0.000000000000000000, -0.000000000000000000 ) ) ;
#246 = EDGE_CURVE ( 'NONE', #874, #57, #807, .T. ) ;
#247 = CARTESIAN_POINT ( 'NONE',  ( 61.65000000000001279, 0.000000000000000000, 6.750000000000013323 ) ) ;
#248 = DIRECTION ( 'NONE',  ( 0.000000000000000000, 1.000000000000000000, 0.000000000000000000 ) ) ;
#249 = ORIENTED_EDGE ( 'NONE', *, *, #695, .T. ) ;
#250 = DIRECTION ( 'NONE',  ( 0.000000000000000000, -1.000000000000000000, 0.000000000000000000 ) ) ;
#251 = DIRECTION ( 'NONE',  ( -0.000000000000000000, 1.000000000000000000, -0.000000000000000000 ) ) ;
#252 = ORIENTED_EDGE ( 'NONE', *, *, #902, .T. ) ;
#253 = VERTEX_POINT ( 'NONE', #212 ) ;
#254 = CARTESIAN_POINT ( 'NONE',  ( 58.65000000000000568, 1.310372075087664981E-15, 6.750000000000013323 ) ) ;
#255 = DIRECTION ( 'NONE',  ( -0.000000000000000000, 1.000000000000000000, -0.000000000000000000 ) ) ;
#256 = AXIS2_PLACEMENT_3D ( 'NONE', #574, #1008, #64 ) ;
#257 = AXIS2_PLACEMENT_3D ( 'NONE', #503, #755, #2 ) ;
#258 = ORIENTED_EDGE ( 'NONE', *, *, #127, .F. ) ;
#259 = CIRCLE ( 'NONE', #67, 1.999999999999988010 ) ;
#260 = ORIENTED_EDGE ( 'NONE', *, *, #576, .F. ) ;
#261 = DIRECTION ( 'NONE',  ( -0.000000000000000000, 1.000000000000000000, -0.000000000000000000 ) ) ;
#262 = EDGE_CURVE ( 'NONE', #634, #722, #175, .T. ) ;
#263 = DIRECTION ( 'NONE',  ( 0.000000000000000000, -1.000000000000000000, 0.000000000000000000 ) ) ;
#264 = CARTESIAN_POINT ( 'NONE',  ( -67.14999999999999147, 0.000000000000000000, -14.50000000000000533 ) ) ;
#265 = VERTEX_POINT ( 'NONE', #457 ) ;
#266 = CYLINDRICAL_SURFACE ( 'NONE', #1061, 3.000000000000002665 ) ;
#267 = CARTESIAN_POINT ( 'NONE',  ( -58.64999999999998437, 1.310372075087664981E-15, -10.74999999999998934 ) ) ;
#268 = DIRECTION ( 'NONE',  ( 0.000000000000000000, 0.000000000000000000, 1.000000000000000000 ) ) ;
#269 = ORIENTED_EDGE ( 'NONE', *, *, #581, .T. ) ;
#270 = CARTESIAN_POINT ( 'NONE',  ( -61.64999999999999147, -2.000000000000000000, 10.74999999999998934 ) ) ;
#271 = DIRECTION ( 'NONE',  ( 0.000000000000000000, 0.000000000000000000, 1.000000000000000000 ) ) ;
#272 = DIRECTION ( 'NONE',  ( -1.000000000000000000, 0.000000000000000000, 0.000000000000000000 ) ) ;
#273 = EDGE_CURVE ( 'NONE', #357, #33, #97, .T. ) ;
#274 = AXIS2_PLACEMENT_3D ( 'NONE', #304, #300, #36 ) ;
#275 = ORIENTED_EDGE ( 'NONE', *, *, #273, .F. ) ;
#276 = DIRECTION ( 'NONE',  ( 0.000000000000000000, 0.000000000000000000, 1.000000000000000000 ) ) ;
#277 = CARTESIAN_POINT ( 'NONE',  ( 64.15000000000000568, -2.000000000000000000, -14.50000000000000533 ) ) ;
#278 = EDGE_CURVE ( 'NONE', #99, #229, #532, .T. ) ;
#279 = FACE_OUTER_BOUND ( 'NONE', #1066, .T. ) ;
#280 = ORIENTED_EDGE ( 'NONE', *, *, #758, .F. ) ;
#281 = ORIENTED_EDGE ( 'NONE', *, *, #46, .T. ) ;
#282 = DIRECTION ( 'NONE',  ( 0.000000000000000000, 0.000000000000000000, 1.000000000000000000 ) ) ;
#283 = CARTESIAN_POINT ( 'NONE',  ( 58.65000000000000568, 0.000000000000000000, 10.74999999999998934 ) ) ;
#284 = EDGE_LOOP ( 'NONE', ( #717, #68, #249, #575 ) ) ;
#285 = COORDINATED_UNIVERSAL_TIME_OFFSET ( 5, 30, .AHEAD. ) ;
#286 = ADVANCED_FACE ( 'NONE', ( #469 ), #802, .T. ) ;
#287 = DIRECTION ( 'NONE',  ( -0.000000000000000000, 1.000000000000000000, -0.000000000000000000 ) ) ;
#288 = CARTESIAN_POINT ( 'NONE',  ( 61.65000000000001279, -2.000000000000000000, 10.74999999999998934 ) ) ;
#289 = VECTOR ( 'NONE', #13, 1000.000000000000000 ) ;
#290 = ORIENTED_EDGE ( 'NONE', *, *, #37, .F. ) ;
#291 = VECTOR ( 'NONE', #917, 1000.000000000000000 ) ;
#292 = VECTOR ( 'NONE', #248, 1000.000000000000000 ) ;
#293 = ORIENTED_EDGE ( 'NONE', *, *, #46, .F. ) ;
#294 = CARTESIAN_POINT ( 'NONE',  ( 61.65000000000001279, 0.000000000000000000, 10.74999999999998934 ) ) ;
#295 = AXIS2_PLACEMENT_3D ( 'NONE', #101, #525, #925 ) ;
#296 = CARTESIAN_POINT ( 'NONE',  ( 64.15000000000000568, -2.000000000000000000, 14.49999999999999822 ) ) ;
#297 = ORIENTED_EDGE ( 'NONE', *, *, #975, .T. ) ;
#298 = DATE_AND_TIME ( #639, #952 ) ;
#299 = VERTEX_POINT ( 'NONE', #475 ) ;
#300 = DIRECTION ( 'NONE',  ( -0.000000000000000000, 1.000000000000000000, -0.000000000000000000 ) ) ;
#301 = DIRECTION ( 'NONE',  ( -1.000000000000000000, -0.000000000000000000, -0.000000000000000000 ) ) ;
#302 = ORIENTED_EDGE ( 'NONE', *, *, #877, .T. ) ;
#303 = PERSON_AND_ORGANIZATION ( #316, #808 ) ;
#304 = CARTESIAN_POINT ( 'NONE',  ( -61.64999999999999147, 1.310372075087664981E-15, 8.750000000000000000 ) ) ;
#305 = DIRECTION ( 'NONE',  ( -0.000000000000000000, 1.000000000000000000, -0.000000000000000000 ) ) ;
#306 = EDGE_CURVE ( 'NONE', #128, #61, #907, .T. ) ;
#307 = ORIENTED_EDGE ( 'NONE', *, *, #516, .T. ) ;
#308 = CIRCLE ( 'NONE', #447, 3.000000000000009770 ) ;
#309 = EDGE_LOOP ( 'NONE', ( #632, #794, #559, #890 ) ) ;
#310 = CARTESIAN_POINT ( 'NONE',  ( 0.000000000000000000, 1.310372075087664981E-15, -6.600000000000010303 ) ) ;
#311 = VECTOR ( 'NONE', #1073, 1000.000000000000000 ) ;
#312 = LINE ( 'NONE', #452, #500 ) ;
#313 = ADVANCED_FACE ( 'NONE', ( #84 ), #317, .F. ) ;
#314 = ORIENTED_EDGE ( 'NONE', *, *, #617, .F. ) ;
#315 = CARTESIAN_POINT ( 'NONE',  ( -58.64999999999998437, 0.000000000000000000, 10.74999999999998934 ) ) ;
#316 = PERSON ( 'UNSPECIFIED', 'UNSPECIFIED', 'UNSPECIFIED', ('UNSPECIFIED'), ('UNSPECIFIED'), ('UNSPECIFIED') ) ;
#317 = CYLINDRICAL_SURFACE ( 'NONE', #566, 1.999999999999988010 ) ;
#318 = PRODUCT_RELATED_PRODUCT_CATEGORY ( 'detail', '', ( #356 ) ) ;
#319 = EDGE_LOOP ( 'NONE', ( #434, #658, #984, #364 ) ) ;
#320 = LINE ( 'NONE', #315, #291 ) ;
#321 = ADVANCED_FACE ( 'NONE', ( #828 ), #322, .T. ) ;
#322 = PLANE ( 'NONE',  #866 ) ;
#323 = ADVANCED_FACE ( 'NONE', ( #240 ), #152, .T. ) ;
#324 = ORIENTED_EDGE ( 'NONE', *, *, #743, .T. ) ;
#325 = FACE_OUTER_BOUND ( 'NONE', #488, .T. ) ;
#326 = AXIS2_PLACEMENT_3D ( 'NONE', #579, #652, #918 ) ;
#327 = LINE ( 'NONE', #820, #587 ) ;
#328 = VECTOR ( 'NONE', #154, 1000.000000000000000 ) ;
#329 = AXIS2_PLACEMENT_3D ( 'NONE', #708, #133, #219 ) ;
#330 = CARTESIAN_POINT ( 'NONE',  ( -64.14999999999999147, 0.000000000000000000, 17.50000000000000000 ) ) ;
#331 = ORIENTED_EDGE ( 'NONE', *, *, #511, .T. ) ;
#332 = CARTESIAN_POINT ( 'NONE',  ( -61.64999999999999147, 1.310372075087664981E-15, -10.74999999999998934 ) ) ;
#333 = DIRECTION ( 'NONE',  ( -0.000000000000000000, 0.000000000000000000, -1.000000000000000000 ) ) ;
#334 = EDGE_LOOP ( 'NONE', ( #1, #588, #926, #280 ) ) ;
#335 = ORIENTED_EDGE ( 'NONE', *, *, #825, .T. ) ;
#336 = CARTESIAN_POINT ( 'NONE',  ( -64.14999999999999147, 0.000000000000000000, 17.50000000000000000 ) ) ;
#337 = CARTESIAN_POINT ( 'NONE',  ( 61.65000000000001990, -2.000000000000000000, -10.74999999999998934 ) ) ;
#338 = VERTEX_POINT ( 'NONE', #1071 ) ;
#339 = CC_DESIGN_PERSON_AND_ORGANIZATION_ASSIGNMENT ( #303, #613, ( #356 ) ) ;
#340 = VERTEX_POINT ( 'NONE', #337 ) ;
#341 = CARTESIAN_POINT ( 'NONE',  ( -64.14999999999999147, 0.000000000000000000, -17.50000000000000711 ) ) ;
#342 = CARTESIAN_POINT ( 'NONE',  ( 58.65000000000000568, 0.000000000000000000, 6.750000000000013323 ) ) ;
#343 = CIRCLE ( 'NONE', #98, 1.999999999999989564 ) ;
#344 = CARTESIAN_POINT ( 'NONE',  ( -58.64999999999998437, 0.000000000000000000, 8.750000000000000000 ) ) ;
#345 = CIRCLE ( 'NONE', #140, 1.999999999999988010 ) ;
#346 = AXIS2_PLACEMENT_3D ( 'NONE', #277, #423, #609 ) ;
#347 = ORIENTED_EDGE ( 'NONE', *, *, #151, .T. ) ;
#348 = DIRECTION ( 'NONE',  ( 0.000000000000000000, 0.000000000000000000, 1.000000000000000000 ) ) ;
#349 = LINE ( 'NONE', #105, #12 ) ;
#350 = DIRECTION ( 'NONE',  ( 1.000000000000000000, 0.000000000000000000, -0.000000000000000000 ) ) ;
#351 = ORIENTED_EDGE ( 'NONE', *, *, #1010, .F. ) ;
#352 = EDGE_CURVE ( 'NONE', #459, #721, #940, .T. ) ;
#353 = CARTESIAN_POINT ( 'NONE',  ( 61.65000000000001279, -2.000000000000000000, 8.750000000000000000 ) ) ;
#354 = CARTESIAN_POINT ( 'NONE',  ( -61.64999999999999147, 0.000000000000000000, 10.74999999999998934 ) ) ;
#355 = FACE_OUTER_BOUND ( 'NONE', #180, .T. ) ;
#356 = PRODUCT ( 'base_Default_sldprt', 'base_Default_sldprt', '', ( #34 ) ) ;
#357 = VERTEX_POINT ( 'NONE', #405 ) ;
#358 = CARTESIAN_POINT ( 'NONE',  ( -64.14999999999999147, -2.000000000000000000, 14.49999999999999822 ) ) ;
#359 = DIRECTION ( 'NONE',  ( 0.000000000000000000, 0.000000000000000000, -1.000000000000000000 ) ) ;
#360 = FACE_BOUND ( 'NONE', #654, .T. ) ;
#361 = CIRCLE ( 'NONE', #979, 1.999999999999989564 ) ;
#362 = CIRCLE ( 'NONE', #329, 1.999999999999988010 ) ;
#363 = AXIS2_PLACEMENT_3D ( 'NONE', #701, #631, #1060 ) ;
#364 = ORIENTED_EDGE ( 'NONE', *, *, #37, .T. ) ;
#365 = COORDINATED_UNIVERSAL_TIME_OFFSET ( 5, 30, .AHEAD. ) ;
#366 = ORIENTED_EDGE ( 'NONE', *, *, #246, .T. ) ;
#367 = LINE ( 'NONE', #342, #728 ) ;
#368 = CARTESIAN_POINT ( 'NONE',  ( -61.64999999999999147, 0.000000000000000000, 10.74999999999998934 ) ) ;
#369 = ORIENTED_EDGE ( 'NONE', *, *, #163, .F. ) ;
#370 = APPROVAL_ROLE ( '' ) ;
#371 = DIRECTION ( 'NONE',  ( 0.000000000000000000, 0.000000000000000000, 1.000000000000000000 ) ) ;
#372 = DIRECTION ( 'NONE',  ( 0.000000000000000000, 0.000000000000000000, 1.000000000000000000 ) ) ;
#373 = ADVANCED_FACE ( 'NONE', ( #235 ), #1077, .F. ) ;
#374 = ORIENTED_EDGE ( 'NONE', *, *, #208, .T. ) ;
#375 = PERSON_AND_ORGANIZATION ( #316, #808 ) ;
#376 = VERTEX_POINT ( 'NONE', #735 ) ;
#377 = PRODUCT_DEFINITION_SHAPE ( 'NONE', 'NONE',  #1005 ) ;
#378 = CYLINDRICAL_SURFACE ( 'NONE', #850, 1.999999999999988010 ) ;
#379 = DIRECTION ( 'NONE',  ( 0.000000000000000000, -1.000000000000000000, 0.000000000000000000 ) ) ;
#380 = AXIS2_PLACEMENT_3D ( 'NONE', #687, #862, #1013 ) ;
#381 = ORIENTED_EDGE ( 'NONE', *, *, #228, .T. ) ;
#382 = CIRCLE ( 'NONE', #498, 1.999999999999988010 ) ;
#383 =( NAMED_UNIT ( * ) SI_UNIT ( $, .STERADIAN. ) SOLID_ANGLE_UNIT ( ) );
#384 = VECTOR ( 'NONE', #809, 1000.000000000000000 ) ;
#385 = CARTESIAN_POINT ( 'NONE',  ( -58.64999999999997726, 0.000000000000000000, 6.750000000000013323 ) ) ;
#386 = CYLINDRICAL_SURFACE ( 'NONE', #1030, 1.999999999999988010 ) ;
#387 = ORIENTED_EDGE ( 'NONE', *, *, #649, .T. ) ;
#388 = SECURITY_CLASSIFICATION_LEVEL ( 'unclassified' ) ;
#389 = CYLINDRICAL_SURFACE ( 'NONE', #191, 1.999999999999988010 ) ;
#390 = ADVANCED_FACE ( 'NONE', ( #487 ), #77, .F. ) ;
#391 = DIRECTION ( 'NONE',  ( 0.000000000000000000, 0.000000000000000000, 1.000000000000000000 ) ) ;
#392 = ORIENTED_EDGE ( 'NONE', *, *, #1050, .F. ) ;
#393 = EDGE_LOOP ( 'NONE', ( #1004, #799, #366, #10 ) ) ;
#394 = DIRECTION ( 'NONE',  ( 1.000000000000000000, 0.000000000000000000, 0.000000000000000000 ) ) ;
#395 = DIRECTION ( 'NONE',  ( 0.000000000000000000, 0.000000000000000000, 1.000000000000000000 ) ) ;
#396 = LINE ( 'NONE', #174, #311 ) ;
#397 = ORIENTED_EDGE ( 'NONE', *, *, #936, .F. ) ;
#398 = FACE_OUTER_BOUND ( 'NONE', #878, .T. ) ;
#399 = AXIS2_PLACEMENT_3D ( 'NONE', #344, #1025, #1014 ) ;
#400 = AXIS2_PLACEMENT_3D ( 'NONE', #752, #1084, #731 ) ;
#401 = CARTESIAN_POINT ( 'NONE',  ( 64.15000000000000568, 0.000000000000000000, -17.50000000000000711 ) ) ;
#402 = EDGE_CURVE ( 'NONE', #61, #759, #327, .T. ) ;
#403 = ORIENTED_EDGE ( 'NONE', *, *, #576, .T. ) ;
#404 = LINE ( 'NONE', #563, #798 ) ;
#405 = CARTESIAN_POINT ( 'NONE',  ( -67.14999999999999147, 0.000000000000000000, 14.49999999999999822 ) ) ;
#406 = CC_DESIGN_APPROVAL ( #987, ( #971 ) ) ;
#407 = ORIENTED_EDGE ( 'NONE', *, *, #547, .T. ) ;
#408 = CARTESIAN_POINT ( 'NONE',  ( 0.000000000000000000, 1.310372075087664981E-15, -8.599999999999999645 ) ) ;
#409 = LINE ( 'NONE', #480, #535 ) ;
#410 = ORIENTED_EDGE ( 'NONE', *, *, #538, .T. ) ;
#411 = CARTESIAN_POINT ( 'NONE',  ( 61.65000000000001990, 0.000000000000000000, -6.750000000000013323 ) ) ;
#412 = CIRCLE ( 'NONE', #1027, 1.999999999999988010 ) ;
#413 = DIRECTION ( 'NONE',  ( -0.000000000000000000, 1.000000000000000000, -0.000000000000000000 ) ) ;
#414 = VERTEX_POINT ( 'NONE', #999 ) ;
#415 = ORIENTED_EDGE ( 'NONE', *, *, #690, .F. ) ;
#416 = DIRECTION ( 'NONE',  ( 0.000000000000000000, -1.000000000000000000, 0.000000000000000000 ) ) ;
#417 = CYLINDRICAL_SURFACE ( 'NONE', #400, 1.999999999999988010 ) ;
#418 = EDGE_CURVE ( 'NONE', #955, #766, #114, .T. ) ;
#419 = CARTESIAN_POINT ( 'NONE',  ( -61.64999999999999147, -2.000000000000000000, 8.750000000000000000 ) ) ;
#420 = ORIENTED_EDGE ( 'NONE', *, *, #1050, .T. ) ;
#421 = CARTESIAN_POINT ( 'NONE',  ( 2.449293598294692609E-16, -2.000000000000000000, -10.59999999999998721 ) ) ;
#422 = EDGE_CURVE ( 'NONE', #110, #577, #670, .T. ) ;
#423 = DIRECTION ( 'NONE',  ( 0.000000000000000000, 1.000000000000000000, 0.000000000000000000 ) ) ;
#424 = VERTEX_POINT ( 'NONE', #1068 ) ;
#425 = ORIENTED_EDGE ( 'NONE', *, *, #1036, .F. ) ;
#426 = CARTESIAN_POINT ( 'NONE',  ( -61.64999999999999147, 1.310372075087664981E-15, -10.74999999999998934 ) ) ;
#427 = CARTESIAN_POINT ( 'NONE',  ( 67.15000000000001990, 0.000000000000000000, -14.50000000000000533 ) ) ;
#428 = CC_DESIGN_DATE_AND_TIME_ASSIGNMENT ( #788, #865, ( #971 ) ) ;
#429 = VECTOR ( 'NONE', #348, 1000.000000000000000 ) ;
#430 = PLANE ( 'NONE',  #996 ) ;
#431 = AXIS2_PLACEMENT_3D ( 'NONE', #283, #268, #350 ) ;
#432 = EDGE_CURVE ( 'NONE', #253, #766, #409, .T. ) ;
#433 = ADVANCED_FACE ( 'NONE', ( #666 ), #1003, .F. ) ;
#434 = ORIENTED_EDGE ( 'NONE', *, *, #511, .F. ) ;
#435 = DIRECTION ( 'NONE',  ( 0.000000000000000000, 0.000000000000000000, 1.000000000000000000 ) ) ;
#436 = CARTESIAN_POINT ( 'NONE',  ( 64.15000000000000568, -2.000000000000000000, -6.750000000000013323 ) ) ;
#437 = FACE_BOUND ( 'NONE', #103, .T. ) ;
#438 = ORIENTED_EDGE ( 'NONE', *, *, #821, .T. ) ;
#439 = CARTESIAN_POINT ( 'NONE',  ( 1.947188410644289802E-15, 0.000000000000000000, 4.400000000000011902 ) ) ;
#440 = DIRECTION ( 'NONE',  ( 0.000000000000000000, 1.000000000000000000, 0.000000000000000000 ) ) ;
#441 = DIRECTION ( 'NONE',  ( -0.000000000000000000, 1.000000000000000000, -0.000000000000000000 ) ) ;
#442 = EDGE_LOOP ( 'NONE', ( #650, #822, #258, #397, #782, #206, #314, #668 ) ) ;
#443 = CARTESIAN_POINT ( 'NONE',  ( -61.64999999999999147, 1.310372075087664981E-15, -8.750000000000000000 ) ) ;
#444 = EDGE_LOOP ( 'NONE', ( #425, #519, #966, #1081 ) ) ;
#445 = FACE_OUTER_BOUND ( 'NONE', #646, .T. ) ;
#446 = FACE_OUTER_BOUND ( 'NONE', #309, .T. ) ;
#447 = AXIS2_PLACEMENT_3D ( 'NONE', #1049, #882, #371 ) ;
#448 = EDGE_LOOP ( 'NONE', ( #495, #471, #233, #912 ) ) ;
#449 =( NAMED_UNIT ( * ) PLANE_ANGLE_UNIT ( ) SI_UNIT ( $, .RADIAN. ) );
#450 = ORIENTED_EDGE ( 'NONE', *, *, #15, .T. ) ;
#451 = LINE ( 'NONE', #1038, #173 ) ;
#452 = CARTESIAN_POINT ( 'NONE',  ( 58.65000000000001279, 1.310372075087664981E-15, -10.74999999999998934 ) ) ;
#453 = EDGE_CURVE ( 'NONE', #826, #473, #814, .T. ) ;
#454 = VERTEX_POINT ( 'NONE', #401 ) ;
#455 = CALENDAR_DATE ( 2025, 25, 12 ) ;
#456 = CARTESIAN_POINT ( 'NONE',  ( -61.64999999999999147, -2.000000000000000000, 6.750000000000013323 ) ) ;
#457 = CARTESIAN_POINT ( 'NONE',  ( 58.65000000000001279, 1.310372075087664981E-15, -6.750000000000013323 ) ) ;
#458 = CC_DESIGN_APPROVAL ( #736, ( #185 ) ) ;
#459 = VERTEX_POINT ( 'NONE', #172 ) ;
#460 = DIRECTION ( 'NONE',  ( 0.000000000000000000, 0.000000000000000000, 1.000000000000000000 ) ) ;
#461 = DIRECTION ( 'NONE',  ( 1.000000000000000000, -0.000000000000000000, -0.000000000000000000 ) ) ;
#462 = AXIS2_PLACEMENT_3D ( 'NONE', #660, #824, #914 ) ;
#463 = ORIENTED_EDGE ( 'NONE', *, *, #183, .T. ) ;
#464 = AXIS2_PLACEMENT_3D ( 'NONE', #868, #635, #48 ) ;
#465 = APPROVAL_DATE_TIME ( #298, #611 ) ;
#466 = ADVANCED_FACE ( 'NONE', ( #836 ), #417, .F. ) ;
#467 = VECTOR ( 'NONE', #837, 1000.000000000000000 ) ;
#468 = DIRECTION ( 'NONE',  ( 0.000000000000000000, 0.000000000000000000, 1.000000000000000000 ) ) ;
#469 = FACE_OUTER_BOUND ( 'NONE', #284, .T. ) ;
#470 = EDGE_CURVE ( 'NONE', #135, #153, #199, .T. ) ;
#471 = ORIENTED_EDGE ( 'NONE', *, *, #630, .T. ) ;
#472 = SHAPE_DEFINITION_REPRESENTATION ( #377, #599 ) ;
#473 = VERTEX_POINT ( 'NONE', #267 ) ;
#474 = CARTESIAN_POINT ( 'NONE',  ( 61.65000000000001279, 0.000000000000000000, 10.75000000000005151 ) ) ;
#475 = CARTESIAN_POINT ( 'NONE',  ( 1.947188410644289802E-15, -2.000000000000000000, 4.400000000000011902 ) ) ;
#476 = LOCAL_TIME ( 17, 7, 7.000000000000000000, #365 ) ;
#477 = VERTEX_POINT ( 'NONE', #948 ) ;
#478 = EDGE_LOOP ( 'NONE', ( #71, #881, #697, #892 ) ) ;
#479 = LINE ( 'NONE', #492, #139 ) ;
#480 = CARTESIAN_POINT ( 'NONE',  ( 58.65000000000000568, 0.000000000000000000, 10.74999999999998934 ) ) ;
#481 = ADVANCED_FACE ( 'NONE', ( #95 ), #194, .F. ) ;
#482 = VECTOR ( 'NONE', #75, 1000.000000000000000 ) ;
#483 = ORIENTED_EDGE ( 'NONE', *, *, #418, .F. ) ;
#484 = CARTESIAN_POINT ( 'NONE',  ( 0.000000000000000000, -2.000000000000000000, -8.599999999999999645 ) ) ;
#485 = VECTOR ( 'NONE', #441, 1000.000000000000000 ) ;
#486 = AXIS2_PLACEMENT_3D ( 'NONE', #629, #640, #460 ) ;
#487 = FACE_OUTER_BOUND ( 'NONE', #1006, .T. ) ;
#488 = EDGE_LOOP ( 'NONE', ( #260, #1015, #85, #523 ) ) ;
#489 = CARTESIAN_POINT ( 'NONE',  ( -64.14999999999999147, -2.000000000000000000, -14.50000000000000533 ) ) ;
#490 = DIRECTION ( 'NONE',  ( -1.000000000000000000, 0.000000000000000000, 0.000000000000000000 ) ) ;
#491 = ORIENTED_EDGE ( 'NONE', *, *, #418, .T. ) ;
#492 = CARTESIAN_POINT ( 'NONE',  ( 58.65000000000001279, 0.000000000000000000, -6.750000000000013323 ) ) ;
#493 = DIRECTION ( 'NONE',  ( -1.000000000000000000, 0.000000000000000000, 0.000000000000000000 ) ) ;
#494 = PLANE ( 'NONE',  #906 ) ;
#495 = ORIENTED_EDGE ( 'NONE', *, *, #841, .F. ) ;
#496 = DIRECTION ( 'NONE',  ( 0.000000000000000000, 0.000000000000000000, 1.000000000000000000 ) ) ;
#497 = EDGE_CURVE ( 'NONE', #1040, #340, #872, .T. ) ;
#498 = AXIS2_PLACEMENT_3D ( 'NONE', #524, #198, #861 ) ;
#499 = CARTESIAN_POINT ( 'NONE',  ( -58.64999999999998437, -2.000000000000000000, 8.750000000000000000 ) ) ;
#500 = VECTOR ( 'NONE', #461, 1000.000000000000000 ) ;
#501 = LINE ( 'NONE', #662, #292 ) ;
#502 = ORIENTED_EDGE ( 'NONE', *, *, #902, .F. ) ;
#503 = CARTESIAN_POINT ( 'NONE',  ( -61.64999999999999147, -2.000000000000000000, -8.750000000000000000 ) ) ;
#504 = DIRECTION ( 'NONE',  ( 1.000000000000000000, 0.000000000000000000, 0.000000000000000000 ) ) ;
#505 = EDGE_LOOP ( 'NONE', ( #324, #176, #775, #179 ) ) ;
#506 = VERTEX_POINT ( 'NONE', #840 ) ;
#507 = FACE_BOUND ( 'NONE', #628, .T. ) ;
#508 = CARTESIAN_POINT ( 'NONE',  ( -64.14999999999999147, 0.000000000000000000, -14.50000000000000533 ) ) ;
#509 = EDGE_CURVE ( 'NONE', #964, #223, #756, .T. ) ;
#510 = FACE_BOUND ( 'NONE', #749, .T. ) ;
#511 = EDGE_CURVE ( 'NONE', #56, #733, #777, .T. ) ;
#512 = ORIENTED_EDGE ( 'NONE', *, *, #772, .F. ) ;
#513 = DIRECTION ( 'NONE',  ( -0.000000000000000000, 1.000000000000000000, -0.000000000000000000 ) ) ;
#514 = CARTESIAN_POINT ( 'NONE',  ( 61.65000000000001279, 0.000000000000000000, 6.750000000000013323 ) ) ;
#515 = AXIS2_PLACEMENT_3D ( 'NONE', #1056, #226, #894 ) ;
#516 = EDGE_CURVE ( 'NONE', #612, #810, #521, .T. ) ;
#517 = VECTOR ( 'NONE', #250, 1000.000000000000000 ) ;
#518 = FACE_OUTER_BOUND ( 'NONE', #442, .T. ) ;
#519 = ORIENTED_EDGE ( 'NONE', *, *, #228, .F. ) ;
#520 = CARTESIAN_POINT ( 'NONE',  ( -61.64999999999999147, 0.000000000000000000, -6.750000000000013323 ) ) ;
#521 = LINE ( 'NONE', #935, #289 ) ;
#522 = CARTESIAN_POINT ( 'NONE',  ( 61.65000000000001279, -2.000000000000000000, 6.750000000000013323 ) ) ;
#523 = ORIENTED_EDGE ( 'NONE', *, *, #76, .T. ) ;
#524 = CARTESIAN_POINT ( 'NONE',  ( 1.702259050814820689E-15, -2.000000000000000000, 6.399999999999999467 ) ) ;
#525 = DIRECTION ( 'NONE',  ( 0.000000000000000000, 1.000000000000000000, 0.000000000000000000 ) ) ;
#526 = CARTESIAN_POINT ( 'NONE',  ( 64.15000000000000568, -2.000000000000000000, 14.49999999999999822 ) ) ;
#527 = EDGE_LOOP ( 'NONE', ( #16, #108, #745, #269 ) ) ;
#528 = APPROVAL_ROLE ( '' ) ;
#529 = ADVANCED_FACE ( 'NONE', ( #445 ), #1024, .F. ) ;
#530 = FACE_OUTER_BOUND ( 'NONE', #448, .T. ) ;
#531 = DIRECTION ( 'NONE',  ( 0.000000000000000000, 1.000000000000000000, 0.000000000000000000 ) ) ;
#532 = CIRCLE ( 'NONE', #119, 3.000000000000002665 ) ;
#533 = CIRCLE ( 'NONE', #158, 1.999999999999988010 ) ;
#534 = VECTOR ( 'NONE', #272, 1000.000000000000000 ) ;
#535 = VECTOR ( 'NONE', #255, 1000.000000000000000 ) ;
#536 = ORIENTED_EDGE ( 'NONE', *, *, #402, .T. ) ;
#537 = PERSON_AND_ORGANIZATION ( #316, #808 ) ;
#538 = EDGE_CURVE ( 'NONE', #424, #864, #238, .T. ) ;
#539 = EDGE_LOOP ( 'NONE', ( #1011, #369 ) ) ;
#540 = PLANE ( 'NONE',  #726 ) ;
#541 = CARTESIAN_POINT ( 'NONE',  ( 67.15000000000001990, -2.000000000000000000, 14.49999999999999822 ) ) ;
#542 = ORIENTED_EDGE ( 'NONE', *, *, #546, .T. ) ;
#543 = PERSON_AND_ORGANIZATION ( #316, #808 ) ;
#544 = LINE ( 'NONE', #132, #963 ) ;
#545 = CARTESIAN_POINT ( 'NONE',  ( -61.64999999999999147, 0.000000000000000000, 6.750000000000013323 ) ) ;
#546 = EDGE_CURVE ( 'NONE', #135, #265, #848, .T. ) ;
#547 = EDGE_CURVE ( 'NONE', #964, #128, #349, .T. ) ;
#548 = EDGE_LOOP ( 'NONE', ( #833, #1000, #780, #692 ) ) ;
#549 = DATE_TIME_ROLE ( 'creation_date' ) ;
#550 = CARTESIAN_POINT ( 'NONE',  ( 2.449293598294694581E-16, 1.310372075087664981E-15, -10.59999999999998899 ) ) ;
#551 = FACE_OUTER_BOUND ( 'NONE', #568, .T. ) ;
#552 = AXIS2_PLACEMENT_3D ( 'NONE', #353, #601, #761 ) ;
#553 = CARTESIAN_POINT ( 'NONE',  ( -58.64999999999998437, 0.000000000000000000, -6.750000000000013323 ) ) ;
#554 = APPROVAL_ROLE ( '' ) ;
#555 = VECTOR ( 'NONE', #379, 1000.000000000000000 ) ;
#556 = PLANE ( 'NONE',  #995 ) ;
#557 = CARTESIAN_POINT ( 'NONE',  ( -61.64999999999999147, 1.310372075087664981E-15, 10.74999999999998934 ) ) ;
#558 = LINE ( 'NONE', #553, #117 ) ;
#559 = ORIENTED_EDGE ( 'NONE', *, *, #895, .T. ) ;
#560 = DIRECTION ( 'NONE',  ( -0.000000000000000000, 1.000000000000000000, -0.000000000000000000 ) ) ;
#561 = CARTESIAN_POINT ( 'NONE',  ( 0.000000000000000000, 0.000000000000000000, -8.599999999999999645 ) ) ;
#562 = EDGE_LOOP ( 'NONE', ( #580, #663, #392, #35 ) ) ;
#563 = CARTESIAN_POINT ( 'NONE',  ( 64.15000000000000568, -2.000000000000000000, 6.750000000000013323 ) ) ;
#564 = EDGE_CURVE ( 'NONE', #477, #1040, #845, .T. ) ;
#565 = DIRECTION ( 'NONE',  ( 0.000000000000000000, 0.000000000000000000, 1.000000000000000000 ) ) ;
#566 = AXIS2_PLACEMENT_3D ( 'NONE', #990, #586, #1064 ) ;
#567 = VECTOR ( 'NONE', #783, 1000.000000000000000 ) ;
#568 = EDGE_LOOP ( 'NONE', ( #131, #60, #908, #293 ) ) ;
#569 = CARTESIAN_POINT ( 'NONE',  ( -67.14999999999999147, -2.000000000000000000, 14.49999999999999822 ) ) ;
#570 = AXIS2_PLACEMENT_3D ( 'NONE', #853, #113, #200 ) ;
#571 = CARTESIAN_POINT ( 'NONE',  ( 64.15000000000000568, -2.000000000000000000, 14.49999999999999822 ) ) ;
#572 = ORIENTED_EDGE ( 'NONE', *, *, #183, .F. ) ;
#573 = DIRECTION ( 'NONE',  ( 0.000000000000000000, 0.000000000000000000, 1.000000000000000000 ) ) ;
#574 = CARTESIAN_POINT ( 'NONE',  ( 58.65000000000000568, 0.000000000000000000, 6.750000000000013323 ) ) ;
#575 = ORIENTED_EDGE ( 'NONE', *, *, #32, .T. ) ;
#576 = EDGE_CURVE ( 'NONE', #1080, #376, #994, .T. ) ;
#577 = VERTEX_POINT ( 'NONE', #514 ) ;
#578 = CARTESIAN_POINT ( 'NONE',  ( 61.65000000000001990, 0.000000000000000000, -10.74999999999998934 ) ) ;
#579 = CARTESIAN_POINT ( 'NONE',  ( -58.64999999999998437, 1.310372075087664981E-15, -8.750000000000000000 ) ) ;
#580 = ORIENTED_EDGE ( 'NONE', *, *, #453, .F. ) ;
#581 = EDGE_CURVE ( 'NONE', #229, #56, #29, .T. ) ;
#582 = EDGE_LOOP ( 'NONE', ( #706, #714, #192, #159 ) ) ;
#583 = VECTOR ( 'NONE', #851, 1000.000000000000000 ) ;
#584 = DIRECTION ( 'NONE',  ( 0.000000000000000000, 0.000000000000000000, 1.000000000000000000 ) ) ;
#585 = CIRCLE ( 'NONE', #257, 1.999999999999988010 ) ;
#586 = DIRECTION ( 'NONE',  ( -0.000000000000000000, 1.000000000000000000, -0.000000000000000000 ) ) ;
#587 = VECTOR ( 'NONE', #70, 1000.000000000000000 ) ;
#588 = ORIENTED_EDGE ( 'NONE', *, *, #1065, .F. ) ;
#589 = ORIENTED_EDGE ( 'NONE', *, *, #702, .F. ) ;
#590 = FACE_BOUND ( 'NONE', #562, .T. ) ;
#591 = ADVANCED_FACE ( 'NONE', ( #773 ), #89, .T. ) ;
#592 = DIRECTION ( 'NONE',  ( -0.000000000000000000, 1.000000000000000000, -0.000000000000000000 ) ) ;
#593 = FACE_OUTER_BOUND ( 'NONE', #144, .T. ) ;
#594 = ORIENTED_EDGE ( 'NONE', *, *, #904, .F. ) ;
#595 = PLANE ( 'NONE',  #869 ) ;
#596 = LOCAL_TIME ( 17, 7, 7.000000000000000000, #207 ) ;
#597 = DIRECTION ( 'NONE',  ( -0.000000000000000000, 1.000000000000000000, -0.000000000000000000 ) ) ;
#598 = CARTESIAN_POINT ( 'NONE',  ( -61.64999999999999858, 0.000000000000000000, -6.750000000000019540 ) ) ;
#599 = ADVANCED_BREP_SHAPE_REPRESENTATION ( 'base_Default_sldprt', ( #1031, #107 ), #166 ) ;
#600 = EDGE_LOOP ( 'NONE', ( #74, #1058, #450, #415 ) ) ;
#601 = DIRECTION ( 'NONE',  ( 0.000000000000000000, 1.000000000000000000, 0.000000000000000000 ) ) ;
#602 = CC_DESIGN_PERSON_AND_ORGANIZATION_ASSIGNMENT ( #800, #626, ( #185 ) ) ;
#603 = DIRECTION ( 'NONE',  ( 1.000000000000000000, 0.000000000000000000, -0.000000000000000000 ) ) ;
#604 = VECTOR ( 'NONE', #679, 1000.000000000000000 ) ;
#605 = AXIS2_PLACEMENT_3D ( 'NONE', #489, #647, #823 ) ;
#606 = LINE ( 'NONE', #680, #816 ) ;
#607 = ORIENTED_EDGE ( 'NONE', *, *, #825, .F. ) ;
#608 = CARTESIAN_POINT ( 'NONE',  ( 0.000000000000000000, 0.000000000000000000, -8.599999999999999645 ) ) ;
#609 = DIRECTION ( 'NONE',  ( 0.000000000000000000, 0.000000000000000000, 1.000000000000000000 ) ) ;
#610 = CYLINDRICAL_SURFACE ( 'NONE', #570, 3.000000000000009770 ) ;
#611 = APPROVAL ( #713, 'UNSPECIFIED' ) ;
#612 = VERTEX_POINT ( 'NONE', #3 ) ;
#613 = PERSON_AND_ORGANIZATION_ROLE ( 'design_owner' ) ;
#614 = ORIENTED_EDGE ( 'NONE', *, *, #758, .T. ) ;
#615 = LINE ( 'NONE', #953, #567 ) ;
#616 = CARTESIAN_POINT ( 'NONE',  ( 58.65000000000001279, 1.310372075087664981E-15, -10.74999999999998934 ) ) ;
#617 = EDGE_CURVE ( 'NONE', #506, #874, #817, .T. ) ;
#618 = EDGE_LOOP ( 'NONE', ( #976, #236, #1021, #147 ) ) ;
#619 = LINE ( 'NONE', #960, #831 ) ;
#620 = DIRECTION ( 'NONE',  ( -0.000000000000000000, 1.000000000000000000, -0.000000000000000000 ) ) ;
#621 = AXIS2_PLACEMENT_3D ( 'NONE', #858, #597, #943 ) ;
#622 = AXIS2_PLACEMENT_3D ( 'NONE', #230, #560, #496 ) ;
#623 = CIRCLE ( 'NONE', #710, 3.000000000000002665 ) ;
#624 = AXIS2_PLACEMENT_3D ( 'NONE', #571, #167, #910 ) ;
#625 = VERTEX_POINT ( 'NONE', #112 ) ;
#626 = PERSON_AND_ORGANIZATION_ROLE ( 'creator' ) ;
#627 = EDGE_CURVE ( 'NONE', #955, #338, #367, .T. ) ;
#628 = EDGE_LOOP ( 'NONE', ( #227, #594, #1026, #699 ) ) ;
#629 = CARTESIAN_POINT ( 'NONE',  ( 61.65000000000001990, 0.000000000000000000, -8.750000000000000000 ) ) ;
#630 = EDGE_CURVE ( 'NONE', #414, #873, #259, .T. ) ;
#631 = DIRECTION ( 'NONE',  ( 0.000000000000000000, 1.000000000000000000, 0.000000000000000000 ) ) ;
#632 = ORIENTED_EDGE ( 'NONE', *, *, #509, .T. ) ;
#633 = CALENDAR_DATE ( 2025, 25, 12 ) ;
#634 = VERTEX_POINT ( 'NONE', #182 ) ;
#635 = DIRECTION ( 'NONE',  ( 0.000000000000000000, 1.000000000000000000, 0.000000000000000000 ) ) ;
#636 = ADVANCED_FACE ( 'NONE', ( #530 ), #967, .F. ) ;
#637 = DIRECTION ( 'NONE',  ( 0.000000000000000000, 1.000000000000000000, 0.000000000000000000 ) ) ;
#638 = VERTEX_POINT ( 'NONE', #550 ) ;
#639 = CALENDAR_DATE ( 2025, 25, 12 ) ;
#640 = DIRECTION ( 'NONE',  ( -0.000000000000000000, 1.000000000000000000, -0.000000000000000000 ) ) ;
#641 = CC_DESIGN_PERSON_AND_ORGANIZATION_ASSIGNMENT ( #543, #793, ( #1005 ) ) ;
#642 = LINE ( 'NONE', #1051, #982 ) ;
#643 = CIRCLE ( 'NONE', #778, 1.999999999999988010 ) ;
#644 = LINE ( 'NONE', #842, #384 ) ;
#645 = CIRCLE ( 'NONE', #691, 3.000000000000002665 ) ;
#646 = EDGE_LOOP ( 'NONE', ( #792, #1069, #1001, #754 ) ) ;
#647 = DIRECTION ( 'NONE',  ( 0.000000000000000000, 1.000000000000000000, 0.000000000000000000 ) ) ;
#648 = CYLINDRICAL_SURFACE ( 'NONE', #921, 1.999999999999988010 ) ;
#649 = EDGE_CURVE ( 'NONE', #454, #1080, #544, .T. ) ;
#650 = ORIENTED_EDGE ( 'NONE', *, *, #278, .F. ) ;
#651 = DIRECTION ( 'NONE',  ( 0.000000000000000000, 0.000000000000000000, 1.000000000000000000 ) ) ;
#652 = DIRECTION ( 'NONE',  ( -0.000000000000000000, 1.000000000000000000, -0.000000000000000000 ) ) ;
#653 = APPROVAL_PERSON_ORGANIZATION ( #885, #611, #554 ) ;
#654 = EDGE_LOOP ( 'NONE', ( #997, #410, #614, #115 ) ) ;
#655 = CARTESIAN_POINT ( 'NONE',  ( 0.000000000000000000, -2.000000000000000000, -8.599999999999999645 ) ) ;
#656 = CARTESIAN_POINT ( 'NONE',  ( -67.14999999999999147, -2.000000000000000000, -14.50000000000000533 ) ) ;
#657 = CIRCLE ( 'NONE', #464, 3.000000000000002665 ) ;
#658 = ORIENTED_EDGE ( 'NONE', *, *, #581, .F. ) ;
#659 = CARTESIAN_POINT ( 'NONE',  ( -61.64999999999999147, 0.000000000000000000, 10.75000000000005151 ) ) ;
#660 = CARTESIAN_POINT ( 'NONE',  ( 58.65000000000000568, 1.310372075087664981E-15, 8.750000000000000000 ) ) ;
#661 = EDGE_CURVE ( 'NONE', #838, #900, #615, .T. ) ;
#662 = CARTESIAN_POINT ( 'NONE',  ( 67.15000000000001990, -2.000000000000000000, -14.50000000000000533 ) ) ;
#663 = ORIENTED_EDGE ( 'NONE', *, *, #90, .F. ) ;
#664 = DIRECTION ( 'NONE',  ( -1.000000000000000000, 0.000000000000000000, 0.000000000000000000 ) ) ;
#665 = ADVANCED_FACE ( 'NONE', ( #218 ), #540, .F. ) ;
#666 = FACE_OUTER_BOUND ( 'NONE', #671, .T. ) ;
#667 = VERTEX_POINT ( 'NONE', #805 ) ;
#668 = ORIENTED_EDGE ( 'NONE', *, *, #43, .F. ) ;
#669 = DIRECTION ( 'NONE',  ( 0.000000000000000000, 1.000000000000000000, 0.000000000000000000 ) ) ;
#670 = LINE ( 'NONE', #247, #957 ) ;
#671 = EDGE_LOOP ( 'NONE', ( #149, #685, #79, #244 ) ) ;
#672 = ORIENTED_EDGE ( 'NONE', *, *, #306, .F. ) ;
#673 = FACE_BOUND ( 'NONE', #539, .T. ) ;
#674 = CARTESIAN_POINT ( 'NONE',  ( 58.65000000000001279, 0.000000000000000000, -6.750000000000013323 ) ) ;
#675 = AXIS2_PLACEMENT_3D ( 'NONE', #188, #683, #282 ) ;
#676 = LINE ( 'NONE', #598, #870 ) ;
#677 = ORIENTED_EDGE ( 'NONE', *, *, #352, .F. ) ;
#678 = FACE_BOUND ( 'NONE', #40, .T. ) ;
#679 = DIRECTION ( 'NONE',  ( 0.000000000000000000, -1.000000000000000000, 0.000000000000000000 ) ) ;
#680 = CARTESIAN_POINT ( 'NONE',  ( -67.14999999999999147, -2.000000000000000000, -14.50000000000000533 ) ) ;
#681 = EDGE_LOOP ( 'NONE', ( #677, #213 ) ) ;
#682 = CARTESIAN_POINT ( 'NONE',  ( 2.449293598294692116E-16, 0.000000000000000000, -10.59999999999998721 ) ) ;
#683 = DIRECTION ( 'NONE',  ( 0.000000000000000000, 1.000000000000000000, 0.000000000000000000 ) ) ;
#684 = CYLINDRICAL_SURFACE ( 'NONE', #399, 1.999999999999988010 ) ;
#685 = ORIENTED_EDGE ( 'NONE', *, *, #877, .F. ) ;
#686 = LINE ( 'NONE', #520, #744 ) ;
#687 = CARTESIAN_POINT ( 'NONE',  ( 58.65000000000001279, 1.310372075087664981E-15, -8.750000000000000000 ) ) ;
#688 = VECTOR ( 'NONE', #795, 1000.000000000000000 ) ;
#689 = CARTESIAN_POINT ( 'NONE',  ( 64.15000000000000568, -2.000000000000000000, 17.50000000000000000 ) ) ;
#690 = EDGE_CURVE ( 'NONE', #712, #424, #210, .T. ) ;
#691 = AXIS2_PLACEMENT_3D ( 'NONE', #784, #1039, #974 ) ;
#692 = ORIENTED_EDGE ( 'NONE', *, *, #630, .F. ) ;
#693 = ORIENTED_EDGE ( 'NONE', *, *, #66, .T. ) ;
#694 = CARTESIAN_POINT ( 'NONE',  ( 61.65000000000001990, 1.310372075087664981E-15, -8.750000000000000000 ) ) ;
#695 = EDGE_CURVE ( 'NONE', #667, #99, #204, .T. ) ;
#696 = DIRECTION ( 'NONE',  ( 0.000000000000000000, 0.000000000000000000, 1.000000000000000000 ) ) ;
#697 = ORIENTED_EDGE ( 'NONE', *, *, #1023, .T. ) ;
#698 = COORDINATED_UNIVERSAL_TIME_OFFSET ( 5, 30, .AHEAD. ) ;
#699 = ORIENTED_EDGE ( 'NONE', *, *, #812, .T. ) ;
#700 = DIRECTION ( 'NONE',  ( -0.000000000000000000, 1.000000000000000000, -0.000000000000000000 ) ) ;
#701 = CARTESIAN_POINT ( 'NONE',  ( 1.702259050814820689E-15, -2.000000000000000000, 6.399999999999999467 ) ) ;
#702 = EDGE_CURVE ( 'NONE', #733, #454, #308, .T. ) ;
#703 = EDGE_LOOP ( 'NONE', ( #1009, #420, #1033, #897 ) ) ;
#704 = APPROVAL_STATUS ( 'not_yet_approved' ) ;
#705 = ADVANCED_FACE ( 'NONE', ( #125 ), #378, .F. ) ;
#706 = ORIENTED_EDGE ( 'NONE', *, *, #15, .F. ) ;
#707 = CARTESIAN_POINT ( 'NONE',  ( -61.64999999999999147, 1.310372075087664981E-15, 6.750000000000013323 ) ) ;
#708 = CARTESIAN_POINT ( 'NONE',  ( 58.65000000000001279, -2.000000000000000000, -8.750000000000000000 ) ) ;
#709 = VECTOR ( 'NONE', #844, 1000.000000000000000 ) ;
#710 = AXIS2_PLACEMENT_3D ( 'NONE', #205, #950, #769 ) ;
#711 = EDGE_CURVE ( 'NONE', #789, #56, #657, .T. ) ;
#712 = VERTEX_POINT ( 'NONE', #973 ) ;
#713 = APPROVAL_STATUS ( 'not_yet_approved' ) ;
#714 = ORIENTED_EDGE ( 'NONE', *, *, #453, .T. ) ;
#715 = CARTESIAN_POINT ( 'NONE',  ( -64.14999999999999147, -2.000000000000000000, 17.50000000000000000 ) ) ;
#716 = DIRECTION ( 'NONE',  ( -0.000000000000000000, 1.000000000000000000, -0.000000000000000000 ) ) ;
#717 = ORIENTED_EDGE ( 'NONE', *, *, #938, .F. ) ;
#718 = APPLICATION_PROTOCOL_DEFINITION ( 'international standard', 'config_control_design', 1994, #830 ) ;
#719 = CARTESIAN_POINT ( 'NONE',  ( 1.702259050814820689E-15, 0.000000000000000000, 6.399999999999999467 ) ) ;
#720 = DIRECTION ( 'NONE',  ( 0.000000000000000000, 0.000000000000000000, 1.000000000000000000 ) ) ;
#721 = VERTEX_POINT ( 'NONE', #145 ) ;
#722 = VERTEX_POINT ( 'NONE', #385 ) ;
#723 = DIRECTION ( 'NONE',  ( 0.000000000000000000, 0.000000000000000000, 1.000000000000000000 ) ) ;
#724 = CARTESIAN_POINT ( 'NONE',  ( -61.64999999999999147, 0.000000000000000000, 8.750000000000000000 ) ) ;
#725 = EDGE_CURVE ( 'NONE', #770, #223, #815, .T. ) ;
#726 = AXIS2_PLACEMENT_3D ( 'NONE', #887, #468, #138 ) ;
#727 = ORIENTED_EDGE ( 'NONE', *, *, #306, .T. ) ;
#728 = VECTOR ( 'NONE', #263, 1000.000000000000000 ) ;
#729 = ORIENTED_EDGE ( 'NONE', *, *, #169, .F. ) ;
#730 = LINE ( 'NONE', #411, #942 ) ;
#731 = DIRECTION ( 'NONE',  ( 0.000000000000000000, 0.000000000000000000, 1.000000000000000000 ) ) ;
#732 = ADVANCED_FACE ( 'NONE', ( #118 ), #389, .F. ) ;
#733 = VERTEX_POINT ( 'NONE', #224 ) ;
#734 = LINE ( 'NONE', #1070, #49 ) ;
#735 = CARTESIAN_POINT ( 'NONE',  ( -67.14999999999999147, 0.000000000000000000, -14.50000000000000533 ) ) ;
#736 = APPROVAL ( #136, 'UNSPECIFIED' ) ;
#737 = APPROVAL_PERSON_ORGANIZATION ( #781, #987, #370 ) ;
#738 = ADVANCED_FACE ( 'NONE', ( #1059 ), #556, .F. ) ;
#739 = VERTEX_POINT ( 'NONE', #474 ) ;
#740 = CARTESIAN_POINT ( 'NONE',  ( -58.64999999999999147, 0.000000000000000000, -6.750000000000019540 ) ) ;
#741 = CARTESIAN_POINT ( 'NONE',  ( 1.702259050814820689E-15, 1.310372075087664981E-15, 6.399999999999999467 ) ) ;
#742 = CIRCLE ( 'NONE', #552, 1.999999999999988010 ) ;
#743 = EDGE_CURVE ( 'NONE', #61, #722, #451, .T. ) ;
#744 = VECTOR ( 'NONE', #513, 1000.000000000000000 ) ;
#745 = ORIENTED_EDGE ( 'NONE', *, *, #278, .T. ) ;
#746 = CARTESIAN_POINT ( 'NONE',  ( 58.65000000000001990, 0.000000000000000000, -6.750000000000019540 ) ) ;
#747 = CIRCLE ( 'NONE', #832, 1.999999999999989564 ) ;
#748 = DIRECTION ( 'NONE',  ( 0.000000000000000000, 0.000000000000000000, 1.000000000000000000 ) ) ;
#749 = EDGE_LOOP ( 'NONE', ( #727, #536, #281, #407 ) ) ;
#750 = EDGE_LOOP ( 'NONE', ( #25, #335, #1057, #860 ) ) ;
#751 = CARTESIAN_POINT ( 'NONE',  ( 64.15000000000000568, -2.000000000000000000, -17.50000000000000711 ) ) ;
#752 = CARTESIAN_POINT ( 'NONE',  ( 1.702259050814820689E-15, 0.000000000000000000, 6.399999999999999467 ) ) ;
#753 = ORIENTED_EDGE ( 'NONE', *, *, #938, .T. ) ;
#754 = ORIENTED_EDGE ( 'NONE', *, *, #564, .F. ) ;
#755 = DIRECTION ( 'NONE',  ( 0.000000000000000000, 1.000000000000000000, 0.000000000000000000 ) ) ;
#756 = LINE ( 'NONE', #354, #583 ) ;
#757 = LINE ( 'NONE', #96, #534 ) ;
#758 = EDGE_CURVE ( 'NONE', #864, #900, #619, .T. ) ;
#759 = VERTEX_POINT ( 'NONE', #456 ) ;
#760 = VECTOR ( 'NONE', #763, 1000.000000000000000 ) ;
#761 = DIRECTION ( 'NONE',  ( 0.000000000000000000, 0.000000000000000000, 1.000000000000000000 ) ) ;
#762 = AXIS2_PLACEMENT_3D ( 'NONE', #655, #1063, #989 ) ;
#763 = DIRECTION ( 'NONE',  ( -0.000000000000000000, -0.000000000000000000, -1.000000000000000000 ) ) ;
#764 = AXIS2_PLACEMENT_3D ( 'NONE', #499, #903, #993 ) ;
#765 = CARTESIAN_POINT ( 'NONE',  ( 67.15000000000001990, -2.000000000000000000, -14.50000000000000533 ) ) ;
#766 = VERTEX_POINT ( 'NONE', #41 ) ;
#767 = FACE_BOUND ( 'NONE', #681, .T. ) ;
#768 = CARTESIAN_POINT ( 'NONE',  ( 67.15000000000001990, -2.000000000000000000, 14.49999999999999822 ) ) ;
#769 = DIRECTION ( 'NONE',  ( 0.000000000000000000, 0.000000000000000000, -1.000000000000000000 ) ) ;
#770 = VERTEX_POINT ( 'NONE', #707 ) ;
#771 = DIRECTION ( 'NONE',  ( -0.000000000000000000, 1.000000000000000000, -0.000000000000000000 ) ) ;
#772 = EDGE_CURVE ( 'NONE', #739, #164, #1043, .T. ) ;
#773 = FACE_OUTER_BOUND ( 'NONE', #393, .T. ) ;
#774 = CARTESIAN_POINT ( 'NONE',  ( 67.15000000000001990, 0.000000000000000000, 14.49999999999999822 ) ) ;
#775 = ORIENTED_EDGE ( 'NONE', *, *, #232, .T. ) ;
#776 = EDGE_CURVE ( 'NONE', #110, #338, #404, .T. ) ;
#777 = LINE ( 'NONE', #427, #760 ) ;
#778 = AXIS2_PLACEMENT_3D ( 'NONE', #443, #261, #435 ) ;
#779 = CARTESIAN_POINT ( 'NONE',  ( 1.702259050814820689E-15, -2.000000000000000000, 8.399999999999987921 ) ) ;
#780 = ORIENTED_EDGE ( 'NONE', *, *, #215, .T. ) ;
#781 = PERSON_AND_ORGANIZATION ( #316, #808 ) ;
#782 = ORIENTED_EDGE ( 'NONE', *, *, #242, .F. ) ;
#783 = DIRECTION ( 'NONE',  ( 0.000000000000000000, -1.000000000000000000, 0.000000000000000000 ) ) ;
#784 = CARTESIAN_POINT ( 'NONE',  ( -64.14999999999999147, -2.000000000000000000, -14.50000000000000533 ) ) ;
#785 = EDGE_CURVE ( 'NONE', #874, #454, #827, .T. ) ;
#786 = EDGE_CURVE ( 'NONE', #667, #33, #985, .T. ) ;
#787 = VERTEX_POINT ( 'NONE', #150 ) ;
#788 = DATE_AND_TIME ( #455, #596 ) ;
#789 = VERTEX_POINT ( 'NONE', #913 ) ;
#790 = DIRECTION ( 'NONE',  ( -0.000000000000000000, 0.000000000000000000, -1.000000000000000000 ) ) ;
#791 = CARTESIAN_POINT ( 'NONE',  ( -64.14999999999999147, 0.000000000000000000, 14.49999999999999822 ) ) ;
#792 = ORIENTED_EDGE ( 'NONE', *, *, #927, .T. ) ;
#793 = PERSON_AND_ORGANIZATION_ROLE ( 'creator' ) ;
#794 = ORIENTED_EDGE ( 'NONE', *, *, #904, .T. ) ;
#795 = DIRECTION ( 'NONE',  ( 1.000000000000000000, 0.000000000000000000, 0.000000000000000000 ) ) ;
#796 = CARTESIAN_POINT ( 'NONE',  ( 61.65000000000001279, 1.310372075087664981E-15, 8.750000000000000000 ) ) ;
#797 = VECTOR ( 'NONE', #504, 1000.000000000000000 ) ;
#798 = VECTOR ( 'NONE', #664, 1000.000000000000000 ) ;
#799 = ORIENTED_EDGE ( 'NONE', *, *, #785, .F. ) ;
#800 = PERSON_AND_ORGANIZATION ( #316, #808 ) ;
#801 = CARTESIAN_POINT ( 'NONE',  ( 64.15000000000000568, -2.000000000000000000, -6.750000000000013323 ) ) ;
#802 = PLANE ( 'NONE',  #515 ) ;
#803 = ORIENTED_EDGE ( 'NONE', *, *, #208, .F. ) ;
#804 = EDGE_LOOP ( 'NONE', ( #124, #331, #939, #387, #403, #347, #843, #753 ) ) ;
#805 = CARTESIAN_POINT ( 'NONE',  ( -64.14999999999999147, -2.000000000000000000, 17.50000000000000000 ) ) ;
#806 = ADVANCED_FACE ( 'NONE', ( #398 ), #82, .F. ) ;
#807 = LINE ( 'NONE', #883, #30 ) ;
#808 = ORGANIZATION ( 'UNSPECIFIED', 'UNSPECIFIED', '' ) ;
#809 = DIRECTION ( 'NONE',  ( 0.000000000000000000, 1.000000000000000000, 0.000000000000000000 ) ) ;
#810 = VERTEX_POINT ( 'NONE', #310 ) ;
#811 = DIRECTION ( 'NONE',  ( -0.000000000000000000, 1.000000000000000000, -0.000000000000000000 ) ) ;
#812 = EDGE_CURVE ( 'NONE', #770, #722, #237, .T. ) ;
#813 = DIRECTION ( 'NONE',  ( -0.000000000000000000, 1.000000000000000000, -0.000000000000000000 ) ) ;
#814 = CIRCLE ( 'NONE', #326, 1.999999999999988010 ) ;
#815 = CIRCLE ( 'NONE', #274, 1.999999999999988010 ) ;
#816 = VECTOR ( 'NONE', #1032, 1000.000000000000000 ) ;
#817 = CIRCLE ( 'NONE', #346, 3.000000000000009770 ) ;
#818 = ORIENTED_EDGE ( 'NONE', *, *, #169, .T. ) ;
#819 = DIRECTION ( 'NONE',  ( 0.000000000000000000, 1.000000000000000000, 0.000000000000000000 ) ) ;
#820 = CARTESIAN_POINT ( 'NONE',  ( 64.15000000000000568, -2.000000000000000000, 6.750000000000013323 ) ) ;
#821 = EDGE_CURVE ( 'NONE', #810, #638, #343, .T. ) ;
#822 = ORIENTED_EDGE ( 'NONE', *, *, #695, .F. ) ;
#823 = DIRECTION ( 'NONE',  ( 0.000000000000000000, 0.000000000000000000, 1.000000000000000000 ) ) ;
#824 = DIRECTION ( 'NONE',  ( -0.000000000000000000, 1.000000000000000000, -0.000000000000000000 ) ) ;
#825 = EDGE_CURVE ( 'NONE', #253, #164, #734, .T. ) ;
#826 = VERTEX_POINT ( 'NONE', #740 ) ;
#827 = LINE ( 'NONE', #62, #482 ) ;
#828 = FACE_OUTER_BOUND ( 'NONE', #186, .T. ) ;
#829 = ORIENTED_EDGE ( 'NONE', *, *, #1018, .F. ) ;
#830 = APPLICATION_CONTEXT ( 'configuration controlled 3d designs of mechanical parts and assemblies' ) ;
#831 = VECTOR ( 'NONE', #875, 1000.000000000000000 ) ;
#832 = AXIS2_PLACEMENT_3D ( 'NONE', #146, #716, #391 ) ;
#833 = ORIENTED_EDGE ( 'NONE', *, *, #855, .F. ) ;
#834 = CARTESIAN_POINT ( 'NONE',  ( -64.14999999999999147, -2.000000000000000000, 17.50000000000000000 ) ) ;
#835 = CIRCLE ( 'NONE', #363, 1.999999999999988010 ) ;
#836 = FACE_OUTER_BOUND ( 'NONE', #444, .T. ) ;
#837 = DIRECTION ( 'NONE',  ( -0.000000000000000000, -0.000000000000000000, -1.000000000000000000 ) ) ;
#838 = VERTEX_POINT ( 'NONE', #332 ) ;
#839 = DIRECTION ( 'NONE',  ( 0.000000000000000000, 0.000000000000000000, 1.000000000000000000 ) ) ;
#840 = CARTESIAN_POINT ( 'NONE',  ( 67.15000000000001990, -2.000000000000000000, -14.50000000000000533 ) ) ;
#841 = EDGE_CURVE ( 'NONE', #414, #1040, #730, .T. ) ;
#842 = CARTESIAN_POINT ( 'NONE',  ( -64.14999999999999147, -2.000000000000000000, -17.50000000000000711 ) ) ;
#843 = ORIENTED_EDGE ( 'NONE', *, *, #273, .T. ) ;
#844 = DIRECTION ( 'NONE',  ( 1.000000000000000000, 0.000000000000000000, 0.000000000000000000 ) ) ;
#845 = LINE ( 'NONE', #436, #797 ) ;
#846 = LINE ( 'NONE', #106, #485 ) ;
#847 = ORIENTED_EDGE ( 'NONE', *, *, #422, .F. ) ;
#848 = CIRCLE ( 'NONE', #380, 1.999999999999988010 ) ;
#849 = DIRECTION ( 'NONE',  ( 0.000000000000000000, -0.000000000000000000, 1.000000000000000000 ) ) ;
#850 = AXIS2_PLACEMENT_3D ( 'NONE', #1054, #54, #723 ) ;
#851 = DIRECTION ( 'NONE',  ( -0.000000000000000000, 1.000000000000000000, -0.000000000000000000 ) ) ;
#852 = VECTOR ( 'NONE', #871, 1000.000000000000000 ) ;
#853 = CARTESIAN_POINT ( 'NONE',  ( 64.15000000000000568, -2.000000000000000000, -14.50000000000000533 ) ) ;
#854 = EDGE_CURVE ( 'NONE', #972, #612, #905, .T. ) ;
#855 = EDGE_CURVE ( 'NONE', #265, #414, #69, .T. ) ;
#856 = ORIENTED_EDGE ( 'NONE', *, *, #1016, .F. ) ;
#857 = CARTESIAN_POINT ( 'NONE',  ( 1.702259050814820689E-15, 1.310372075087664981E-15, 6.399999999999999467 ) ) ;
#858 = CARTESIAN_POINT ( 'NONE',  ( 58.65000000000001279, 0.000000000000000000, -8.750000000000000000 ) ) ;
#859 = DIRECTION ( 'NONE',  ( 1.000000000000000000, -0.000000000000000000, -0.000000000000000000 ) ) ;
#860 = ORIENTED_EDGE ( 'NONE', *, *, #776, .T. ) ;
#861 = DIRECTION ( 'NONE',  ( 0.000000000000000000, 0.000000000000000000, 1.000000000000000000 ) ) ;
#862 = DIRECTION ( 'NONE',  ( -0.000000000000000000, 1.000000000000000000, -0.000000000000000000 ) ) ;
#863 = CARTESIAN_POINT ( 'NONE',  ( -58.64999999999997726, -2.000000000000000000, 10.74999999999998934 ) ) ;
#864 = VERTEX_POINT ( 'NONE', #998 ) ;
#865 = DATE_TIME_ROLE ( 'classification_date' ) ;
#866 = AXIS2_PLACEMENT_3D ( 'NONE', #656, #493, #565 ) ;
#867 = EDGE_LOOP ( 'NONE', ( #44, #1052, #693, #818 ) ) ;
#868 = CARTESIAN_POINT ( 'NONE',  ( 64.15000000000000568, 0.000000000000000000, 14.49999999999999822 ) ) ;
#869 = AXIS2_PLACEMENT_3D ( 'NONE', #934, #187, #849 ) ;
#870 = VECTOR ( 'NONE', #859, 1000.000000000000000 ) ;
#871 = DIRECTION ( 'NONE',  ( 0.000000000000000000, 0.000000000000000000, 1.000000000000000000 ) ) ;
#872 = CIRCLE ( 'NONE', #295, 1.999999999999988010 ) ;
#873 = VERTEX_POINT ( 'NONE', #578 ) ;
#874 = VERTEX_POINT ( 'NONE', #751 ) ;
#875 = DIRECTION ( 'NONE',  ( -1.000000000000000000, 0.000000000000000000, 0.000000000000000000 ) ) ;
#876 = CARTESIAN_POINT ( 'NONE',  ( -58.64999999999998437, 1.310372075087664981E-15, 8.750000000000000000 ) ) ;
#877 = EDGE_CURVE ( 'NONE', #955, #577, #898, .T. ) ;
#878 = EDGE_LOOP ( 'NONE', ( #197, #491, #928, #351 ) ) ;
#879 = DIRECTION ( 'NONE',  ( 0.000000000000000000, 0.000000000000000000, 1.000000000000000000 ) ) ;
#880 = LOCAL_TIME ( 17, 7, 7.000000000000000000, #285 ) ;
#881 = ORIENTED_EDGE ( 'NONE', *, *, #1036, .T. ) ;
#882 = DIRECTION ( 'NONE',  ( 0.000000000000000000, 1.000000000000000000, 0.000000000000000000 ) ) ;
#883 = CARTESIAN_POINT ( 'NONE',  ( -64.14999999999999147, -2.000000000000000000, -17.50000000000000711 ) ) ;
#884 = ORIENTED_EDGE ( 'NONE', *, *, #936, .T. ) ;
#885 = PERSON_AND_ORGANIZATION ( #316, #808 ) ;
#886 = ORIENTED_EDGE ( 'NONE', *, *, #743, .F. ) ;
#887 = CARTESIAN_POINT ( 'NONE',  ( -61.64999999999999147, 0.000000000000000000, -6.750000000000013323 ) ) ;
#888 = LINE ( 'NONE', #986, #225 ) ;
#889 = VECTOR ( 'NONE', #245, 1000.000000000000000 ) ;
#890 = ORIENTED_EDGE ( 'NONE', *, *, #547, .F. ) ;
#891 = CARTESIAN_POINT ( 'NONE',  ( 0.000000000000000000, 0.000000000000000000, 0.000000000000000000 ) ) ;
#892 = ORIENTED_EDGE ( 'NONE', *, *, #239, .F. ) ;
#893 = CARTESIAN_POINT ( 'NONE',  ( -61.64999999999999147, 0.000000000000000000, -10.74999999999998934 ) ) ;
#894 = DIRECTION ( 'NONE',  ( 1.000000000000000000, 0.000000000000000000, -0.000000000000000000 ) ) ;
#895 = EDGE_CURVE ( 'NONE', #634, #128, #320, .T. ) ;
#896 = DIRECTION ( 'NONE',  ( 0.000000000000000000, -1.000000000000000000, 0.000000000000000000 ) ) ;
#897 = ORIENTED_EDGE ( 'NONE', *, *, #1078, .F. ) ;
#898 = LINE ( 'NONE', #909, #65 ) ;
#899 = DIRECTION ( 'NONE',  ( 1.000000000000000000, -0.000000000000000000, -0.000000000000000000 ) ) ;
#900 = VERTEX_POINT ( 'NONE', #171 ) ;
#901 = CARTESIAN_POINT ( 'NONE',  ( -61.64999999999999147, 1.310372075087664981E-15, 6.750000000000013323 ) ) ;
#902 = EDGE_CURVE ( 'NONE', #612, #972, #533, .T. ) ;
#903 = DIRECTION ( 'NONE',  ( 0.000000000000000000, 1.000000000000000000, 0.000000000000000000 ) ) ;
#904 = EDGE_CURVE ( 'NONE', #223, #634, #992, .T. ) ;
#905 = CIRCLE ( 'NONE', #762, 1.999999999999988010 ) ;
#906 = AXIS2_PLACEMENT_3D ( 'NONE', #983, #91, #220 ) ;
#907 = CIRCLE ( 'NONE', #764, 1.999999999999988010 ) ;
#908 = ORIENTED_EDGE ( 'NONE', *, *, #509, .F. ) ;
#909 = CARTESIAN_POINT ( 'NONE',  ( 58.65000000000000568, 1.310372075087664981E-15, 6.750000000000013323 ) ) ;
#910 = DIRECTION ( 'NONE',  ( 0.000000000000000000, 0.000000000000000000, 1.000000000000000000 ) ) ;
#911 = UNCERTAINTY_MEASURE_WITH_UNIT (LENGTH_MEASURE( 1.000000000000000082E-05 ), #221, 'distance_accuracy_value', 'NONE');
#912 = ORIENTED_EDGE ( 'NONE', *, *, #497, .F. ) ;
#913 = CARTESIAN_POINT ( 'NONE',  ( 64.15000000000000568, 0.000000000000000000, 17.50000000000000000 ) ) ;
#914 = DIRECTION ( 'NONE',  ( 0.000000000000000000, 0.000000000000000000, 1.000000000000000000 ) ) ;
#915 = LINE ( 'NONE', #168, #467 ) ;
#916 = VERTEX_POINT ( 'NONE', #569 ) ;
#917 = DIRECTION ( 'NONE',  ( 0.000000000000000000, -1.000000000000000000, 0.000000000000000000 ) ) ;
#918 = DIRECTION ( 'NONE',  ( 0.000000000000000000, 0.000000000000000000, 1.000000000000000000 ) ) ;
#919 = FACE_OUTER_BOUND ( 'NONE', #505, .T. ) ;
#920 = VECTOR ( 'NONE', #177, 1000.000000000000000 ) ;
#921 = AXIS2_PLACEMENT_3D ( 'NONE', #561, #38, #372 ) ;
#922 = EDGE_LOOP ( 'NONE', ( #988, #542, #1037, #729 ) ) ;
#923 = LINE ( 'NONE', #426, #920 ) ;
#924 = ADVANCED_FACE ( 'NONE', ( #325 ), #160, .T. ) ;
#925 = DIRECTION ( 'NONE',  ( 0.000000000000000000, 0.000000000000000000, 1.000000000000000000 ) ) ;
#926 = ORIENTED_EDGE ( 'NONE', *, *, #661, .T. ) ;
#927 = EDGE_CURVE ( 'NONE', #477, #265, #479, .T. ) ;
#928 = ORIENTED_EDGE ( 'NONE', *, *, #432, .F. ) ;
#929 = FACE_BOUND ( 'NONE', #548, .T. ) ;
#930 = DIRECTION ( 'NONE',  ( 0.000000000000000000, 0.000000000000000000, 1.000000000000000000 ) ) ;
#931 = PLANE ( 'NONE',  #961 ) ;
#932 = CC_DESIGN_APPROVAL ( #611, ( #1005 ) ) ;
#933 = ORIENTED_EDGE ( 'NONE', *, *, #127, .T. ) ;
#934 = CARTESIAN_POINT ( 'NONE',  ( 64.15000000000000568, 0.000000000000000000, 14.49999999999999822 ) ) ;
#935 = CARTESIAN_POINT ( 'NONE',  ( 0.000000000000000000, 0.000000000000000000, -6.600000000000012079 ) ) ;
#936 = EDGE_CURVE ( 'NONE', #625, #916, #72, .T. ) ;
#937 = PLANE ( 'NONE',  #431 ) ;
#938 = EDGE_CURVE ( 'NONE', #33, #789, #1028, .T. ) ;
#939 = ORIENTED_EDGE ( 'NONE', *, *, #702, .T. ) ;
#940 = CIRCLE ( 'NONE', #63, 1.999999999999989564 ) ;
#941 = DIRECTION ( 'NONE',  ( -0.000000000000000000, 1.000000000000000000, -0.000000000000000000 ) ) ;
#942 = VECTOR ( 'NONE', #416, 1000.000000000000000 ) ;
#943 = DIRECTION ( 'NONE',  ( 0.000000000000000000, 0.000000000000000000, 1.000000000000000000 ) ) ;
#944 = EDGE_CURVE ( 'NONE', #712, #787, #686, .T. ) ;
#945 = DIRECTION ( 'NONE',  ( 0.000000000000000000, 0.000000000000000000, 1.000000000000000000 ) ) ;
#946 = ORIENTED_EDGE ( 'NONE', *, *, #262, .T. ) ;
#947 = DIRECTION ( 'NONE',  ( 0.000000000000000000, 1.000000000000000000, 0.000000000000000000 ) ) ;
#948 = CARTESIAN_POINT ( 'NONE',  ( 58.65000000000001279, -2.000000000000000000, -6.750000000000013323 ) ) ;
#949 = CC_DESIGN_DATE_AND_TIME_ASSIGNMENT ( #970, #549, ( #1005 ) ) ;
#950 = DIRECTION ( 'NONE',  ( 0.000000000000000000, 1.000000000000000000, -0.000000000000000000 ) ) ;
#951 = ORIENTED_EDGE ( 'NONE', *, *, #895, .F. ) ;
#952 = LOCAL_TIME ( 17, 7, 7.000000000000000000, #1048 ) ;
#953 = CARTESIAN_POINT ( 'NONE',  ( -61.64999999999999147, 0.000000000000000000, -10.74999999999998934 ) ) ;
#954 = CARTESIAN_POINT ( 'NONE',  ( -64.14999999999999147, -2.000000000000000000, -17.50000000000000711 ) ) ;
#955 = VERTEX_POINT ( 'NONE', #254 ) ;
#956 = DATE_AND_TIME ( #1053, #880 ) ;
#957 = VECTOR ( 'NONE', #813, 1000.000000000000000 ) ;
#958 = ORIENTED_EDGE ( 'NONE', *, *, #432, .T. ) ;
#959 = ADVANCED_FACE ( 'NONE', ( #17 ), #1022, .F. ) ;
#960 = CARTESIAN_POINT ( 'NONE',  ( 64.15000000000000568, -2.000000000000000000, -10.74999999999998934 ) ) ;
#961 = AXIS2_PLACEMENT_3D ( 'NONE', #526, #102, #195 ) ;
#962 = DIRECTION ( 'NONE',  ( -0.000000000000000000, 1.000000000000000000, -0.000000000000000000 ) ) ;
#963 = VECTOR ( 'NONE', #214, 1000.000000000000000 ) ;
#964 = VERTEX_POINT ( 'NONE', #270 ) ;
#965 = DATE_AND_TIME ( #1041, #130 ) ;
#966 = ORIENTED_EDGE ( 'NONE', *, *, #239, .T. ) ;
#967 = CYLINDRICAL_SURFACE ( 'NONE', #486, 1.999999999999988010 ) ;
#968 = LINE ( 'NONE', #545, #555 ) ;
#969 = EDGE_LOOP ( 'NONE', ( #275, #829, #933, #21 ) ) ;
#970 = DATE_AND_TIME ( #633, #476 ) ;
#971 = SECURITY_CLASSIFICATION ( '', '', #388 ) ;
#972 = VERTEX_POINT ( 'NONE', #421 ) ;
#973 = CARTESIAN_POINT ( 'NONE',  ( -61.64999999999999147, -2.000000000000000000, -6.750000000000013323 ) ) ;
#974 = DIRECTION ( 'NONE',  ( 0.000000000000000000, 0.000000000000000000, -1.000000000000000000 ) ) ;
#975 = EDGE_CURVE ( 'NONE', #299, #81, #382, .T. ) ;
#976 = ORIENTED_EDGE ( 'NONE', *, *, #854, .F. ) ;
#977 = DIRECTION ( 'NONE',  ( 0.000000000000000000, 0.000000000000000000, 1.000000000000000000 ) ) ;
#978 = LINE ( 'NONE', #141, #80 ) ;
#979 = AXIS2_PLACEMENT_3D ( 'NONE', #857, #109, #22 ) ;
#980 = EDGE_CURVE ( 'NONE', #164, #110, #742, .T. ) ;
#981 = CIRCLE ( 'NONE', #28, 1.999999999999988010 ) ;
#982 = VECTOR ( 'NONE', #962, 1000.000000000000000 ) ;
#983 = CARTESIAN_POINT ( 'NONE',  ( -61.64999999999999147, 0.000000000000000000, 6.750000000000013323 ) ) ;
#984 = ORIENTED_EDGE ( 'NONE', *, *, #43, .T. ) ;
#985 = LINE ( 'NONE', #834, #7 ) ;
#986 = CARTESIAN_POINT ( 'NONE',  ( 58.65000000000000568, 0.000000000000000000, 10.75000000000005151 ) ) ;
#987 = APPROVAL ( #704, 'UNSPECIFIED' ) ;
#988 = ORIENTED_EDGE ( 'NONE', *, *, #470, .F. ) ;
#989 = DIRECTION ( 'NONE',  ( 0.000000000000000000, 0.000000000000000000, 1.000000000000000000 ) ) ;
#990 = CARTESIAN_POINT ( 'NONE',  ( 61.65000000000001279, 0.000000000000000000, 8.750000000000000000 ) ) ;
#991 = ORIENTED_EDGE ( 'NONE', *, *, #854, .T. ) ;
#992 = LINE ( 'NONE', #659, #889 ) ;
#993 = DIRECTION ( 'NONE',  ( 0.000000000000000000, 0.000000000000000000, 1.000000000000000000 ) ) ;
#994 = CIRCLE ( 'NONE', #47, 3.000000000000002665 ) ;
#995 = AXIS2_PLACEMENT_3D ( 'NONE', #893, #790, #58 ) ;
#996 = AXIS2_PLACEMENT_3D ( 'NONE', #765, #14, #231 ) ;
#997 = ORIENTED_EDGE ( 'NONE', *, *, #690, .T. ) ;
#998 = CARTESIAN_POINT ( 'NONE',  ( -58.64999999999998437, -2.000000000000000000, -10.74999999999998934 ) ) ;
#999 = CARTESIAN_POINT ( 'NONE',  ( 61.65000000000002700, 0.000000000000000000, -6.750000000000019540 ) ) ;
#1000 = ORIENTED_EDGE ( 'NONE', *, *, #546, .F. ) ;
#1001 = ORIENTED_EDGE ( 'NONE', *, *, #841, .T. ) ;
#1002 = DIRECTION ( 'NONE',  ( 1.000000000000000000, 0.000000000000000000, 0.000000000000000000 ) ) ;
#1003 = PLANE ( 'NONE',  #256 ) ;
#1004 = ORIENTED_EDGE ( 'NONE', *, *, #649, .F. ) ;
#1005 = PRODUCT_DEFINITION ( 'UNKNOWN', '', #185, #1079 ) ;
#1006 = EDGE_LOOP ( 'NONE', ( #202, #39, #209, #87 ) ) ;
#1007 = CARTESIAN_POINT ( 'NONE',  ( 58.65000000000000568, -2.000000000000000000, 8.750000000000000000 ) ) ;
#1008 = DIRECTION ( 'NONE',  ( -0.000000000000000000, 0.000000000000000000, -1.000000000000000000 ) ) ;
#1009 = ORIENTED_EDGE ( 'NONE', *, *, #661, .F. ) ;
#1010 = EDGE_CURVE ( 'NONE', #338, #253, #412, .T. ) ;
#1011 = ORIENTED_EDGE ( 'NONE', *, *, #821, .F. ) ;
#1012 = CARTESIAN_POINT ( 'NONE',  ( -67.14999999999999147, -2.000000000000000000, 14.49999999999999822 ) ) ;
#1013 = DIRECTION ( 'NONE',  ( 0.000000000000000000, 0.000000000000000000, 1.000000000000000000 ) ) ;
#1014 = DIRECTION ( 'NONE',  ( 0.000000000000000000, 0.000000000000000000, 1.000000000000000000 ) ) ;
#1015 = ORIENTED_EDGE ( 'NONE', *, *, #6, .F. ) ;
#1016 = EDGE_CURVE ( 'NONE', #972, #638, #104, .T. ) ;
#1017 = FACE_OUTER_BOUND ( 'NONE', #804, .T. ) ;
#1018 = EDGE_CURVE ( 'NONE', #916, #357, #1082, .T. ) ;
#1019 = DIRECTION ( 'NONE',  ( 0.000000000000000000, 1.000000000000000000, -0.000000000000000000 ) ) ;
#1020 = CARTESIAN_POINT ( 'NONE',  ( -58.64999999999998437, -2.000000000000000000, 6.750000000000013323 ) ) ;
#1021 = ORIENTED_EDGE ( 'NONE', *, *, #163, .T. ) ;
#1022 = CYLINDRICAL_SURFACE ( 'NONE', #241, 1.999999999999988010 ) ;
#1023 = EDGE_CURVE ( 'NONE', #721, #459, #361, .T. ) ;
#1024 = PLANE ( 'NONE',  #1042 ) ;
#1025 = DIRECTION ( 'NONE',  ( -0.000000000000000000, 1.000000000000000000, -0.000000000000000000 ) ) ;
#1026 = ORIENTED_EDGE ( 'NONE', *, *, #725, .F. ) ;
#1027 = AXIS2_PLACEMENT_3D ( 'NONE', #1007, #947, #839 ) ;
#1028 = LINE ( 'NONE', #336, #709 ) ;
#1029 = DIRECTION ( 'NONE',  ( -1.000000000000000000, 0.000000000000000000, -0.000000000000000000 ) ) ;
#1030 = AXIS2_PLACEMENT_3D ( 'NONE', #724, #620, #55 ) ;
#1031 = MANIFOLD_SOLID_BREP ( '\X2\00d8\X0\4.0 (4) Diameter Hole1', #9 ) ;
#1032 = DIRECTION ( 'NONE',  ( 0.000000000000000000, 1.000000000000000000, 0.000000000000000000 ) ) ;
#1033 = ORIENTED_EDGE ( 'NONE', *, *, #944, .F. ) ;
#1034 = CARTESIAN_POINT ( 'NONE',  ( 58.65000000000001279, 0.000000000000000000, -10.74999999999998934 ) ) ;
#1035 = LINE ( 'NONE', #264, #852 ) ;
#1036 = EDGE_CURVE ( 'NONE', #299, #721, #88, .T. ) ;
#1037 = ORIENTED_EDGE ( 'NONE', *, *, #927, .F. ) ;
#1038 = CARTESIAN_POINT ( 'NONE',  ( -58.64999999999998437, 0.000000000000000000, 6.750000000000013323 ) ) ;
#1039 = DIRECTION ( 'NONE',  ( 0.000000000000000000, 1.000000000000000000, -0.000000000000000000 ) ) ;
#1040 = VERTEX_POINT ( 'NONE', #94 ) ;
#1041 = CALENDAR_DATE ( 2025, 25, 12 ) ;
#1042 = AXIS2_PLACEMENT_3D ( 'NONE', #674, #271, #603 ) ;
#1043 = LINE ( 'NONE', #294, #517 ) ;
#1044 = VECTOR ( 'NONE', #394, 1000.000000000000000 ) ;
#1045 = DIRECTION ( 'NONE',  ( 0.000000000000000000, 0.000000000000000000, -1.000000000000000000 ) ) ;
#1046 = AXIS2_PLACEMENT_3D ( 'NONE', #791, #42, #1045 ) ;
#1047 = EDGE_LOOP ( 'NONE', ( #856, #502, #307, #438 ) ) ;
#1048 = COORDINATED_UNIVERSAL_TIME_OFFSET ( 5, 30, .AHEAD. ) ;
#1049 = CARTESIAN_POINT ( 'NONE',  ( 64.15000000000000568, 0.000000000000000000, -14.50000000000000533 ) ) ;
#1050 = EDGE_CURVE ( 'NONE', #838, #787, #643, .T. ) ;
#1051 = CARTESIAN_POINT ( 'NONE',  ( 1.702259050814820689E-15, 0.000000000000000000, 8.399999999999987921 ) ) ;
#1052 = ORIENTED_EDGE ( 'NONE', *, *, #497, .T. ) ;
#1053 = CALENDAR_DATE ( 2025, 25, 12 ) ;
#1054 = CARTESIAN_POINT ( 'NONE',  ( -58.64999999999998437, 0.000000000000000000, -8.750000000000000000 ) ) ;
#1055 = ADVANCED_FACE ( 'NONE', ( #11 ), #266, .T. ) ;
#1056 = CARTESIAN_POINT ( 'NONE',  ( -64.14999999999999147, -2.000000000000000000, 17.50000000000000000 ) ) ;
#1057 = ORIENTED_EDGE ( 'NONE', *, *, #980, .T. ) ;
#1058 = ORIENTED_EDGE ( 'NONE', *, *, #90, .T. ) ;
#1059 = FACE_OUTER_BOUND ( 'NONE', #334, .T. ) ;
#1060 = DIRECTION ( 'NONE',  ( 0.000000000000000000, 0.000000000000000000, 1.000000000000000000 ) ) ;
#1061 = AXIS2_PLACEMENT_3D ( 'NONE', #358, #669, #584 ) ;
#1062 = ORIENTED_EDGE ( 'NONE', *, *, #76, .F. ) ;
#1063 = DIRECTION ( 'NONE',  ( 0.000000000000000000, 1.000000000000000000, 0.000000000000000000 ) ) ;
#1064 = DIRECTION ( 'NONE',  ( 0.000000000000000000, 0.000000000000000000, 1.000000000000000000 ) ) ;
#1065 = EDGE_CURVE ( 'NONE', #838, #473, #923, .T. ) ;
#1066 = EDGE_LOOP ( 'NONE', ( #589, #290, #93, #217 ) ) ;
#1067 = DIRECTION ( 'NONE',  ( 1.000000000000000000, -0.000000000000000000, -0.000000000000000000 ) ) ;
#1068 = CARTESIAN_POINT ( 'NONE',  ( -58.64999999999998437, -2.000000000000000000, -6.750000000000013323 ) ) ;
#1069 = ORIENTED_EDGE ( 'NONE', *, *, #855, .T. ) ;
#1070 = CARTESIAN_POINT ( 'NONE',  ( 64.15000000000000568, -2.000000000000000000, 10.74999999999998934 ) ) ;
#1071 = CARTESIAN_POINT ( 'NONE',  ( 58.65000000000000568, -2.000000000000000000, 6.750000000000013323 ) ) ;
#1072 = AXIS2_PLACEMENT_3D ( 'NONE', #157, #251, #73 ) ;
#1073 = DIRECTION ( 'NONE',  ( 0.000000000000000000, 1.000000000000000000, 0.000000000000000000 ) ) ;
#1074 = VECTOR ( 'NONE', #1076, 1000.000000000000000 ) ;
#1075 = EDGE_LOOP ( 'NONE', ( #512, #463, #847, #52 ) ) ;
#1076 = DIRECTION ( 'NONE',  ( 1.000000000000000000, -0.000000000000000000, -0.000000000000000000 ) ) ;
#1077 = CYLINDRICAL_SURFACE ( 'NONE', #1072, 1.999999999999988010 ) ;
#1078 = EDGE_CURVE ( 'NONE', #900, #712, #585, .T. ) ;
#1079 = DESIGN_CONTEXT ( 'detailed design', #830, 'design' ) ;
#1080 = VERTEX_POINT ( 'NONE', #341 ) ;
#1081 = ORIENTED_EDGE ( 'NONE', *, *, #352, .T. ) ;
#1082 = LINE ( 'NONE', #1012, #78 ) ;
#1083 = ADVANCED_FACE ( 'NONE', ( #673, #767, #590, #507, #929, #678, #1017 ), #595, .T. ) ;
#1084 = DIRECTION ( 'NONE',  ( -0.000000000000000000, 1.000000000000000000, -0.000000000000000000 ) ) ;
#1085 = EDGE_LOOP ( 'NONE', ( #252, #991 ) ) ;
ENDSEC;
END-ISO-10303-21;
