ISO-10303-21;
HEADER;
FILE_DESCRIPTION (( 'STEP AP203' ),
    '1' );
FILE_NAME ('Battery Lipo 4s-2250mAh_Default_sldprt.STEP',
    '2025-12-25T11:36:56',
    ( '' ),
    ( '' ),
    'SwSTEP 2.0',
    'SolidWorks 2024',
    '' );
FILE_SCHEMA (( 'CONFIG_CONTROL_DESIGN' ));
ENDSEC;

DATA;
#1 = ADVANCED_FACE ( 'NONE', ( #633 ), #576, .F. ) ;
#2 = ORIENTED_EDGE ( 'NONE', *, *, #445, .F. ) ;
#3 = DIRECTION ( 'NONE',  ( 0.000000000000000000, 0.000000000000000000, -1.000000000000000000 ) ) ;
#4 = LINE ( 'NONE', #489, #307 ) ;
#5 = VECTOR ( 'NONE', #591, 1000.000000000000000 ) ;
#6 = VECTOR ( 'NONE', #86, 1000.000000000000000 ) ;
#7 = EDGE_CURVE ( 'NONE', #138, #430, #384, .T. ) ;
#8 = LINE ( 'NONE', #128, #5 ) ;
#9 = EDGE_CURVE ( 'NONE', #202, #89, #707, .T. ) ;
#10 = ORIENTED_EDGE ( 'NONE', *, *, #607, .F. ) ;
#11 = DIRECTION ( 'NONE',  ( 0.000000000000000000, 1.000000000000000000, 0.000000000000000000 ) ) ;
#12 = ORIENTED_EDGE ( 'NONE', *, *, #699, .T. ) ;
#13 = SPHERICAL_SURFACE ( 'NONE', #610, 2.000000000000000000 ) ;
#14 = CYLINDRICAL_SURFACE ( 'NONE', #750, 2.000000000000000000 ) ;
#15 = CIRCLE ( 'NONE', #592, 2.000000000000001776 ) ;
#16 = EDGE_LOOP ( 'NONE', ( #492, #443, #379 ) ) ;
#17 = CIRCLE ( 'NONE', #236, 7.988809990356749324 ) ;
#18 = APPLICATION_PROTOCOL_DEFINITION ( 'international standard', 'config_control_design', 1994, #616 ) ;
#19 = LINE ( 'NONE', #676, #6 ) ;
#20 = EDGE_LOOP ( 'NONE', ( #457, #218, #500 ) ) ;
#21 = PRODUCT ( 'Battery Lipo 4s-2250mAh_Default_sldprt', 'Battery Lipo 4s-2250mAh_Default_sldprt', '', ( #258 ) ) ;
#22 = DIRECTION ( 'NONE',  ( 0.000000000000000000, 0.000000000000000000, -1.000000000000000000 ) ) ;
#23 = DIRECTION ( 'NONE',  ( 1.000000000000000000, 0.000000000000000000, 0.000000000000000000 ) ) ;
#24 = FACE_OUTER_BOUND ( 'NONE', #438, .T. ) ;
#25 = ORIENTED_EDGE ( 'NONE', *, *, #137, .T. ) ;
#26 = EDGE_LOOP ( 'NONE', ( #279, #440, #157 ) ) ;
#27 = ADVANCED_FACE ( 'NONE', ( #710 ), #298, .T. ) ;
#28 = EDGE_CURVE ( 'NONE', #161, #127, #522, .T. ) ;
#29 = CYLINDRICAL_SURFACE ( 'NONE', #509, 1.999999999999998224 ) ;
#30 = ORIENTED_EDGE ( 'NONE', *, *, #368, .F. ) ;
#31 = VERTEX_POINT ( 'NONE', #525 ) ;
#32 = CIRCLE ( 'NONE', #472, 2.000000000000001776 ) ;
#33 = CC_DESIGN_PERSON_AND_ORGANIZATION_ASSIGNMENT ( #469, #585, ( #552 ) ) ;
#34 = AXIS2_PLACEMENT_3D ( 'NONE', #139, #11, #608 ) ;
#35 = LINE ( 'NONE', #389, #402 ) ;
#36 = DIRECTION ( 'NONE',  ( 0.000000000000000000, -1.000000000000000000, 0.000000000000000000 ) ) ;
#37 = ORIENTED_EDGE ( 'NONE', *, *, #622, .F. ) ;
#38 = ORIENTED_EDGE ( 'NONE', *, *, #50, .F. ) ;
#39 = EDGE_CURVE ( 'NONE', #559, #138, #360, .T. ) ;
#40 = DIRECTION ( 'NONE',  ( 1.000000000000000000, 0.000000000000000000, 0.000000000000000000 ) ) ;
#41 = ORIENTED_EDGE ( 'NONE', *, *, #50, .T. ) ;
#42 = DIRECTION ( 'NONE',  ( -1.000000000000000000, 0.000000000000000000, 0.000000000000000000 ) ) ;
#43 = DIRECTION ( 'NONE',  ( -1.000000000000000000, 0.000000000000000000, 0.000000000000000000 ) ) ;
#44 = EDGE_CURVE ( 'NONE', #202, #31, #468, .T. ) ;
#45 = AXIS2_PLACEMENT_3D ( 'NONE', #714, #179, #366 ) ;
#46 = DIRECTION ( 'NONE',  ( 1.000000000000000000, 0.000000000000000000, 0.000000000000000000 ) ) ;
#47 = MANIFOLD_SOLID_BREP ( 'NONE', #412 ) ;
#48 = SHAPE_DEFINITION_REPRESENTATION ( #635, #324 ) ;
#49 = FACE_OUTER_BOUND ( 'NONE', #369, .T. ) ;
#50 = EDGE_CURVE ( 'NONE', #741, #217, #732, .T. ) ;
#51 = CARTESIAN_POINT ( 'NONE',  ( 43.43499609778609738, 33.00000000000000000, -0.8079780111749859106 ) ) ;
#52 = CARTESIAN_POINT ( 'NONE',  ( 41.43499609778609738, 33.00000000000000000, -20.80797801117499901 ) ) ;
#53 = APPROVAL ( #144, 'UNSPECIFIED' ) ;
#54 = COORDINATED_UNIVERSAL_TIME_OFFSET ( 5, 30, .AHEAD. ) ;
#55 = CIRCLE ( 'NONE', #462, 1.999999999999998224 ) ;
#56 = DIRECTION ( 'NONE',  ( -1.000000000000000000, 0.000000000000000000, 0.000000000000000000 ) ) ;
#57 = CARTESIAN_POINT ( 'NONE',  ( 41.43499609778609738, 0.000000000000000000, -0.8079780111749840232 ) ) ;
#58 = EDGE_CURVE ( 'NONE', #88, #185, #245, .T. ) ;
#59 = ORIENTED_EDGE ( 'NONE', *, *, #226, .F. ) ;
#60 = CARTESIAN_POINT ( 'NONE',  ( -60.56500390221390262, 35.00000000000000000, -0.8079780111749840232 ) ) ;
#61 = ORIENTED_EDGE ( 'NONE', *, *, #579, .F. ) ;
#62 = CARTESIAN_POINT ( 'NONE',  ( -63.56500390221389551, 18.72084807007825091, -11.44650562391545989 ) ) ;
#63 = CARTESIAN_POINT ( 'NONE',  ( -60.56500390221390262, 33.00000000000000000, -20.80797801117499901 ) ) ;
#64 = ORIENTED_EDGE ( 'NONE', *, *, #44, .T. ) ;
#65 = FACE_OUTER_BOUND ( 'NONE', #397, .T. ) ;
#66 = FACE_OUTER_BOUND ( 'NONE', #313, .T. ) ;
#67 = VECTOR ( 'NONE', #562, 1000.000000000000000 ) ;
#68 = VERTEX_POINT ( 'NONE', #708 ) ;
#69 = DIRECTION ( 'NONE',  ( 0.000000000000000000, 0.000000000000000000, -1.000000000000000000 ) ) ;
#70 = EDGE_CURVE ( 'NONE', #300, #105, #628, .T. ) ;
#71 = ORIENTED_EDGE ( 'NONE', *, *, #312, .T. ) ;
#72 = FACE_OUTER_BOUND ( 'NONE', #278, .T. ) ;
#73 = FACE_OUTER_BOUND ( 'NONE', #282, .T. ) ;
#74 = CARTESIAN_POINT ( 'NONE',  ( -63.56500390221389551, 18.72084807007825091, -3.457695633558719894 ) ) ;
#75 = VECTOR ( 'NONE', #356, 1000.000000000000000 ) ;
#76 = ORIENTED_EDGE ( 'NONE', *, *, #287, .T. ) ;
#77 = CIRCLE ( 'NONE', #136, 2.000000000000000000 ) ;
#78 = LOCAL_TIME ( 17, 6, 56.00000000000000000, #419 ) ;
#79 = COORDINATED_UNIVERSAL_TIME_OFFSET ( 5, 30, .AHEAD. ) ;
#80 = CARTESIAN_POINT ( 'NONE',  ( -60.56500390221390262, 35.00000000000000000, -20.80797801117499901 ) ) ;
#81 = EDGE_CURVE ( 'NONE', #83, #127, #55, .T. ) ;
#82 = CARTESIAN_POINT ( 'NONE',  ( -62.56500390221389551, 33.00000000000000000, -20.80797801117499901 ) ) ;
#83 = VERTEX_POINT ( 'NONE', #474 ) ;
#84 = VERTEX_POINT ( 'NONE', #51 ) ;
#85 = PERSON_AND_ORGANIZATION_ROLE ( 'creator' ) ;
#86 = DIRECTION ( 'NONE',  ( 0.000000000000000000, 0.000000000000000000, 1.000000000000000000 ) ) ;
#87 = DIRECTION ( 'NONE',  ( 0.000000000000000000, 0.000000000000000000, 1.000000000000000000 ) ) ;
#88 = VERTEX_POINT ( 'NONE', #294 ) ;
#89 = VERTEX_POINT ( 'NONE', #112 ) ;
#90 = LINE ( 'NONE', #755, #532 ) ;
#91 = DIRECTION ( 'NONE',  ( 0.000000000000000000, 0.000000000000000000, -1.000000000000000000 ) ) ;
#92 = ORIENTED_EDGE ( 'NONE', *, *, #404, .T. ) ;
#93 = DIRECTION ( 'NONE',  ( 0.000000000000000000, -0.000000000000000000, 1.000000000000000000 ) ) ;
#94 = ORIENTED_EDGE ( 'NONE', *, *, #712, .T. ) ;
#95 = AXIS2_PLACEMENT_3D ( 'NONE', #782, #486, #662 ) ;
#96 = EDGE_CURVE ( 'NONE', #398, #430, #530, .T. ) ;
#97 = VECTOR ( 'NONE', #783, 1000.000000000000000 ) ;
#98 = CC_DESIGN_SECURITY_CLASSIFICATION ( #552, ( #697 ) ) ;
#99 = DIRECTION ( 'NONE',  ( 0.000000000000000000, 0.000000000000000000, 1.000000000000000000 ) ) ;
#100 = DIRECTION ( 'NONE',  ( -1.000000000000000000, 0.000000000000000000, 0.000000000000000000 ) ) ;
#101 = ORIENTED_EDGE ( 'NONE', *, *, #404, .F. ) ;
#102 = DIRECTION ( 'NONE',  ( 0.000000000000000000, -1.000000000000000000, 0.000000000000000000 ) ) ;
#103 = PERSON_AND_ORGANIZATION ( #431, #126 ) ;
#104 = DIRECTION ( 'NONE',  ( -1.000000000000000000, -8.673617379884029556E-16, -0.000000000000000000 ) ) ;
#105 = VERTEX_POINT ( 'NONE', #123 ) ;
#106 = CALENDAR_DATE ( 2025, 25, 12 ) ;
#107 = LINE ( 'NONE', #584, #641 ) ;
#108 = CARTESIAN_POINT ( 'NONE',  ( -63.56500390221389551, 18.72084807007825091, -11.44650562391545989 ) ) ;
#109 = AXIS2_PLACEMENT_3D ( 'NONE', #711, #723, #240 ) ;
#110 = SECURITY_CLASSIFICATION_LEVEL ( 'unclassified' ) ;
#111 = VECTOR ( 'NONE', #460, 1000.000000000000000 ) ;
#112 = CARTESIAN_POINT ( 'NONE',  ( -60.56500390221390262, 0.000000000000000000, -0.8079780111749840232 ) ) ;
#113 = DIRECTION ( 'NONE',  ( -1.000000000000000000, 0.000000000000000000, 0.000000000000000000 ) ) ;
#114 = ADVANCED_FACE ( 'NONE', ( #49 ), #291, .T. ) ;
#115 = DIRECTION ( 'NONE',  ( 0.000000000000000000, -1.000000000000000000, 0.000000000000000000 ) ) ;
#116 = LINE ( 'NONE', #299, #373 ) ;
#117 = EDGE_CURVE ( 'NONE', #300, #722, #147, .T. ) ;
#118 = DATE_AND_TIME ( #293, #779 ) ;
#119 = CARTESIAN_POINT ( 'NONE',  ( -60.56500390221390262, 33.00000000000000000, -0.8079780111749840232 ) ) ;
#120 = DIRECTION ( 'NONE',  ( 0.000000000000000000, 0.000000000000000000, 1.000000000000000000 ) ) ;
#121 = ADVANCED_FACE ( 'NONE', ( #420 ), #476, .T. ) ;
#122 = AXIS2_PLACEMENT_3D ( 'NONE', #574, #703, #235 ) ;
#123 = CARTESIAN_POINT ( 'NONE',  ( 41.43499609778609738, 2.000000000000000000, 1.192021988825016088 ) ) ;
#124 = VECTOR ( 'NONE', #399, 1000.000000000000000 ) ;
#125 = CARTESIAN_POINT ( 'NONE',  ( 41.43499609778609738, 33.00000000000000000, -0.8079780111749859106 ) ) ;
#126 = ORGANIZATION ( 'UNSPECIFIED', 'UNSPECIFIED', '' ) ;
#127 = VERTEX_POINT ( 'NONE', #638 ) ;
#128 = CARTESIAN_POINT ( 'NONE',  ( 43.43499609778609738, 33.00000000000000000, -22.80797801117499901 ) ) ;
#129 = EDGE_CURVE ( 'NONE', #693, #387, #702, .T. ) ;
#130 = ORIENTED_EDGE ( 'NONE', *, *, #749, .F. ) ;
#131 = CARTESIAN_POINT ( 'NONE',  ( 41.43499609778609738, 2.000000000000000000, -20.80797801117499901 ) ) ;
#132 = ORIENTED_EDGE ( 'NONE', *, *, #660, .F. ) ;
#133 = AXIS2_PLACEMENT_3D ( 'NONE', #239, #290, #776 ) ;
#134 = DIRECTION ( 'NONE',  ( 0.000000000000000000, 0.000000000000000000, 1.000000000000000000 ) ) ;
#135 = CARTESIAN_POINT ( 'NONE',  ( 41.43499609778609738, 35.00000000000000000, -0.8079780111749859106 ) ) ;
#136 = AXIS2_PLACEMENT_3D ( 'NONE', #145, #611, #69 ) ;
#137 = EDGE_CURVE ( 'NONE', #217, #161, #107, .T. ) ;
#138 = VERTEX_POINT ( 'NONE', #340 ) ;
#139 = CARTESIAN_POINT ( 'NONE',  ( 41.43499609778609738, 33.00000000000000000, -0.8079780111749840232 ) ) ;
#140 = CC_DESIGN_PERSON_AND_ORGANIZATION_ASSIGNMENT ( #713, #232, ( #697 ) ) ;
#141 = FACE_OUTER_BOUND ( 'NONE', #754, .T. ) ;
#142 = ORIENTED_EDGE ( 'NONE', *, *, #188, .F. ) ;
#143 = EDGE_CURVE ( 'NONE', #127, #693, #490, .T. ) ;
#144 = APPROVAL_STATUS ( 'not_yet_approved' ) ;
#145 = CARTESIAN_POINT ( 'NONE',  ( 41.43499609778609738, 33.00000000000000000, -0.8079780111749840232 ) ) ;
#146 = ORIENTED_EDGE ( 'NONE', *, *, #571, .T. ) ;
#147 = CIRCLE ( 'NONE', #508, 2.000000000000001776 ) ;
#148 = ORIENTED_EDGE ( 'NONE', *, *, #458, .T. ) ;
#149 = AXIS2_PLACEMENT_3D ( 'NONE', #504, #386, #338 ) ;
#150 = LOCAL_TIME ( 17, 6, 56.00000000000000000, #54 ) ;
#151 = APPROVAL_DATE_TIME ( #446, #53 ) ;
#152 = DIRECTION ( 'NONE',  ( 1.000000000000000000, 0.000000000000000000, 0.000000000000000000 ) ) ;
#153 = EDGE_LOOP ( 'NONE', ( #516, #596, #564, #101 ) ) ;
#154 = ORIENTED_EDGE ( 'NONE', *, *, #699, .F. ) ;
#155 = DIRECTION ( 'NONE',  ( -1.000000000000000000, 0.000000000000000000, 0.000000000000000000 ) ) ;
#156 = CYLINDRICAL_SURFACE ( 'NONE', #183, 2.000000000000000000 ) ;
#157 = ORIENTED_EDGE ( 'NONE', *, *, #342, .F. ) ;
#158 = ADVANCED_FACE ( 'NONE', ( #283 ), #230, .T. ) ;
#159 = ORIENTED_EDGE ( 'NONE', *, *, #507, .T. ) ;
#160 = DIRECTION ( 'NONE',  ( -1.000000000000000000, 0.000000000000000000, 0.000000000000000000 ) ) ;
#161 = VERTEX_POINT ( 'NONE', #175 ) ;
#162 = ORIENTED_EDGE ( 'NONE', *, *, #215, .F. ) ;
#163 = CIRCLE ( 'NONE', #253, 1.999999999999998224 ) ;
#164 = VECTOR ( 'NONE', #331, 1000.000000000000000 ) ;
#165 = DIRECTION ( 'NONE',  ( 0.000000000000000000, 0.000000000000000000, 1.000000000000000000 ) ) ;
#166 = ORIENTED_EDGE ( 'NONE', *, *, #424, .F. ) ;
#167 = CARTESIAN_POINT ( 'NONE',  ( 43.43499609778609738, 0.000000000000000000, -20.80797801117499901 ) ) ;
#168 = ADVANCED_FACE ( 'NONE', ( #706 ), #417, .T. ) ;
#169 = DIRECTION ( 'NONE',  ( 0.000000000000000000, 0.000000000000000000, -1.000000000000000000 ) ) ;
#170 = AXIS2_PLACEMENT_3D ( 'NONE', #244, #120, #535 ) ;
#171 = AXIS2_PLACEMENT_3D ( 'NONE', #63, #731, #541 ) ;
#172 = APPROVAL_PERSON_ORGANIZATION ( #422, #528, #346 ) ;
#173 = DIRECTION ( 'NONE',  ( 0.000000000000000000, 0.000000000000000000, -1.000000000000000000 ) ) ;
#174 = CARTESIAN_POINT ( 'NONE',  ( -62.56500390221389551, 2.000000000000000000, -22.80797801117499901 ) ) ;
#175 = CARTESIAN_POINT ( 'NONE',  ( 41.43499609778609738, 2.000000000000000000, -22.80797801117499901 ) ) ;
#176 = CARTESIAN_POINT ( 'NONE',  ( 41.43499609778609738, 2.000000000000000000, -0.8079780111749840232 ) ) ;
#177 = CARTESIAN_POINT ( 'NONE',  ( 41.43499609778609738, 2.000000000000000000, -20.80797801117499901 ) ) ;
#178 = ADVANCED_FACE ( 'NONE', ( #642 ), #345, .T. ) ;
#179 = DIRECTION ( 'NONE',  ( -1.000000000000000000, 0.000000000000000000, 0.000000000000000000 ) ) ;
#180 = FACE_OUTER_BOUND ( 'NONE', #444, .T. ) ;
#181 = ADVANCED_FACE ( 'NONE', ( #634 ), #647, .F. ) ;
#182 = ORIENTED_EDGE ( 'NONE', *, *, #39, .F. ) ;
#183 = AXIS2_PLACEMENT_3D ( 'NONE', #682, #618, #766 ) ;
#184 = DIRECTION ( 'NONE',  ( 0.000000000000000000, 0.000000000000000000, 1.000000000000000000 ) ) ;
#185 = VERTEX_POINT ( 'NONE', #60 ) ;
#186 = CARTESIAN_POINT ( 'NONE',  ( -62.56500390221389551, 18.72084807007825091, -11.44650562391545989 ) ) ;
#187 = FACE_OUTER_BOUND ( 'NONE', #20, .T. ) ;
#188 = EDGE_CURVE ( 'NONE', #430, #138, #666, .T. ) ;
#189 = ORIENTED_EDGE ( 'NONE', *, *, #721, .F. ) ;
#190 = CARTESIAN_POINT ( 'NONE',  ( -60.56500390221390262, 2.000000000000000000, 1.192021988825016088 ) ) ;
#191 = ORIENTED_EDGE ( 'NONE', *, *, #445, .T. ) ;
#192 = VECTOR ( 'NONE', #56, 1000.000000000000000 ) ;
#193 = CARTESIAN_POINT ( 'NONE',  ( -62.56500390221389551, 2.000000000000000000, -20.80797801117499901 ) ) ;
#194 = SPHERICAL_SURFACE ( 'NONE', #524, 2.000000000000000000 ) ;
#195 = AXIS2_PLACEMENT_3D ( 'NONE', #211, #104, #91 ) ;
#196 = ORIENTED_EDGE ( 'NONE', *, *, #368, .T. ) ;
#197 = CARTESIAN_POINT ( 'NONE',  ( 41.43499609778609738, 35.00000000000000000, 1.192021988825016088 ) ) ;
#198 = ADVANCED_FACE ( 'NONE', ( #301 ), #361, .T. ) ;
#199 = DIRECTION ( 'NONE',  ( 0.000000000000000000, 0.000000000000000000, -1.000000000000000000 ) ) ;
#200 = DIRECTION ( 'NONE',  ( 0.000000000000000000, 0.000000000000000000, 1.000000000000000000 ) ) ;
#201 = ORIENTED_EDGE ( 'NONE', *, *, #622, .T. ) ;
#202 = VERTEX_POINT ( 'NONE', #242 ) ;
#203 = APPLICATION_PROTOCOL_DEFINITION ( 'international standard', 'config_control_design', 1994, #594 ) ;
#204 = LINE ( 'NONE', #448, #748 ) ;
#205 = CARTESIAN_POINT ( 'NONE',  ( -60.56500390221390262, 33.00000000000000000, -20.80797801117499901 ) ) ;
#206 = EDGE_LOOP ( 'NONE', ( #162, #569, #38 ) ) ;
#207 = VECTOR ( 'NONE', #408, 1000.000000000000000 ) ;
#208 = EDGE_LOOP ( 'NONE', ( #454, #266, #555 ) ) ;
#209 = CIRCLE ( 'NONE', #319, 2.000000000000000000 ) ;
#210 = CARTESIAN_POINT ( 'NONE',  ( 41.43499609778609738, 35.00000000000000000, -20.80797801117499901 ) ) ;
#211 = CARTESIAN_POINT ( 'NONE',  ( 41.43499609778609738, 2.000000000000000000, -0.8079780111749840232 ) ) ;
#212 = ORIENTED_EDGE ( 'NONE', *, *, #546, .F. ) ;
#213 = ORIENTED_EDGE ( 'NONE', *, *, #226, .T. ) ;
#214 = DIRECTION ( 'NONE',  ( 0.000000000000000000, 0.000000000000000000, -1.000000000000000000 ) ) ;
#215 = EDGE_CURVE ( 'NONE', #68, #741, #623, .T. ) ;
#216 = DIRECTION ( 'NONE',  ( 0.000000000000000000, 0.000000000000000000, 1.000000000000000000 ) ) ;
#217 = VERTEX_POINT ( 'NONE', #475 ) ;
#218 = ORIENTED_EDGE ( 'NONE', *, *, #749, .T. ) ;
#219 = CARTESIAN_POINT ( 'NONE',  ( -62.56500390221389551, 33.00000000000000000, -22.80797801117499901 ) ) ;
#220 = EDGE_LOOP ( 'NONE', ( #455, #394, #196, #76 ) ) ;
#221 = AXIS2_PLACEMENT_3D ( 'NONE', #186, #421, #587 ) ;
#222 = CIRCLE ( 'NONE', #171, 1.999999999999994893 ) ;
#223 = CC_DESIGN_APPROVAL ( #528, ( #552 ) ) ;
#224 = CARTESIAN_POINT ( 'NONE',  ( -60.56500390221390262, 2.000000000000000000, -0.8079780111749840232 ) ) ;
#225 = DIRECTION ( 'NONE',  ( -1.000000000000000000, 0.000000000000000000, 0.000000000000000000 ) ) ;
#226 = EDGE_CURVE ( 'NONE', #387, #328, #15, .T. ) ;
#227 = DATE_AND_TIME ( #407, #435 ) ;
#228 = DIRECTION ( 'NONE',  ( 1.000000000000000000, 0.000000000000000000, 0.000000000000000000 ) ) ;
#229 = CARTESIAN_POINT ( 'NONE',  ( -62.56500390221389551, 35.00000000000000000, -0.8079780111749859106 ) ) ;
#230 = CYLINDRICAL_SURFACE ( 'NONE', #288, 7.988809990356751101 ) ;
#231 = PRODUCT_RELATED_PRODUCT_CATEGORY ( 'detail', '', ( #21 ) ) ;
#232 = PERSON_AND_ORGANIZATION_ROLE ( 'design_supplier' ) ;
#233 = DIRECTION ( 'NONE',  ( -1.000000000000000000, 0.000000000000000000, 0.000000000000000000 ) ) ;
#234 = DIRECTION ( 'NONE',  ( 0.000000000000000000, -1.000000000000000000, 0.000000000000000000 ) ) ;
#235 = DIRECTION ( 'NONE',  ( 0.000000000000000000, 0.000000000000000000, 1.000000000000000000 ) ) ;
#236 = AXIS2_PLACEMENT_3D ( 'NONE', #739, #326, #200 ) ;
#237 =( GEOMETRIC_REPRESENTATION_CONTEXT ( 3 ) GLOBAL_UNCERTAINTY_ASSIGNED_CONTEXT ( ( #705 ) ) GLOBAL_UNIT_ASSIGNED_CONTEXT ( ( #441, #337, #566 ) ) REPRESENTATION_CONTEXT ( 'NONE', 'WORKASPACE' ) );
#238 = EDGE_CURVE ( 'NONE', #161, #328, #163, .T. ) ;
#239 = CARTESIAN_POINT ( 'NONE',  ( 0.000000000000000000, 33.00000000000000000, -20.80797801117499901 ) ) ;
#240 = DIRECTION ( 'NONE',  ( 0.000000000000000000, 0.000000000000000000, -1.000000000000000000 ) ) ;
#241 = DIRECTION ( 'NONE',  ( 1.000000000000000000, 0.000000000000000000, 0.000000000000000000 ) ) ;
#242 = CARTESIAN_POINT ( 'NONE',  ( -62.56500390221389551, 2.000000000000000000, -0.8079780111749840232 ) ) ;
#243 = ORIENTED_EDGE ( 'NONE', *, *, #727, .F. ) ;
#244 = CARTESIAN_POINT ( 'NONE',  ( -60.56500390221390262, 2.000000000000000000, -20.80797801117499901 ) ) ;
#245 = CIRCLE ( 'NONE', #401, 2.000000000000000000 ) ;
#246 = ORIENTED_EDGE ( 'NONE', *, *, #350, .T. ) ;
#247 = AXIS2_PLACEMENT_3D ( 'NONE', #322, #612, #216 ) ;
#248 = CARTESIAN_POINT ( 'NONE',  ( -60.56500390221390262, 33.00000000000000000, -22.80797801117499901 ) ) ;
#249 = EDGE_CURVE ( 'NONE', #83, #693, #655, .T. ) ;
#250 = DIRECTION ( 'NONE',  ( -1.000000000000000000, 0.000000000000000000, 0.000000000000000000 ) ) ;
#251 = CARTESIAN_POINT ( 'NONE',  ( 41.43499609778609738, 0.000000000000000000, -20.80797801117499901 ) ) ;
#252 = ORIENTED_EDGE ( 'NONE', *, *, #287, .F. ) ;
#253 = AXIS2_PLACEMENT_3D ( 'NONE', #131, #480, #717 ) ;
#254 = FACE_OUTER_BOUND ( 'NONE', #26, .T. ) ;
#255 = ADVANCED_FACE ( 'NONE', ( #180 ), #601, .T. ) ;
#256 = DIRECTION ( 'NONE',  ( 0.000000000000000000, 1.000000000000000000, 0.000000000000000000 ) ) ;
#257 = VECTOR ( 'NONE', #439, 1000.000000000000000 ) ;
#258 = MECHANICAL_CONTEXT ( 'NONE', #594, 'mechanical' ) ;
#259 = CARTESIAN_POINT ( 'NONE',  ( -62.56500390221389551, 18.72084807007825091, -3.457695633558719894 ) ) ;
#260 = DIRECTION ( 'NONE',  ( 0.000000000000000000, -0.000000000000000000, 1.000000000000000000 ) ) ;
#261 = EDGE_LOOP ( 'NONE', ( #746, #30, #539, #761 ) ) ;
#262 = ORIENTED_EDGE ( 'NONE', *, *, #249, .T. ) ;
#263 = FACE_OUTER_BOUND ( 'NONE', #483, .T. ) ;
#264 = DIRECTION ( 'NONE',  ( 0.000000000000000000, 0.000000000000000000, -1.000000000000000000 ) ) ;
#265 = CARTESIAN_POINT ( 'NONE',  ( 0.000000000000000000, 35.00000000000000000, -20.80797801117499901 ) ) ;
#266 = ORIENTED_EDGE ( 'NONE', *, *, #143, .T. ) ;
#267 = VERTEX_POINT ( 'NONE', #190 ) ;
#268 = CARTESIAN_POINT ( 'NONE',  ( -62.56500390221389551, 35.00000000000000000, -22.80797801117499901 ) ) ;
#269 = DIRECTION ( 'NONE',  ( 0.000000000000000000, 0.000000000000000000, -1.000000000000000000 ) ) ;
#270 = DIRECTION ( 'NONE',  ( 0.000000000000000000, 0.000000000000000000, 1.000000000000000000 ) ) ;
#271 = ORIENTED_EDGE ( 'NONE', *, *, #763, .T. ) ;
#272 = AXIS2_PLACEMENT_3D ( 'NONE', #477, #531, #778 ) ;
#273 = AXIS2_PLACEMENT_3D ( 'NONE', #410, #233, #173 ) ;
#274 = ORIENTED_EDGE ( 'NONE', *, *, #727, .T. ) ;
#275 = ADVANCED_FACE ( 'NONE', ( #65 ), #295, .T. ) ;
#276 = DIRECTION ( 'NONE',  ( 0.000000000000000000, 1.000000000000000000, 0.000000000000000000 ) ) ;
#277 = CYLINDRICAL_SURFACE ( 'NONE', #593, 1.999999999999994893 ) ;
#278 = EDGE_LOOP ( 'NONE', ( #677, #71, #499 ) ) ;
#279 = ORIENTED_EDGE ( 'NONE', *, *, #58, .T. ) ;
#280 = CARTESIAN_POINT ( 'NONE',  ( -60.56500390221390262, 33.00000000000000000, -20.80797801117499901 ) ) ;
#281 = CARTESIAN_POINT ( 'NONE',  ( 41.43499609778609738, 2.000000000000000000, -22.80797801117499901 ) ) ;
#282 = EDGE_LOOP ( 'NONE', ( #698, #692, #479, #565 ) ) ;
#283 = FACE_OUTER_BOUND ( 'NONE', #560, .T. ) ;
#284 = DATE_TIME_ROLE ( 'creation_date' ) ;
#285 = DIRECTION ( 'NONE',  ( 0.000000000000000000, 1.000000000000000000, 0.000000000000000000 ) ) ;
#286 = DIRECTION ( 'NONE',  ( 0.000000000000000000, 0.000000000000000000, 1.000000000000000000 ) ) ;
#287 = EDGE_CURVE ( 'NONE', #68, #84, #8, .T. ) ;
#288 = AXIS2_PLACEMENT_3D ( 'NONE', #108, #770, #520 ) ;
#289 = AXIS2_PLACEMENT_3D ( 'NONE', #193, #681, #269 ) ;
#290 = DIRECTION ( 'NONE',  ( -1.000000000000000000, 0.000000000000000000, 0.000000000000000000 ) ) ;
#291 = CYLINDRICAL_SURFACE ( 'NONE', #774, 2.000000000000001776 ) ;
#292 = EDGE_CURVE ( 'NONE', #722, #105, #447, .T. ) ;
#293 = CALENDAR_DATE ( 2025, 25, 12 ) ;
#294 = CARTESIAN_POINT ( 'NONE',  ( -60.56500390221390262, 33.00000000000000000, 1.192021988825016088 ) ) ;
#295 = CYLINDRICAL_SURFACE ( 'NONE', #272, 2.000000000000000000 ) ;
#296 = AXIS2_PLACEMENT_3D ( 'NONE', #52, #715, #785 ) ;
#297 = APPROVAL ( #415, 'UNSPECIFIED' ) ;
#298 = CYLINDRICAL_SURFACE ( 'NONE', #133, 1.999999999999998224 ) ;
#299 = CARTESIAN_POINT ( 'NONE',  ( 43.43499609778609738, 2.000000000000000000, 1.192021988825016088 ) ) ;
#300 = VERTEX_POINT ( 'NONE', #57 ) ;
#301 = FACE_OUTER_BOUND ( 'NONE', #621, .T. ) ;
#302 = ORIENTED_EDGE ( 'NONE', *, *, #238, .T. ) ;
#303 = DIRECTION ( 'NONE',  ( 0.000000000000000000, 0.000000000000000000, 1.000000000000000000 ) ) ;
#304 = EDGE_CURVE ( 'NONE', #267, #105, #116, .T. ) ;
#305 = AXIS2_PLACEMENT_3D ( 'NONE', #538, #371, #184 ) ;
#306 = ORIENTED_EDGE ( 'NONE', *, *, #292, .T. ) ;
#307 = VECTOR ( 'NONE', #256, 1000.000000000000000 ) ;
#308 = CARTESIAN_POINT ( 'NONE',  ( -60.56500390221390262, 33.00000000000000000, -0.8079780111749840232 ) ) ;
#309 = APPROVAL_PERSON_ORGANIZATION ( #675, #53, #383 ) ;
#310 = DIRECTION ( 'NONE',  ( 0.000000000000000000, 0.000000000000000000, -1.000000000000000000 ) ) ;
#311 = LINE ( 'NONE', #547, #425 ) ;
#312 = EDGE_CURVE ( 'NONE', #84, #434, #32, .T. ) ;
#313 = EDGE_LOOP ( 'NONE', ( #573, #212, #684, #671 ) ) ;
#314 = CARTESIAN_POINT ( 'NONE',  ( 41.43499609778609738, 33.00000000000000000, -0.8079780111749840232 ) ) ;
#315 = SPHERICAL_SURFACE ( 'NONE', #334, 2.000000000000000000 ) ;
#316 = ORIENTED_EDGE ( 'NONE', *, *, #70, .F. ) ;
#317 = AXIS2_PLACEMENT_3D ( 'NONE', #426, #303, #659 ) ;
#318 = DIRECTION ( 'NONE',  ( 0.000000000000000000, 0.000000000000000000, 1.000000000000000000 ) ) ;
#319 = AXIS2_PLACEMENT_3D ( 'NONE', #224, #327, #270 ) ;
#320 = CARTESIAN_POINT ( 'NONE',  ( 41.43499609778609738, 33.00000000000000000, 0.000000000000000000 ) ) ;
#321 = LINE ( 'NONE', #503, #67 ) ;
#322 = CARTESIAN_POINT ( 'NONE',  ( -63.56500390221389551, 18.72084807007825091, -11.44650562391545989 ) ) ;
#323 = ORIENTED_EDGE ( 'NONE', *, *, #58, .F. ) ;
#324 = ADVANCED_BREP_SHAPE_REPRESENTATION ( 'Battery Lipo 4s-2250mAh_Default_sldprt', ( #47, #657 ), #237 ) ;
#325 = DIRECTION ( 'NONE',  ( -1.000000000000000000, 0.000000000000000000, 0.000000000000000000 ) ) ;
#326 = DIRECTION ( 'NONE',  ( -1.000000000000000000, 0.000000000000000000, 0.000000000000000000 ) ) ;
#327 = DIRECTION ( 'NONE',  ( -1.000000000000000000, 0.000000000000000000, 0.000000000000000000 ) ) ;
#328 = VERTEX_POINT ( 'NONE', #367 ) ;
#329 = VERTEX_POINT ( 'NONE', #597 ) ;
#330 = ADVANCED_FACE ( 'NONE', ( #370 ), #599, .T. ) ;
#331 = DIRECTION ( 'NONE',  ( -1.000000000000000000, 0.000000000000000000, 0.000000000000000000 ) ) ;
#332 = ORIENTED_EDGE ( 'NONE', *, *, #188, .T. ) ;
#333 = AXIS2_PLACEMENT_3D ( 'NONE', #772, #43, #704 ) ;
#334 = AXIS2_PLACEMENT_3D ( 'NONE', #736, #260, #498 ) ;
#335 = VERTEX_POINT ( 'NONE', #248 ) ;
#336 = LOCAL_TIME ( 17, 6, 56.00000000000000000, #79 ) ;
#337 =( NAMED_UNIT ( * ) PLANE_ANGLE_UNIT ( ) SI_UNIT ( $, .RADIAN. ) );
#338 = DIRECTION ( 'NONE',  ( 0.000000000000000000, 0.000000000000000000, -1.000000000000000000 ) ) ;
#339 = ORIENTED_EDGE ( 'NONE', *, *, #96, .T. ) ;
#340 = CARTESIAN_POINT ( 'NONE',  ( -62.56500390221389551, 18.72084807007825091, -19.43531561427224830 ) ) ;
#341 = PERSON_AND_ORGANIZATION_ROLE ( 'design_owner' ) ;
#342 = EDGE_CURVE ( 'NONE', #88, #31, #463, .T. ) ;
#343 = SPHERICAL_SURFACE ( 'NONE', #433, 2.000000000000000000 ) ;
#344 = ORIENTED_EDGE ( 'NONE', *, *, #730, .T. ) ;
#345 = SPHERICAL_SURFACE ( 'NONE', #170, 2.000000000000000000 ) ;
#346 = APPROVAL_ROLE ( '' ) ;
#347 = DIRECTION ( 'NONE',  ( 0.000000000000000000, 0.000000000000000000, -1.000000000000000000 ) ) ;
#348 = AXIS2_PLACEMENT_3D ( 'NONE', #762, #93, #113 ) ;
#349 = CIRCLE ( 'NONE', #34, 2.000000000000000000 ) ;
#350 = EDGE_CURVE ( 'NONE', #105, #329, #735, .T. ) ;
#351 = AXIS2_PLACEMENT_3D ( 'NONE', #268, #759, #276 ) ;
#352 = APPROVAL_STATUS ( 'not_yet_approved' ) ;
#353 = DIRECTION ( 'NONE',  ( 1.000000000000000000, 0.000000000000000000, 0.000000000000000000 ) ) ;
#354 = CALENDAR_DATE ( 2025, 25, 12 ) ;
#355 = EDGE_CURVE ( 'NONE', #88, #267, #390, .T. ) ;
#356 = DIRECTION ( 'NONE',  ( 0.000000000000000000, 1.000000000000000000, 0.000000000000000000 ) ) ;
#357 = DIRECTION ( 'NONE',  ( 0.000000000000000000, -8.673617379884029556E-16, 1.000000000000000000 ) ) ;
#358 = ADVANCED_FACE ( 'NONE', ( #72 ), #606, .T. ) ;
#359 = APPROVAL_DATE_TIME ( #581, #528 ) ;
#360 = LINE ( 'NONE', #769, #542 ) ;
#361 = PLANE ( 'NONE',  #305 ) ;
#362 = AXIS2_PLACEMENT_3D ( 'NONE', #646, #590, #411 ) ;
#363 = VECTOR ( 'NONE', #23, 1000.000000000000000 ) ;
#364 = CIRCLE ( 'NONE', #482, 1.999999999999998224 ) ;
#365 = LINE ( 'NONE', #536, #97 ) ;
#366 = DIRECTION ( 'NONE',  ( 0.000000000000000000, 0.000000000000000000, 1.000000000000000000 ) ) ;
#367 = CARTESIAN_POINT ( 'NONE',  ( 43.43499609778609738, 2.000000000000000000, -20.80797801117499901 ) ) ;
#368 = EDGE_CURVE ( 'NONE', #328, #68, #311, .T. ) ;
#369 = EDGE_LOOP ( 'NONE', ( #159, #243, #10, #388 ) ) ;
#370 = FACE_OUTER_BOUND ( 'NONE', #784, .T. ) ;
#371 = DIRECTION ( 'NONE',  ( -1.000000000000000000, 0.000000000000000000, 0.000000000000000000 ) ) ;
#372 = EDGE_CURVE ( 'NONE', #329, #84, #349, .T. ) ;
#373 = VECTOR ( 'NONE', #654, 1000.000000000000000 ) ;
#374 = VECTOR ( 'NONE', #652, 1000.000000000000000 ) ;
#375 = ORIENTED_EDGE ( 'NONE', *, *, #129, .T. ) ;
#376 = CARTESIAN_POINT ( 'NONE',  ( 41.43499609778609738, 35.00000000000000000, 0.000000000000000000 ) ) ;
#377 = DIRECTION ( 'NONE',  ( 0.000000000000000000, -1.000000000000000000, 0.000000000000000000 ) ) ;
#378 = ADVANCED_FACE ( 'NONE', ( #442 ), #672, .T. ) ;
#379 = ORIENTED_EDGE ( 'NONE', *, *, #600, .F. ) ;
#380 = LINE ( 'NONE', #376, #733 ) ;
#381 = CARTESIAN_POINT ( 'NONE',  ( -60.56500390221390262, 33.00000000000000000, -0.8079780111749840232 ) ) ;
#382 = ORIENTED_EDGE ( 'NONE', *, *, #501, .F. ) ;
#383 = APPROVAL_ROLE ( '' ) ;
#384 = CIRCLE ( 'NONE', #333, 7.988809990356751101 ) ;
#385 = DIRECTION ( 'NONE',  ( 0.000000000000000000, -1.000000000000000000, 0.000000000000000000 ) ) ;
#386 = DIRECTION ( 'NONE',  ( 0.000000000000000000, 1.000000000000000000, 0.000000000000000000 ) ) ;
#387 = VERTEX_POINT ( 'NONE', #251 ) ;
#388 = ORIENTED_EDGE ( 'NONE', *, *, #478, .F. ) ;
#389 = CARTESIAN_POINT ( 'NONE',  ( 43.43499609778609738, 33.00000000000000000, 1.192021988825016088 ) ) ;
#390 = LINE ( 'NONE', #669, #643 ) ;
#391 = EDGE_CURVE ( 'NONE', #434, #741, #380, .T. ) ;
#392 = DIRECTION ( 'NONE',  ( 0.000000000000000000, 1.000000000000000000, 0.000000000000000000 ) ) ;
#393 = EDGE_LOOP ( 'NONE', ( #598, #142 ) ) ;
#394 = ORIENTED_EDGE ( 'NONE', *, *, #470, .T. ) ;
#395 = CYLINDRICAL_SURFACE ( 'NONE', #464, 2.000000000000001776 ) ;
#396 = CYLINDRICAL_SURFACE ( 'NONE', #765, 2.000000000000001776 ) ;
#397 = EDGE_LOOP ( 'NONE', ( #148, #512, #323, #629 ) ) ;
#398 = VERTEX_POINT ( 'NONE', #74 ) ;
#399 = DIRECTION ( 'NONE',  ( 0.000000000000000000, -1.000000000000000000, 0.000000000000000000 ) ) ;
#400 = ORIENTED_EDGE ( 'NONE', *, *, #304, .T. ) ;
#401 = AXIS2_PLACEMENT_3D ( 'NONE', #119, #577, #471 ) ;
#402 = VECTOR ( 'NONE', #155, 1000.000000000000000 ) ;
#403 = ORIENTED_EDGE ( 'NONE', *, *, #7, .T. ) ;
#404 = EDGE_CURVE ( 'NONE', #300, #89, #729, .T. ) ;
#405 = SPHERICAL_SURFACE ( 'NONE', #195, 2.000000000000000000 ) ;
#406 = ADVANCED_FACE ( 'NONE', ( #141 ), #436, .T. ) ;
#407 = CALENDAR_DATE ( 2025, 25, 12 ) ;
#408 = DIRECTION ( 'NONE',  ( 1.000000000000000000, 0.000000000000000000, 0.000000000000000000 ) ) ;
#409 = DATE_AND_TIME ( #354, #78 ) ;
#410 = CARTESIAN_POINT ( 'NONE',  ( 41.43499609778609738, 2.000000000000000000, -20.80797801117499901 ) ) ;
#411 = DIRECTION ( 'NONE',  ( 0.000000000000000000, 0.000000000000000000, -1.000000000000000000 ) ) ;
#412 = CLOSED_SHELL ( 'NONE', ( #198, #158, #533, #513, #427, #648, #121, #275, #114, #178, #637, #358, #526, #406, #378, #602, #487, #737, #27, #670, #168, #630, #255, #181, #686, #773, #1, #780, #330 ) ) ;
#413 = CIRCLE ( 'NONE', #580, 2.000000000000001776 ) ;
#414 = CIRCLE ( 'NONE', #149, 2.000000000000000000 ) ;
#415 = APPROVAL_STATUS ( 'not_yet_approved' ) ;
#416 = DIRECTION ( 'NONE',  ( 1.000000000000000000, 0.000000000000000000, 0.000000000000000000 ) ) ;
#417 = SPHERICAL_SURFACE ( 'NONE', #348, 2.000000000000000000 ) ;
#418 = EDGE_CURVE ( 'NONE', #185, #434, #664, .T. ) ;
#419 = COORDINATED_UNIVERSAL_TIME_OFFSET ( 5, 30, .AHEAD. ) ;
#420 = FACE_OUTER_BOUND ( 'NONE', #153, .T. ) ;
#421 = DIRECTION ( 'NONE',  ( -1.000000000000000000, 0.000000000000000000, 0.000000000000000000 ) ) ;
#422 = PERSON_AND_ORGANIZATION ( #431, #126 ) ;
#423 = DIRECTION ( 'NONE',  ( 0.000000000000000000, 0.000000000000000000, -1.000000000000000000 ) ) ;
#424 = EDGE_CURVE ( 'NONE', #387, #300, #19, .T. ) ;
#425 = VECTOR ( 'NONE', #553, 1000.000000000000000 ) ;
#426 = CARTESIAN_POINT ( 'NONE',  ( -60.56500390221390262, 2.000000000000000000, -20.80797801117499901 ) ) ;
#427 = ADVANCED_FACE ( 'NONE', ( #254 ), #13, .T. ) ;
#428 = ORIENTED_EDGE ( 'NONE', *, *, #478, .T. ) ;
#429 = DIRECTION ( 'NONE',  ( 0.000000000000000000, -1.000000000000000000, -8.673617379884027583E-16 ) ) ;
#430 = VERTEX_POINT ( 'NONE', #259 ) ;
#431 = PERSON ( 'UNSPECIFIED', 'UNSPECIFIED', 'UNSPECIFIED', ('UNSPECIFIED'), ('UNSPECIFIED'), ('UNSPECIFIED') ) ;
#432 = DIRECTION ( 'NONE',  ( 0.000000000000000000, -1.000000000000000000, 0.000000000000000000 ) ) ;
#433 = AXIS2_PLACEMENT_3D ( 'NONE', #575, #42, #285 ) ;
#434 = VERTEX_POINT ( 'NONE', #497 ) ;
#435 = LOCAL_TIME ( 17, 6, 56.00000000000000000, #700 ) ;
#436 = CYLINDRICAL_SURFACE ( 'NONE', #625, 1.999999999999998224 ) ;
#437 = CC_DESIGN_PERSON_AND_ORGANIZATION_ASSIGNMENT ( #103, #341, ( #21 ) ) ;
#438 = EDGE_LOOP ( 'NONE', ( #213, #506, #728, #166 ) ) ;
#439 = DIRECTION ( 'NONE',  ( 0.000000000000000000, 1.000000000000000000, 0.000000000000000000 ) ) ;
#440 = ORIENTED_EDGE ( 'NONE', *, *, #607, .T. ) ;
#441 =( LENGTH_UNIT ( ) NAMED_UNIT ( * ) SI_UNIT ( .MILLI., .METRE. ) );
#442 = FACE_OUTER_BOUND ( 'NONE', #452, .T. ) ;
#443 = ORIENTED_EDGE ( 'NONE', *, *, #588, .T. ) ;
#444 = EDGE_LOOP ( 'NONE', ( #92, #271, #375, #451 ) ) ;
#445 = EDGE_CURVE ( 'NONE', #559, #398, #17, .T. ) ;
#446 = DATE_AND_TIME ( #556, #336 ) ;
#447 = CIRCLE ( 'NONE', #109, 2.000000000000000000 ) ;
#448 = CARTESIAN_POINT ( 'NONE',  ( -60.56500390221390262, 35.00000000000000000, 0.000000000000000000 ) ) ;
#449 = FACE_OUTER_BOUND ( 'NONE', #261, .T. ) ;
#450 = AXIS2_PLACEMENT_3D ( 'NONE', #205, #160, #514 ) ;
#451 = ORIENTED_EDGE ( 'NONE', *, *, #424, .T. ) ;
#452 = EDGE_LOOP ( 'NONE', ( #12, #570, #658, #758 ) ) ;
#453 = CARTESIAN_POINT ( 'NONE',  ( 41.43499609778609738, 33.00000000000000000, -20.80797801117499901 ) ) ;
#454 = ORIENTED_EDGE ( 'NONE', *, *, #81, .T. ) ;
#455 = ORIENTED_EDGE ( 'NONE', *, *, #546, .T. ) ;
#456 = DIRECTION ( 'NONE',  ( 0.000000000000000000, 1.000000000000000000, 0.000000000000000000 ) ) ;
#457 = ORIENTED_EDGE ( 'NONE', *, *, #579, .T. ) ;
#458 = EDGE_CURVE ( 'NONE', #329, #434, #77, .T. ) ;
#459 = ORIENTED_EDGE ( 'NONE', *, *, #9, .F. ) ;
#460 = DIRECTION ( 'NONE',  ( 1.000000000000000000, 0.000000000000000000, 0.000000000000000000 ) ) ;
#461 = VERTEX_POINT ( 'NONE', #80 ) ;
#462 = AXIS2_PLACEMENT_3D ( 'NONE', #640, #115, #534 ) ;
#463 = CIRCLE ( 'NONE', #695, 2.000000000000000000 ) ;
#464 = AXIS2_PLACEMENT_3D ( 'NONE', #320, #22, #325 ) ;
#465 = CARTESIAN_POINT ( 'NONE',  ( -62.56500390221389551, 35.00000000000000000, -22.80797801117499901 ) ) ;
#466 = DIRECTION ( 'NONE',  ( 8.673617379884029556E-16, 0.000000000000000000, 1.000000000000000000 ) ) ;
#467 = CARTESIAN_POINT ( 'NONE',  ( -60.56500390221390262, 0.000000000000000000, -20.80797801117499901 ) ) ;
#468 = LINE ( 'NONE', #229, #75 ) ;
#469 = PERSON_AND_ORGANIZATION ( #431, #126 ) ;
#470 = EDGE_CURVE ( 'NONE', #722, #328, #321, .T. ) ;
#471 = DIRECTION ( 'NONE',  ( 0.000000000000000000, 0.000000000000000000, 1.000000000000000000 ) ) ;
#472 = AXIS2_PLACEMENT_3D ( 'NONE', #125, #357, #429 ) ;
#473 = CIRCLE ( 'NONE', #273, 1.999999999999998224 ) ;
#474 = CARTESIAN_POINT ( 'NONE',  ( -62.56500390221389551, 2.000000000000000000, -20.80797801117499901 ) ) ;
#475 = CARTESIAN_POINT ( 'NONE',  ( 41.43499609778609738, 33.00000000000000000, -22.80797801117499901 ) ) ;
#476 = CYLINDRICAL_SURFACE ( 'NONE', #45, 2.000000000000000000 ) ;
#477 = CARTESIAN_POINT ( 'NONE',  ( 0.000000000000000000, 33.00000000000000000, -0.8079780111749840232 ) ) ;
#478 = EDGE_CURVE ( 'NONE', #461, #185, #204, .T. ) ;
#479 = ORIENTED_EDGE ( 'NONE', *, *, #600, .T. ) ;
#480 = DIRECTION ( 'NONE',  ( 0.000000000000000000, -1.000000000000000000, 0.000000000000000000 ) ) ;
#481 = AXIS2_PLACEMENT_3D ( 'NONE', #726, #484, #423 ) ;
#482 = AXIS2_PLACEMENT_3D ( 'NONE', #280, #456, #502 ) ;
#483 = EDGE_LOOP ( 'NONE', ( #689, #519, #609, #252 ) ) ;
#484 = DIRECTION ( 'NONE',  ( 0.000000000000000000, -1.000000000000000000, 0.000000000000000000 ) ) ;
#485 = DIRECTION ( 'NONE',  ( -0.000000000000000000, 1.000000000000000000, 0.000000000000000000 ) ) ;
#486 = DIRECTION ( 'NONE',  ( 0.000000000000000000, -1.000000000000000000, 0.000000000000000000 ) ) ;
#487 = ADVANCED_FACE ( 'NONE', ( #66 ), #14, .T. ) ;
#488 = DIRECTION ( 'NONE',  ( -1.000000000000000000, 0.000000000000000000, 0.000000000000000000 ) ) ;
#489 = CARTESIAN_POINT ( 'NONE',  ( -60.56500390221390262, 35.00000000000000000, -22.80797801117499901 ) ) ;
#490 = CIRCLE ( 'NONE', #122, 1.999999999999998224 ) ;
#491 = AXIS2_PLACEMENT_3D ( 'NONE', #453, #392, #87 ) ;
#492 = ORIENTED_EDGE ( 'NONE', *, *, #9, .T. ) ;
#493 = AXIS2_PLACEMENT_3D ( 'NONE', #690, #496, #99 ) ;
#494 = DIRECTION ( 'NONE',  ( 0.000000000000000000, 0.000000000000000000, 1.000000000000000000 ) ) ;
#495 = EDGE_LOOP ( 'NONE', ( #344, #661, #400, #246 ) ) ;
#496 = DIRECTION ( 'NONE',  ( -1.000000000000000000, 0.000000000000000000, 0.000000000000000000 ) ) ;
#497 = CARTESIAN_POINT ( 'NONE',  ( 41.43499609778609738, 35.00000000000000000, -0.8079780111749840232 ) ) ;
#498 = DIRECTION ( 'NONE',  ( -1.000000000000000000, 0.000000000000000000, 0.000000000000000000 ) ) ;
#499 = ORIENTED_EDGE ( 'NONE', *, *, #458, .F. ) ;
#500 = ORIENTED_EDGE ( 'NONE', *, *, #507, .F. ) ;
#501 = EDGE_CURVE ( 'NONE', #127, #335, #4, .T. ) ;
#502 = DIRECTION ( 'NONE',  ( 0.000000000000000000, 0.000000000000000000, 1.000000000000000000 ) ) ;
#503 = CARTESIAN_POINT ( 'NONE',  ( 43.43499609778609738, 2.000000000000000000, -22.80797801117499901 ) ) ;
#504 = CARTESIAN_POINT ( 'NONE',  ( -60.56500390221390262, 2.000000000000000000, -0.8079780111749840232 ) ) ;
#505 = EDGE_LOOP ( 'NONE', ( #154, #302, #59 ) ) ;
#506 = ORIENTED_EDGE ( 'NONE', *, *, #470, .F. ) ;
#507 = EDGE_CURVE ( 'NONE', #461, #604, #222, .T. ) ;
#508 = AXIS2_PLACEMENT_3D ( 'NONE', #176, #466, #653 ) ;
#509 = AXIS2_PLACEMENT_3D ( 'NONE', #511, #36, #518 ) ;
#510 = DIRECTION ( 'NONE',  ( -1.000000000000000000, 0.000000000000000000, 0.000000000000000000 ) ) ;
#511 = CARTESIAN_POINT ( 'NONE',  ( 41.43499609778609738, 35.00000000000000000, -20.80797801117499901 ) ) ;
#512 = ORIENTED_EDGE ( 'NONE', *, *, #418, .F. ) ;
#513 = ADVANCED_FACE ( 'NONE', ( #740 ), #194, .T. ) ;
#514 = DIRECTION ( 'NONE',  ( 0.000000000000000000, 0.000000000000000000, 1.000000000000000000 ) ) ;
#515 = ORIENTED_EDGE ( 'NONE', *, *, #96, .F. ) ;
#516 = ORIENTED_EDGE ( 'NONE', *, *, #70, .T. ) ;
#517 = FACE_OUTER_BOUND ( 'NONE', #668, .T. ) ;
#518 = DIRECTION ( 'NONE',  ( 0.000000000000000000, 0.000000000000000000, -1.000000000000000000 ) ) ;
#519 = ORIENTED_EDGE ( 'NONE', *, *, #391, .F. ) ;
#520 = DIRECTION ( 'NONE',  ( 0.000000000000000000, 0.000000000000000000, -1.000000000000000000 ) ) ;
#521 = PLANE ( 'NONE',  #603 ) ;
#522 = LINE ( 'NONE', #174, #192 ) ;
#523 = AXIS2_PLACEMENT_3D ( 'NONE', #582, #286, #46 ) ;
#524 = AXIS2_PLACEMENT_3D ( 'NONE', #545, #485, #724 ) ;
#525 = CARTESIAN_POINT ( 'NONE',  ( -62.56500390221389551, 33.00000000000000000, -0.8079780111749840232 ) ) ;
#526 = ADVANCED_FACE ( 'NONE', ( #187 ), #315, .T. ) ;
#527 = DIRECTION ( 'NONE',  ( 0.000000000000000000, 0.000000000000000000, 1.000000000000000000 ) ) ;
#528 = APPROVAL ( #352, 'UNSPECIFIED' ) ;
#529 = DATE_TIME_ROLE ( 'classification_date' ) ;
#530 = LINE ( 'NONE', #781, #764 ) ;
#531 = DIRECTION ( 'NONE',  ( 1.000000000000000000, 0.000000000000000000, 0.000000000000000000 ) ) ;
#532 = VECTOR ( 'NONE', #214, 1000.000000000000000 ) ;
#533 = ADVANCED_FACE ( 'NONE', ( #73 ), #156, .T. ) ;
#534 = DIRECTION ( 'NONE',  ( 0.000000000000000000, 0.000000000000000000, -1.000000000000000000 ) ) ;
#535 = DIRECTION ( 'NONE',  ( 0.000000000000000000, 1.000000000000000000, 0.000000000000000000 ) ) ;
#536 = CARTESIAN_POINT ( 'NONE',  ( -62.56500390221389551, 35.00000000000000000, -20.80797801117499901 ) ) ;
#537 = ORIENTED_EDGE ( 'NONE', *, *, #571, .F. ) ;
#538 = CARTESIAN_POINT ( 'NONE',  ( -63.56500390221389551, 18.72084807007825091, -11.44650562391545989 ) ) ;
#539 = ORIENTED_EDGE ( 'NONE', *, *, #238, .F. ) ;
#540 = DIRECTION ( 'NONE',  ( 1.000000000000000000, 0.000000000000000000, 0.000000000000000000 ) ) ;
#541 = DIRECTION ( 'NONE',  ( -1.000000000000000000, 0.000000000000000000, 0.000000000000000000 ) ) ;
#542 = VECTOR ( 'NONE', #416, 1000.000000000000000 ) ;
#543 = AXIS2_PLACEMENT_3D ( 'NONE', #314, #488, #264 ) ;
#544 = DIRECTION ( 'NONE',  ( 0.000000000000000000, -1.000000000000000000, 0.000000000000000000 ) ) ;
#545 = CARTESIAN_POINT ( 'NONE',  ( -60.56500390221390262, 2.000000000000000000, -0.8079780111749840232 ) ) ;
#546 = EDGE_CURVE ( 'NONE', #84, #722, #620, .T. ) ;
#547 = CARTESIAN_POINT ( 'NONE',  ( 43.43499609778609738, 35.00000000000000000, -20.80797801117499901 ) ) ;
#548 = PRODUCT_DEFINITION ( 'UNKNOWN', '', #697, #583 ) ;
#549 = DIRECTION ( 'NONE',  ( 0.000000000000000000, 0.000000000000000000, -1.000000000000000000 ) ) ;
#550 = CARTESIAN_POINT ( 'NONE',  ( 43.43499609778609738, 2.000000000000000000, -0.8079780111749859106 ) ) ;
#551 = ORIENTED_EDGE ( 'NONE', *, *, #117, .T. ) ;
#552 = SECURITY_CLASSIFICATION ( '', '', #110 ) ;
#553 = DIRECTION ( 'NONE',  ( 0.000000000000000000, 1.000000000000000000, 0.000000000000000000 ) ) ;
#554 = EDGE_CURVE ( 'NONE', #68, #217, #656, .T. ) ;
#555 = ORIENTED_EDGE ( 'NONE', *, *, #249, .F. ) ;
#556 = CALENDAR_DATE ( 2025, 25, 12 ) ;
#557 = DIRECTION ( 'NONE',  ( 0.000000000000000000, -1.000000000000000000, 0.000000000000000000 ) ) ;
#558 = DIRECTION ( 'NONE',  ( 0.000000000000000000, 0.000000000000000000, 1.000000000000000000 ) ) ;
#559 = VERTEX_POINT ( 'NONE', #563 ) ;
#560 = EDGE_LOOP ( 'NONE', ( #515, #2, #753, #403 ) ) ;
#561 = LINE ( 'NONE', #624, #667 ) ;
#562 = DIRECTION ( 'NONE',  ( 0.000000000000000000, 0.000000000000000000, -1.000000000000000000 ) ) ;
#563 = CARTESIAN_POINT ( 'NONE',  ( -63.56500390221389551, 18.72084807007825091, -19.43531561427224830 ) ) ;
#564 = ORIENTED_EDGE ( 'NONE', *, *, #588, .F. ) ;
#565 = ORIENTED_EDGE ( 'NONE', *, *, #355, .F. ) ;
#566 =( NAMED_UNIT ( * ) SI_UNIT ( $, .STERADIAN. ) SOLID_ANGLE_UNIT ( ) );
#567 = VECTOR ( 'NONE', #510, 1000.000000000000000 ) ;
#568 = FACE_OUTER_BOUND ( 'NONE', #683, .T. ) ;
#569 = ORIENTED_EDGE ( 'NONE', *, *, #554, .T. ) ;
#570 = ORIENTED_EDGE ( 'NONE', *, *, #129, .F. ) ;
#571 = EDGE_CURVE ( 'NONE', #398, #559, #777, .T. ) ;
#572 = CARTESIAN_POINT ( 'NONE',  ( 43.43499609778609738, 35.00000000000000000, -0.8079780111749859106 ) ) ;
#573 = ORIENTED_EDGE ( 'NONE', *, *, #292, .F. ) ;
#574 = CARTESIAN_POINT ( 'NONE',  ( -60.56500390221390262, 2.000000000000000000, -20.80797801117499901 ) ) ;
#575 = CARTESIAN_POINT ( 'NONE',  ( 41.43499609778609738, 2.000000000000000000, -20.80797801117499901 ) ) ;
#576 = PLANE ( 'NONE',  #578 ) ;
#577 = DIRECTION ( 'NONE',  ( -1.000000000000000000, 0.000000000000000000, 0.000000000000000000 ) ) ;
#578 = AXIS2_PLACEMENT_3D ( 'NONE', #650, #347, #234 ) ;
#579 = EDGE_CURVE ( 'NONE', #461, #335, #719, .T. ) ;
#580 = AXIS2_PLACEMENT_3D ( 'NONE', #745, #558, #40 ) ;
#581 = DATE_AND_TIME ( #106, #150 ) ;
#582 = CARTESIAN_POINT ( 'NONE',  ( -60.56500390221390262, 2.000000000000000000, -0.8079780111749840232 ) ) ;
#583 = DESIGN_CONTEXT ( 'detailed design', #616, 'design' ) ;
#584 = CARTESIAN_POINT ( 'NONE',  ( 41.43499609778609738, 35.00000000000000000, -22.80797801117499901 ) ) ;
#585 = PERSON_AND_ORGANIZATION_ROLE ( 'classification_officer' ) ;
#586 = CARTESIAN_POINT ( 'NONE',  ( 41.43499609778609738, 33.00000000000000000, -20.80797801117499901 ) ) ;
#587 = DIRECTION ( 'NONE',  ( 0.000000000000000000, 0.000000000000000000, -1.000000000000000000 ) ) ;
#588 = EDGE_CURVE ( 'NONE', #89, #267, #209, .T. ) ;
#589 = APPROVAL_ROLE ( '' ) ;
#590 = DIRECTION ( 'NONE',  ( -1.000000000000000000, 0.000000000000000000, 0.000000000000000000 ) ) ;
#591 = DIRECTION ( 'NONE',  ( 0.000000000000000000, 0.000000000000000000, 1.000000000000000000 ) ) ;
#592 = AXIS2_PLACEMENT_3D ( 'NONE', #177, #651, #250 ) ;
#593 = AXIS2_PLACEMENT_3D ( 'NONE', #756, #691, #100 ) ;
#594 = APPLICATION_CONTEXT ( 'configuration controlled 3d designs of mechanical parts and assemblies' ) ;
#595 = CC_DESIGN_DATE_AND_TIME_ASSIGNMENT ( #118, #529, ( #552 ) ) ;
#596 = ORIENTED_EDGE ( 'NONE', *, *, #304, .F. ) ;
#597 = CARTESIAN_POINT ( 'NONE',  ( 41.43499609778609738, 33.00000000000000000, 1.192021988825016088 ) ) ;
#598 = ORIENTED_EDGE ( 'NONE', *, *, #7, .F. ) ;
#599 = CYLINDRICAL_SURFACE ( 'NONE', #679, 7.988809990356751101 ) ;
#600 = EDGE_CURVE ( 'NONE', #202, #267, #414, .T. ) ;
#601 = PLANE ( 'NONE',  #481 ) ;
#602 = ADVANCED_FACE ( 'NONE', ( #24 ), #396, .T. ) ;
#603 = AXIS2_PLACEMENT_3D ( 'NONE', #465, #701, #228 ) ;
#604 = VERTEX_POINT ( 'NONE', #82 ) ;
#605 = CARTESIAN_POINT ( 'NONE',  ( 0.000000000000000000, 35.00000000000000000, -0.8079780111749840232 ) ) ;
#606 = SPHERICAL_SURFACE ( 'NONE', #543, 2.000000000000000000 ) ;
#607 = EDGE_CURVE ( 'NONE', #185, #31, #413, .T. ) ;
#608 = DIRECTION ( 'NONE',  ( 0.000000000000000000, 0.000000000000000000, 1.000000000000000000 ) ) ;
#609 = ORIENTED_EDGE ( 'NONE', *, *, #312, .F. ) ;
#610 = AXIS2_PLACEMENT_3D ( 'NONE', #381, #432, #494 ) ;
#611 = DIRECTION ( 'NONE',  ( -1.000000000000000000, 0.000000000000000000, 0.000000000000000000 ) ) ;
#612 = DIRECTION ( 'NONE',  ( -1.000000000000000000, 0.000000000000000000, 0.000000000000000000 ) ) ;
#613 = ORIENTED_EDGE ( 'NONE', *, *, #501, .T. ) ;
#614 = ORIENTED_EDGE ( 'NONE', *, *, #712, .F. ) ;
#615 = PLANE ( 'NONE',  #351 ) ;
#616 = APPLICATION_CONTEXT ( 'configuration controlled 3d designs of mechanical parts and assemblies' ) ;
#617 = DIRECTION ( 'NONE',  ( 0.000000000000000000, 0.000000000000000000, -1.000000000000000000 ) ) ;
#618 = DIRECTION ( 'NONE',  ( 0.000000000000000000, -1.000000000000000000, 0.000000000000000000 ) ) ;
#619 = EDGE_LOOP ( 'NONE', ( #201, #428, #627, #725 ) ) ;
#620 = LINE ( 'NONE', #572, #124 ) ;
#621 = EDGE_LOOP ( 'NONE', ( #191, #146 ) ) ;
#622 = EDGE_CURVE ( 'NONE', #741, #461, #626, .T. ) ;
#623 = CIRCLE ( 'NONE', #296, 2.000000000000001776 ) ;
#624 = CARTESIAN_POINT ( 'NONE',  ( -60.56500390221390262, 0.000000000000000000, -22.80797801117499901 ) ) ;
#625 = AXIS2_PLACEMENT_3D ( 'NONE', #751, #385, #549 ) ;
#626 = LINE ( 'NONE', #265, #164 ) ;
#627 = ORIENTED_EDGE ( 'NONE', *, *, #418, .T. ) ;
#628 = CIRCLE ( 'NONE', #362, 2.000000000000000000 ) ;
#629 = ORIENTED_EDGE ( 'NONE', *, *, #730, .F. ) ;
#630 = ADVANCED_FACE ( 'NONE', ( #449 ), #29, .T. ) ;
#631 = PLANE ( 'NONE',  #493 ) ;
#632 = FACE_OUTER_BOUND ( 'NONE', #678, .T. ) ;
#633 = FACE_OUTER_BOUND ( 'NONE', #495, .T. ) ;
#634 = FACE_OUTER_BOUND ( 'NONE', #619, .T. ) ;
#635 = PRODUCT_DEFINITION_SHAPE ( 'NONE', 'NONE',  #548 ) ;
#636 = APPROVAL_DATE_TIME ( #227, #297 ) ;
#637 = ADVANCED_FACE ( 'NONE', ( #568 ), #405, .T. ) ;
#638 = CARTESIAN_POINT ( 'NONE',  ( -60.56500390221390262, 2.000000000000000000, -22.80797801117499901 ) ) ;
#639 = CC_DESIGN_DATE_AND_TIME_ASSIGNMENT ( #409, #284, ( #548 ) ) ;
#640 = CARTESIAN_POINT ( 'NONE',  ( -60.56500390221390262, 2.000000000000000000, -20.80797801117499901 ) ) ;
#641 = VECTOR ( 'NONE', #102, 1000.000000000000000 ) ;
#642 = FACE_OUTER_BOUND ( 'NONE', #208, .T. ) ;
#643 = VECTOR ( 'NONE', #557, 1000.000000000000000 ) ;
#644 = COORDINATED_UNIVERSAL_TIME_OFFSET ( 5, 30, .AHEAD. ) ;
#645 = CARTESIAN_POINT ( 'NONE',  ( -62.56500390221389551, 2.000000000000000000, 1.192021988825016088 ) ) ;
#646 = CARTESIAN_POINT ( 'NONE',  ( 41.43499609778609738, 2.000000000000000000, -0.8079780111749840232 ) ) ;
#647 = PLANE ( 'NONE',  #95 ) ;
#648 = ADVANCED_FACE ( 'NONE', ( #752 ), #277, .T. ) ;
#649 = PERSON_AND_ORGANIZATION_ROLE ( 'creator' ) ;
#650 = CARTESIAN_POINT ( 'NONE',  ( 43.43499609778609738, 35.00000000000000000, 1.192021988825016088 ) ) ;
#651 = DIRECTION ( 'NONE',  ( 0.000000000000000000, 0.000000000000000000, 1.000000000000000000 ) ) ;
#652 = DIRECTION ( 'NONE',  ( 0.000000000000000000, 0.000000000000000000, 1.000000000000000000 ) ) ;
#653 = DIRECTION ( 'NONE',  ( 1.000000000000000000, 0.000000000000000000, -8.673617379884027583E-16 ) ) ;
#654 = DIRECTION ( 'NONE',  ( 1.000000000000000000, 0.000000000000000000, 0.000000000000000000 ) ) ;
#655 = CIRCLE ( 'NONE', #317, 1.999999999999994893 ) ;
#656 = CIRCLE ( 'NONE', #491, 1.999999999999998224 ) ;
#657 = AXIS2_PLACEMENT_3D ( 'NONE', #694, #165, #743 ) ;
#658 = ORIENTED_EDGE ( 'NONE', *, *, #143, .F. ) ;
#659 = DIRECTION ( 'NONE',  ( -1.000000000000000000, 0.000000000000000000, 0.000000000000000000 ) ) ;
#660 = EDGE_CURVE ( 'NONE', #335, #217, #760, .T. ) ;
#661 = ORIENTED_EDGE ( 'NONE', *, *, #355, .T. ) ;
#662 = DIRECTION ( 'NONE',  ( 0.000000000000000000, 0.000000000000000000, -1.000000000000000000 ) ) ;
#663 = EDGE_LOOP ( 'NONE', ( #262, #688, #459, #614 ) ) ;
#664 = LINE ( 'NONE', #605, #363 ) ;
#665 = CC_DESIGN_PERSON_AND_ORGANIZATION_ASSIGNMENT ( #771, #649, ( #697 ) ) ;
#666 = CIRCLE ( 'NONE', #221, 7.988809990356751101 ) ;
#667 = VECTOR ( 'NONE', #199, 1000.000000000000000 ) ;
#668 = EDGE_LOOP ( 'NONE', ( #94, #64, #274, #742 ) ) ;
#669 = CARTESIAN_POINT ( 'NONE',  ( -60.56500390221390262, 35.00000000000000000, 1.192021988825016088 ) ) ;
#670 = ADVANCED_FACE ( 'NONE', ( #696 ), #343, .T. ) ;
#671 = ORIENTED_EDGE ( 'NONE', *, *, #350, .F. ) ;
#672 = CYLINDRICAL_SURFACE ( 'NONE', #289, 1.999999999999998224 ) ;
#673 = ORIENTED_EDGE ( 'NONE', *, *, #660, .T. ) ;
#674 = CC_DESIGN_PERSON_AND_ORGANIZATION_ASSIGNMENT ( #680, #85, ( #548 ) ) ;
#675 = PERSON_AND_ORGANIZATION ( #431, #126 ) ;
#676 = CARTESIAN_POINT ( 'NONE',  ( 41.43499609778609738, 0.000000000000000000, 1.192021988825016088 ) ) ;
#677 = ORIENTED_EDGE ( 'NONE', *, *, #372, .T. ) ;
#678 = EDGE_LOOP ( 'NONE', ( #747, #613, #673, #25 ) ) ;
#679 = AXIS2_PLACEMENT_3D ( 'NONE', #62, #540, #3 ) ;
#680 = PERSON_AND_ORGANIZATION ( #431, #126 ) ;
#681 = DIRECTION ( 'NONE',  ( 1.000000000000000000, 0.000000000000000000, 0.000000000000000000 ) ) ;
#682 = CARTESIAN_POINT ( 'NONE',  ( -60.56500390221390262, 35.00000000000000000, -0.8079780111749840232 ) ) ;
#683 = EDGE_LOOP ( 'NONE', ( #551, #306, #316 ) ) ;
#684 = ORIENTED_EDGE ( 'NONE', *, *, #372, .F. ) ;
#685 = FACE_OUTER_BOUND ( 'NONE', #220, .T. ) ;
#686 = ADVANCED_FACE ( 'NONE', ( #632 ), #521, .F. ) ;
#687 = DIRECTION ( 'NONE',  ( 0.000000000000000000, 0.000000000000000000, 1.000000000000000000 ) ) ;
#688 = ORIENTED_EDGE ( 'NONE', *, *, #763, .F. ) ;
#689 = ORIENTED_EDGE ( 'NONE', *, *, #215, .T. ) ;
#690 = CARTESIAN_POINT ( 'NONE',  ( 43.43499609778609738, 35.00000000000000000, -22.80797801117499901 ) ) ;
#691 = DIRECTION ( 'NONE',  ( 0.000000000000000000, 0.000000000000000000, -1.000000000000000000 ) ) ;
#692 = ORIENTED_EDGE ( 'NONE', *, *, #44, .F. ) ;
#693 = VERTEX_POINT ( 'NONE', #467 ) ;
#694 = CARTESIAN_POINT ( 'NONE',  ( 0.000000000000000000, 0.000000000000000000, 0.000000000000000000 ) ) ;
#695 = AXIS2_PLACEMENT_3D ( 'NONE', #308, #544, #318 ) ;
#696 = FACE_OUTER_BOUND ( 'NONE', #505, .T. ) ;
#697 = PRODUCT_DEFINITION_FORMATION_WITH_SPECIFIED_SOURCE ( 'ANY', '', #21, .NOT_KNOWN. ) ;
#698 = ORIENTED_EDGE ( 'NONE', *, *, #342, .T. ) ;
#699 = EDGE_CURVE ( 'NONE', #161, #387, #473, .T. ) ;
#700 = COORDINATED_UNIVERSAL_TIME_OFFSET ( 5, 30, .AHEAD. ) ;
#701 = DIRECTION ( 'NONE',  ( 0.000000000000000000, 0.000000000000000000, 1.000000000000000000 ) ) ;
#702 = LINE ( 'NONE', #167, #207 ) ;
#703 = DIRECTION ( 'NONE',  ( -1.000000000000000000, 0.000000000000000000, 0.000000000000000000 ) ) ;
#704 = DIRECTION ( 'NONE',  ( 0.000000000000000000, 0.000000000000000000, -1.000000000000000000 ) ) ;
#705 = UNCERTAINTY_MEASURE_WITH_UNIT (LENGTH_MEASURE( 1.000000000000000082E-05 ), #441, 'distance_accuracy_value', 'NONE');
#706 = FACE_OUTER_BOUND ( 'NONE', #206, .T. ) ;
#707 = CIRCLE ( 'NONE', #523, 2.000000000000001776 ) ;
#708 = CARTESIAN_POINT ( 'NONE',  ( 43.43499609778609738, 33.00000000000000000, -20.80797801117499901 ) ) ;
#709 = CC_DESIGN_APPROVAL ( #53, ( #548 ) ) ;
#710 = FACE_OUTER_BOUND ( 'NONE', #757, .T. ) ;
#711 = CARTESIAN_POINT ( 'NONE',  ( 41.43499609778609738, 2.000000000000000000, -0.8079780111749859106 ) ) ;
#712 = EDGE_CURVE ( 'NONE', #83, #202, #775, .T. ) ;
#713 = PERSON_AND_ORGANIZATION ( #431, #126 ) ;
#714 = CARTESIAN_POINT ( 'NONE',  ( 43.43499609778609738, 2.000000000000000000, -0.8079780111749840232 ) ) ;
#715 = DIRECTION ( 'NONE',  ( 0.000000000000000000, 0.000000000000000000, 1.000000000000000000 ) ) ;
#716 = ORIENTED_EDGE ( 'NONE', *, *, #81, .F. ) ;
#717 = DIRECTION ( 'NONE',  ( 0.000000000000000000, 0.000000000000000000, -1.000000000000000000 ) ) ;
#718 = AXIS2_PLACEMENT_3D ( 'NONE', #586, #225, #169 ) ;
#719 = CIRCLE ( 'NONE', #450, 1.999999999999998224 ) ;
#720 = CC_DESIGN_APPROVAL ( #297, ( #697 ) ) ;
#721 = EDGE_CURVE ( 'NONE', #604, #83, #365, .T. ) ;
#722 = VERTEX_POINT ( 'NONE', #550 ) ;
#723 = DIRECTION ( 'NONE',  ( 0.000000000000000000, -1.000000000000000000, 0.000000000000000000 ) ) ;
#724 = DIRECTION ( 'NONE',  ( 0.000000000000000000, 0.000000000000000000, -1.000000000000000000 ) ) ;
#725 = ORIENTED_EDGE ( 'NONE', *, *, #391, .T. ) ;
#726 = CARTESIAN_POINT ( 'NONE',  ( 0.000000000000000000, 0.000000000000000000, 0.000000000000000000 ) ) ;
#727 = EDGE_CURVE ( 'NONE', #31, #604, #90, .T. ) ;
#728 = ORIENTED_EDGE ( 'NONE', *, *, #117, .F. ) ;
#729 = LINE ( 'NONE', #744, #567 ) ;
#730 = EDGE_CURVE ( 'NONE', #329, #88, #35, .T. ) ;
#731 = DIRECTION ( 'NONE',  ( 0.000000000000000000, 0.000000000000000000, 1.000000000000000000 ) ) ;
#732 = CIRCLE ( 'NONE', #718, 1.999999999999998224 ) ;
#733 = VECTOR ( 'NONE', #617, 1000.000000000000000 ) ;
#734 = APPROVAL_PERSON_ORGANIZATION ( #768, #297, #589 ) ;
#735 = LINE ( 'NONE', #197, #257 ) ;
#736 = CARTESIAN_POINT ( 'NONE',  ( -60.56500390221390262, 33.00000000000000000, -20.80797801117499901 ) ) ;
#737 = ADVANCED_FACE ( 'NONE', ( #263 ), #395, .T. ) ;
#738 = FACE_BOUND ( 'NONE', #393, .T. ) ;
#739 = CARTESIAN_POINT ( 'NONE',  ( -63.56500390221389551, 18.72084807007825091, -11.44650562391545989 ) ) ;
#740 = FACE_OUTER_BOUND ( 'NONE', #16, .T. ) ;
#741 = VERTEX_POINT ( 'NONE', #210 ) ;
#742 = ORIENTED_EDGE ( 'NONE', *, *, #721, .T. ) ;
#743 = DIRECTION ( 'NONE',  ( 1.000000000000000000, 0.000000000000000000, 0.000000000000000000 ) ) ;
#744 = CARTESIAN_POINT ( 'NONE',  ( -62.56500390221389551, 0.000000000000000000, -0.8079780111749840232 ) ) ;
#745 = CARTESIAN_POINT ( 'NONE',  ( -60.56500390221390262, 33.00000000000000000, -0.8079780111749840232 ) ) ;
#746 = ORIENTED_EDGE ( 'NONE', *, *, #554, .F. ) ;
#747 = ORIENTED_EDGE ( 'NONE', *, *, #28, .T. ) ;
#748 = VECTOR ( 'NONE', #134, 1000.000000000000000 ) ;
#749 = EDGE_CURVE ( 'NONE', #335, #604, #364, .T. ) ;
#750 = AXIS2_PLACEMENT_3D ( 'NONE', #135, #377, #310 ) ;
#751 = CARTESIAN_POINT ( 'NONE',  ( -60.56500390221390262, 35.00000000000000000, -20.80797801117499901 ) ) ;
#752 = FACE_OUTER_BOUND ( 'NONE', #663, .T. ) ;
#753 = ORIENTED_EDGE ( 'NONE', *, *, #39, .T. ) ;
#754 = EDGE_LOOP ( 'NONE', ( #130, #382, #716, #189 ) ) ;
#755 = CARTESIAN_POINT ( 'NONE',  ( -62.56500390221389551, 33.00000000000000000, -22.80797801117499901 ) ) ;
#756 = CARTESIAN_POINT ( 'NONE',  ( -60.56500390221390262, 2.000000000000000000, -22.80797801117499901 ) ) ;
#757 = EDGE_LOOP ( 'NONE', ( #41, #132, #61, #37 ) ) ;
#758 = ORIENTED_EDGE ( 'NONE', *, *, #28, .F. ) ;
#759 = DIRECTION ( 'NONE',  ( 1.000000000000000000, 0.000000000000000000, 0.000000000000000000 ) ) ;
#760 = LINE ( 'NONE', #219, #111 ) ;
#761 = ORIENTED_EDGE ( 'NONE', *, *, #137, .F. ) ;
#762 = CARTESIAN_POINT ( 'NONE',  ( 41.43499609778609738, 33.00000000000000000, -20.80797801117499901 ) ) ;
#763 = EDGE_CURVE ( 'NONE', #89, #693, #561, .T. ) ;
#764 = VECTOR ( 'NONE', #353, 1000.000000000000000 ) ;
#765 = AXIS2_PLACEMENT_3D ( 'NONE', #281, #687, #152 ) ;
#766 = DIRECTION ( 'NONE',  ( 0.000000000000000000, 0.000000000000000000, -1.000000000000000000 ) ) ;
#767 = CARTESIAN_POINT ( 'NONE',  ( -60.56500390221390262, 33.00000000000000000, 0.000000000000000000 ) ) ;
#768 = PERSON_AND_ORGANIZATION ( #431, #126 ) ;
#769 = CARTESIAN_POINT ( 'NONE',  ( -63.56500390221389551, 18.72084807007825091, -19.43531561427224830 ) ) ;
#770 = DIRECTION ( 'NONE',  ( 1.000000000000000000, 0.000000000000000000, 0.000000000000000000 ) ) ;
#771 = PERSON_AND_ORGANIZATION ( #431, #126 ) ;
#772 = CARTESIAN_POINT ( 'NONE',  ( -62.56500390221389551, 18.72084807007825091, -11.44650562391545989 ) ) ;
#773 = ADVANCED_FACE ( 'NONE', ( #685 ), #631, .F. ) ;
#774 = AXIS2_PLACEMENT_3D ( 'NONE', #767, #527, #241 ) ;
#775 = LINE ( 'NONE', #645, #374 ) ;
#776 = DIRECTION ( 'NONE',  ( 0.000000000000000000, 0.000000000000000000, 1.000000000000000000 ) ) ;
#777 = CIRCLE ( 'NONE', #247, 7.988809990356749324 ) ;
#778 = DIRECTION ( 'NONE',  ( 0.000000000000000000, 0.000000000000000000, -1.000000000000000000 ) ) ;
#779 = LOCAL_TIME ( 17, 6, 56.00000000000000000, #644 ) ;
#780 = ADVANCED_FACE ( 'NONE', ( #738, #517 ), #615, .F. ) ;
#781 = CARTESIAN_POINT ( 'NONE',  ( -63.56500390221389551, 18.72084807007825091, -3.457695633558719894 ) ) ;
#782 = CARTESIAN_POINT ( 'NONE',  ( 0.000000000000000000, 35.00000000000000000, 0.000000000000000000 ) ) ;
#783 = DIRECTION ( 'NONE',  ( 0.000000000000000000, -1.000000000000000000, 0.000000000000000000 ) ) ;
#784 = EDGE_LOOP ( 'NONE', ( #537, #339, #332, #182 ) ) ;
#785 = DIRECTION ( 'NONE',  ( -1.000000000000000000, 0.000000000000000000, 0.000000000000000000 ) ) ;
ENDSEC;
END-ISO-10303-21;
