ISO-10303-21;
HEADER;
FILE_DESCRIPTION (( 'STEP AP203' ),
    '1' );
FILE_NAME ('DCclamp.STEP',
    '2025-12-15T16:11:22',
    ( '' ),
    ( '' ),
    'SwSTEP 2.0',
    'SolidWorks 2024',
    '' );
FILE_SCHEMA (( 'CONFIG_CONTROL_DESIGN' ));
ENDSEC;

DATA;
#1 = DATE_AND_TIME ( #422, #467 ) ;
#2 = CARTESIAN_POINT ( 'NONE',  ( 3.000000000000004441, -20.77538542463189941, 17.50000000000000000 ) ) ;
#3 = ORIENTED_EDGE ( 'NONE', *, *, #431, .F. ) ;
#4 = LINE ( 'NONE', #249, #411 ) ;
#5 = CARTESIAN_POINT ( 'NONE',  ( 3.903127820947815962E-15, -20.77538542463189941, 14.50000000000000000 ) ) ;
#6 = ORIENTED_EDGE ( 'NONE', *, *, #180, .T. ) ;
#7 = CALENDAR_DATE ( 2025, 15, 12 ) ;
#8 = VECTOR ( 'NONE', #749, 1000.000000000000000 ) ;
#9 = CARTESIAN_POINT ( 'NONE',  ( -2.000000000000000000, -22.77538542463190296, -12.90727425490456071 ) ) ;
#10 = VECTOR ( 'NONE', #790, 1000.000000000000000 ) ;
#11 = ORIENTED_EDGE ( 'NONE', *, *, #453, .T. ) ;
#12 = EDGE_CURVE ( 'NONE', #326, #755, #720, .T. ) ;
#13 = DIRECTION ( 'NONE',  ( -1.000000000000000000, 0.000000000000000000, 1.253529404715143843E-16 ) ) ;
#14 = ORIENTED_EDGE ( 'NONE', *, *, #12, .F. ) ;
#15 = PERSON_AND_ORGANIZATION ( #159, #452 ) ;
#16 = CARTESIAN_POINT ( 'NONE',  ( 4.000000000000012434, -22.77538542463190296, -14.50000000000000178 ) ) ;
#17 = CARTESIAN_POINT ( 'NONE',  ( 0.000000000000000000, -12.77538542463189941, 21.26327434359283330 ) ) ;
#18 = CARTESIAN_POINT ( 'NONE',  ( 3.450116506941533601, -22.77538542463190296, -7.500000000000003553 ) ) ;
#19 = EDGE_CURVE ( 'NONE', #420, #726, #271, .T. ) ;
#20 = AXIS2_PLACEMENT_3D ( 'NONE', #131, #414, #365 ) ;
#21 = EDGE_LOOP ( 'NONE', ( #524, #56, #6, #583, #53, #156 ) ) ;
#22 = AXIS2_PLACEMENT_3D ( 'NONE', #322, #257, #498 ) ;
#23 = ORIENTED_EDGE ( 'NONE', *, *, #699, .T. ) ;
#24 = CARTESIAN_POINT ( 'NONE',  ( 0.09945571423947693890, -21.62841918506017791, 15.27572473410625520 ) ) ;
#25 = VERTEX_POINT ( 'NONE', #625 ) ;
#26 = ORIENTED_EDGE ( 'NONE', *, *, #174, .T. ) ;
#27 = CARTESIAN_POINT ( 'NONE',  ( 3.450116506941533601, -20.77538542463189941, -9.999999999999998224 ) ) ;
#28 = LINE ( 'NONE', #219, #100 ) ;
#29 = ORIENTED_EDGE ( 'NONE', *, *, #30, .F. ) ;
#30 = EDGE_CURVE ( 'NONE', #475, #83, #754, .T. ) ;
#31 = CARTESIAN_POINT ( 'NONE',  ( 3.450116506941533601, -20.77538542463189941, 7.500000000000003553 ) ) ;
#32 = CARTESIAN_POINT ( 'NONE',  ( 0.1357689850904723883, -21.45606946328700815, -15.39228957924564511 ) ) ;
#33 = VECTOR ( 'NONE', #338, 1000.000000000000000 ) ;
#34 = AXIS2_PLACEMENT_3D ( 'NONE', #277, #771, #724 ) ;
#35 = VERTEX_POINT ( 'NONE', #268 ) ;
#36 = VECTOR ( 'NONE', #473, 1000.000000000000000 ) ;
#37 = EDGE_CURVE ( 'NONE', #340, #161, #455, .T. ) ;
#38 = PLANE ( 'NONE',  #795 ) ;
#39 = LINE ( 'NONE', #537, #761 ) ;
#40 = VERTEX_POINT ( 'NONE', #76 ) ;
#41 = LINE ( 'NONE', #162, #465 ) ;
#42 = DIRECTION ( 'NONE',  ( 0.000000000000000000, -1.000000000000000000, 0.000000000000000000 ) ) ;
#43 = VERTEX_POINT ( 'NONE', #510 ) ;
#44 = CARTESIAN_POINT ( 'NONE',  ( 0.3222537823512911515, -20.77538542463189941, -15.85265486871856666 ) ) ;
#45 = EDGE_CURVE ( 'NONE', #182, #95, #559, .T. ) ;
#46 = CARTESIAN_POINT ( 'NONE',  ( 4.000000000000006217, -22.77538542463190296, 14.50000000000000178 ) ) ;
#47 = ORIENTED_EDGE ( 'NONE', *, *, #215, .T. ) ;
#48 = VECTOR ( 'NONE', #332, 1000.000000000000000 ) ;
#49 = CC_DESIGN_PERSON_AND_ORGANIZATION_ASSIGNMENT ( #748, #512, ( #191 ) ) ;
#50 = AXIS2_PLACEMENT_3D ( 'NONE', #316, #630, #213 ) ;
#51 = DIRECTION ( 'NONE',  ( 0.000000000000000000, 0.000000000000000000, -1.000000000000000000 ) ) ;
#52 = CARTESIAN_POINT ( 'NONE',  ( 0.000000000000000000, -22.31767272171502015, -14.50000000000000355 ) ) ;
#53 = ORIENTED_EDGE ( 'NONE', *, *, #248, .F. ) ;
#54 =( NAMED_UNIT ( * ) PLANE_ANGLE_UNIT ( ) SI_UNIT ( $, .RADIAN. ) );
#55 = DIRECTION ( 'NONE',  ( -0.000000000000000000, 1.000000000000000000, -0.000000000000000000 ) ) ;
#56 = ORIENTED_EDGE ( 'NONE', *, *, #712, .T. ) ;
#57 = EDGE_CURVE ( 'NONE', #230, #173, #64, .T. ) ;
#58 = DIRECTION ( 'NONE',  ( 1.000000000000000000, -0.000000000000000000, 0.000000000000000000 ) ) ;
#59 = VERTEX_POINT ( 'NONE', #382 ) ;
#60 = AXIS2_PLACEMENT_3D ( 'NONE', #460, #394, #713 ) ;
#61 = ADVANCED_FACE ( 'NONE', ( #759 ), #264, .T. ) ;
#62 = CC_DESIGN_APPROVAL ( #494, ( #191 ) ) ;
#63 = APPROVAL_STATUS ( 'not_yet_approved' ) ;
#64 = CIRCLE ( 'NONE', #623, 1.249999999999997558 ) ;
#65 = CIRCLE ( 'NONE', #651, 1.249999999999997558 ) ;
#66 = CARTESIAN_POINT ( 'NONE',  ( 3.450116506941533601, -22.77538542463190296, 9.999999999999998224 ) ) ;
#67 = PLANE ( 'NONE',  #598 ) ;
#68 = PLANE ( 'NONE',  #503 ) ;
#69 = EDGE_LOOP ( 'NONE', ( #116, #679, #636, #135, #671 ) ) ;
#70 = FACE_OUTER_BOUND ( 'NONE', #69, .T. ) ;
#71 = ADVANCED_FACE ( 'NONE', ( #764 ), #375, .T. ) ;
#72 = ORIENTED_EDGE ( 'NONE', *, *, #12, .T. ) ;
#73 = PERSON_AND_ORGANIZATION ( #159, #452 ) ;
#74 = VECTOR ( 'NONE', #541, 1000.000000000000000 ) ;
#75 = CARTESIAN_POINT ( 'NONE',  ( -2.000000000000000000, -22.77538542463190296, 12.90727425490457136 ) ) ;
#76 = CARTESIAN_POINT ( 'NONE',  ( 7.000000000000012434, -20.77538542463189941, -14.50000000000000178 ) ) ;
#77 = DIRECTION ( 'NONE',  ( 0.000000000000000000, -0.000000000000000000, -1.000000000000000000 ) ) ;
#78 = CYLINDRICAL_SURFACE ( 'NONE', #139, 3.000000000000000888 ) ;
#79 = ORIENTED_EDGE ( 'NONE', *, *, #589, .T. ) ;
#80 = APPROVAL_DATE_TIME ( #618, #494 ) ;
#81 = LINE ( 'NONE', #27, #686 ) ;
#82 = CARTESIAN_POINT ( 'NONE',  ( 3.000000000000000444, -20.77538542463189941, -14.50000000000000355 ) ) ;
#83 = VERTEX_POINT ( 'NONE', #17 ) ;
#84 = DIRECTION ( 'NONE',  ( 0.000000000000000000, 0.000000000000000000, -1.000000000000000000 ) ) ;
#85 = AXIS2_PLACEMENT_3D ( 'NONE', #16, #148, #84 ) ;
#86 = DIRECTION ( 'NONE',  ( 0.000000000000000000, -1.000000000000000000, 0.000000000000000000 ) ) ;
#87 = ORIENTED_EDGE ( 'NONE', *, *, #579, .T. ) ;
#88 = DIRECTION ( 'NONE',  ( -1.000000000000000000, 0.000000000000000000, 0.000000000000000000 ) ) ;
#89 = ADVANCED_FACE ( 'NONE', ( #201 ), #78, .T. ) ;
#90 = CARTESIAN_POINT ( 'NONE',  ( 4.000000000000006217, -20.77538542463189941, 14.50000000000000178 ) ) ;
#91 = ORIENTED_EDGE ( 'NONE', *, *, #395, .T. ) ;
#92 = DIRECTION ( 'NONE',  ( 1.000000000000000000, 0.000000000000000000, 0.000000000000000000 ) ) ;
#93 = CARTESIAN_POINT ( 'NONE',  ( 0.000000000000000000, -22.77538542463190296, 14.50000000000000000 ) ) ;
#94 = EDGE_CURVE ( 'NONE', #668, #299, #760, .T. ) ;
#95 = VERTEX_POINT ( 'NONE', #325 ) ;
#96 = DIRECTION ( 'NONE',  ( -0.000000000000000000, -0.8283384414470250645, -0.5602280128850336549 ) ) ;
#97 = CARTESIAN_POINT ( 'NONE',  ( 4.000000000000012434, -20.77538542463189941, -17.50000000000000000 ) ) ;
#98 = CIRCLE ( 'NONE', #424, 2.999999999999999112 ) ;
#99 = EDGE_LOOP ( 'NONE', ( #236, #355, #547, #145 ) ) ;
#100 = VECTOR ( 'NONE', #259, 1000.000000000000000 ) ;
#101 = CIRCLE ( 'NONE', #177, 1.249999999999997558 ) ;
#102 = CARTESIAN_POINT ( 'NONE',  ( 2.678925472738984972E-16, -20.77538542463189941, -14.50000000000000355 ) ) ;
#103 = CARTESIAN_POINT ( 'NONE',  ( 3.450116506941533601, -22.77538542463190296, -8.750000000000000000 ) ) ;
#104 = ORIENTED_EDGE ( 'NONE', *, *, #699, .F. ) ;
#105 = ADVANCED_FACE ( 'NONE', ( #769 ), #772, .T. ) ;
#106 = DIRECTION ( 'NONE',  ( 0.000000000000000000, -1.000000000000000000, 0.000000000000000000 ) ) ;
#107 = CARTESIAN_POINT ( 'NONE',  ( 1.715241718189958680E-16, -22.20546309657528639, -14.67910748632127671 ) ) ;
#108 = EDGE_LOOP ( 'NONE', ( #457, #214, #486, #87 ) ) ;
#109 = LINE ( 'NONE', #525, #33 ) ;
#110 = CARTESIAN_POINT ( 'NONE',  ( 3.450116506941533601, -22.77538542463190296, -8.750000000000000000 ) ) ;
#111 = ORIENTED_EDGE ( 'NONE', *, *, #747, .F. ) ;
#112 = CIRCLE ( 'NONE', #34, 1.249999999999997558 ) ;
#113 = DIRECTION ( 'NONE',  ( -1.253529404715143843E-16, 0.000000000000000000, -1.000000000000000000 ) ) ;
#114 = DIRECTION ( 'NONE',  ( 0.000000000000000000, 0.000000000000000000, -1.000000000000000000 ) ) ;
#115 = EDGE_CURVE ( 'NONE', #25, #165, #28, .T. ) ;
#116 = ORIENTED_EDGE ( 'NONE', *, *, #613, .F. ) ;
#117 = DIRECTION ( 'NONE',  ( 1.000000000000000000, 0.000000000000000000, 0.000000000000000000 ) ) ;
#118 = CARTESIAN_POINT ( 'NONE',  ( 0.000000000000000000, -22.31767272171502370, 14.50000000000000178 ) ) ;
#119 = ORIENTED_EDGE ( 'NONE', *, *, #780, .T. ) ;
#120 = EDGE_CURVE ( 'NONE', #299, #317, #456, .T. ) ;
#121 = PERSON_AND_ORGANIZATION ( #159, #452 ) ;
#122 = CARTESIAN_POINT ( 'NONE',  ( -2.000000000000000000, -19.77538542463190296, 12.90727425490457136 ) ) ;
#123 = ORIENTED_EDGE ( 'NONE', *, *, #368, .F. ) ;
#124 = AXIS2_PLACEMENT_3D ( 'NONE', #650, #280, #516 ) ;
#125 = PERSON_AND_ORGANIZATION ( #159, #452 ) ;
#126 = CARTESIAN_POINT ( 'NONE',  ( 4.000000000000012434, -20.77538542463189941, -14.50000000000000178 ) ) ;
#127 = APPLICATION_CONTEXT ( 'configuration controlled 3d designs of mechanical parts and assemblies' ) ;
#128 = ORIENTED_EDGE ( 'NONE', *, *, #321, .F. ) ;
#129 = DIRECTION ( 'NONE',  ( -0.000000000000000000, 1.000000000000000000, -0.000000000000000000 ) ) ;
#130 = ADVANCED_FACE ( 'NONE', ( #442 ), #144, .T. ) ;
#131 = CARTESIAN_POINT ( 'NONE',  ( 0.000000000000000000, -19.77538542463190296, 12.90727425490457136 ) ) ;
#132 = ORIENTED_EDGE ( 'NONE', *, *, #174, .F. ) ;
#133 = DATE_TIME_ROLE ( 'classification_date' ) ;
#134 = CARTESIAN_POINT ( 'NONE',  ( 3.905033645079136560E-15, -22.20529847452688799, 14.67937025380886062 ) ) ;
#135 = ORIENTED_EDGE ( 'NONE', *, *, #421, .T. ) ;
#136 = AXIS2_PLACEMENT_3D ( 'NONE', #610, #546, #800 ) ;
#137 = PERSON_AND_ORGANIZATION ( #159, #452 ) ;
#138 = PLANE ( 'NONE',  #519 ) ;
#139 = AXIS2_PLACEMENT_3D ( 'NONE', #565, #697, #149 ) ;
#140 = DIRECTION ( 'NONE',  ( 0.000000000000000000, 0.000000000000000000, -1.000000000000000000 ) ) ;
#141 = EDGE_CURVE ( 'NONE', #654, #197, #463, .T. ) ;
#142 = VERTEX_POINT ( 'NONE', #652 ) ;
#143 = DIRECTION ( 'NONE',  ( 0.000000000000000000, 0.000000000000000000, -1.000000000000000000 ) ) ;
#144 = CYLINDRICAL_SURFACE ( 'NONE', #548, 3.000000000000000888 ) ;
#145 = ORIENTED_EDGE ( 'NONE', *, *, #166, .F. ) ;
#146 = EDGE_CURVE ( 'NONE', #240, #43, #481, .T. ) ;
#147 = CALENDAR_DATE ( 2025, 15, 12 ) ;
#148 = DIRECTION ( 'NONE',  ( 0.000000000000000000, -1.000000000000000000, 0.000000000000000000 ) ) ;
#149 = DIRECTION ( 'NONE',  ( 0.000000000000000000, 0.000000000000000000, -1.000000000000000000 ) ) ;
#150 = DIRECTION ( 'NONE',  ( 0.000000000000000000, 0.000000000000000000, 1.000000000000000000 ) ) ;
#151 = SECURITY_CLASSIFICATION ( '', '', #767 ) ;
#152 = DIRECTION ( 'NONE',  ( 0.000000000000000000, -0.000000000000000000, 1.000000000000000000 ) ) ;
#153 = ORIENTED_EDGE ( 'NONE', *, *, #543, .T. ) ;
#154 = CARTESIAN_POINT ( 'NONE',  ( 4.000000000000006217, -20.77538542463189941, 17.50000000000000000 ) ) ;
#155 = ORIENTED_EDGE ( 'NONE', *, *, #30, .T. ) ;
#156 = ORIENTED_EDGE ( 'NONE', *, *, #622, .F. ) ;
#157 = CC_DESIGN_DATE_AND_TIME_ASSIGNMENT ( #751, #133, ( #151 ) ) ;
#158 = DIRECTION ( 'NONE',  ( 0.000000000000000000, -0.5602280128850338770, 0.8283384414470250645 ) ) ;
#159 = PERSON ( 'UNSPECIFIED', 'UNSPECIFIED', 'UNSPECIFIED', ('UNSPECIFIED'), ('UNSPECIFIED'), ('UNSPECIFIED') ) ;
#160 = DIRECTION ( 'NONE',  ( 0.000000000000000000, -1.000000000000000000, 0.000000000000000000 ) ) ;
#161 = VERTEX_POINT ( 'NONE', #582 ) ;
#162 = CARTESIAN_POINT ( 'NONE',  ( 3.000000000000000888, -20.77538542463189941, -17.50000000000000000 ) ) ;
#163 = DIRECTION ( 'NONE',  ( -1.000000000000000000, 0.000000000000000000, 0.000000000000000000 ) ) ;
#164 = AXIS2_PLACEMENT_3D ( 'NONE', #344, #779, #51 ) ;
#165 = VERTEX_POINT ( 'NONE', #728 ) ;
#166 = EDGE_CURVE ( 'NONE', #233, #726, #39, .T. ) ;
#167 = CARTESIAN_POINT ( 'NONE',  ( -2.000000000000000000, -22.77538542463190296, -17.50000000000000000 ) ) ;
#168 = CARTESIAN_POINT ( 'NONE',  ( 0.1357689850904775786, -21.45606946328700460, 15.39228957924564689 ) ) ;
#169 = ORIENTED_EDGE ( 'NONE', *, *, #395, .F. ) ;
#170 = APPLICATION_CONTEXT ( 'configuration controlled 3d designs of mechanical parts and assemblies' ) ;
#171 = CARTESIAN_POINT ( 'NONE',  ( 0.2474307593633308100, -20.99439376826636305, -15.70453351756499316 ) ) ;
#172 = CARTESIAN_POINT ( 'NONE',  ( 0.2474307593633359725, -20.99439376826636305, 15.70453351756499316 ) ) ;
#173 = VERTEX_POINT ( 'NONE', #722 ) ;
#174 = EDGE_CURVE ( 'NONE', #142, #464, #65, .T. ) ;
#175 = DIRECTION ( 'NONE',  ( 0.000000000000000000, 0.000000000000000000, -1.000000000000000000 ) ) ;
#176 = ORIENTED_EDGE ( 'NONE', *, *, #443, .F. ) ;
#177 = AXIS2_PLACEMENT_3D ( 'NONE', #110, #346, #791 ) ;
#178 = AXIS2_PLACEMENT_3D ( 'NONE', #702, #689, #140 ) ;
#179 = CARTESIAN_POINT ( 'NONE',  ( 7.000000000000006217, -20.77538542463189941, 14.50000000000000178 ) ) ;
#180 = EDGE_CURVE ( 'NONE', #272, #607, #741, .T. ) ;
#181 = LINE ( 'NONE', #2, #252 ) ;
#182 = VERTEX_POINT ( 'NONE', #594 ) ;
#183 = CARTESIAN_POINT ( 'NONE',  ( 3.450116506941533601, -20.77538542463189941, -8.750000000000000000 ) ) ;
#184 = FACE_OUTER_BOUND ( 'NONE', #251, .T. ) ;
#185 = ORIENTED_EDGE ( 'NONE', *, *, #627, .F. ) ;
#186 = MANIFOLD_SOLID_BREP ( '\X2\00d8\X0\2.5 (2.5) Diameter Hole1', #386 ) ;
#187 = DIRECTION ( 'NONE',  ( -1.000000000000000000, 0.000000000000000000, 0.000000000000000000 ) ) ;
#188 = ORIENTED_EDGE ( 'NONE', *, *, #553, .T. ) ;
#189 = ADVANCED_FACE ( 'NONE', ( #391 ), #339, .T. ) ;
#190 = AXIS2_PLACEMENT_3D ( 'NONE', #122, #483, #493 ) ;
#191 = PRODUCT_DEFINITION_FORMATION_WITH_SPECIFIED_SOURCE ( 'ANY', '', #307, .NOT_KNOWN. ) ;
#192 = CARTESIAN_POINT ( 'NONE',  ( 3.903127820947815962E-15, -20.77538542463189941, 14.50000000000000000 ) ) ;
#193 = DIRECTION ( 'NONE',  ( 0.000000000000000000, -1.000000000000000000, 0.000000000000000000 ) ) ;
#194 = PRODUCT_DEFINITION ( 'UNKNOWN', '', #191, #608 ) ;
#195 = ORIENTED_EDGE ( 'NONE', *, *, #613, .T. ) ;
#196 = CARTESIAN_POINT ( 'NONE',  ( -2.000000000000000000, -20.77538542463189941, -15.85265486871857021 ) ) ;
#197 = VERTEX_POINT ( 'NONE', #287 ) ;
#198 = APPROVAL_ROLE ( '' ) ;
#199 = CARTESIAN_POINT ( 'NONE',  ( 3.450116506941533601, -20.77538542463189941, -7.500000000000002665 ) ) ;
#200 = ADVANCED_FACE ( 'NONE', ( #399, #591, #403 ), #471, .T. ) ;
#201 = FACE_OUTER_BOUND ( 'NONE', #801, .T. ) ;
#202 = EDGE_LOOP ( 'NONE', ( #592, #132 ) ) ;
#203 = VECTOR ( 'NONE', #106, 1000.000000000000000 ) ;
#204 = CARTESIAN_POINT ( 'NONE',  ( 7.000000000000012434, -22.77538542463190296, -14.50000000000000178 ) ) ;
#205 = EDGE_CURVE ( 'NONE', #726, #654, #799, .T. ) ;
#206 = CARTESIAN_POINT ( 'NONE',  ( -2.000000000000000000, -22.77538542463190296, -12.90727425490456781 ) ) ;
#207 = ORIENTED_EDGE ( 'NONE', *, *, #492, .T. ) ;
#208 = DATE_TIME_ROLE ( 'creation_date' ) ;
#209 = CARTESIAN_POINT ( 'NONE',  ( 4.000000000000006217, -20.77538542463189941, 14.50000000000000178 ) ) ;
#210 = DIRECTION ( 'NONE',  ( -0.000000000000000000, -0.000000000000000000, 1.000000000000000000 ) ) ;
#211 = VERTEX_POINT ( 'NONE', #278 ) ;
#212 = FACE_BOUND ( 'NONE', #323, .T. ) ;
#213 = DIRECTION ( 'NONE',  ( 0.000000000000000000, 0.000000000000000000, -1.000000000000000000 ) ) ;
#214 = ORIENTED_EDGE ( 'NONE', *, *, #281, .T. ) ;
#215 = EDGE_CURVE ( 'NONE', #490, #392, #295, .T. ) ;
#216 = CARTESIAN_POINT ( 'NONE',  ( -2.000000000000000000, -21.45606946328700460, -15.39228957924564689 ) ) ;
#217 = AXIS2_PLACEMENT_3D ( 'NONE', #735, #55, #793 ) ;
#218 = LOCAL_TIME ( 21, 41, 22.00000000000000000, #632 ) ;
#219 = CARTESIAN_POINT ( 'NONE',  ( -2.000000000000000000, -12.77538542463189941, 21.26327434359283330 ) ) ;
#220 = CARTESIAN_POINT ( 'NONE',  ( 7.000000000000012434, -20.77538542463189941, -14.50000000000000178 ) ) ;
#221 = ORIENTED_EDGE ( 'NONE', *, *, #57, .T. ) ;
#222 = LINE ( 'NONE', #102, #203 ) ;
#223 = EDGE_CURVE ( 'NONE', #464, #142, #101, .T. ) ;
#224 = DIRECTION ( 'NONE',  ( 0.000000000000000000, -1.000000000000000000, 0.000000000000000000 ) ) ;
#225 = ORIENTED_EDGE ( 'NONE', *, *, #492, .F. ) ;
#226 = APPROVAL ( #439, 'UNSPECIFIED' ) ;
#227 = DIRECTION ( 'NONE',  ( 1.000000000000000000, 0.000000000000000000, 0.000000000000000000 ) ) ;
#228 = DIRECTION ( 'NONE',  ( 0.000000000000000000, 0.000000000000000000, -1.000000000000000000 ) ) ;
#229 = VECTOR ( 'NONE', #143, 1000.000000000000000 ) ;
#230 = VERTEX_POINT ( 'NONE', #474 ) ;
#231 = CARTESIAN_POINT ( 'NONE',  ( -2.000000000000000000, -22.77538542463190296, 14.50000000000000000 ) ) ;
#232 = CARTESIAN_POINT ( 'NONE',  ( -2.000000000000000000, -12.77538542463189941, 21.26327434359283330 ) ) ;
#233 = VERTEX_POINT ( 'NONE', #587 ) ;
#234 = LINE ( 'NONE', #192, #688 ) ;
#235 = DIRECTION ( 'NONE',  ( 0.000000000000000000, -0.000000000000000000, -1.000000000000000000 ) ) ;
#236 = ORIENTED_EDGE ( 'NONE', *, *, #553, .F. ) ;
#237 = CARTESIAN_POINT ( 'NONE',  ( 0.000000000000000000, 0.000000000000000000, 0.000000000000000000 ) ) ;
#238 = CARTESIAN_POINT ( 'NONE',  ( -2.000000000000000000, 0.000000000000000000, 0.000000000000000000 ) ) ;
#239 = AXIS2_PLACEMENT_3D ( 'NONE', #320, #701, #150 ) ;
#240 = VERTEX_POINT ( 'NONE', #781 ) ;
#241 = AXIS2_PLACEMENT_3D ( 'NONE', #183, #129, #536 ) ;
#242 = CARTESIAN_POINT ( 'NONE',  ( 3.450116506941533601, -20.77538542463189941, -7.500000000000003553 ) ) ;
#243 = CARTESIAN_POINT ( 'NONE',  ( 3.450116506941533601, -20.77538542463189941, -9.999999999999998224 ) ) ;
#244 = EDGE_LOOP ( 'NONE', ( #611, #79, #225 ) ) ;
#245 = COORDINATED_UNIVERSAL_TIME_OFFSET ( 5, 30, .AHEAD. ) ;
#246 =( BOUNDED_CURVE ( )  B_SPLINE_CURVE ( 3, ( #44, #171, #520, #284 ),
 .UNSPECIFIED., .F., .T. ) 
 B_SPLINE_CURVE_WITH_KNOTS ( ( 4, 4 ),
 ( 4.244632432892030849, 4.410389428229581910 ),
 .UNSPECIFIED. ) 
 CURVE ( )  GEOMETRIC_REPRESENTATION_ITEM ( )  RATIONAL_B_SPLINE_CURVE ( ( 1.000000000000000000, 0.9977116951590412341, 0.9977116951590412341, 1.000000000000000000 ) ) 
 REPRESENTATION_ITEM ( '' )  );
#247 = DIRECTION ( 'NONE',  ( 0.000000000000000000, -1.000000000000000000, 0.000000000000000000 ) ) ;
#248 = EDGE_CURVE ( 'NONE', #83, #778, #642, .T. ) ;
#249 = CARTESIAN_POINT ( 'NONE',  ( 3.450116506941533601, -20.77538542463189941, 9.999999999999998224 ) ) ;
#250 = FACE_OUTER_BOUND ( 'NONE', #404, .T. ) ;
#251 = EDGE_LOOP ( 'NONE', ( #376, #782, #153, #155 ) ) ;
#252 = VECTOR ( 'NONE', #247, 1000.000000000000000 ) ;
#253 = FACE_OUTER_BOUND ( 'NONE', #733, .T. ) ;
#254 = EDGE_LOOP ( 'NONE', ( #588, #542, #531 ) ) ;
#255 = ADVANCED_FACE ( 'NONE', ( #522 ), #777, .F. ) ;
#256 = CARTESIAN_POINT ( 'NONE',  ( -2.000000000000000000, -22.77538542463190296, 14.50000000000000000 ) ) ;
#257 = DIRECTION ( 'NONE',  ( 0.000000000000000000, -1.000000000000000000, 0.000000000000000000 ) ) ;
#258 = DIRECTION ( 'NONE',  ( 0.000000000000000000, 0.8283384414470250645, -0.5602280128850336549 ) ) ;
#259 = DIRECTION ( 'NONE',  ( -0.000000000000000000, -0.000000000000000000, 1.000000000000000000 ) ) ;
#260 = ADVANCED_BREP_SHAPE_REPRESENTATION ( 'DCclamp', ( #186, #333 ), #558 ) ;
#261 = VERTEX_POINT ( 'NONE', #97 ) ;
#262 = CC_DESIGN_APPROVAL ( #434, ( #194 ) ) ;
#263 = LINE ( 'NONE', #681, #397 ) ;
#264 = PLANE ( 'NONE',  #373 ) ;
#265 = ORIENTED_EDGE ( 'NONE', *, *, #94, .T. ) ;
#266 = CALENDAR_DATE ( 2025, 15, 12 ) ;
#267 = CARTESIAN_POINT ( 'NONE',  ( 0.01582985195737036943, -22.07680430141930827, 14.84283063045784701 ) ) ;
#268 = CARTESIAN_POINT ( 'NONE',  ( 3.000000000000004441, -20.77538542463189941, 17.50000000000000000 ) ) ;
#269 = EDGE_LOOP ( 'NONE', ( #617, #683, #14, #288, #710, #676 ) ) ;
#270 = DIRECTION ( 'NONE',  ( -0.000000000000000000, 1.000000000000000000, -0.000000000000000000 ) ) ;
#271 = LINE ( 'NONE', #446, #491 ) ;
#272 = VERTEX_POINT ( 'NONE', #334 ) ;
#273 = CIRCLE ( 'NONE', #545, 2.999999999999999112 ) ;
#274 = DIRECTION ( 'NONE',  ( 0.000000000000000000, 0.000000000000000000, 1.000000000000000000 ) ) ;
#275 = ORIENTED_EDGE ( 'NONE', *, *, #672, .T. ) ;
#276 = ADVANCED_FACE ( 'NONE', ( #184 ), #739, .T. ) ;
#277 = CARTESIAN_POINT ( 'NONE',  ( 3.450116506941533601, -22.77538542463190296, 8.750000000000000000 ) ) ;
#278 = CARTESIAN_POINT ( 'NONE',  ( -2.000000000000000000, -22.77538542463190296, 12.90727425490457136 ) ) ;
#279 = ORIENTED_EDGE ( 'NONE', *, *, #775, .T. ) ;
#280 = DIRECTION ( 'NONE',  ( -0.000000000000000000, 1.000000000000000000, -0.000000000000000000 ) ) ;
#281 = EDGE_CURVE ( 'NONE', #35, #197, #181, .T. ) ;
#282 = CARTESIAN_POINT ( 'NONE',  ( 0.06592298077018905744, -21.78603309138444999, -15.14338897829046182 ) ) ;
#283 = ORIENTED_EDGE ( 'NONE', *, *, #477, .T. ) ;
#284 = CARTESIAN_POINT ( 'NONE',  ( 0.1357689850904723883, -21.45606946328700815, -15.39228957924564511 ) ) ;
#285 = CARTESIAN_POINT ( 'NONE',  ( -2.000000000000000000, -22.77538542463190296, 17.50000000000000000 ) ) ;
#286 = EDGE_LOOP ( 'NONE', ( #571, #352, #369, #646 ) ) ;
#287 = CARTESIAN_POINT ( 'NONE',  ( 3.000000000000004441, -22.77538542463190296, 17.50000000000000000 ) ) ;
#288 = ORIENTED_EDGE ( 'NONE', *, *, #589, .F. ) ;
#289 = ADVANCED_FACE ( 'NONE', ( #250 ), #68, .F. ) ;
#290 = LINE ( 'NONE', #552, #74 ) ;
#291 = ORIENTED_EDGE ( 'NONE', *, *, #311, .F. ) ;
#292 = DIRECTION ( 'NONE',  ( 0.000000000000000000, -1.000000000000000000, 0.000000000000000000 ) ) ;
#293 = PLANE ( 'NONE',  #136 ) ;
#294 = ORIENTED_EDGE ( 'NONE', *, *, #205, .T. ) ;
#295 = CIRCLE ( 'NONE', #508, 1.249999999999998446 ) ;
#296 = APPROVAL_ROLE ( '' ) ;
#297 = EDGE_CURVE ( 'NONE', #433, #35, #304, .T. ) ;
#298 = CYLINDRICAL_SURFACE ( 'NONE', #190, 3.000000000000000888 ) ;
#299 = VERTEX_POINT ( 'NONE', #9 ) ;
#300 = CARTESIAN_POINT ( 'NONE',  ( -2.000000000000000000, -22.77538542463190296, -14.50000000000000000 ) ) ;
#301 = CARTESIAN_POINT ( 'NONE',  ( 3.903127820947815962E-15, -20.77538542463189941, 14.50000000000000178 ) ) ;
#302 = ORIENTED_EDGE ( 'NONE', *, *, #311, .T. ) ;
#303 = CALENDAR_DATE ( 2025, 15, 12 ) ;
#304 = LINE ( 'NONE', #409, #648 ) ;
#305 = ORIENTED_EDGE ( 'NONE', *, *, #146, .T. ) ;
#306 = ADVANCED_FACE ( 'NONE', ( #488 ), #362, .T. ) ;
#307 = PRODUCT ( 'DCclamp', 'DCclamp', '', ( #734 ) ) ;
#308 = COORDINATED_UNIVERSAL_TIME_OFFSET ( 5, 30, .AHEAD. ) ;
#309 = PLANE ( 'NONE',  #620 ) ;
#310 = DIRECTION ( 'NONE',  ( -0.000000000000000000, 1.000000000000000000, -0.000000000000000000 ) ) ;
#311 = EDGE_CURVE ( 'NONE', #607, #35, #98, .T. ) ;
#312 = DIRECTION ( 'NONE',  ( -0.000000000000000000, 1.000000000000000000, -0.000000000000000000 ) ) ;
#313 = CARTESIAN_POINT ( 'NONE',  ( 0.000000000000000000, -12.77538542463189941, 21.26327434359283330 ) ) ;
#314 = ORIENTED_EDGE ( 'NONE', *, *, #622, .T. ) ;
#315 = LINE ( 'NONE', #757, #451 ) ;
#316 = CARTESIAN_POINT ( 'NONE',  ( 3.000000000000000444, -22.77538542463190296, -14.50000000000000355 ) ) ;
#317 = VERTEX_POINT ( 'NONE', #351 ) ;
#318 = CIRCLE ( 'NONE', #164, 2.999999999999999112 ) ;
#319 = APPROVAL_PERSON_ORGANIZATION ( #121, #434, #296 ) ;
#320 = CARTESIAN_POINT ( 'NONE',  ( 3.450116506941533601, -20.77538542463189941, -8.750000000000000000 ) ) ;
#321 = EDGE_CURVE ( 'NONE', #665, #388, #602, .T. ) ;
#322 = CARTESIAN_POINT ( 'NONE',  ( 3.000000000000004441, -20.77538542463189941, 14.50000000000000178 ) ) ;
#323 = EDGE_LOOP ( 'NONE', ( #408, #639 ) ) ;
#324 = CARTESIAN_POINT ( 'NONE',  ( 0.1357689850904775786, -21.45606946328700460, 15.39228957924564689 ) ) ;
#325 = CARTESIAN_POINT ( 'NONE',  ( 0.3222537823512911515, -20.77538542463189941, -15.85265486871856666 ) ) ;
#326 = VERTEX_POINT ( 'NONE', #678 ) ;
#327 = LINE ( 'NONE', #31, #48 ) ;
#328 = DIRECTION ( 'NONE',  ( -0.000000000000000000, -0.8283384414470250645, -0.5602280128850336549 ) ) ;
#329 = ORIENTED_EDGE ( 'NONE', *, *, #421, .F. ) ;
#330 = ADVANCED_FACE ( 'NONE', ( #606 ), #744, .F. ) ;
#331 = VECTOR ( 'NONE', #258, 1000.000000000000114 ) ;
#332 = DIRECTION ( 'NONE',  ( -0.000000000000000000, 1.000000000000000000, -0.000000000000000000 ) ) ;
#333 = AXIS2_PLACEMENT_3D ( 'NONE', #237, #666, #117 ) ;
#334 = CARTESIAN_POINT ( 'NONE',  ( 0.1357689850904775786, -21.45606946328700460, 15.39228957924564689 ) ) ;
#335 = AXIS2_PLACEMENT_3D ( 'NONE', #599, #657, #235 ) ;
#336 = ORIENTED_EDGE ( 'NONE', *, *, #647, .T. ) ;
#337 = ADVANCED_FACE ( 'NONE', ( #253 ), #670, .T. ) ;
#338 = DIRECTION ( 'NONE',  ( 1.000000000000000000, 0.000000000000000000, 0.000000000000000000 ) ) ;
#339 = PLANE ( 'NONE',  #440 ) ;
#340 = VERTEX_POINT ( 'NONE', #66 ) ;
#341 = CYLINDRICAL_SURFACE ( 'NONE', #241, 1.249999999999997558 ) ;
#342 = DIRECTION ( 'NONE',  ( 0.000000000000000000, 0.000000000000000000, -1.000000000000000000 ) ) ;
#343 = ORIENTED_EDGE ( 'NONE', *, *, #604, .T. ) ;
#344 = CARTESIAN_POINT ( 'NONE',  ( 4.000000000000012434, -20.77538542463189941, -14.50000000000000178 ) ) ;
#345 = ADVANCED_FACE ( 'NONE', ( #70 ), #298, .T. ) ;
#346 = DIRECTION ( 'NONE',  ( 0.000000000000000000, -1.000000000000000000, 0.000000000000000000 ) ) ;
#347 = AXIS2_PLACEMENT_3D ( 'NONE', #374, #619, #768 ) ;
#348 = APPROVAL_PERSON_ORGANIZATION ( #377, #226, #198 ) ;
#349 = ORIENTED_EDGE ( 'NONE', *, *, #180, .F. ) ;
#350 = APPLICATION_PROTOCOL_DEFINITION ( 'international standard', 'config_control_design', 1994, #127 ) ;
#351 = CARTESIAN_POINT ( 'NONE',  ( 0.000000000000000000, -22.77538542463190296, -12.90727425490456781 ) ) ;
#352 = ORIENTED_EDGE ( 'NONE', *, *, #687, .T. ) ;
#353 = PERSON_AND_ORGANIZATION_ROLE ( 'design_owner' ) ;
#354 = FACE_OUTER_BOUND ( 'NONE', #691, .T. ) ;
#355 = ORIENTED_EDGE ( 'NONE', *, *, #579, .F. ) ;
#356 = EDGE_CURVE ( 'NONE', #182, #261, #290, .T. ) ;
#357 =( NAMED_UNIT ( * ) SI_UNIT ( $, .STERADIAN. ) SOLID_ANGLE_UNIT ( ) );
#358 = DIRECTION ( 'NONE',  ( 1.000000000000000000, -0.000000000000000000, 0.000000000000000000 ) ) ;
#359 = VECTOR ( 'NONE', #419, 1000.000000000000000 ) ;
#360 = EDGE_LOOP ( 'NONE', ( #447, #770 ) ) ;
#361 = LINE ( 'NONE', #612, #36 ) ;
#362 = PLANE ( 'NONE',  #662 ) ;
#363 = VERTEX_POINT ( 'NONE', #667 ) ;
#364 = CARTESIAN_POINT ( 'NONE',  ( 4.072687086184798922E-15, -20.77538542463189941, 15.85265486871857021 ) ) ;
#365 = DIRECTION ( 'NONE',  ( 0.000000000000000000, 0.000000000000000000, -1.000000000000000000 ) ) ;
#366 = ORIENTED_EDGE ( 'NONE', *, *, #518, .T. ) ;
#367 = DIRECTION ( 'NONE',  ( 0.000000000000000000, 0.8283384414470250645, -0.5602280128850336549 ) ) ;
#368 = EDGE_CURVE ( 'NONE', #317, #43, #718, .T. ) ;
#369 = ORIENTED_EDGE ( 'NONE', *, *, #356, .T. ) ;
#370 = VECTOR ( 'NONE', #92, 1000.000000000000000 ) ;
#371 = CC_DESIGN_APPROVAL ( #226, ( #151 ) ) ;
#372 = PERSON_AND_ORGANIZATION ( #159, #452 ) ;
#373 = AXIS2_PLACEMENT_3D ( 'NONE', #561, #152, #379 ) ;
#374 = CARTESIAN_POINT ( 'NONE',  ( 3.450116506941533601, -20.77538542463189941, 8.750000000000000000 ) ) ;
#375 = CYLINDRICAL_SURFACE ( 'NONE', #22, 2.999999999999999112 ) ;
#376 = ORIENTED_EDGE ( 'NONE', *, *, #248, .T. ) ;
#377 = PERSON_AND_ORGANIZATION ( #159, #452 ) ;
#378 = CARTESIAN_POINT ( 'NONE',  ( -2.000000000000000000, -22.77538542463190296, -14.50000000000000000 ) ) ;
#379 = DIRECTION ( 'NONE',  ( 1.000000000000000000, 0.000000000000000000, -0.000000000000000000 ) ) ;
#380 = EDGE_CURVE ( 'NONE', #388, #595, #635, .T. ) ;
#381 = FACE_OUTER_BOUND ( 'NONE', #254, .T. ) ;
#382 = CARTESIAN_POINT ( 'NONE',  ( -2.000000000000000000, -21.45606946328700460, 15.39228957924564689 ) ) ;
#383 = CC_DESIGN_PERSON_AND_ORGANIZATION_ASSIGNMENT ( #73, #692, ( #194 ) ) ;
#384 = VECTOR ( 'NONE', #441, 1000.000000000000000 ) ;
#385 = CARTESIAN_POINT ( 'NONE',  ( 0.000000000000000000, -22.31767272171502370, 14.50000000000000178 ) ) ;
#386 = CLOSED_SHELL ( 'NONE', ( #330, #562, #529, #276, #752, #200, #600, #189, #289, #345, #89, #415, #390, #567, #306, #61, #71, #130, #337, #105, #716, #255 ) ) ;
#387 = DIRECTION ( 'NONE',  ( 0.000000000000000000, 1.156482317317871133E-15, -1.000000000000000000 ) ) ;
#388 = VERTEX_POINT ( 'NONE', #118 ) ;
#389 = DIRECTION ( 'NONE',  ( 1.000000000000000000, 0.000000000000000000, 0.000000000000000000 ) ) ;
#390 = ADVANCED_FACE ( 'NONE', ( #354 ), #293, .T. ) ;
#391 = FACE_OUTER_BOUND ( 'NONE', #499, .T. ) ;
#392 = VERTEX_POINT ( 'NONE', #243 ) ;
#393 = CARTESIAN_POINT ( 'NONE',  ( 0.000000000000000000, -22.77538542463190296, 12.90727425490457136 ) ) ;
#394 = DIRECTION ( 'NONE',  ( -0.000000000000000000, 1.000000000000000000, -0.000000000000000000 ) ) ;
#395 = EDGE_CURVE ( 'NONE', #211, #299, #549, .T. ) ;
#396 = ORIENTED_EDGE ( 'NONE', *, *, #765, .T. ) ;
#397 = VECTOR ( 'NONE', #513, 1000.000000000000000 ) ;
#398 = DIRECTION ( 'NONE',  ( -0.000000000000000000, 1.000000000000000000, -0.000000000000000000 ) ) ;
#399 = FACE_BOUND ( 'NONE', #360, .T. ) ;
#400 = AXIS2_PLACEMENT_3D ( 'NONE', #46, #534, #725 ) ;
#401 = ORIENTED_EDGE ( 'NONE', *, *, #19, .F. ) ;
#402 = FACE_OUTER_BOUND ( 'NONE', #472, .T. ) ;
#403 = FACE_OUTER_BOUND ( 'NONE', #705, .T. ) ;
#404 = EDGE_LOOP ( 'NONE', ( #169, #195, #450, #740, #3, #265 ) ) ;
#405 = EDGE_CURVE ( 'NONE', #25, #475, #263, .T. ) ;
#406 = CARTESIAN_POINT ( 'NONE',  ( 3.903127820947815962E-15, -22.77538542463190296, 14.50000000000000178 ) ) ;
#407 = CARTESIAN_POINT ( 'NONE',  ( 3.450116506941533601, -20.77538542463189941, -8.750000000000000000 ) ) ;
#408 = ORIENTED_EDGE ( 'NONE', *, *, #57, .F. ) ;
#409 = CARTESIAN_POINT ( 'NONE',  ( -2.000000000000000000, -20.77538542463189941, 17.50000000000000000 ) ) ;
#410 = AXIS2_PLACEMENT_3D ( 'NONE', #590, #708, #715 ) ;
#411 = VECTOR ( 'NONE', #487, 1000.000000000000000 ) ;
#412 = ORIENTED_EDGE ( 'NONE', *, *, #682, .T. ) ;
#413 =( LENGTH_UNIT ( ) NAMED_UNIT ( * ) SI_UNIT ( .MILLI., .METRE. ) );
#414 = DIRECTION ( 'NONE',  ( 1.000000000000000000, -0.000000000000000000, 0.000000000000000000 ) ) ;
#415 = ADVANCED_FACE ( 'NONE', ( #381 ), #138, .T. ) ;
#416 = ORIENTED_EDGE ( 'NONE', *, *, #459, .T. ) ;
#417 = LINE ( 'NONE', #242, #10 ) ;
#418 = CC_DESIGN_DATE_AND_TIME_ASSIGNMENT ( #563, #208, ( #194 ) ) ;
#419 = DIRECTION ( 'NONE',  ( -0.000000000000000000, 1.000000000000000000, -0.000000000000000000 ) ) ;
#420 = VERTEX_POINT ( 'NONE', #204 ) ;
#421 = EDGE_CURVE ( 'NONE', #388, #272, #653, .T. ) ;
#422 = CALENDAR_DATE ( 2025, 15, 12 ) ;
#423 = DIRECTION ( 'NONE',  ( -1.000000000000000000, 0.000000000000000000, 1.253529404715143843E-16 ) ) ;
#424 = AXIS2_PLACEMENT_3D ( 'NONE', #616, #614, #114 ) ;
#425 = ORIENTED_EDGE ( 'NONE', *, *, #798, .F. ) ;
#426 = LOCAL_TIME ( 21, 41, 22.00000000000000000, #507 ) ;
#427 = DIRECTION ( 'NONE',  ( 0.000000000000000000, 0.8283384414470250645, -0.5602280128850338770 ) ) ;
#428 = DIRECTION ( 'NONE',  ( 0.000000000000000000, 0.000000000000000000, -1.000000000000000000 ) ) ;
#429 = ORIENTED_EDGE ( 'NONE', *, *, #223, .T. ) ;
#430 = APPROVAL_DATE_TIME ( #628, #226 ) ;
#431 = EDGE_CURVE ( 'NONE', #668, #25, #445, .T. ) ;
#432 = CARTESIAN_POINT ( 'NONE',  ( 0.000000000000000000, -12.77538542463189941, -21.26327434359283330 ) ) ;
#433 = VERTEX_POINT ( 'NONE', #497 ) ;
#434 = APPROVAL ( #63, 'UNSPECIFIED' ) ;
#435 = CARTESIAN_POINT ( 'NONE',  ( 0.000000000000000000, -20.77538542463189941, 0.000000000000000000 ) ) ;
#436 = DIRECTION ( 'NONE',  ( 0.000000000000000000, 0.000000000000000000, -1.000000000000000000 ) ) ;
#437 = VECTOR ( 'NONE', #88, 1000.000000000000000 ) ;
#438 = AXIS2_PLACEMENT_3D ( 'NONE', #90, #86, #709 ) ;
#439 = APPROVAL_STATUS ( 'not_yet_approved' ) ;
#440 = AXIS2_PLACEMENT_3D ( 'NONE', #232, #526, #784 ) ;
#441 = DIRECTION ( 'NONE',  ( -1.253529404715143843E-16, 0.000000000000000000, -1.000000000000000000 ) ) ;
#442 = FACE_OUTER_BOUND ( 'NONE', #269, .T. ) ;
#443 = EDGE_CURVE ( 'NONE', #95, #363, #574, .T. ) ;
#444 = PRODUCT_RELATED_PRODUCT_CATEGORY ( 'detail', '', ( #307 ) ) ;
#445 = LINE ( 'NONE', #378, #704 ) ;
#446 = CARTESIAN_POINT ( 'NONE',  ( 7.000000000000006217, -22.77538542463190296, 14.50000000000000178 ) ) ;
#447 = ORIENTED_EDGE ( 'NONE', *, *, #37, .F. ) ;
#448 = CARTESIAN_POINT ( 'NONE',  ( 4.000000000000012434, -22.77538542463190296, -17.50000000000000000 ) ) ;
#449 = EDGE_LOOP ( 'NONE', ( #746, #176, #336, #11, #557, #603 ) ) ;
#450 = ORIENTED_EDGE ( 'NONE', *, *, #663, .F. ) ;
#451 = VECTOR ( 'NONE', #577, 1000.000000000000000 ) ;
#452 = ORGANIZATION ( 'UNSPECIFIED', 'UNSPECIFIED', '' ) ;
#453 = EDGE_CURVE ( 'NONE', #240, #668, #315, .T. ) ;
#454 = PLANE ( 'NONE',  #730 ) ;
#455 = CIRCLE ( 'NONE', #521, 1.249999999999997558 ) ;
#456 = LINE ( 'NONE', #206, #506 ) ;
#457 = ORIENTED_EDGE ( 'NONE', *, *, #297, .T. ) ;
#458 = CARTESIAN_POINT ( 'NONE',  ( -2.000000000000000000, -22.77538542463190296, 14.50000000000000000 ) ) ;
#459 = EDGE_CURVE ( 'NONE', #495, #420, #773, .T. ) ;
#460 = CARTESIAN_POINT ( 'NONE',  ( 3.450116506941533601, -20.77538542463189941, 8.750000000000000000 ) ) ;
#461 = ORIENTED_EDGE ( 'NONE', *, *, #120, .T. ) ;
#462 = LINE ( 'NONE', #458, #489 ) ;
#463 = LINE ( 'NONE', #285, #573 ) ;
#464 = VERTEX_POINT ( 'NONE', #18 ) ;
#465 = VECTOR ( 'NONE', #398, 1000.000000000000000 ) ;
#466 = CARTESIAN_POINT ( 'NONE',  ( -2.000000000000000000, -12.77538542463189941, 21.26327434359283330 ) ) ;
#467 = LOCAL_TIME ( 21, 41, 22.00000000000000000, #245 ) ;
#468 = CARTESIAN_POINT ( 'NONE',  ( 0.09949002557914458922, -21.62825633688626681, -15.27583487279391150 ) ) ;
#469 = ORIENTED_EDGE ( 'NONE', *, *, #120, .F. ) ;
#470 = DIRECTION ( 'NONE',  ( 0.000000000000000000, -0.8283384414470250645, -0.5602280128850338770 ) ) ;
#471 = PLANE ( 'NONE',  #335 ) ;
#472 = EDGE_LOOP ( 'NONE', ( #538, #26, #615, #47 ) ) ;
#473 = DIRECTION ( 'NONE',  ( 0.000000000000000000, -1.000000000000000000, 0.000000000000000000 ) ) ;
#474 = CARTESIAN_POINT ( 'NONE',  ( 3.450116506941533601, -20.77538542463189941, 9.999999999999998224 ) ) ;
#475 = VERTEX_POINT ( 'NONE', #432 ) ;
#476 = DIRECTION ( 'NONE',  ( -1.253529404715143843E-16, 0.000000000000000000, -1.000000000000000000 ) ) ;
#477 = EDGE_CURVE ( 'NONE', #173, #230, #758, .T. ) ;
#478 = AXIS2_PLACEMENT_3D ( 'NONE', #126, #193, #428 ) ;
#479 = CARTESIAN_POINT ( 'NONE',  ( 0.000000000000000000, 0.000000000000000000, 0.000000000000000000 ) ) ;
#480 = VECTOR ( 'NONE', #389, 1000.000000000000000 ) ;
#481 = B_SPLINE_CURVE_WITH_KNOTS ( 'NONE', 3,
 ( #32, #468, #282, #645, #107, #52 ),
 .UNSPECIFIED., .F., .F.,
 ( 4, 2, 4 ),
 ( 0.000000000000000000, 0.0006250681377862675296, 0.001250136275572535059 ),
 .UNSPECIFIED. ) ;
#482 = ORIENTED_EDGE ( 'NONE', *, *, #727, .F. ) ;
#483 = DIRECTION ( 'NONE',  ( 1.000000000000000000, 0.000000000000000000, 0.000000000000000000 ) ) ;
#484 = ORIENTED_EDGE ( 'NONE', *, *, #281, .F. ) ;
#485 = DIRECTION ( 'NONE',  ( 0.000000000000000000, 0.000000000000000000, -1.000000000000000000 ) ) ;
#486 = ORIENTED_EDGE ( 'NONE', *, *, #141, .F. ) ;
#487 = DIRECTION ( 'NONE',  ( -0.000000000000000000, 1.000000000000000000, -0.000000000000000000 ) ) ;
#488 = FACE_OUTER_BOUND ( 'NONE', #244, .T. ) ;
#489 = VECTOR ( 'NONE', #96, 1000.000000000000114 ) ;
#490 = VERTEX_POINT ( 'NONE', #199 ) ;
#491 = VECTOR ( 'NONE', #694, 1000.000000000000000 ) ;
#492 = EDGE_CURVE ( 'NONE', #317, #326, #624, .T. ) ;
#493 = DIRECTION ( 'NONE',  ( 0.000000000000000000, 0.000000000000000000, -1.000000000000000000 ) ) ;
#494 = APPROVAL ( #700, 'UNSPECIFIED' ) ;
#495 = VERTEX_POINT ( 'NONE', #448 ) ;
#496 = PRODUCT_DEFINITION_SHAPE ( 'NONE', 'NONE',  #194 ) ;
#497 = CARTESIAN_POINT ( 'NONE',  ( 4.000000000000006217, -20.77538542463189941, 17.50000000000000000 ) ) ;
#498 = DIRECTION ( 'NONE',  ( 0.000000000000000000, 0.000000000000000000, -1.000000000000000000 ) ) ;
#499 = EDGE_LOOP ( 'NONE', ( #29, #576, #535, #314 ) ) ;
#500 = APPROVAL_DATE_TIME ( #1, #434 ) ;
#501 = DIRECTION ( 'NONE',  ( 0.000000000000000000, 0.000000000000000000, -1.000000000000000000 ) ) ;
#502 = EDGE_LOOP ( 'NONE', ( #504, #511, #283, #785 ) ) ;
#503 = AXIS2_PLACEMENT_3D ( 'NONE', #238, #358, #485 ) ;
#504 = ORIENTED_EDGE ( 'NONE', *, *, #37, .T. ) ;
#505 = CIRCLE ( 'NONE', #572, 2.999999999999999112 ) ;
#506 = VECTOR ( 'NONE', #575, 1000.000000000000000 ) ;
#507 = COORDINATED_UNIVERSAL_TIME_OFFSET ( 5, 30, .AHEAD. ) ;
#508 = AXIS2_PLACEMENT_3D ( 'NONE', #407, #660, #274 ) ;
#509 = LINE ( 'NONE', #75, #8 ) ;
#510 = CARTESIAN_POINT ( 'NONE',  ( 0.000000000000000000, -22.31767272171502015, -14.50000000000000355 ) ) ;
#511 = ORIENTED_EDGE ( 'NONE', *, *, #627, .T. ) ;
#512 = PERSON_AND_ORGANIZATION_ROLE ( 'creator' ) ;
#513 = DIRECTION ( 'NONE',  ( 1.000000000000000000, 0.000000000000000000, 0.000000000000000000 ) ) ;
#514 = DIRECTION ( 'NONE',  ( -1.000000000000000000, 0.000000000000000000, -0.000000000000000000 ) ) ;
#515 = EDGE_LOOP ( 'NONE', ( #429, #695, #23, #425 ) ) ;
#516 = DIRECTION ( 'NONE',  ( 0.000000000000000000, 0.000000000000000000, 1.000000000000000000 ) ) ;
#517 = CARTESIAN_POINT ( 'NONE',  ( 3.450116506941533601, -22.77538542463190296, 8.750000000000000000 ) ) ;
#518 = EDGE_CURVE ( 'NONE', #595, #211, #509, .T. ) ;
#519 = AXIS2_PLACEMENT_3D ( 'NONE', #560, #13, #637 ) ;
#520 = CARTESIAN_POINT ( 'NONE',  ( 0.1851265893425221298, -21.22180884283410762, -15.55072646364796718 ) ) ;
#521 = AXIS2_PLACEMENT_3D ( 'NONE', #517, #621, #436 ) ;
#522 = FACE_OUTER_BOUND ( 'NONE', #794, .T. ) ;
#523 = CC_DESIGN_PERSON_AND_ORGANIZATION_ASSIGNMENT ( #372, #684, ( #191 ) ) ;
#524 = ORIENTED_EDGE ( 'NONE', *, *, #663, .T. ) ;
#525 = CARTESIAN_POINT ( 'NONE',  ( -2.000000000000000000, -20.77538542463189941, 15.85265486871857021 ) ) ;
#526 = DIRECTION ( 'NONE',  ( -0.000000000000000000, 1.000000000000000000, 0.000000000000000000 ) ) ;
#527 = ORIENTED_EDGE ( 'NONE', *, *, #736, .T. ) ;
#528 = LINE ( 'NONE', #783, #532 ) ;
#529 = ADVANCED_FACE ( 'NONE', ( #693, #629, #212 ), #309, .F. ) ;
#530 = CARTESIAN_POINT ( 'NONE',  ( 0.3222537823512959254, -20.77538542463189941, 15.85265486871856666 ) ) ;
#531 = ORIENTED_EDGE ( 'NONE', *, *, #380, .T. ) ;
#532 = VECTOR ( 'NONE', #227, 1000.000000000000000 ) ;
#533 = DIRECTION ( 'NONE',  ( 0.000000000000000000, 0.000000000000000000, -1.000000000000000000 ) ) ;
#534 = DIRECTION ( 'NONE',  ( 0.000000000000000000, -1.000000000000000000, 0.000000000000000000 ) ) ;
#535 = ORIENTED_EDGE ( 'NONE', *, *, #115, .T. ) ;
#536 = DIRECTION ( 'NONE',  ( 0.000000000000000000, 0.000000000000000000, 1.000000000000000000 ) ) ;
#537 = CARTESIAN_POINT ( 'NONE',  ( 7.000000000000006217, -20.77538542463189941, 14.50000000000000178 ) ) ;
#538 = ORIENTED_EDGE ( 'NONE', *, *, #539, .F. ) ;
#539 = EDGE_CURVE ( 'NONE', #142, #392, #81, .T. ) ;
#540 = CARTESIAN_POINT ( 'NONE',  ( 3.000000000000000888, -22.77538542463190296, -17.50000000000000000 ) ) ;
#541 = DIRECTION ( 'NONE',  ( 1.000000000000000000, 0.000000000000000000, 0.000000000000000000 ) ) ;
#542 = ORIENTED_EDGE ( 'NONE', *, *, #321, .T. ) ;
#543 = EDGE_CURVE ( 'NONE', #363, #475, #763, .T. ) ;
#544 = CARTESIAN_POINT ( 'NONE',  ( 3.903127820947815962E-15, -22.77538542463190296, 14.50000000000000000 ) ) ;
#545 = AXIS2_PLACEMENT_3D ( 'NONE', #209, #270, #501 ) ;
#546 = DIRECTION ( 'NONE',  ( 1.000000000000000000, -0.000000000000000000, 1.982541115402065356E-16 ) ) ;
#547 = ORIENTED_EDGE ( 'NONE', *, *, #205, .F. ) ;
#548 = AXIS2_PLACEMENT_3D ( 'NONE', #82, #42, #228 ) ;
#549 = LINE ( 'NONE', #256, #229 ) ;
#550 = UNCERTAINTY_MEASURE_WITH_UNIT (LENGTH_MEASURE( 1.000000000000000082E-05 ), #413, 'distance_accuracy_value', 'NONE');
#551 = DIRECTION ( 'NONE',  ( 0.000000000000000000, -0.5602280128850338770, -0.8283384414470250645 ) ) ;
#552 = CARTESIAN_POINT ( 'NONE',  ( -2.000000000000000000, -20.77538542463189941, -17.50000000000000000 ) ) ;
#553 = EDGE_CURVE ( 'NONE', #433, #233, #273, .T. ) ;
#554 = ORIENTED_EDGE ( 'NONE', *, *, #45, .T. ) ;
#555 = APPROVAL_ROLE ( '' ) ;
#556 = DIRECTION ( 'NONE',  ( 1.253529404715143843E-16, 0.000000000000000000, 1.000000000000000000 ) ) ;
#557 = ORIENTED_EDGE ( 'NONE', *, *, #431, .T. ) ;
#558 =( GEOMETRIC_REPRESENTATION_CONTEXT ( 3 ) GLOBAL_UNCERTAINTY_ASSIGNED_CONTEXT ( ( #550 ) ) GLOBAL_UNIT_ASSIGNED_CONTEXT ( ( #413, #54, #357 ) ) REPRESENTATION_CONTEXT ( 'NONE', 'WORKASPACE' ) );
#559 = CIRCLE ( 'NONE', #178, 3.000000000000000888 ) ;
#560 = CARTESIAN_POINT ( 'NONE',  ( 3.903127820947815962E-15, -20.77538542463189941, 14.50000000000000000 ) ) ;
#561 = CARTESIAN_POINT ( 'NONE',  ( -2.000000000000000000, -20.77538542463189941, 17.50000000000000000 ) ) ;
#562 = ADVANCED_FACE ( 'NONE', ( #696 ), #633, .F. ) ;
#563 = DATE_AND_TIME ( #303, #745 ) ;
#564 = CARTESIAN_POINT ( 'NONE',  ( 0.000000000000000000, -22.77538542463190296, -14.50000000000000000 ) ) ;
#565 = CARTESIAN_POINT ( 'NONE',  ( -2.000000000000000000, -19.77538542463190296, -12.90727425490456781 ) ) ;
#566 = EDGE_LOOP ( 'NONE', ( #329, #128, #626, #484, #291, #349 ) ) ;
#567 = ADVANCED_FACE ( 'NONE', ( #711 ), #38, .T. ) ;
#568 = CARTESIAN_POINT ( 'NONE',  ( 3.903127820947815962E-15, -22.77538542463190296, 14.50000000000000000 ) ) ;
#569 = DIRECTION ( 'NONE',  ( 0.000000000000000000, 0.000000000000000000, 1.000000000000000000 ) ) ;
#570 = AXIS2_PLACEMENT_3D ( 'NONE', #479, #675, #175 ) ;
#571 = ORIENTED_EDGE ( 'NONE', *, *, #604, .F. ) ;
#572 = AXIS2_PLACEMENT_3D ( 'NONE', #797, #292, #673 ) ;
#573 = VECTOR ( 'NONE', #163, 1000.000000000000000 ) ;
#574 = LINE ( 'NONE', #196, #437 ) ;
#575 = DIRECTION ( 'NONE',  ( 1.000000000000000000, 0.000000000000000000, 0.000000000000000000 ) ) ;
#576 = ORIENTED_EDGE ( 'NONE', *, *, #405, .F. ) ;
#577 = DIRECTION ( 'NONE',  ( -1.000000000000000000, -0.000000000000000000, -0.000000000000000000 ) ) ;
#578 = CARTESIAN_POINT ( 'NONE',  ( 3.450116506941533601, -20.77538542463189941, 8.750000000000000000 ) ) ;
#579 = EDGE_CURVE ( 'NONE', #654, #433, #787, .T. ) ;
#580 = CC_DESIGN_PERSON_AND_ORGANIZATION_ASSIGNMENT ( #125, #353, ( #307 ) ) ;
#581 = CARTESIAN_POINT ( 'NONE',  ( -2.000000000000000000, -20.77538542463189941, -17.50000000000000000 ) ) ;
#582 = CARTESIAN_POINT ( 'NONE',  ( 3.450116506941533601, -22.77538542463190296, 7.500000000000003553 ) ) ;
#583 = ORIENTED_EDGE ( 'NONE', *, *, #672, .F. ) ;
#584 = AXIS2_PLACEMENT_3D ( 'NONE', #732, #58, #664 ) ;
#585 = CC_DESIGN_SECURITY_CLASSIFICATION ( #151, ( #191 ) ) ;
#586 = LINE ( 'NONE', #220, #596 ) ;
#587 = CARTESIAN_POINT ( 'NONE',  ( 7.000000000000006217, -20.77538542463189941, 14.50000000000000178 ) ) ;
#588 = ORIENTED_EDGE ( 'NONE', *, *, #765, .F. ) ;
#589 = EDGE_CURVE ( 'NONE', #43, #326, #222, .T. ) ;
#590 = CARTESIAN_POINT ( 'NONE',  ( -2.000000000000000000, -19.77538542463190296, 12.90727425490457136 ) ) ;
#591 = FACE_BOUND ( 'NONE', #202, .T. ) ;
#592 = ORIENTED_EDGE ( 'NONE', *, *, #223, .F. ) ;
#593 = DIRECTION ( 'NONE',  ( -0.000000000000000000, 1.000000000000000000, -0.000000000000000000 ) ) ;
#594 = CARTESIAN_POINT ( 'NONE',  ( 3.000000000000000888, -20.77538542463189941, -17.50000000000000000 ) ) ;
#595 = VERTEX_POINT ( 'NONE', #393 ) ;
#596 = VECTOR ( 'NONE', #656, 1000.000000000000000 ) ;
#597 = CARTESIAN_POINT ( 'NONE',  ( 4.000000000000006217, -22.77538542463190296, 17.50000000000000000 ) ) ;
#598 = AXIS2_PLACEMENT_3D ( 'NONE', #300, #551, #427 ) ;
#599 = CARTESIAN_POINT ( 'NONE',  ( -2.000000000000000000, -22.77538542463190296, 14.50000000000000000 ) ) ;
#600 = ADVANCED_FACE ( 'NONE', ( #721 ), #454, .T. ) ;
#601 = EDGE_LOOP ( 'NONE', ( #729, #104 ) ) ;
#602 = LINE ( 'NONE', #301, #359 ) ;
#603 = ORIENTED_EDGE ( 'NONE', *, *, #405, .T. ) ;
#604 = EDGE_CURVE ( 'NONE', #755, #495, #776, .T. ) ;
#605 = APPLICATION_PROTOCOL_DEFINITION ( 'international standard', 'config_control_design', 1994, #170 ) ;
#606 = FACE_OUTER_BOUND ( 'NONE', #502, .T. ) ;
#607 = VERTEX_POINT ( 'NONE', #644 ) ;
#608 = DESIGN_CONTEXT ( 'detailed design', #170, 'design' ) ;
#609 = CIRCLE ( 'NONE', #124, 1.249999999999998446 ) ;
#610 = CARTESIAN_POINT ( 'NONE',  ( 7.000000000000006217, -20.77538542463189941, 14.50000000000000178 ) ) ;
#611 = ORIENTED_EDGE ( 'NONE', *, *, #368, .T. ) ;
#612 = CARTESIAN_POINT ( 'NONE',  ( 4.000000000000012434, -20.77538542463189941, -17.50000000000000000 ) ) ;
#613 = EDGE_CURVE ( 'NONE', #211, #59, #786, .T. ) ;
#614 = DIRECTION ( 'NONE',  ( -0.000000000000000000, 1.000000000000000000, -0.000000000000000000 ) ) ;
#615 = ORIENTED_EDGE ( 'NONE', *, *, #798, .T. ) ;
#616 = CARTESIAN_POINT ( 'NONE',  ( 3.000000000000004441, -20.77538542463189941, 14.50000000000000178 ) ) ;
#617 = ORIENTED_EDGE ( 'NONE', *, *, #45, .F. ) ;
#618 = DATE_AND_TIME ( #266, #796 ) ;
#619 = DIRECTION ( 'NONE',  ( -0.000000000000000000, 1.000000000000000000, -0.000000000000000000 ) ) ;
#620 = AXIS2_PLACEMENT_3D ( 'NONE', #435, #685, #77 ) ;
#621 = DIRECTION ( 'NONE',  ( 0.000000000000000000, -1.000000000000000000, 0.000000000000000000 ) ) ;
#622 = EDGE_CURVE ( 'NONE', #165, #83, #641, .T. ) ;
#623 = AXIS2_PLACEMENT_3D ( 'NONE', #578, #310, #569 ) ;
#624 = LINE ( 'NONE', #568, #384 ) ;
#625 = CARTESIAN_POINT ( 'NONE',  ( -2.000000000000000000, -12.77538542463189941, -21.26327434359283330 ) ) ;
#626 = ORIENTED_EDGE ( 'NONE', *, *, #775, .F. ) ;
#627 = EDGE_CURVE ( 'NONE', #161, #173, #327, .T. ) ;
#628 = DATE_AND_TIME ( #7, #218 ) ;
#629 = FACE_OUTER_BOUND ( 'NONE', #717, .T. ) ;
#630 = DIRECTION ( 'NONE',  ( 0.000000000000000000, -1.000000000000000000, 0.000000000000000000 ) ) ;
#631 = ORIENTED_EDGE ( 'NONE', *, *, #443, .T. ) ;
#632 = COORDINATED_UNIVERSAL_TIME_OFFSET ( 5, 30, .AHEAD. ) ;
#633 = CYLINDRICAL_SURFACE ( 'NONE', #239, 1.249999999999997558 ) ;
#634 = CARTESIAN_POINT ( 'NONE',  ( -2.000000000000000000, -19.77538542463190296, -12.90727425490456781 ) ) ;
#635 = CIRCLE ( 'NONE', #20, 3.000000000000000888 ) ;
#636 = ORIENTED_EDGE ( 'NONE', *, *, #380, .F. ) ;
#637 = DIRECTION ( 'NONE',  ( 1.253529404715143843E-16, 0.000000000000000000, 1.000000000000000000 ) ) ;
#638 = EDGE_CURVE ( 'NONE', #420, #40, #586, .T. ) ;
#639 = ORIENTED_EDGE ( 'NONE', *, *, #477, .F. ) ;
#640 = ORIENTED_EDGE ( 'NONE', *, *, #19, .T. ) ;
#641 = LINE ( 'NONE', #466, #370 ) ;
#642 = LINE ( 'NONE', #93, #674 ) ;
#643 = ORIENTED_EDGE ( 'NONE', *, *, #356, .F. ) ;
#644 = CARTESIAN_POINT ( 'NONE',  ( 0.3222537823512959254, -20.77538542463189941, 15.85265486871856666 ) ) ;
#645 = CARTESIAN_POINT ( 'NONE',  ( 0.01618115432276896748, -22.07429912217569523, -14.84580692349853948 ) ) ;
#646 = ORIENTED_EDGE ( 'NONE', *, *, #747, .T. ) ;
#647 = EDGE_CURVE ( 'NONE', #95, #240, #246, .T. ) ;
#648 = VECTOR ( 'NONE', #187, 1000.000000000000000 ) ;
#649 = VECTOR ( 'NONE', #742, 1000.000000000000000 ) ;
#650 = CARTESIAN_POINT ( 'NONE',  ( 3.450116506941533601, -20.77538542463189941, -8.750000000000000000 ) ) ;
#651 = AXIS2_PLACEMENT_3D ( 'NONE', #103, #224, #342 ) ;
#652 = CARTESIAN_POINT ( 'NONE',  ( 3.450116506941533601, -22.77538542463190296, -9.999999999999998224 ) ) ;
#653 = B_SPLINE_CURVE_WITH_KNOTS ( 'NONE', 3,
 ( #385, #134, #267, #753, #24, #324 ),
 .UNSPECIFIED., .F., .F.,
 ( 4, 2, 4 ),
 ( 3.127036105074864095E-20, 0.0006247322743665436121, 0.001249464548733087224 ),
 .UNSPECIFIED. ) ;
#654 = VERTEX_POINT ( 'NONE', #597 ) ;
#655 = EDGE_CURVE ( 'NONE', #161, #340, #112, .T. ) ;
#656 = DIRECTION ( 'NONE',  ( -0.000000000000000000, 1.000000000000000000, -0.000000000000000000 ) ) ;
#657 = DIRECTION ( 'NONE',  ( 0.000000000000000000, -1.000000000000000000, 0.000000000000000000 ) ) ;
#658 = ORIENTED_EDGE ( 'NONE', *, *, #655, .T. ) ;
#659 = DIRECTION ( 'NONE',  ( -1.000000000000000000, 0.000000000000000000, -0.000000000000000000 ) ) ;
#660 = DIRECTION ( 'NONE',  ( -0.000000000000000000, 1.000000000000000000, -0.000000000000000000 ) ) ;
#661 = ORIENTED_EDGE ( 'NONE', *, *, #297, .F. ) ;
#662 = AXIS2_PLACEMENT_3D ( 'NONE', #5, #423, #556 ) ;
#663 = EDGE_CURVE ( 'NONE', #165, #59, #462, .T. ) ;
#664 = DIRECTION ( 'NONE',  ( 0.000000000000000000, 0.000000000000000000, -1.000000000000000000 ) ) ;
#665 = VERTEX_POINT ( 'NONE', #406 ) ;
#666 = DIRECTION ( 'NONE',  ( 0.000000000000000000, 0.000000000000000000, 1.000000000000000000 ) ) ;
#667 = CARTESIAN_POINT ( 'NONE',  ( 4.916664101845779365E-17, -20.77538542463189941, -15.85265486871857021 ) ) ;
#668 = VERTEX_POINT ( 'NONE', #216 ) ;
#669 = CARTESIAN_POINT ( 'NONE',  ( 7.000000000000006217, -22.77538542463190296, 14.50000000000000178 ) ) ;
#670 = CYLINDRICAL_SURFACE ( 'NONE', #478, 2.999999999999999112 ) ;
#671 = ORIENTED_EDGE ( 'NONE', *, *, #712, .F. ) ;
#672 = EDGE_CURVE ( 'NONE', #778, #607, #109, .T. ) ;
#673 = DIRECTION ( 'NONE',  ( 0.000000000000000000, 0.000000000000000000, -1.000000000000000000 ) ) ;
#674 = VECTOR ( 'NONE', #328, 1000.000000000000114 ) ;
#675 = DIRECTION ( 'NONE',  ( 1.000000000000000000, -0.000000000000000000, 0.000000000000000000 ) ) ;
#676 = ORIENTED_EDGE ( 'NONE', *, *, #647, .F. ) ;
#677 = LINE ( 'NONE', #179, #649 ) ;
#678 = CARTESIAN_POINT ( 'NONE',  ( 2.678925472738984972E-16, -22.77538542463190296, -14.50000000000000355 ) ) ;
#679 = ORIENTED_EDGE ( 'NONE', *, *, #518, .F. ) ;
#680 = SHAPE_DEFINITION_REPRESENTATION ( #496, #260 ) ;
#681 = CARTESIAN_POINT ( 'NONE',  ( -2.000000000000000000, -12.77538542463189941, -21.26327434359283330 ) ) ;
#682 = EDGE_CURVE ( 'NONE', #40, #261, #318, .T. ) ;
#683 = ORIENTED_EDGE ( 'NONE', *, *, #687, .F. ) ;
#684 = PERSON_AND_ORGANIZATION_ROLE ( 'design_supplier' ) ;
#685 = DIRECTION ( 'NONE',  ( 0.000000000000000000, -1.000000000000000000, 0.000000000000000000 ) ) ;
#686 = VECTOR ( 'NONE', #312, 1000.000000000000000 ) ;
#687 = EDGE_CURVE ( 'NONE', #755, #182, #41, .T. ) ;
#688 = VECTOR ( 'NONE', #476, 1000.000000000000000 ) ;
#689 = DIRECTION ( 'NONE',  ( -0.000000000000000000, 1.000000000000000000, -0.000000000000000000 ) ) ;
#690 = AXIS2_PLACEMENT_3D ( 'NONE', #634, #514, #387 ) ;
#691 = EDGE_LOOP ( 'NONE', ( #401, #766, #527, #750 ) ) ;
#692 = PERSON_AND_ORGANIZATION_ROLE ( 'creator' ) ;
#693 = FACE_BOUND ( 'NONE', #601, .T. ) ;
#694 = DIRECTION ( 'NONE',  ( -1.982541115402065356E-16, 0.000000000000000000, 1.000000000000000000 ) ) ;
#695 = ORIENTED_EDGE ( 'NONE', *, *, #539, .T. ) ;
#696 = FACE_OUTER_BOUND ( 'NONE', #515, .T. ) ;
#697 = DIRECTION ( 'NONE',  ( 1.000000000000000000, 0.000000000000000000, 0.000000000000000000 ) ) ;
#698 = ORIENTED_EDGE ( 'NONE', *, *, #682, .F. ) ;
#699 = EDGE_CURVE ( 'NONE', #392, #490, #609, .T. ) ;
#700 = APPROVAL_STATUS ( 'not_yet_approved' ) ;
#701 = DIRECTION ( 'NONE',  ( -0.000000000000000000, 1.000000000000000000, -0.000000000000000000 ) ) ;
#702 = CARTESIAN_POINT ( 'NONE',  ( 3.000000000000000444, -20.77538542463189941, -14.50000000000000355 ) ) ;
#703 = CC_DESIGN_PERSON_AND_ORGANIZATION_ASSIGNMENT ( #137, #762, ( #151 ) ) ;
#704 = VECTOR ( 'NONE', #367, 1000.000000000000114 ) ;
#705 = EDGE_LOOP ( 'NONE', ( #789, #279, #396, #366, #91, #461, #207, #72, #343, #416, #640, #294 ) ) ;
#706 = APPROVAL_PERSON_ORGANIZATION ( #15, #494, #555 ) ;
#707 = VECTOR ( 'NONE', #210, 1000.000000000000000 ) ;
#708 = DIRECTION ( 'NONE',  ( -1.000000000000000000, 0.000000000000000000, -0.000000000000000000 ) ) ;
#709 = DIRECTION ( 'NONE',  ( 0.000000000000000000, 0.000000000000000000, -1.000000000000000000 ) ) ;
#710 = ORIENTED_EDGE ( 'NONE', *, *, #146, .F. ) ;
#711 = FACE_OUTER_BOUND ( 'NONE', #286, .T. ) ;
#712 = EDGE_CURVE ( 'NONE', #59, #272, #528, .T. ) ;
#713 = DIRECTION ( 'NONE',  ( 0.000000000000000000, 0.000000000000000000, 1.000000000000000000 ) ) ;
#714 = ORIENTED_EDGE ( 'NONE', *, *, #638, .F. ) ;
#715 = DIRECTION ( 'NONE',  ( 0.000000000000000000, 0.000000000000000000, -1.000000000000000000 ) ) ;
#716 = ADVANCED_FACE ( 'NONE', ( #402 ), #341, .F. ) ;
#717 = EDGE_LOOP ( 'NONE', ( #482, #275, #302, #661, #188, #792, #412, #643, #554, #631 ) ) ;
#718 = CIRCLE ( 'NONE', #584, 3.000000000000000888 ) ;
#719 = VECTOR ( 'NONE', #113, 1000.000000000000000 ) ;
#720 = CIRCLE ( 'NONE', #50, 3.000000000000000888 ) ;
#721 = FACE_OUTER_BOUND ( 'NONE', #21, .T. ) ;
#722 = CARTESIAN_POINT ( 'NONE',  ( 3.450116506941533601, -20.77538542463189941, 7.500000000000002665 ) ) ;
#723 = ORIENTED_EDGE ( 'NONE', *, *, #453, .F. ) ;
#724 = DIRECTION ( 'NONE',  ( 0.000000000000000000, 0.000000000000000000, -1.000000000000000000 ) ) ;
#725 = DIRECTION ( 'NONE',  ( 0.000000000000000000, 0.000000000000000000, -1.000000000000000000 ) ) ;
#726 = VERTEX_POINT ( 'NONE', #669 ) ;
#727 = EDGE_CURVE ( 'NONE', #778, #363, #234, .T. ) ;
#728 = CARTESIAN_POINT ( 'NONE',  ( -2.000000000000000000, -12.77538542463189941, 21.26327434359283330 ) ) ;
#729 = ORIENTED_EDGE ( 'NONE', *, *, #215, .F. ) ;
#730 = AXIS2_PLACEMENT_3D ( 'NONE', #231, #158, #470 ) ;
#731 = FACE_OUTER_BOUND ( 'NONE', #449, .T. ) ;
#732 = CARTESIAN_POINT ( 'NONE',  ( 0.000000000000000000, -19.77538542463190296, -12.90727425490456781 ) ) ;
#733 = EDGE_LOOP ( 'NONE', ( #698, #714, #774, #111 ) ) ;
#734 = MECHANICAL_CONTEXT ( 'NONE', #127, 'mechanical' ) ;
#735 = CARTESIAN_POINT ( 'NONE',  ( 3.450116506941533601, -20.77538542463189941, 8.750000000000000000 ) ) ;
#736 = EDGE_CURVE ( 'NONE', #40, #233, #677, .T. ) ;
#737 = ORIENTED_EDGE ( 'NONE', *, *, #94, .F. ) ;
#738 = LINE ( 'NONE', #544, #719 ) ;
#739 = PLANE ( 'NONE',  #570 ) ;
#740 = ORIENTED_EDGE ( 'NONE', *, *, #115, .F. ) ;
#741 =( BOUNDED_CURVE ( )  B_SPLINE_CURVE ( 3, ( #168, #788, #172, #530 ),
 .UNSPECIFIED., .F., .F. ) 
 B_SPLINE_CURVE_WITH_KNOTS ( ( 4, 4 ),
 ( 1.872795878950006321, 2.038552874287556271 ),
 .UNSPECIFIED. ) 
 CURVE ( )  GEOMETRIC_REPRESENTATION_ITEM ( )  RATIONAL_B_SPLINE_CURVE ( ( 1.000000000000000000, 0.9977116951590412341, 0.9977116951590412341, 1.000000000000000000 ) ) 
 REPRESENTATION_ITEM ( '' )  );
#742 = DIRECTION ( 'NONE',  ( -1.982541115402065356E-16, 0.000000000000000000, 1.000000000000000000 ) ) ;
#743 = VECTOR ( 'NONE', #593, 1000.000000000000000 ) ;
#744 = CYLINDRICAL_SURFACE ( 'NONE', #217, 1.249999999999997558 ) ;
#745 = LOCAL_TIME ( 21, 41, 22.00000000000000000, #756 ) ;
#746 = ORIENTED_EDGE ( 'NONE', *, *, #543, .F. ) ;
#747 = EDGE_CURVE ( 'NONE', #261, #495, #361, .T. ) ;
#748 = PERSON_AND_ORGANIZATION ( #159, #452 ) ;
#749 = DIRECTION ( 'NONE',  ( -1.000000000000000000, -0.000000000000000000, -0.000000000000000000 ) ) ;
#750 = ORIENTED_EDGE ( 'NONE', *, *, #166, .T. ) ;
#751 = DATE_AND_TIME ( #147, #426 ) ;
#752 = ADVANCED_FACE ( 'NONE', ( #731 ), #67, .T. ) ;
#753 = CARTESIAN_POINT ( 'NONE',  ( 0.06534118001700280065, -21.78894420601918824, 15.14076666887791056 ) ) ;
#754 = LINE ( 'NONE', #313, #707 ) ;
#755 = VERTEX_POINT ( 'NONE', #540 ) ;
#756 = COORDINATED_UNIVERSAL_TIME_OFFSET ( 5, 30, .AHEAD. ) ;
#757 = CARTESIAN_POINT ( 'NONE',  ( -2.000000000000000000, -21.45606946328700815, -15.39228957924564511 ) ) ;
#758 = CIRCLE ( 'NONE', #347, 1.249999999999997558 ) ;
#759 = FACE_OUTER_BOUND ( 'NONE', #108, .T. ) ;
#760 = CIRCLE ( 'NONE', #690, 3.000000000000000888 ) ;
#761 = VECTOR ( 'NONE', #160, 1000.000000000000000 ) ;
#762 = PERSON_AND_ORGANIZATION_ROLE ( 'classification_officer' ) ;
#763 = LINE ( 'NONE', #564, #331 ) ;
#764 = FACE_OUTER_BOUND ( 'NONE', #566, .T. ) ;
#765 = EDGE_CURVE ( 'NONE', #665, #595, #738, .T. ) ;
#766 = ORIENTED_EDGE ( 'NONE', *, *, #638, .T. ) ;
#767 = SECURITY_CLASSIFICATION_LEVEL ( 'unclassified' ) ;
#768 = DIRECTION ( 'NONE',  ( 0.000000000000000000, 0.000000000000000000, 1.000000000000000000 ) ) ;
#769 = FACE_OUTER_BOUND ( 'NONE', #99, .T. ) ;
#770 = ORIENTED_EDGE ( 'NONE', *, *, #655, .F. ) ;
#771 = DIRECTION ( 'NONE',  ( 0.000000000000000000, -1.000000000000000000, 0.000000000000000000 ) ) ;
#772 = CYLINDRICAL_SURFACE ( 'NONE', #438, 2.999999999999999112 ) ;
#773 = CIRCLE ( 'NONE', #85, 2.999999999999999112 ) ;
#774 = ORIENTED_EDGE ( 'NONE', *, *, #459, .F. ) ;
#775 = EDGE_CURVE ( 'NONE', #197, #665, #505, .T. ) ;
#776 = LINE ( 'NONE', #167, #480 ) ;
#777 = CYLINDRICAL_SURFACE ( 'NONE', #60, 1.249999999999997558 ) ;
#778 = VERTEX_POINT ( 'NONE', #364 ) ;
#779 = DIRECTION ( 'NONE',  ( -0.000000000000000000, 1.000000000000000000, -0.000000000000000000 ) ) ;
#780 = EDGE_CURVE ( 'NONE', #340, #230, #4, .T. ) ;
#781 = CARTESIAN_POINT ( 'NONE',  ( 0.1357689850904723883, -21.45606946328700815, -15.39228957924564511 ) ) ;
#782 = ORIENTED_EDGE ( 'NONE', *, *, #727, .T. ) ;
#783 = CARTESIAN_POINT ( 'NONE',  ( -2.000000000000000000, -21.45606946328700460, 15.39228957924564689 ) ) ;
#784 = DIRECTION ( 'NONE',  ( 0.000000000000000000, -0.000000000000000000, 1.000000000000000000 ) ) ;
#785 = ORIENTED_EDGE ( 'NONE', *, *, #780, .F. ) ;
#786 = CIRCLE ( 'NONE', #410, 3.000000000000000888 ) ;
#787 = LINE ( 'NONE', #154, #743 ) ;
#788 = CARTESIAN_POINT ( 'NONE',  ( 0.1851265893425272924, -21.22180884283410407, 15.55072646364796896 ) ) ;
#789 = ORIENTED_EDGE ( 'NONE', *, *, #141, .T. ) ;
#790 = DIRECTION ( 'NONE',  ( -0.000000000000000000, 1.000000000000000000, -0.000000000000000000 ) ) ;
#791 = DIRECTION ( 'NONE',  ( 0.000000000000000000, 0.000000000000000000, -1.000000000000000000 ) ) ;
#792 = ORIENTED_EDGE ( 'NONE', *, *, #736, .F. ) ;
#793 = DIRECTION ( 'NONE',  ( 0.000000000000000000, 0.000000000000000000, 1.000000000000000000 ) ) ;
#794 = EDGE_LOOP ( 'NONE', ( #185, #658, #119, #221 ) ) ;
#795 = AXIS2_PLACEMENT_3D ( 'NONE', #581, #533, #659 ) ;
#796 = LOCAL_TIME ( 21, 41, 22.00000000000000000, #308 ) ;
#797 = CARTESIAN_POINT ( 'NONE',  ( 3.000000000000004441, -22.77538542463190296, 14.50000000000000178 ) ) ;
#798 = EDGE_CURVE ( 'NONE', #464, #490, #417, .T. ) ;
#799 = CIRCLE ( 'NONE', #400, 2.999999999999999112 ) ;
#800 = DIRECTION ( 'NONE',  ( 1.982541115402065356E-16, 0.000000000000000000, -1.000000000000000000 ) ) ;
#801 = EDGE_LOOP ( 'NONE', ( #737, #723, #305, #123, #469 ) ) ;
ENDSEC;
END-ISO-10303-21;
