ISO-10303-21;
HEADER;
FILE_DESCRIPTION (( 'STEP AP203' ),
    '1' );
FILE_NAME ('IMUSTRIP_Default_sldprt.STEP',
    '2025-12-25T11:37:02',
    ( '' ),
    ( '' ),
    'SwSTEP 2.0',
    'SolidWorks 2024',
    '' );
FILE_SCHEMA (( 'CONFIG_CONTROL_DESIGN' ));
ENDSEC;

DATA;
#1 = DIRECTION ( 'NONE',  ( 0.000000000000000000, 1.000000000000000000, 0.000000000000000000 ) ) ;
#2 = VERTEX_POINT ( 'NONE', #124 ) ;
#3 = FACE_OUTER_BOUND ( 'NONE', #179, .T. ) ;
#4 = VECTOR ( 'NONE', #22, 1000.000000000000000 ) ;
#5 = DIRECTION ( 'NONE',  ( 0.000000000000000000, 1.000000000000000000, 0.000000000000000000 ) ) ;
#6 = DIRECTION ( 'NONE',  ( -1.239088197126290570E-16, -0.000000000000000000, -1.000000000000000000 ) ) ;
#7 = EDGE_CURVE ( 'NONE', #2, #175, #206, .T. ) ;
#8 = CALENDAR_DATE ( 2025, 25, 12 ) ;
#9 = VECTOR ( 'NONE', #271, 1000.000000000000000 ) ;
#10 = ORIENTED_EDGE ( 'NONE', *, *, #16, .F. ) ;
#11 = ADVANCED_FACE ( 'NONE', ( #34 ), #155, .F. ) ;
#12 = LOCAL_TIME ( 17, 7, 2.000000000000000000, #42 ) ;
#13 = EDGE_LOOP ( 'NONE', ( #153, #385 ) ) ;
#14 = AXIS2_PLACEMENT_3D ( 'NONE', #346, #378, #202 ) ;
#15 = COORDINATED_UNIVERSAL_TIME_OFFSET ( 5, 30, .AHEAD. ) ;
#16 = EDGE_CURVE ( 'NONE', #196, #366, #84, .T. ) ;
#17 = LOCAL_TIME ( 17, 7, 2.000000000000000000, #345 ) ;
#18 = APPROVAL_STATUS ( 'not_yet_approved' ) ;
#19 = PLANE ( 'NONE',  #333 ) ;
#20 = PERSON_AND_ORGANIZATION ( #116, #185 ) ;
#21 = VECTOR ( 'NONE', #211, 1000.000000000000000 ) ;
#22 = DIRECTION ( 'NONE',  ( -0.000000000000000000, -1.000000000000000000, -0.000000000000000000 ) ) ;
#23 = VERTEX_POINT ( 'NONE', #66 ) ;
#24 = DIRECTION ( 'NONE',  ( 0.000000000000000000, 0.000000000000000000, -1.000000000000000000 ) ) ;
#25 = ORIENTED_EDGE ( 'NONE', *, *, #368, .T. ) ;
#26 = ADVANCED_FACE ( 'NONE', ( #212 ), #240, .F. ) ;
#27 = CARTESIAN_POINT ( 'NONE',  ( 7.500000000000000000, 2.000000000000000000, -6.500000000000000888 ) ) ;
#28 = ORIENTED_EDGE ( 'NONE', *, *, #132, .T. ) ;
#29 = CARTESIAN_POINT ( 'NONE',  ( -7.500000000000000000, 2.000000000000000000, -2.500000000000001776 ) ) ;
#30 = VECTOR ( 'NONE', #264, 1000.000000000000000 ) ;
#31 = ORIENTED_EDGE ( 'NONE', *, *, #7, .T. ) ;
#32 = CARTESIAN_POINT ( 'NONE',  ( 7.500000000000000000, 2.000000000000000000, -6.500000000000000888 ) ) ;
#33 = EDGE_CURVE ( 'NONE', #260, #175, #259, .T. ) ;
#34 = FACE_OUTER_BOUND ( 'NONE', #173, .T. ) ;
#35 = CARTESIAN_POINT ( 'NONE',  ( -7.500000000000000000, 0.000000000000000000, -2.500000000000001776 ) ) ;
#36 = LINE ( 'NONE', #304, #233 ) ;
#37 = VECTOR ( 'NONE', #65, 1000.000000000000000 ) ;
#38 = DIRECTION ( 'NONE',  ( 0.000000000000000000, 0.000000000000000000, 1.000000000000000000 ) ) ;
#39 = CARTESIAN_POINT ( 'NONE',  ( 10.00000000000000178, 0.000000000000000000, -6.999999999999997335 ) ) ;
#40 = AXIS2_PLACEMENT_3D ( 'NONE', #318, #91, #226 ) ;
#41 = PRODUCT_DEFINITION_SHAPE ( 'NONE', 'NONE',  #222 ) ;
#42 = COORDINATED_UNIVERSAL_TIME_OFFSET ( 5, 30, .AHEAD. ) ;
#43 = CC_DESIGN_SECURITY_CLASSIFICATION ( #285, ( #146 ) ) ;
#44 = PERSON_AND_ORGANIZATION_ROLE ( 'design_supplier' ) ;
#45 = CC_DESIGN_PERSON_AND_ORGANIZATION_ASSIGNMENT ( #50, #77, ( #146 ) ) ;
#46 = AXIS2_PLACEMENT_3D ( 'NONE', #245, #329, #71 ) ;
#47 = ORIENTED_EDGE ( 'NONE', *, *, #93, .F. ) ;
#48 = DIRECTION ( 'NONE',  ( 1.000000000000000000, 0.000000000000000000, -0.000000000000000000 ) ) ;
#49 = VERTEX_POINT ( 'NONE', #29 ) ;
#50 = PERSON_AND_ORGANIZATION ( #116, #185 ) ;
#51 = LINE ( 'NONE', #267, #306 ) ;
#52 = ORIENTED_EDGE ( 'NONE', *, *, #249, .F. ) ;
#53 = SECURITY_CLASSIFICATION_LEVEL ( 'unclassified' ) ;
#54 = VECTOR ( 'NONE', #356, 1000.000000000000000 ) ;
#55 = FACE_OUTER_BOUND ( 'NONE', #237, .T. ) ;
#56 = ORIENTED_EDGE ( 'NONE', *, *, #189, .F. ) ;
#57 = EDGE_CURVE ( 'NONE', #23, #319, #217, .T. ) ;
#58 = PLANE ( 'NONE',  #220 ) ;
#59 = ORIENTED_EDGE ( 'NONE', *, *, #308, .T. ) ;
#60 = DIRECTION ( 'NONE',  ( 1.000000000000000000, -0.000000000000000000, 1.239088197126290817E-16 ) ) ;
#61 = EDGE_LOOP ( 'NONE', ( #25, #208, #323, #377 ) ) ;
#62 = APPROVAL ( #135, 'UNSPECIFIED' ) ;
#63 = CARTESIAN_POINT ( 'NONE',  ( -10.00000000000000178, 2.000000000000000000, 7.000000000000004441 ) ) ;
#64 = VERTEX_POINT ( 'NONE', #384 ) ;
#65 = DIRECTION ( 'NONE',  ( -0.000000000000000000, -1.000000000000000000, -0.000000000000000000 ) ) ;
#66 = CARTESIAN_POINT ( 'NONE',  ( -7.500000000000000000, 0.000000000000000000, -6.500000000000002665 ) ) ;
#67 = LINE ( 'NONE', #99, #241 ) ;
#68 = LINE ( 'NONE', #324, #121 ) ;
#69 = CIRCLE ( 'NONE', #367, 2.000000000000000444 ) ;
#70 = APPROVAL ( #370, 'UNSPECIFIED' ) ;
#71 = DIRECTION ( 'NONE',  ( 0.000000000000000000, 0.000000000000000000, 1.000000000000000000 ) ) ;
#72 = APPROVAL_PERSON_ORGANIZATION ( #112, #70, #164 ) ;
#73 = APPROVAL ( #18, 'UNSPECIFIED' ) ;
#74 = AXIS2_PLACEMENT_3D ( 'NONE', #242, #328, #38 ) ;
#75 = ADVANCED_FACE ( 'NONE', ( #55 ), #348, .F. ) ;
#76 = ORIENTED_EDGE ( 'NONE', *, *, #295, .T. ) ;
#77 = PERSON_AND_ORGANIZATION_ROLE ( 'creator' ) ;
#78 = CLOSED_SHELL ( 'NONE', ( #327, #11, #162, #166, #380, #100, #105, #75, #86, #26 ) ) ;
#79 = CARTESIAN_POINT ( 'NONE',  ( -10.00000000000000178, 2.000000000000000000, 7.000000000000004441 ) ) ;
#80 = ADVANCED_BREP_SHAPE_REPRESENTATION ( 'IMUSTRIP_Default_sldprt', ( #343, #101 ), #279 ) ;
#81 = ORIENTED_EDGE ( 'NONE', *, *, #246, .T. ) ;
#82 = COORDINATED_UNIVERSAL_TIME_OFFSET ( 5, 30, .AHEAD. ) ;
#83 = FACE_OUTER_BOUND ( 'NONE', #379, .T. ) ;
#84 = LINE ( 'NONE', #325, #103 ) ;
#85 = PERSON_AND_ORGANIZATION ( #116, #185 ) ;
#86 = ADVANCED_FACE ( 'NONE', ( #174 ), #376, .F. ) ;
#87 = DIRECTION ( 'NONE',  ( 0.000000000000000000, 0.000000000000000000, -1.000000000000000000 ) ) ;
#88 = EDGE_LOOP ( 'NONE', ( #235, #268 ) ) ;
#89 = DIRECTION ( 'NONE',  ( 1.239088197126290817E-16, 0.000000000000000000, -1.000000000000000000 ) ) ;
#90 = ORIENTED_EDGE ( 'NONE', *, *, #334, .T. ) ;
#91 = DIRECTION ( 'NONE',  ( 0.000000000000000000, 1.000000000000000000, 0.000000000000000000 ) ) ;
#92 = ORIENTED_EDGE ( 'NONE', *, *, #246, .F. ) ;
#93 = EDGE_CURVE ( 'NONE', #339, #260, #284, .T. ) ;
#94 = DIRECTION ( 'NONE',  ( -1.000000000000000000, -0.000000000000000000, -0.000000000000000000 ) ) ;
#95 = CARTESIAN_POINT ( 'NONE',  ( 10.00000000000000178, 2.000000000000000000, -6.999999999999997335 ) ) ;
#96 = VECTOR ( 'NONE', #228, 1000.000000000000000 ) ;
#97 = DIRECTION ( 'NONE',  ( -0.000000000000000000, -1.000000000000000000, -0.000000000000000000 ) ) ;
#98 = DIRECTION ( 'NONE',  ( 0.000000000000000000, 0.000000000000000000, 1.000000000000000000 ) ) ;
#99 = CARTESIAN_POINT ( 'NONE',  ( -7.500000000000000000, 2.000000000000000000, -2.500000000000001776 ) ) ;
#100 = ADVANCED_FACE ( 'NONE', ( #83 ), #19, .F. ) ;
#101 = AXIS2_PLACEMENT_3D ( 'NONE', #283, #113, #227 ) ;
#102 = DIRECTION ( 'NONE',  ( -1.000000000000000000, 0.000000000000000000, 1.239088197126290817E-16 ) ) ;
#103 = VECTOR ( 'NONE', #97, 1000.000000000000000 ) ;
#104 = CALENDAR_DATE ( 2025, 25, 12 ) ;
#105 = ADVANCED_FACE ( 'NONE', ( #291 ), #148, .F. ) ;
#106 = APPROVAL_PERSON_ORGANIZATION ( #258, #73, #225 ) ;
#107 = VERTEX_POINT ( 'NONE', #27 ) ;
#108 = AXIS2_PLACEMENT_3D ( 'NONE', #363, #160, #216 ) ;
#109 = ORIENTED_EDGE ( 'NONE', *, *, #230, .T. ) ;
#110 = DATE_AND_TIME ( #252, #286 ) ;
#111 = ORIENTED_EDGE ( 'NONE', *, *, #33, .T. ) ;
#112 = PERSON_AND_ORGANIZATION ( #116, #185 ) ;
#113 = DIRECTION ( 'NONE',  ( 0.000000000000000000, 0.000000000000000000, 1.000000000000000000 ) ) ;
#114 = DIRECTION ( 'NONE',  ( -0.000000000000000000, -1.000000000000000000, -0.000000000000000000 ) ) ;
#115 = CC_DESIGN_PERSON_AND_ORGANIZATION_ASSIGNMENT ( #287, #335, ( #273 ) ) ;
#116 = PERSON ( 'UNSPECIFIED', 'UNSPECIFIED', 'UNSPECIFIED', ('UNSPECIFIED'), ('UNSPECIFIED'), ('UNSPECIFIED') ) ;
#117 = CARTESIAN_POINT ( 'NONE',  ( -10.00000000000000000, 0.000000000000000000, -6.999999999999997335 ) ) ;
#118 = ORIENTED_EDGE ( 'NONE', *, *, #157, .F. ) ;
#119 = CARTESIAN_POINT ( 'NONE',  ( -10.00000000000000000, 2.000000000000000000, -6.999999999999997335 ) ) ;
#120 = EDGE_LOOP ( 'NONE', ( #200, #257, #147, #351 ) ) ;
#121 = VECTOR ( 'NONE', #322, 1000.000000000000000 ) ;
#122 = LINE ( 'NONE', #231, #4 ) ;
#123 = CC_DESIGN_PERSON_AND_ORGANIZATION_ASSIGNMENT ( #20, #44, ( #146 ) ) ;
#124 = CARTESIAN_POINT ( 'NONE',  ( 10.00000000000000178, 0.000000000000000000, -6.999999999999997335 ) ) ;
#125 = VERTEX_POINT ( 'NONE', #150 ) ;
#126 = DIRECTION ( 'NONE',  ( -1.239088197126290570E-16, 0.000000000000000000, 1.000000000000000000 ) ) ;
#127 = APPROVAL_PERSON_ORGANIZATION ( #375, #62, #337 ) ;
#128 = CC_DESIGN_APPROVAL ( #70, ( #146 ) ) ;
#129 = DIRECTION ( 'NONE',  ( -0.000000000000000000, -1.000000000000000000, -0.000000000000000000 ) ) ;
#130 = LINE ( 'NONE', #207, #54 ) ;
#131 = AXIS2_PLACEMENT_3D ( 'NONE', #133, #1, #243 ) ;
#132 = EDGE_CURVE ( 'NONE', #107, #229, #183, .T. ) ;
#133 = CARTESIAN_POINT ( 'NONE',  ( -7.500000000000000000, 0.000000000000000000, -4.500000000000002665 ) ) ;
#134 = CARTESIAN_POINT ( 'NONE',  ( 10.00000000000000178, 2.000000000000000000, -6.999999999999997335 ) ) ;
#135 = APPROVAL_STATUS ( 'not_yet_approved' ) ;
#136 = CC_DESIGN_DATE_AND_TIME_ASSIGNMENT ( #143, #170, ( #285 ) ) ;
#137 = ORIENTED_EDGE ( 'NONE', *, *, #142, .F. ) ;
#138 = DATE_AND_TIME ( #104, #213 ) ;
#139 = CC_DESIGN_PERSON_AND_ORGANIZATION_ASSIGNMENT ( #340, #194, ( #222 ) ) ;
#140 =( LENGTH_UNIT ( ) NAMED_UNIT ( * ) SI_UNIT ( .MILLI., .METRE. ) );
#141 = PLANE ( 'NONE',  #266 ) ;
#142 = EDGE_CURVE ( 'NONE', #221, #336, #122, .T. ) ;
#143 = DATE_AND_TIME ( #223, #198 ) ;
#144 = AXIS2_PLACEMENT_3D ( 'NONE', #313, #262, #199 ) ;
#145 = DIRECTION ( 'NONE',  ( 0.000000000000000000, 1.000000000000000000, 0.000000000000000000 ) ) ;
#146 = PRODUCT_DEFINITION_FORMATION_WITH_SPECIFIED_SOURCE ( 'ANY', '', #273, .NOT_KNOWN. ) ;
#147 = ORIENTED_EDGE ( 'NONE', *, *, #290, .F. ) ;
#148 = PLANE ( 'NONE',  #350 ) ;
#149 = ORIENTED_EDGE ( 'NONE', *, *, #219, .T. ) ;
#150 = CARTESIAN_POINT ( 'NONE',  ( -7.500000000000000000, 2.000000000000000000, -6.500000000000002665 ) ) ;
#151 = EDGE_LOOP ( 'NONE', ( #118, #297, #81, #317 ) ) ;
#152 = FACE_BOUND ( 'NONE', #13, .T. ) ;
#153 = ORIENTED_EDGE ( 'NONE', *, *, #189, .T. ) ;
#154 = CARTESIAN_POINT ( 'NONE',  ( 10.00000000000000355, 0.000000000000000000, 7.000000000000004441 ) ) ;
#155 = CYLINDRICAL_SURFACE ( 'NONE', #248, 2.000000000000000000 ) ;
#156 = CARTESIAN_POINT ( 'NONE',  ( 7.500000000000000000, 2.000000000000000000, -4.500000000000001776 ) ) ;
#157 = EDGE_CURVE ( 'NONE', #229, #203, #51, .T. ) ;
#158 = CARTESIAN_POINT ( 'NONE',  ( -10.00000000000000000, 2.000000000000000000, -6.999999999999997335 ) ) ;
#159 = LINE ( 'NONE', #39, #364 ) ;
#160 = DIRECTION ( 'NONE',  ( 0.000000000000000000, 1.000000000000000000, 0.000000000000000000 ) ) ;
#161 = ORIENTED_EDGE ( 'NONE', *, *, #157, .T. ) ;
#162 = ADVANCED_FACE ( 'NONE', ( #168, #176, #296 ), #141, .T. ) ;
#163 = MECHANICAL_CONTEXT ( 'NONE', #244, 'mechanical' ) ;
#164 = APPROVAL_ROLE ( '' ) ;
#165 = APPLICATION_PROTOCOL_DEFINITION ( 'international standard', 'config_control_design', 1994, #188 ) ;
#166 = ADVANCED_FACE ( 'NONE', ( #288, #255, #152 ), #58, .F. ) ;
#167 = DIRECTION ( 'NONE',  ( 0.000000000000000000, 1.000000000000000000, 0.000000000000000000 ) ) ;
#168 = FACE_BOUND ( 'NONE', #373, .T. ) ;
#169 = ORIENTED_EDGE ( 'NONE', *, *, #261, .T. ) ;
#170 = DATE_TIME_ROLE ( 'classification_date' ) ;
#171 = CIRCLE ( 'NONE', #14, 1.999999999999999556 ) ;
#172 = DIRECTION ( 'NONE',  ( 0.000000000000000000, 0.000000000000000000, 1.000000000000000000 ) ) ;
#173 = EDGE_LOOP ( 'NONE', ( #149, #371, #369, #314 ) ) ;
#174 = FACE_OUTER_BOUND ( 'NONE', #294, .T. ) ;
#175 = VERTEX_POINT ( 'NONE', #117 ) ;
#176 = FACE_OUTER_BOUND ( 'NONE', #321, .T. ) ;
#177 = ORIENTED_EDGE ( 'NONE', *, *, #275, .F. ) ;
#178 = CARTESIAN_POINT ( 'NONE',  ( 7.500000000000000000, 2.000000000000000000, -2.500000000000001776 ) ) ;
#179 = EDGE_LOOP ( 'NONE', ( #28, #161, #56, #92 ) ) ;
#180 = CARTESIAN_POINT ( 'NONE',  ( 10.00000000000000355, 2.000000000000000000, 7.000000000000004441 ) ) ;
#181 = LINE ( 'NONE', #215, #316 ) ;
#182 = DIRECTION ( 'NONE',  ( -0.000000000000000000, -1.000000000000000000, -0.000000000000000000 ) ) ;
#183 = CIRCLE ( 'NONE', #144, 1.999999999999999556 ) ;
#184 = DIRECTION ( 'NONE',  ( -1.239088197126290570E-16, 0.000000000000000000, 1.000000000000000000 ) ) ;
#185 = ORGANIZATION ( 'UNSPECIFIED', 'UNSPECIFIED', '' ) ;
#186 = CIRCLE ( 'NONE', #131, 2.000000000000000444 ) ;
#187 = ORIENTED_EDGE ( 'NONE', *, *, #302, .F. ) ;
#188 = APPLICATION_CONTEXT ( 'configuration controlled 3d designs of mechanical parts and assemblies' ) ;
#189 = EDGE_CURVE ( 'NONE', #64, #203, #171, .T. ) ;
#190 = DATE_AND_TIME ( #8, #17 ) ;
#191 = ORIENTED_EDGE ( 'NONE', *, *, #93, .T. ) ;
#192 = DATE_AND_TIME ( #197, #12 ) ;
#193 = DIRECTION ( 'NONE',  ( -0.000000000000000000, -1.000000000000000000, -0.000000000000000000 ) ) ;
#194 = PERSON_AND_ORGANIZATION_ROLE ( 'creator' ) ;
#195 = CARTESIAN_POINT ( 'NONE',  ( -10.00000000000000000, 2.000000000000000000, -6.999999999999997335 ) ) ;
#196 = VERTEX_POINT ( 'NONE', #79 ) ;
#197 = CALENDAR_DATE ( 2025, 25, 12 ) ;
#198 = LOCAL_TIME ( 17, 7, 2.000000000000000000, #253 ) ;
#199 = DIRECTION ( 'NONE',  ( 0.000000000000000000, 0.000000000000000000, 1.000000000000000000 ) ) ;
#200 = ORIENTED_EDGE ( 'NONE', *, *, #368, .F. ) ;
#201 = CIRCLE ( 'NONE', #74, 2.000000000000000444 ) ;
#202 = DIRECTION ( 'NONE',  ( 0.000000000000000000, 0.000000000000000000, 1.000000000000000000 ) ) ;
#203 = VERTEX_POINT ( 'NONE', #311 ) ;
#204 = EDGE_CURVE ( 'NONE', #203, #64, #358, .T. ) ;
#205 = CARTESIAN_POINT ( 'NONE',  ( -10.00000000000000000, 2.000000000000000000, -6.999999999999997335 ) ) ;
#206 = LINE ( 'NONE', #299, #209 ) ;
#207 = CARTESIAN_POINT ( 'NONE',  ( -7.500000000000000000, 2.000000000000000000, -6.500000000000002665 ) ) ;
#208 = ORIENTED_EDGE ( 'NONE', *, *, #308, .F. ) ;
#209 = VECTOR ( 'NONE', #94, 1000.000000000000000 ) ;
#210 = EDGE_CURVE ( 'NONE', #366, #336, #36, .T. ) ;
#211 = DIRECTION ( 'NONE',  ( -0.000000000000000000, -1.000000000000000000, -0.000000000000000000 ) ) ;
#212 = FACE_OUTER_BOUND ( 'NONE', #151, .T. ) ;
#213 = LOCAL_TIME ( 17, 7, 2.000000000000000000, #82 ) ;
#214 = FACE_OUTER_BOUND ( 'NONE', #61, .T. ) ;
#215 = CARTESIAN_POINT ( 'NONE',  ( -10.00000000000000000, 0.000000000000000000, -6.999999999999997335 ) ) ;
#216 = DIRECTION ( 'NONE',  ( 0.000000000000000000, 0.000000000000000000, 1.000000000000000000 ) ) ;
#217 = CIRCLE ( 'NONE', #40, 2.000000000000000444 ) ;
#218 = PERSON_AND_ORGANIZATION_ROLE ( 'classification_officer' ) ;
#219 = EDGE_CURVE ( 'NONE', #125, #49, #69, .T. ) ;
#220 = AXIS2_PLACEMENT_3D ( 'NONE', #224, #145, #338 ) ;
#221 = VERTEX_POINT ( 'NONE', #180 ) ;
#222 = PRODUCT_DEFINITION ( 'UNKNOWN', '', #146, #344 ) ;
#223 = CALENDAR_DATE ( 2025, 25, 12 ) ;
#224 = CARTESIAN_POINT ( 'NONE',  ( 0.000000000000000000, 0.000000000000000000, 0.000000000000000000 ) ) ;
#225 = APPROVAL_ROLE ( '' ) ;
#226 = DIRECTION ( 'NONE',  ( 0.000000000000000000, 0.000000000000000000, 1.000000000000000000 ) ) ;
#227 = DIRECTION ( 'NONE',  ( 1.000000000000000000, 0.000000000000000000, 0.000000000000000000 ) ) ;
#228 = DIRECTION ( 'NONE',  ( -1.000000000000000000, -0.000000000000000000, -0.000000000000000000 ) ) ;
#229 = VERTEX_POINT ( 'NONE', #178 ) ;
#230 = EDGE_CURVE ( 'NONE', #125, #23, #130, .T. ) ;
#231 = CARTESIAN_POINT ( 'NONE',  ( 10.00000000000000355, 2.000000000000000000, 7.000000000000004441 ) ) ;
#232 = ORIENTED_EDGE ( 'NONE', *, *, #334, .F. ) ;
#233 = VECTOR ( 'NONE', #269, 1000.000000000000000 ) ;
#234 = CARTESIAN_POINT ( 'NONE',  ( 0.000000000000000000, 2.000000000000000000, 0.000000000000000000 ) ) ;
#235 = ORIENTED_EDGE ( 'NONE', *, *, #57, .T. ) ;
#236 = CARTESIAN_POINT ( 'NONE',  ( -10.00000000000000178, 0.000000000000000000, 7.000000000000004441 ) ) ;
#237 = EDGE_LOOP ( 'NONE', ( #250, #137, #232, #278 ) ) ;
#238 = EDGE_CURVE ( 'NONE', #319, #23, #186, .T. ) ;
#239 = LINE ( 'NONE', #95, #37 ) ;
#240 = CYLINDRICAL_SURFACE ( 'NONE', #382, 1.999999999999999112 ) ;
#241 = VECTOR ( 'NONE', #298, 1000.000000000000000 ) ;
#242 = CARTESIAN_POINT ( 'NONE',  ( -7.500000000000000000, 2.000000000000000000, -4.500000000000002665 ) ) ;
#243 = DIRECTION ( 'NONE',  ( 0.000000000000000000, 0.000000000000000000, 1.000000000000000000 ) ) ;
#244 = APPLICATION_CONTEXT ( 'configuration controlled 3d designs of mechanical parts and assemblies' ) ;
#245 = CARTESIAN_POINT ( 'NONE',  ( 7.500000000000000000, 0.000000000000000000, -4.500000000000001776 ) ) ;
#246 = EDGE_CURVE ( 'NONE', #107, #64, #300, .T. ) ;
#247 = APPROVAL_DATE_TIME ( #190, #73 ) ;
#248 = AXIS2_PLACEMENT_3D ( 'NONE', #270, #129, #342 ) ;
#249 = EDGE_CURVE ( 'NONE', #229, #107, #272, .T. ) ;
#250 = ORIENTED_EDGE ( 'NONE', *, *, #210, .T. ) ;
#251 = EDGE_LOOP ( 'NONE', ( #353, #52 ) ) ;
#252 = CALENDAR_DATE ( 2025, 25, 12 ) ;
#253 = COORDINATED_UNIVERSAL_TIME_OFFSET ( 5, 30, .AHEAD. ) ;
#254 = APPROVAL_DATE_TIME ( #110, #70 ) ;
#255 = FACE_BOUND ( 'NONE', #88, .T. ) ;
#256 = AXIS2_PLACEMENT_3D ( 'NONE', #381, #320, #372 ) ;
#257 = ORIENTED_EDGE ( 'NONE', *, *, #210, .F. ) ;
#258 = PERSON_AND_ORGANIZATION ( #116, #185 ) ;
#259 = LINE ( 'NONE', #119, #30 ) ;
#260 = VERTEX_POINT ( 'NONE', #276 ) ;
#261 = EDGE_CURVE ( 'NONE', #260, #196, #362, .T. ) ;
#262 = DIRECTION ( 'NONE',  ( 0.000000000000000000, 1.000000000000000000, 0.000000000000000000 ) ) ;
#263 = ORIENTED_EDGE ( 'NONE', *, *, #219, .F. ) ;
#264 = DIRECTION ( 'NONE',  ( -0.000000000000000000, -1.000000000000000000, -0.000000000000000000 ) ) ;
#265 = ORIENTED_EDGE ( 'NONE', *, *, #302, .T. ) ;
#266 = AXIS2_PLACEMENT_3D ( 'NONE', #234, #167, #352 ) ;
#267 = CARTESIAN_POINT ( 'NONE',  ( 7.500000000000000000, 2.000000000000000000, -2.500000000000001776 ) ) ;
#268 = ORIENTED_EDGE ( 'NONE', *, *, #238, .T. ) ;
#269 = DIRECTION ( 'NONE',  ( 1.000000000000000000, 0.000000000000000000, 0.000000000000000000 ) ) ;
#270 = CARTESIAN_POINT ( 'NONE',  ( -7.500000000000000000, 2.000000000000000000, -4.500000000000002665 ) ) ;
#271 = DIRECTION ( 'NONE',  ( 1.000000000000000000, 0.000000000000000000, 0.000000000000000000 ) ) ;
#272 = CIRCLE ( 'NONE', #108, 1.999999999999999556 ) ;
#273 = PRODUCT ( 'IMUSTRIP_Default_sldprt', 'IMUSTRIP_Default_sldprt', '', ( #163 ) ) ;
#274 = CARTESIAN_POINT ( 'NONE',  ( -7.500000000000000000, 2.000000000000000000, -4.500000000000002665 ) ) ;
#275 = EDGE_CURVE ( 'NONE', #49, #319, #67, .T. ) ;
#276 = CARTESIAN_POINT ( 'NONE',  ( -10.00000000000000000, 2.000000000000000000, -6.999999999999997335 ) ) ;
#277 = DIRECTION ( 'NONE',  ( 1.239088197126290817E-16, 0.000000000000000000, 1.000000000000000000 ) ) ;
#278 = ORIENTED_EDGE ( 'NONE', *, *, #16, .T. ) ;
#279 =( GEOMETRIC_REPRESENTATION_CONTEXT ( 3 ) GLOBAL_UNCERTAINTY_ASSIGNED_CONTEXT ( ( #361 ) ) GLOBAL_UNIT_ASSIGNED_CONTEXT ( ( #140, #307, #365 ) ) REPRESENTATION_CONTEXT ( 'NONE', 'WORKASPACE' ) );
#280 = AXIS2_PLACEMENT_3D ( 'NONE', #156, #182, #354 ) ;
#281 = VECTOR ( 'NONE', #184, 1000.000000000000000 ) ;
#282 = APPLICATION_PROTOCOL_DEFINITION ( 'international standard', 'config_control_design', 1994, #244 ) ;
#283 = CARTESIAN_POINT ( 'NONE',  ( 0.000000000000000000, 0.000000000000000000, 0.000000000000000000 ) ) ;
#284 = LINE ( 'NONE', #293, #96 ) ;
#285 = SECURITY_CLASSIFICATION ( '', '', #53 ) ;
#286 = LOCAL_TIME ( 17, 7, 2.000000000000000000, #15 ) ;
#287 = PERSON_AND_ORGANIZATION ( #116, #185 ) ;
#288 = FACE_OUTER_BOUND ( 'NONE', #120, .T. ) ;
#289 = ORIENTED_EDGE ( 'NONE', *, *, #33, .F. ) ;
#290 = EDGE_CURVE ( 'NONE', #175, #366, #181, .T. ) ;
#291 = FACE_OUTER_BOUND ( 'NONE', #347, .T. ) ;
#292 = ORIENTED_EDGE ( 'NONE', *, *, #261, .F. ) ;
#293 = CARTESIAN_POINT ( 'NONE',  ( -10.00000000000000000, 2.000000000000000000, -6.999999999999997335 ) ) ;
#294 = EDGE_LOOP ( 'NONE', ( #177, #265, #109, #355 ) ) ;
#295 = EDGE_CURVE ( 'NONE', #221, #339, #68, .T. ) ;
#296 = FACE_BOUND ( 'NONE', #251, .T. ) ;
#297 = ORIENTED_EDGE ( 'NONE', *, *, #249, .T. ) ;
#298 = DIRECTION ( 'NONE',  ( -0.000000000000000000, -1.000000000000000000, -0.000000000000000000 ) ) ;
#299 = CARTESIAN_POINT ( 'NONE',  ( -10.00000000000000000, 0.000000000000000000, -6.999999999999997335 ) ) ;
#300 = LINE ( 'NONE', #32, #21 ) ;
#301 = CARTESIAN_POINT ( 'NONE',  ( 10.00000000000000178, 2.000000000000000000, -6.999999999999997335 ) ) ;
#302 = EDGE_CURVE ( 'NONE', #49, #125, #201, .T. ) ;
#303 = AXIS2_PLACEMENT_3D ( 'NONE', #341, #87, #315 ) ;
#304 = CARTESIAN_POINT ( 'NONE',  ( -10.00000000000000178, 0.000000000000000000, 7.000000000000004441 ) ) ;
#305 = LINE ( 'NONE', #63, #9 ) ;
#306 = VECTOR ( 'NONE', #193, 1000.000000000000000 ) ;
#307 =( NAMED_UNIT ( * ) PLANE_ANGLE_UNIT ( ) SI_UNIT ( $, .RADIAN. ) );
#308 = EDGE_CURVE ( 'NONE', #339, #2, #239, .T. ) ;
#309 = DATE_TIME_ROLE ( 'creation_date' ) ;
#310 = SHAPE_DEFINITION_REPRESENTATION ( #41, #80 ) ;
#311 = CARTESIAN_POINT ( 'NONE',  ( 7.500000000000000000, 0.000000000000000000, -2.500000000000001776 ) ) ;
#312 = CC_DESIGN_DATE_AND_TIME_ASSIGNMENT ( #138, #309, ( #222 ) ) ;
#313 = CARTESIAN_POINT ( 'NONE',  ( 7.500000000000000000, 2.000000000000000000, -4.500000000000001776 ) ) ;
#314 = ORIENTED_EDGE ( 'NONE', *, *, #230, .F. ) ;
#315 = DIRECTION ( 'NONE',  ( -1.000000000000000000, 0.000000000000000000, -0.000000000000000000 ) ) ;
#316 = VECTOR ( 'NONE', #126, 1000.000000000000000 ) ;
#317 = ORIENTED_EDGE ( 'NONE', *, *, #204, .F. ) ;
#318 = CARTESIAN_POINT ( 'NONE',  ( -7.500000000000000000, 0.000000000000000000, -4.500000000000002665 ) ) ;
#319 = VERTEX_POINT ( 'NONE', #35 ) ;
#320 = DIRECTION ( 'NONE',  ( -0.000000000000000000, -1.000000000000000000, -0.000000000000000000 ) ) ;
#321 = EDGE_LOOP ( 'NONE', ( #76, #191, #169, #90 ) ) ;
#322 = DIRECTION ( 'NONE',  ( -1.239088197126290570E-16, -0.000000000000000000, -1.000000000000000000 ) ) ;
#323 = ORIENTED_EDGE ( 'NONE', *, *, #295, .F. ) ;
#324 = CARTESIAN_POINT ( 'NONE',  ( 10.00000000000000178, 2.000000000000000000, -6.999999999999997335 ) ) ;
#325 = CARTESIAN_POINT ( 'NONE',  ( -10.00000000000000178, 2.000000000000000000, 7.000000000000004441 ) ) ;
#326 = PLANE ( 'NONE',  #332 ) ;
#327 = ADVANCED_FACE ( 'NONE', ( #3 ), #360, .F. ) ;
#328 = DIRECTION ( 'NONE',  ( 0.000000000000000000, 1.000000000000000000, 0.000000000000000000 ) ) ;
#329 = DIRECTION ( 'NONE',  ( 0.000000000000000000, 1.000000000000000000, 0.000000000000000000 ) ) ;
#330 = APPROVAL_DATE_TIME ( #192, #62 ) ;
#331 = CC_DESIGN_APPROVAL ( #62, ( #285 ) ) ;
#332 = AXIS2_PLACEMENT_3D ( 'NONE', #134, #102, #277 ) ;
#333 = AXIS2_PLACEMENT_3D ( 'NONE', #205, #172, #48 ) ;
#334 = EDGE_CURVE ( 'NONE', #196, #221, #305, .T. ) ;
#335 = PERSON_AND_ORGANIZATION_ROLE ( 'design_owner' ) ;
#336 = VERTEX_POINT ( 'NONE', #154 ) ;
#337 = APPROVAL_ROLE ( '' ) ;
#338 = DIRECTION ( 'NONE',  ( 0.000000000000000000, -0.000000000000000000, 1.000000000000000000 ) ) ;
#339 = VERTEX_POINT ( 'NONE', #301 ) ;
#340 = PERSON_AND_ORGANIZATION ( #116, #185 ) ;
#341 = CARTESIAN_POINT ( 'NONE',  ( -10.00000000000000178, 2.000000000000000000, 7.000000000000004441 ) ) ;
#342 = DIRECTION ( 'NONE',  ( 0.000000000000000000, 0.000000000000000000, -1.000000000000000000 ) ) ;
#343 = MANIFOLD_SOLID_BREP ( 'Boss-Extrude1', #78 ) ;
#344 = DESIGN_CONTEXT ( 'detailed design', #188, 'design' ) ;
#345 = COORDINATED_UNIVERSAL_TIME_OFFSET ( 5, 30, .AHEAD. ) ;
#346 = CARTESIAN_POINT ( 'NONE',  ( 7.500000000000000000, 0.000000000000000000, -4.500000000000001776 ) ) ;
#347 = EDGE_LOOP ( 'NONE', ( #383, #10, #292, #111 ) ) ;
#348 = PLANE ( 'NONE',  #303 ) ;
#349 = CC_DESIGN_PERSON_AND_ORGANIZATION_ASSIGNMENT ( #85, #218, ( #285 ) ) ;
#350 = AXIS2_PLACEMENT_3D ( 'NONE', #195, #60, #89 ) ;
#351 = ORIENTED_EDGE ( 'NONE', *, *, #7, .F. ) ;
#352 = DIRECTION ( 'NONE',  ( 0.000000000000000000, -0.000000000000000000, 1.000000000000000000 ) ) ;
#353 = ORIENTED_EDGE ( 'NONE', *, *, #132, .F. ) ;
#354 = DIRECTION ( 'NONE',  ( 0.000000000000000000, 0.000000000000000000, -1.000000000000000000 ) ) ;
#355 = ORIENTED_EDGE ( 'NONE', *, *, #238, .F. ) ;
#356 = DIRECTION ( 'NONE',  ( -0.000000000000000000, -1.000000000000000000, -0.000000000000000000 ) ) ;
#357 = CARTESIAN_POINT ( 'NONE',  ( 7.500000000000000000, 2.000000000000000000, -4.500000000000001776 ) ) ;
#358 = CIRCLE ( 'NONE', #46, 1.999999999999999556 ) ;
#359 = PRODUCT_RELATED_PRODUCT_CATEGORY ( 'detail', '', ( #273 ) ) ;
#360 = CYLINDRICAL_SURFACE ( 'NONE', #280, 1.999999999999999112 ) ;
#361 = UNCERTAINTY_MEASURE_WITH_UNIT (LENGTH_MEASURE( 1.000000000000000082E-05 ), #140, 'distance_accuracy_value', 'NONE');
#362 = LINE ( 'NONE', #158, #281 ) ;
#363 = CARTESIAN_POINT ( 'NONE',  ( 7.500000000000000000, 2.000000000000000000, -4.500000000000001776 ) ) ;
#364 = VECTOR ( 'NONE', #6, 1000.000000000000000 ) ;
#365 =( NAMED_UNIT ( * ) SI_UNIT ( $, .STERADIAN. ) SOLID_ANGLE_UNIT ( ) );
#366 = VERTEX_POINT ( 'NONE', #236 ) ;
#367 = AXIS2_PLACEMENT_3D ( 'NONE', #274, #5, #98 ) ;
#368 = EDGE_CURVE ( 'NONE', #336, #2, #159, .T. ) ;
#369 = ORIENTED_EDGE ( 'NONE', *, *, #57, .F. ) ;
#370 = APPROVAL_STATUS ( 'not_yet_approved' ) ;
#371 = ORIENTED_EDGE ( 'NONE', *, *, #275, .T. ) ;
#372 = DIRECTION ( 'NONE',  ( 0.000000000000000000, 0.000000000000000000, -1.000000000000000000 ) ) ;
#373 = EDGE_LOOP ( 'NONE', ( #263, #187 ) ) ;
#374 = CC_DESIGN_APPROVAL ( #73, ( #222 ) ) ;
#375 = PERSON_AND_ORGANIZATION ( #116, #185 ) ;
#376 = CYLINDRICAL_SURFACE ( 'NONE', #256, 2.000000000000000000 ) ;
#377 = ORIENTED_EDGE ( 'NONE', *, *, #142, .T. ) ;
#378 = DIRECTION ( 'NONE',  ( 0.000000000000000000, 1.000000000000000000, 0.000000000000000000 ) ) ;
#379 = EDGE_LOOP ( 'NONE', ( #31, #289, #47, #59 ) ) ;
#380 = ADVANCED_FACE ( 'NONE', ( #214 ), #326, .F. ) ;
#381 = CARTESIAN_POINT ( 'NONE',  ( -7.500000000000000000, 2.000000000000000000, -4.500000000000002665 ) ) ;
#382 = AXIS2_PLACEMENT_3D ( 'NONE', #357, #114, #24 ) ;
#383 = ORIENTED_EDGE ( 'NONE', *, *, #290, .T. ) ;
#384 = CARTESIAN_POINT ( 'NONE',  ( 7.500000000000000000, 0.000000000000000000, -6.500000000000000888 ) ) ;
#385 = ORIENTED_EDGE ( 'NONE', *, *, #204, .T. ) ;
ENDSEC;
END-ISO-10303-21;
