ISO-10303-21;
HEADER;
FILE_DESCRIPTION (( 'STEP AP203' ),
    '1' );
FILE_NAME ('SUPPORT2_Default_sldprt.STEP',
    '2025-12-25T11:37:05',
    ( '' ),
    ( '' ),
    'SwSTEP 2.0',
    'SolidWorks 2024',
    '' );
FILE_SCHEMA (( 'CONFIG_CONTROL_DESIGN' ));
ENDSEC;

DATA;
#1 = DATE_AND_TIME ( #119, #259 ) ;
#2 = EDGE_CURVE ( 'NONE', #160, #603, #303, .T. ) ;
#3 = CARTESIAN_POINT ( 'NONE',  ( 0.000000000000000000, 29.32471264367815778, -31.84583123957470363 ) ) ;
#4 = COORDINATED_UNIVERSAL_TIME_OFFSET ( 5, 30, .AHEAD. ) ;
#5 = DIRECTION ( 'NONE',  ( 0.000000000000000000, 1.156482317317871725E-15, -1.000000000000000000 ) ) ;
#6 = EDGE_CURVE ( 'NONE', #44, #361, #214, .T. ) ;
#7 = DATE_AND_TIME ( #619, #185 ) ;
#8 = CARTESIAN_POINT ( 'NONE',  ( 0.000000000000000000, 24.63002083462180991, 34.32131496448936048 ) ) ;
#9 = AXIS2_PLACEMENT_3D ( 'NONE', #68, #353, #302 ) ;
#10 = VERTEX_POINT ( 'NONE', #643 ) ;
#11 = ADVANCED_FACE ( 'NONE', ( #472 ), #29, .F. ) ;
#12 = AXIS2_PLACEMENT_3D ( 'NONE', #388, #434, #656 ) ;
#13 = FACE_OUTER_BOUND ( 'NONE', #483, .T. ) ;
#14 = VERTEX_POINT ( 'NONE', #692 ) ;
#15 = VERTEX_POINT ( 'NONE', #413 ) ;
#16 = DIRECTION ( 'NONE',  ( 0.000000000000000000, -1.386475316527165199E-16, 1.000000000000000000 ) ) ;
#17 = CARTESIAN_POINT ( 'NONE',  ( -2.000000000000000000, -22.02586206896553378, -14.50000000000000533 ) ) ;
#18 = DIRECTION ( 'NONE',  ( -0.000000000000000000, 1.000000000000000000, 1.386475316527165199E-16 ) ) ;
#19 = CC_DESIGN_PERSON_AND_ORGANIZATION_ASSIGNMENT ( #720, #116, ( #225 ) ) ;
#20 = CARTESIAN_POINT ( 'NONE',  ( -2.000000000000000000, -12.02586206896553556, 9.227058078361363158 ) ) ;
#21 = AXIS2_PLACEMENT_3D ( 'NONE', #401, #171, #622 ) ;
#22 = LOCAL_TIME ( 17, 7, 5.000000000000000000, #448 ) ;
#23 = VERTEX_POINT ( 'NONE', #482 ) ;
#24 = CARTESIAN_POINT ( 'NONE',  ( 0.000000000000000000, 29.32471264367815778, -31.84583123957470363 ) ) ;
#25 = EDGE_CURVE ( 'NONE', #585, #652, #77, .T. ) ;
#26 = CARTESIAN_POINT ( 'NONE',  ( -2.000000000000000000, 36.32471264367816843, -53.81057643990185824 ) ) ;
#27 = ORIENTED_EDGE ( 'NONE', *, *, #362, .F. ) ;
#28 = CARTESIAN_POINT ( 'NONE',  ( -2.000000000000000000, -19.02586206896553733, 12.91811742350841641 ) ) ;
#29 = PLANE ( 'NONE',  #334 ) ;
#30 = EDGE_CURVE ( 'NONE', #498, #223, #33, .T. ) ;
#31 = ORIENTED_EDGE ( 'NONE', *, *, #2, .F. ) ;
#32 = PLANE ( 'NONE',  #78 ) ;
#33 = LINE ( 'NONE', #584, #165 ) ;
#34 = EDGE_CURVE ( 'NONE', #625, #267, #664, .T. ) ;
#35 = AXIS2_PLACEMENT_3D ( 'NONE', #202, #154, #487 ) ;
#36 = VERTEX_POINT ( 'NONE', #587 ) ;
#37 = DIRECTION ( 'NONE',  ( 0.000000000000000000, -0.5648972696854441811, 0.8251612416382210213 ) ) ;
#38 = ORIENTED_EDGE ( 'NONE', *, *, #542, .F. ) ;
#39 = CARTESIAN_POINT ( 'NONE',  ( -2.000000000000000000, 26.32471264367814712, 34.84583123957470008 ) ) ;
#40 = CARTESIAN_POINT ( 'NONE',  ( 0.000000000000000000, -20.72055387802187099, 15.39360114842307858 ) ) ;
#41 = VERTEX_POINT ( 'NONE', #310 ) ;
#42 = CARTESIAN_POINT ( 'NONE',  ( -2.000000000000000000, -12.02586206896553378, -7.645175501869785784 ) ) ;
#43 = PLANE ( 'NONE',  #673 ) ;
#44 = VERTEX_POINT ( 'NONE', #258 ) ;
#45 = CIRCLE ( 'NONE', #9, 3.000000000000002665 ) ;
#46 = CARTESIAN_POINT ( 'NONE',  ( -2.000000000000000000, 29.32471264367814712, 31.84583123957470363 ) ) ;
#47 = CIRCLE ( 'NONE', #605, 2.999999999999999112 ) ;
#48 = LINE ( 'NONE', #277, #513 ) ;
#49 = ORIENTED_EDGE ( 'NONE', *, *, #524, .T. ) ;
#50 = FACE_BOUND ( 'NONE', #424, .T. ) ;
#51 = FACE_OUTER_BOUND ( 'NONE', #354, .T. ) ;
#52 = EDGE_LOOP ( 'NONE', ( #201, #693, #621, #236 ) ) ;
#53 = APPROVAL_ROLE ( '' ) ;
#54 = DIRECTION ( 'NONE',  ( 0.000000000000000000, 0.000000000000000000, -1.000000000000000000 ) ) ;
#55 = ADVANCED_FACE ( 'NONE', ( #357 ), #81, .F. ) ;
#56 = AXIS2_PLACEMENT_3D ( 'NONE', #615, #115, #344 ) ;
#57 = CIRCLE ( 'NONE', #655, 3.000000000000002665 ) ;
#58 = CARTESIAN_POINT ( 'NONE',  ( -2.000000000000000000, -22.02586206896553378, -12.91811742350841641 ) ) ;
#59 = APPROVAL_STATUS ( 'not_yet_approved' ) ;
#60 = CARTESIAN_POINT ( 'NONE',  ( 0.000000000000000000, 26.32471264367814712, 31.84583123957470008 ) ) ;
#61 = COORDINATED_UNIVERSAL_TIME_OFFSET ( 5, 30, .AHEAD. ) ;
#62 = CARTESIAN_POINT ( 'NONE',  ( -2.000000000000000000, -10.72055387802186743, 10.12065922678443819 ) ) ;
#63 = ORIENTED_EDGE ( 'NONE', *, *, #208, .T. ) ;
#64 = PERSON_AND_ORGANIZATION_ROLE ( 'design_supplier' ) ;
#65 = DIRECTION ( 'NONE',  ( 0.000000000000000000, 1.156482317317871725E-15, -1.000000000000000000 ) ) ;
#66 = ORIENTED_EDGE ( 'NONE', *, *, #699, .F. ) ;
#67 = ORIENTED_EDGE ( 'NONE', *, *, #219, .T. ) ;
#68 = CARTESIAN_POINT ( 'NONE',  ( -2.000000000000000000, 36.32471264367816843, -50.81057643990185113 ) ) ;
#69 = ORIENTED_EDGE ( 'NONE', *, *, #358, .F. ) ;
#70 = ORIENTED_EDGE ( 'NONE', *, *, #375, .F. ) ;
#71 = EDGE_CURVE ( 'NONE', #211, #368, #530, .T. ) ;
#72 = CARTESIAN_POINT ( 'NONE',  ( 0.000000000000000000, 34.63002083462180991, 53.28606016481651153 ) ) ;
#73 = CARTESIAN_POINT ( 'NONE',  ( -2.000000000000000000, 29.32471264367815778, -31.84583123957470363 ) ) ;
#74 = ADVANCED_FACE ( 'NONE', ( #695 ), #146, .T. ) ;
#75 = CARTESIAN_POINT ( 'NONE',  ( -2.000000000000000000, -22.02586206896553378, 12.91811742350841641 ) ) ;
#76 = AXIS2_PLACEMENT_3D ( 'NONE', #612, #620, #178 ) ;
#77 = LINE ( 'NONE', #422, #224 ) ;
#78 = AXIS2_PLACEMENT_3D ( 'NONE', #521, #18, #16 ) ;
#79 = ORIENTED_EDGE ( 'NONE', *, *, #362, .T. ) ;
#80 = FACE_OUTER_BOUND ( 'NONE', #337, .T. ) ;
#81 = CYLINDRICAL_SURFACE ( 'NONE', #629, 3.000000000000000888 ) ;
#82 = ADVANCED_FACE ( 'NONE', ( #374 ), #191, .F. ) ;
#83 = ORIENTED_EDGE ( 'NONE', *, *, #669, .F. ) ;
#84 = FACE_OUTER_BOUND ( 'NONE', #566, .T. ) ;
#85 = LINE ( 'NONE', #242, #616 ) ;
#86 = EDGE_CURVE ( 'NONE', #248, #531, #538, .T. ) ;
#87 = ORIENTED_EDGE ( 'NONE', *, *, #167, .T. ) ;
#88 = CARTESIAN_POINT ( 'NONE',  ( -2.000000000000000000, -20.72055387802187099, 15.39360114842307858 ) ) ;
#89 = VECTOR ( 'NONE', #129, 1000.000000000000000 ) ;
#90 = VECTOR ( 'NONE', #716, 1000.000000000000000 ) ;
#91 = ORIENTED_EDGE ( 'NONE', *, *, #502, .T. ) ;
#92 =( NAMED_UNIT ( * ) PLANE_ANGLE_UNIT ( ) SI_UNIT ( $, .RADIAN. ) );
#93 = DIRECTION ( 'NONE',  ( -1.000000000000000000, 0.000000000000000000, 0.000000000000000000 ) ) ;
#94 = VERTEX_POINT ( 'NONE', #253 ) ;
#95 = ADVANCED_FACE ( 'NONE', ( #186 ), #476, .F. ) ;
#96 = CARTESIAN_POINT ( 'NONE',  ( -2.000000000000000000, 26.32471264367815778, -31.84583123957470363 ) ) ;
#97 = VERTEX_POINT ( 'NONE', #578 ) ;
#98 =( LENGTH_UNIT ( ) NAMED_UNIT ( * ) SI_UNIT ( .MILLI., .METRE. ) );
#99 = LINE ( 'NONE', #378, #456 ) ;
#100 = ORIENTED_EDGE ( 'NONE', *, *, #30, .T. ) ;
#101 = AXIS2_PLACEMENT_3D ( 'NONE', #269, #331, #492 ) ;
#102 = VECTOR ( 'NONE', #182, 1000.000000000000000 ) ;
#103 = DIRECTION ( 'NONE',  ( 0.000000000000000000, -0.5648972696854441811, -0.8251612416382210213 ) ) ;
#104 = VECTOR ( 'NONE', #405, 1000.000000000000000 ) ;
#105 = DIRECTION ( 'NONE',  ( 0.000000000000000000, 0.000000000000000000, -1.000000000000000000 ) ) ;
#106 = PRODUCT_DEFINITION ( 'UNKNOWN', '', #124, #278 ) ;
#107 = ORIENTED_EDGE ( 'NONE', *, *, #240, .T. ) ;
#108 = PERSON_AND_ORGANIZATION ( #718, #562 ) ;
#109 = DIRECTION ( 'NONE',  ( 0.000000000000000000, 0.000000000000000000, -1.000000000000000000 ) ) ;
#110 = EDGE_CURVE ( 'NONE', #14, #223, #137, .T. ) ;
#111 = ORIENTED_EDGE ( 'NONE', *, *, #414, .T. ) ;
#112 = LINE ( 'NONE', #681, #696 ) ;
#113 = VECTOR ( 'NONE', #229, 1000.000000000000000 ) ;
#114 = CC_DESIGN_SECURITY_CLASSIFICATION ( #225, ( #124 ) ) ;
#115 = DIRECTION ( 'NONE',  ( -1.000000000000000000, 0.000000000000000000, -0.000000000000000000 ) ) ;
#116 = PERSON_AND_ORGANIZATION_ROLE ( 'classification_officer' ) ;
#117 = DIRECTION ( 'NONE',  ( -0.000000000000000000, -0.8251612416382207993, -0.5648972696854445141 ) ) ;
#118 = ORIENTED_EDGE ( 'NONE', *, *, #141, .F. ) ;
#119 = CALENDAR_DATE ( 2025, 25, 12 ) ;
#120 = CARTESIAN_POINT ( 'NONE',  ( -2.000000000000000000, -19.02586206896553733, -12.91811742350841641 ) ) ;
#121 = ORIENTED_EDGE ( 'NONE', *, *, #317, .F. ) ;
#122 = ORIENTED_EDGE ( 'NONE', *, *, #414, .F. ) ;
#123 = DIRECTION ( 'NONE',  ( -0.000000000000000000, 1.000000000000000000, 1.228122814850836818E-16 ) ) ;
#124 = PRODUCT_DEFINITION_FORMATION_WITH_SPECIFIED_SOURCE ( 'ANY', '', #254, .NOT_KNOWN. ) ;
#125 = VERTEX_POINT ( 'NONE', #73 ) ;
#126 = EDGE_CURVE ( 'NONE', #97, #248, #250, .T. ) ;
#127 = ORIENTED_EDGE ( 'NONE', *, *, #618, .T. ) ;
#128 = CARTESIAN_POINT ( 'NONE',  ( 0.000000000000000000, -10.72055387802186743, 10.12065922678443819 ) ) ;
#129 = DIRECTION ( 'NONE',  ( 1.000000000000000000, 0.000000000000000000, 0.000000000000000000 ) ) ;
#130 = EDGE_CURVE ( 'NONE', #97, #631, #85, .T. ) ;
#131 = LINE ( 'NONE', #356, #514 ) ;
#132 = DIRECTION ( 'NONE',  ( 1.000000000000000000, 0.000000000000000000, 0.000000000000000000 ) ) ;
#133 = VERTEX_POINT ( 'NONE', #684 ) ;
#134 = APPROVAL ( #59, 'UNSPECIFIED' ) ;
#135 = DIRECTION ( 'NONE',  ( 0.000000000000000000, 0.8251612416382210213, -0.5648972696854441811 ) ) ;
#136 = VECTOR ( 'NONE', #291, 1000.000000000000000 ) ;
#137 = LINE ( 'NONE', #88, #183 ) ;
#138 = VECTOR ( 'NONE', #688, 1000.000000000000000 ) ;
#139 = CIRCLE ( 'NONE', #445, 2.999999999999999112 ) ;
#140 = ORIENTED_EDGE ( 'NONE', *, *, #346, .T. ) ;
#141 = EDGE_CURVE ( 'NONE', #160, #180, #409, .T. ) ;
#142 = DIRECTION ( 'NONE',  ( -1.000000000000000000, 0.000000000000000000, -0.000000000000000000 ) ) ;
#143 = DIRECTION ( 'NONE',  ( -1.000000000000000000, 0.000000000000000000, 0.000000000000000000 ) ) ;
#144 = ORIENTED_EDGE ( 'NONE', *, *, #477, .T. ) ;
#145 = DIRECTION ( 'NONE',  ( 0.000000000000000000, 0.000000000000000000, -1.000000000000000000 ) ) ;
#146 = PLANE ( 'NONE',  #282 ) ;
#147 = ORIENTED_EDGE ( 'NONE', *, *, #443, .F. ) ;
#148 = CARTESIAN_POINT ( 'NONE',  ( 0.000000000000000000, 24.63002083462181702, -34.32131496448936048 ) ) ;
#149 = DIRECTION ( 'NONE',  ( 0.000000000000000000, 0.000000000000000000, -1.000000000000000000 ) ) ;
#150 = VECTOR ( 'NONE', #397, 1000.000000000000000 ) ;
#151 = EDGE_CURVE ( 'NONE', #690, #41, #47, .T. ) ;
#152 = CIRCLE ( 'NONE', #639, 2.999999999999999112 ) ;
#153 = VERTEX_POINT ( 'NONE', #155 ) ;
#154 = DIRECTION ( 'NONE',  ( 1.000000000000000000, -0.000000000000000000, 0.000000000000000000 ) ) ;
#155 = CARTESIAN_POINT ( 'NONE',  ( -2.000000000000000000, 34.63002083462181702, -53.28606016481651153 ) ) ;
#156 = EDGE_CURVE ( 'NONE', #267, #603, #99, .T. ) ;
#157 = ORIENTED_EDGE ( 'NONE', *, *, #464, .F. ) ;
#158 = DIRECTION ( 'NONE',  ( -1.000000000000000000, -0.000000000000000000, -0.000000000000000000 ) ) ;
#159 = DIRECTION ( 'NONE',  ( 0.000000000000000000, 9.400198098053353317E-17, -1.000000000000000000 ) ) ;
#160 = VERTEX_POINT ( 'NONE', #497 ) ;
#161 = DIRECTION ( 'NONE',  ( 0.000000000000000000, 0.8251612416382210213, -0.5648972696854441811 ) ) ;
#162 = EDGE_CURVE ( 'NONE', #361, #36, #139, .T. ) ;
#163 = FACE_OUTER_BOUND ( 'NONE', #393, .T. ) ;
#164 = ORIENTED_EDGE ( 'NONE', *, *, #721, .F. ) ;
#165 = VECTOR ( 'NONE', #469, 1000.000000000000114 ) ;
#166 = APPROVAL_PERSON_ORGANIZATION ( #108, #134, #338 ) ;
#167 = EDGE_CURVE ( 'NONE', #36, #271, #266, .T. ) ;
#168 = CARTESIAN_POINT ( 'NONE',  ( 0.000000000000000000, 34.63002083462181702, -53.28606016481651153 ) ) ;
#169 = ORIENTED_EDGE ( 'NONE', *, *, #402, .F. ) ;
#170 = DATE_AND_TIME ( #671, #22 ) ;
#171 = DIRECTION ( 'NONE',  ( -1.000000000000000000, 0.000000000000000000, 0.000000000000000000 ) ) ;
#172 = CARTESIAN_POINT ( 'NONE',  ( -2.000000000000000000, 0.000000000000000000, 0.000000000000000000 ) ) ;
#173 = VECTOR ( 'NONE', #234, 1000.000000000000000 ) ;
#174 = LINE ( 'NONE', #420, #722 ) ;
#175 = PERSON_AND_ORGANIZATION_ROLE ( 'creator' ) ;
#176 = DIRECTION ( 'NONE',  ( 1.000000000000000000, -0.000000000000000000, 0.000000000000000000 ) ) ;
#177 = ORIENTED_EDGE ( 'NONE', *, *, #556, .T. ) ;
#178 = DIRECTION ( 'NONE',  ( 0.000000000000000000, 0.000000000000000000, -1.000000000000000000 ) ) ;
#179 = EDGE_CURVE ( 'NONE', #515, #380, #382, .T. ) ;
#180 = VERTEX_POINT ( 'NONE', #222 ) ;
#181 = EDGE_LOOP ( 'NONE', ( #474, #582, #478, #557 ) ) ;
#182 = DIRECTION ( 'NONE',  ( -1.000000000000000000, -0.000000000000000000, -0.000000000000000000 ) ) ;
#183 = VECTOR ( 'NONE', #132, 1000.000000000000000 ) ;
#184 = ADVANCED_FACE ( 'NONE', ( #602 ), #43, .T. ) ;
#185 = LOCAL_TIME ( 17, 7, 5.000000000000000000, #567 ) ;
#186 = FACE_OUTER_BOUND ( 'NONE', #644, .T. ) ;
#187 = CYLINDRICAL_SURFACE ( 'NONE', #630, 2.999999999999999112 ) ;
#188 = DIRECTION ( 'NONE',  ( 0.000000000000000000, -0.8251612416382209103, -0.5648972696854445141 ) ) ;
#189 = ORIENTED_EDGE ( 'NONE', *, *, #699, .T. ) ;
#190 = DIRECTION ( 'NONE',  ( -0.000000000000000000, -0.8251612416382207993, -0.5648972696854445141 ) ) ;
#191 = CYLINDRICAL_SURFACE ( 'NONE', #320, 3.000000000000000000 ) ;
#192 = ORIENTED_EDGE ( 'NONE', *, *, #2, .T. ) ;
#193 = DIRECTION ( 'NONE',  ( 0.000000000000000000, 1.156482317317871725E-15, -1.000000000000000000 ) ) ;
#194 = CLOSED_SHELL ( 'NONE', ( #520, #95, #74, #184, #288, #473, #323, #651, #627, #237, #11, #499, #204, #395, #82, #55, #265, #575, #493, #274 ) ) ;
#195 = DIRECTION ( 'NONE',  ( -1.000000000000000000, 0.000000000000000000, 0.000000000000000000 ) ) ;
#196 = AXIS2_PLACEMENT_3D ( 'NONE', #199, #142, #577 ) ;
#197 = CIRCLE ( 'NONE', #101, 2.999999999999999112 ) ;
#198 = ORIENTED_EDGE ( 'NONE', *, *, #680, .F. ) ;
#199 = CARTESIAN_POINT ( 'NONE',  ( 0.000000000000000000, 26.32471264367815778, -31.84583123957470363 ) ) ;
#200 = DIRECTION ( 'NONE',  ( 1.000000000000000000, 0.000000000000000000, 0.000000000000000000 ) ) ;
#201 = ORIENTED_EDGE ( 'NONE', *, *, #502, .F. ) ;
#202 = CARTESIAN_POINT ( 'NONE',  ( 0.000000000000000000, 0.000000000000000000, 0.000000000000000000 ) ) ;
#203 = DIRECTION ( 'NONE',  ( 0.000000000000000000, 0.8251612416382210213, -0.5648972696854440700 ) ) ;
#204 = ADVANCED_FACE ( 'NONE', ( #163 ), #705, .F. ) ;
#205 = EDGE_LOOP ( 'NONE', ( #537, #324, #415, #348 ) ) ;
#206 = CARTESIAN_POINT ( 'NONE',  ( 0.000000000000000000, 29.32471264367815778, -37.53525479967285605 ) ) ;
#207 = DIRECTION ( 'NONE',  ( 0.000000000000000000, -1.228122814850836818E-16, 1.000000000000000000 ) ) ;
#208 = EDGE_CURVE ( 'NONE', #368, #160, #419, .T. ) ;
#209 = CIRCLE ( 'NONE', #56, 3.000000000000000888 ) ;
#210 = AXIS2_PLACEMENT_3D ( 'NONE', #60, #509, #5 ) ;
#211 = VERTEX_POINT ( 'NONE', #714 ) ;
#212 = PERSON_AND_ORGANIZATION_ROLE ( 'design_owner' ) ;
#213 = DIRECTION ( 'NONE',  ( 0.000000000000000000, 0.000000000000000000, -1.000000000000000000 ) ) ;
#214 = LINE ( 'NONE', #438, #479 ) ;
#215 = CC_DESIGN_PERSON_AND_ORGANIZATION_ASSIGNMENT ( #558, #175, ( #106 ) ) ;
#216 = LINE ( 'NONE', #39, #399 ) ;
#217 = FACE_OUTER_BOUND ( 'NONE', #264, .T. ) ;
#218 = ORIENTED_EDGE ( 'NONE', *, *, #477, .F. ) ;
#219 = EDGE_CURVE ( 'NONE', #41, #314, #197, .T. ) ;
#220 = PERSON_AND_ORGANIZATION_ROLE ( 'creator' ) ;
#221 = PRODUCT_DEFINITION_SHAPE ( 'NONE', 'NONE',  #106 ) ;
#222 = CARTESIAN_POINT ( 'NONE',  ( -2.000000000000000000, 39.32471264367816133, -50.81057643990185113 ) ) ;
#223 = VERTEX_POINT ( 'NONE', #40 ) ;
#224 = VECTOR ( 'NONE', #247, 1000.000000000000114 ) ;
#225 = SECURITY_CLASSIFICATION ( '', '', #280 ) ;
#226 = DATE_TIME_ROLE ( 'classification_date' ) ;
#227 = DIRECTION ( 'NONE',  ( -0.000000000000000000, -0.8251612416382210213, -0.5648972696854441811 ) ) ;
#228 = CALENDAR_DATE ( 2025, 25, 12 ) ;
#229 = DIRECTION ( 'NONE',  ( 1.000000000000000000, 0.000000000000000000, 0.000000000000000000 ) ) ;
#230 = APPROVAL_DATE_TIME ( #7, #590 ) ;
#231 = CARTESIAN_POINT ( 'NONE',  ( 0.000000000000000000, 36.32471264367816843, -50.81057643990185113 ) ) ;
#232 = DATE_AND_TIME ( #228, #686 ) ;
#233 = VECTOR ( 'NONE', #637, 1000.000000000000000 ) ;
#234 = DIRECTION ( 'NONE',  ( 1.000000000000000000, 0.000000000000000000, 0.000000000000000000 ) ) ;
#235 = AXIS2_PLACEMENT_3D ( 'NONE', #526, #689, #316 ) ;
#236 = ORIENTED_EDGE ( 'NONE', *, *, #110, .F. ) ;
#237 = ADVANCED_FACE ( 'NONE', ( #217 ), #430, .F. ) ;
#238 = CARTESIAN_POINT ( 'NONE',  ( -2.000000000000000000, -9.025862068965533780, 7.645175501869773349 ) ) ;
#239 = ORIENTED_EDGE ( 'NONE', *, *, #342, .T. ) ;
#240 = EDGE_CURVE ( 'NONE', #10, #153, #48, .T. ) ;
#241 = DIRECTION ( 'NONE',  ( 0.000000000000000000, 0.000000000000000000, -1.000000000000000000 ) ) ;
#242 = CARTESIAN_POINT ( 'NONE',  ( -2.000000000000000000, -12.02586206896553556, 9.227058078361363158 ) ) ;
#243 = ORIENTED_EDGE ( 'NONE', *, *, #371, .F. ) ;
#244 = DIRECTION ( 'NONE',  ( -1.000000000000000000, 0.000000000000000000, -0.000000000000000000 ) ) ;
#245 = AXIS2_PLACEMENT_3D ( 'NONE', #231, #176, #54 ) ;
#246 =( GEOMETRIC_REPRESENTATION_CONTEXT ( 3 ) GLOBAL_UNCERTAINTY_ASSIGNED_CONTEXT ( ( #286 ) ) GLOBAL_UNIT_ASSIGNED_CONTEXT ( ( #98, #92, #373 ) ) REPRESENTATION_CONTEXT ( 'NONE', 'WORKASPACE' ) );
#247 = DIRECTION ( 'NONE',  ( 0.000000000000000000, 0.8251612416382210213, -0.5648972696854441811 ) ) ;
#248 = VERTEX_POINT ( 'NONE', #594 ) ;
#249 = CARTESIAN_POINT ( 'NONE',  ( 0.000000000000000000, -10.72055387802186388, -10.12065922678444707 ) ) ;
#250 = LINE ( 'NONE', #366, #592 ) ;
#251 = ORIENTED_EDGE ( 'NONE', *, *, #703, .T. ) ;
#252 = CARTESIAN_POINT ( 'NONE',  ( 0.000000000000000000, -10.72055387802186388, -10.12065922678444707 ) ) ;
#253 = CARTESIAN_POINT ( 'NONE',  ( -2.000000000000000000, 24.63002083462181702, -34.32131496448936048 ) ) ;
#254 = PRODUCT ( 'SUPPORT2_Default_sldprt', 'SUPPORT2_Default_sldprt', '', ( #547 ) ) ;
#255 = ORIENTED_EDGE ( 'NONE', *, *, #703, .F. ) ;
#256 = DIRECTION ( 'NONE',  ( 1.000000000000000000, 0.000000000000000000, 0.000000000000000000 ) ) ;
#257 = AXIS2_PLACEMENT_3D ( 'NONE', #172, #394, #517 ) ;
#258 = CARTESIAN_POINT ( 'NONE',  ( 0.000000000000000000, -22.02586206896553378, 12.91811742350841641 ) ) ;
#259 = LOCAL_TIME ( 17, 7, 5.000000000000000000, #61 ) ;
#260 = ORIENTED_EDGE ( 'NONE', *, *, #6, .T. ) ;
#261 = EDGE_CURVE ( 'NONE', #180, #267, #500, .T. ) ;
#262 = LINE ( 'NONE', #661, #283 ) ;
#263 = DIRECTION ( 'NONE',  ( 1.000000000000000000, 0.000000000000000000, 0.000000000000000000 ) ) ;
#264 = EDGE_LOOP ( 'NONE', ( #177, #706, #447, #679 ) ) ;
#265 = ADVANCED_FACE ( 'NONE', ( #662 ), #321, .T. ) ;
#266 = LINE ( 'NONE', #708, #377 ) ;
#267 = VERTEX_POINT ( 'NONE', #598 ) ;
#268 = DIRECTION ( 'NONE',  ( -1.000000000000000000, 0.000000000000000000, 0.000000000000000000 ) ) ;
#269 = CARTESIAN_POINT ( 'NONE',  ( -2.000000000000000000, 26.32471264367814712, 31.84583123957470008 ) ) ;
#270 = AXIS2_PLACEMENT_3D ( 'NONE', #638, #370, #427 ) ;
#271 = VERTEX_POINT ( 'NONE', #168 ) ;
#272 = DIRECTION ( 'NONE',  ( 1.000000000000000000, 0.000000000000000000, 0.000000000000000000 ) ) ;
#273 = DIRECTION ( 'NONE',  ( 0.000000000000000000, -0.000000000000000000, -1.000000000000000000 ) ) ;
#274 = ADVANCED_FACE ( 'NONE', ( #717 ), #385, .T. ) ;
#275 = ORIENTED_EDGE ( 'NONE', *, *, #162, .F. ) ;
#276 = DIRECTION ( 'NONE',  ( 0.000000000000000000, 0.000000000000000000, -1.000000000000000000 ) ) ;
#277 = CARTESIAN_POINT ( 'NONE',  ( -2.000000000000000000, -22.02586206896553378, -14.50000000000000533 ) ) ;
#278 = DESIGN_CONTEXT ( 'detailed design', #617, 'design' ) ;
#279 = EDGE_LOOP ( 'NONE', ( #428, #702, #565, #541 ) ) ;
#280 = SECURITY_CLASSIFICATION_LEVEL ( 'unclassified' ) ;
#281 = CARTESIAN_POINT ( 'NONE',  ( 0.000000000000000000, -22.02586206896553378, -12.91811742350841641 ) ) ;
#282 = AXIS2_PLACEMENT_3D ( 'NONE', #17, #635, #522 ) ;
#283 = VECTOR ( 'NONE', #158, 1000.000000000000000 ) ;
#284 = CC_DESIGN_PERSON_AND_ORGANIZATION_ASSIGNMENT ( #711, #212, ( #254 ) ) ;
#285 = LINE ( 'NONE', #3, #113 ) ;
#286 = UNCERTAINTY_MEASURE_WITH_UNIT (LENGTH_MEASURE( 1.000000000000000082E-05 ), #98, 'distance_accuracy_value', 'NONE');
#287 = PERSON_AND_ORGANIZATION ( #718, #562 ) ;
#288 = ADVANCED_FACE ( 'NONE', ( #51 ), #666, .T. ) ;
#289 = LINE ( 'NONE', #568, #173 ) ;
#290 = PERSON_AND_ORGANIZATION ( #718, #562 ) ;
#291 = DIRECTION ( 'NONE',  ( 0.000000000000000000, -1.386475316527165199E-16, 1.000000000000000000 ) ) ;
#292 = ORIENTED_EDGE ( 'NONE', *, *, #623, .T. ) ;
#293 = CC_DESIGN_PERSON_AND_ORGANIZATION_ASSIGNMENT ( #290, #220, ( #124 ) ) ;
#294 = VECTOR ( 'NONE', #713, 1000.000000000000000 ) ;
#295 = ORIENTED_EDGE ( 'NONE', *, *, #350, .T. ) ;
#296 = PERSON_AND_ORGANIZATION ( #718, #562 ) ;
#297 = CIRCLE ( 'NONE', #466, 2.999999999999999112 ) ;
#298 = DIRECTION ( 'NONE',  ( -1.000000000000000000, 0.000000000000000000, -0.000000000000000000 ) ) ;
#299 = ORIENTED_EDGE ( 'NONE', *, *, #358, .T. ) ;
#300 = EDGE_CURVE ( 'NONE', #603, #498, #389, .T. ) ;
#301 = EDGE_LOOP ( 'NONE', ( #255, #501, #376, #678 ) ) ;
#302 = DIRECTION ( 'NONE',  ( 0.000000000000000000, 0.000000000000000000, -1.000000000000000000 ) ) ;
#303 = LINE ( 'NONE', #333, #294 ) ;
#304 = ORIENTED_EDGE ( 'NONE', *, *, #167, .F. ) ;
#305 = CARTESIAN_POINT ( 'NONE',  ( -2.000000000000000000, 39.32471264367816133, -56.50000000000000000 ) ) ;
#306 = CARTESIAN_POINT ( 'NONE',  ( -2.000000000000000000, -9.025862068965532004, -7.645175501869784007 ) ) ;
#307 = ORIENTED_EDGE ( 'NONE', *, *, #240, .F. ) ;
#308 = CIRCLE ( 'NONE', #710, 3.000000000000000000 ) ;
#309 = DIRECTION ( 'NONE',  ( 0.000000000000000000, 0.000000000000000000, -1.000000000000000000 ) ) ;
#310 = CARTESIAN_POINT ( 'NONE',  ( -2.000000000000000000, 26.32471264367814712, 34.84583123957470008 ) ) ;
#311 = ORIENTED_EDGE ( 'NONE', *, *, #680, .T. ) ;
#312 = LINE ( 'NONE', #529, #233 ) ;
#313 = DIRECTION ( 'NONE',  ( -1.000000000000000000, 0.000000000000000000, 0.000000000000000000 ) ) ;
#314 = VERTEX_POINT ( 'NONE', #349 ) ;
#315 = DIRECTION ( 'NONE',  ( 1.000000000000000000, 0.000000000000000000, 0.000000000000000000 ) ) ;
#316 = DIRECTION ( 'NONE',  ( 0.000000000000000000, 0.000000000000000000, -1.000000000000000000 ) ) ;
#317 = EDGE_CURVE ( 'NONE', #553, #531, #112, .T. ) ;
#318 = ORIENTED_EDGE ( 'NONE', *, *, #261, .F. ) ;
#319 = DIRECTION ( 'NONE',  ( 1.000000000000000000, -0.000000000000000000, 0.000000000000000000 ) ) ;
#320 = AXIS2_PLACEMENT_3D ( 'NONE', #306, #143, #417 ) ;
#321 = CYLINDRICAL_SURFACE ( 'NONE', #12, 2.999999999999999112 ) ;
#322 = VECTOR ( 'NONE', #256, 1000.000000000000000 ) ;
#323 = ADVANCED_FACE ( 'NONE', ( #345, #13 ), #564, .F. ) ;
#324 = ORIENTED_EDGE ( 'NONE', *, *, #524, .F. ) ;
#325 = MANIFOLD_SOLID_BREP ( 'Fillet1', #194 ) ;
#326 = DIRECTION ( 'NONE',  ( 0.000000000000000000, 0.000000000000000000, -1.000000000000000000 ) ) ;
#327 = ORIENTED_EDGE ( 'NONE', *, *, #110, .T. ) ;
#328 = DIRECTION ( 'NONE',  ( 0.000000000000000000, 0.000000000000000000, 1.000000000000000000 ) ) ;
#329 = CARTESIAN_POINT ( 'NONE',  ( 0.000000000000000000, 36.32471264367816843, -50.81057643990185113 ) ) ;
#330 = ORIENTED_EDGE ( 'NONE', *, *, #595, .F. ) ;
#331 = DIRECTION ( 'NONE',  ( 1.000000000000000000, -0.000000000000000000, 0.000000000000000000 ) ) ;
#332 = AXIS2_PLACEMENT_3D ( 'NONE', #305, #123, #408 ) ;
#333 = CARTESIAN_POINT ( 'NONE',  ( 0.000000000000000000, 39.32471264367816133, -56.50000000000000000 ) ) ;
#334 = AXIS2_PLACEMENT_3D ( 'NONE', #20, #533, #188 ) ;
#335 = CARTESIAN_POINT ( 'NONE',  ( -2.000000000000000000, -10.72055387802186743, 10.12065922678443819 ) ) ;
#336 = DIRECTION ( 'NONE',  ( 1.000000000000000000, 0.000000000000000000, 0.000000000000000000 ) ) ;
#337 = EDGE_LOOP ( 'NONE', ( #243, #418, #311, #292 ) ) ;
#338 = APPROVAL_ROLE ( '' ) ;
#339 = CARTESIAN_POINT ( 'NONE',  ( 0.000000000000000000, 36.32471264367816843, -53.81057643990185824 ) ) ;
#340 = FACE_OUTER_BOUND ( 'NONE', #572, .T. ) ;
#341 = CIRCLE ( 'NONE', #245, 3.000000000000002665 ) ;
#342 = EDGE_CURVE ( 'NONE', #531, #628, #453, .T. ) ;
#343 = APPROVAL_PERSON_ORGANIZATION ( #296, #489, #452 ) ;
#344 = DIRECTION ( 'NONE',  ( 0.000000000000000000, 0.000000000000000000, -1.000000000000000000 ) ) ;
#345 = FACE_BOUND ( 'NONE', #462, .T. ) ;
#346 = EDGE_CURVE ( 'NONE', #553, #667, #491, .T. ) ;
#347 = ORIENTED_EDGE ( 'NONE', *, *, #623, .F. ) ;
#348 = ORIENTED_EDGE ( 'NONE', *, *, #156, .F. ) ;
#349 = CARTESIAN_POINT ( 'NONE',  ( -2.000000000000000000, 24.63002083462180991, 34.32131496448936048 ) ) ;
#350 = EDGE_CURVE ( 'NONE', #628, #97, #308, .T. ) ;
#351 = ORIENTED_EDGE ( 'NONE', *, *, #151, .F. ) ;
#352 = AXIS2_PLACEMENT_3D ( 'NONE', #707, #704, #276 ) ;
#353 = DIRECTION ( 'NONE',  ( -1.000000000000000000, 0.000000000000000000, -0.000000000000000000 ) ) ;
#354 = EDGE_LOOP ( 'NONE', ( #512, #327, #549, #49 ) ) ;
#355 = ORIENTED_EDGE ( 'NONE', *, *, #443, .T. ) ;
#356 = CARTESIAN_POINT ( 'NONE',  ( -2.000000000000000000, -12.02586206896553378, -9.227058078361372040 ) ) ;
#357 = FACE_OUTER_BOUND ( 'NONE', #181, .T. ) ;
#358 = EDGE_CURVE ( 'NONE', #153, #271, #289, .T. ) ;
#359 = LINE ( 'NONE', #467, #138 ) ;
#360 = CARTESIAN_POINT ( 'NONE',  ( -2.000000000000000000, 39.32471264367816133, -50.81057643990185113 ) ) ;
#361 = VERTEX_POINT ( 'NONE', #281 ) ;
#362 = EDGE_CURVE ( 'NONE', #180, #211, #454, .T. ) ;
#363 = AXIS2_PLACEMENT_3D ( 'NONE', #701, #195, #589 ) ;
#364 = CARTESIAN_POINT ( 'NONE',  ( 0.000000000000000000, 24.63002083462180991, 34.32131496448936048 ) ) ;
#365 = CIRCLE ( 'NONE', #210, 2.999999999999999112 ) ;
#366 = CARTESIAN_POINT ( 'NONE',  ( 0.000000000000000000, -12.02586206896553556, 7.645175501869773349 ) ) ;
#367 = AXIS2_PLACEMENT_3D ( 'NONE', #548, #488, #159 ) ;
#368 = VERTEX_POINT ( 'NONE', #339 ) ;
#369 = PLANE ( 'NONE',  #332 ) ;
#370 = DIRECTION ( 'NONE',  ( -1.000000000000000000, 0.000000000000000000, -0.000000000000000000 ) ) ;
#371 = EDGE_CURVE ( 'NONE', #125, #690, #677, .T. ) ;
#372 = EDGE_LOOP ( 'NONE', ( #169, #147, #275, #330 ) ) ;
#373 =( NAMED_UNIT ( * ) SI_UNIT ( $, .STERADIAN. ) SOLID_ANGLE_UNIT ( ) );
#374 = FACE_OUTER_BOUND ( 'NONE', #301, .T. ) ;
#375 = EDGE_CURVE ( 'NONE', #271, #368, #341, .T. ) ;
#376 = ORIENTED_EDGE ( 'NONE', *, *, #449, .F. ) ;
#377 = VECTOR ( 'NONE', #203, 1000.000000000000114 ) ;
#378 = CARTESIAN_POINT ( 'NONE',  ( -2.000000000000000000, 39.32471264367814712, 50.81057643990185113 ) ) ;
#379 = VECTOR ( 'NONE', #190, 1000.000000000000000 ) ;
#380 = VERTEX_POINT ( 'NONE', #58 ) ;
#381 = LINE ( 'NONE', #206, #90 ) ;
#382 = LINE ( 'NONE', #659, #398 ) ;
#383 = ORIENTED_EDGE ( 'NONE', *, *, #346, .F. ) ;
#384 = CARTESIAN_POINT ( 'NONE',  ( -2.000000000000000000, -12.02586206896553378, -9.227058078361372040 ) ) ;
#385 = CYLINDRICAL_SURFACE ( 'NONE', #423, 3.000000000000002665 ) ;
#386 = ORIENTED_EDGE ( 'NONE', *, *, #261, .T. ) ;
#387 = FACE_OUTER_BOUND ( 'NONE', #608, .T. ) ;
#388 = CARTESIAN_POINT ( 'NONE',  ( -2.000000000000000000, -19.02586206896553733, 12.91811742350841641 ) ) ;
#389 = CIRCLE ( 'NONE', #76, 3.000000000000002665 ) ;
#390 = ORIENTED_EDGE ( 'NONE', *, *, #606, .T. ) ;
#391 = DIRECTION ( 'NONE',  ( 1.000000000000000000, -0.000000000000000000, 0.000000000000000000 ) ) ;
#392 = EDGE_CURVE ( 'NONE', #625, #14, #504, .T. ) ;
#393 = EDGE_LOOP ( 'NONE', ( #66, #164, #569, #436 ) ) ;
#394 = DIRECTION ( 'NONE',  ( 1.000000000000000000, -0.000000000000000000, 0.000000000000000000 ) ) ;
#395 = ADVANCED_FACE ( 'NONE', ( #340 ), #450, .F. ) ;
#396 = SHAPE_DEFINITION_REPRESENTATION ( #221, #624 ) ;
#397 = DIRECTION ( 'NONE',  ( -1.000000000000000000, -0.000000000000000000, -0.000000000000000000 ) ) ;
#398 = VECTOR ( 'NONE', #213, 1000.000000000000000 ) ;
#399 = VECTOR ( 'NONE', #268, 1000.000000000000000 ) ;
#400 = APPROVAL_DATE_TIME ( #614, #134 ) ;
#401 = CARTESIAN_POINT ( 'NONE',  ( -2.000000000000000000, 26.32471264367814712, 31.84583123957470008 ) ) ;
#402 = EDGE_CURVE ( 'NONE', #10, #380, #653, .T. ) ;
#403 = DIRECTION ( 'NONE',  ( -1.000000000000000000, 0.000000000000000000, -0.000000000000000000 ) ) ;
#404 = EDGE_LOOP ( 'NONE', ( #458, #111, #523, #239 ) ) ;
#405 = DIRECTION ( 'NONE',  ( -1.000000000000000000, -0.000000000000000000, 0.000000000000000000 ) ) ;
#406 = ORIENTED_EDGE ( 'NONE', *, *, #402, .T. ) ;
#407 = AXIS2_PLACEMENT_3D ( 'NONE', #384, #103, #161 ) ;
#408 = DIRECTION ( 'NONE',  ( 0.000000000000000000, -1.228122814850836818E-16, 1.000000000000000000 ) ) ;
#409 = LINE ( 'NONE', #360, #685 ) ;
#410 = CC_DESIGN_PERSON_AND_ORGANIZATION_ASSIGNMENT ( #442, #64, ( #124 ) ) ;
#411 = ORIENTED_EDGE ( 'NONE', *, *, #151, .T. ) ;
#412 = CARTESIAN_POINT ( 'NONE',  ( -2.000000000000000000, 36.32471264367816843, -50.81057643990185113 ) ) ;
#413 = CARTESIAN_POINT ( 'NONE',  ( 0.000000000000000000, 29.32471264367814712, 31.84583123957470363 ) ) ;
#414 = EDGE_CURVE ( 'NONE', #314, #553, #672, .T. ) ;
#415 = ORIENTED_EDGE ( 'NONE', *, *, #300, .F. ) ;
#416 = LINE ( 'NONE', #691, #379 ) ;
#417 = DIRECTION ( 'NONE',  ( 0.000000000000000000, 0.000000000000000000, 1.000000000000000000 ) ) ;
#418 = ORIENTED_EDGE ( 'NONE', *, *, #425, .T. ) ;
#419 = CIRCLE ( 'NONE', #570, 3.000000000000002665 ) ;
#420 = CARTESIAN_POINT ( 'NONE',  ( -2.000000000000000000, -12.02586206896553378, -7.645175501869784007 ) ) ;
#421 = AXIS2_PLACEMENT_3D ( 'NONE', #525, #573, #632 ) ;
#422 = CARTESIAN_POINT ( 'NONE',  ( 0.000000000000000000, -12.02586206896553378, -9.227058078361372040 ) ) ;
#423 = AXIS2_PLACEMENT_3D ( 'NONE', #607, #336, #555 ) ;
#424 = EDGE_LOOP ( 'NONE', ( #715, #719, #431, #588, #121, #140, #519, #198, #698 ) ) ;
#425 = EDGE_CURVE ( 'NONE', #125, #596, #285, .T. ) ;
#426 = DIRECTION ( 'NONE',  ( -1.000000000000000000, -0.000000000000000000, -0.000000000000000000 ) ) ;
#427 = DIRECTION ( 'NONE',  ( 0.000000000000000000, 0.000000000000000000, -1.000000000000000000 ) ) ;
#428 = ORIENTED_EDGE ( 'NONE', *, *, #6, .F. ) ;
#429 = DIRECTION ( 'NONE',  ( -1.000000000000000000, -0.000000000000000000, -0.000000000000000000 ) ) ;
#430 = PLANE ( 'NONE',  #367 ) ;
#431 = ORIENTED_EDGE ( 'NONE', *, *, #556, .F. ) ;
#432 = CARTESIAN_POINT ( 'NONE',  ( 0.000000000000000000, 0.000000000000000000, 0.000000000000000000 ) ) ;
#433 = AXIS2_PLACEMENT_3D ( 'NONE', #120, #511, #65 ) ;
#434 = DIRECTION ( 'NONE',  ( 1.000000000000000000, 0.000000000000000000, 0.000000000000000000 ) ) ;
#435 = CC_DESIGN_APPROVAL ( #489, ( #225 ) ) ;
#436 = ORIENTED_EDGE ( 'NONE', *, *, #425, .F. ) ;
#437 = DIRECTION ( 'NONE',  ( 0.000000000000000000, 0.000000000000000000, 1.000000000000000000 ) ) ;
#438 = CARTESIAN_POINT ( 'NONE',  ( 0.000000000000000000, -22.02586206896553378, 14.50000000000000533 ) ) ;
#439 = LINE ( 'NONE', #649, #494 ) ;
#440 = DIRECTION ( 'NONE',  ( 0.000000000000000000, 0.8251612416382210213, -0.5648972696854440700 ) ) ;
#441 = ORIENTED_EDGE ( 'NONE', *, *, #156, .T. ) ;
#442 = PERSON_AND_ORGANIZATION ( #718, #562 ) ;
#443 = EDGE_CURVE ( 'NONE', #36, #10, #451, .T. ) ;
#444 = CARTESIAN_POINT ( 'NONE',  ( -2.000000000000000000, -22.02586206896553378, 14.50000000000000533 ) ) ;
#445 = AXIS2_PLACEMENT_3D ( 'NONE', #712, #391, #105 ) ;
#446 = AXIS2_PLACEMENT_3D ( 'NONE', #432, #328, #272 ) ;
#447 = ORIENTED_EDGE ( 'NONE', *, *, #130, .F. ) ;
#448 = COORDINATED_UNIVERSAL_TIME_OFFSET ( 5, 30, .AHEAD. ) ;
#449 = EDGE_CURVE ( 'NONE', #585, #133, #209, .T. ) ;
#450 = CYLINDRICAL_SURFACE ( 'NONE', #21, 3.000000000000002665 ) ;
#451 = LINE ( 'NONE', #670, #150 ) ;
#452 = APPROVAL_ROLE ( '' ) ;
#453 = LINE ( 'NONE', #62, #104 ) ;
#454 = CIRCLE ( 'NONE', #581, 3.000000000000002665 ) ;
#455 = CALENDAR_DATE ( 2025, 25, 12 ) ;
#456 = VECTOR ( 'NONE', #263, 1000.000000000000000 ) ;
#457 = DIRECTION ( 'NONE',  ( 0.000000000000000000, 0.000000000000000000, -1.000000000000000000 ) ) ;
#458 = ORIENTED_EDGE ( 'NONE', *, *, #601, .F. ) ;
#459 = EDGE_LOOP ( 'NONE', ( #599, #27, #118, #682 ) ) ;
#460 = DIRECTION ( 'NONE',  ( 0.000000000000000000, 0.000000000000000000, -1.000000000000000000 ) ) ;
#461 = ORIENTED_EDGE ( 'NONE', *, *, #371, .T. ) ;
#462 = EDGE_LOOP ( 'NONE', ( #490, #295, #518, #251, #648, #189, #461, #411, #67 ) ) ;
#463 = LINE ( 'NONE', #683, #102 ) ;
#464 = EDGE_CURVE ( 'NONE', #667, #15, #365, .T. ) ;
#465 = DIRECTION ( 'NONE',  ( 0.000000000000000000, 9.400198098053353317E-17, -1.000000000000000000 ) ) ;
#466 = AXIS2_PLACEMENT_3D ( 'NONE', #694, #480, #700 ) ;
#467 = CARTESIAN_POINT ( 'NONE',  ( 0.000000000000000000, -12.02586206896553556, 9.227058078361363158 ) ) ;
#468 = EDGE_CURVE ( 'NONE', #133, #631, #174, .T. ) ;
#469 = DIRECTION ( 'NONE',  ( -0.000000000000000000, -0.8251612416382210213, -0.5648972696854441811 ) ) ;
#470 = ORIENTED_EDGE ( 'NONE', *, *, #219, .F. ) ;
#471 = DIRECTION ( 'NONE',  ( 1.000000000000000000, 0.000000000000000000, 0.000000000000000000 ) ) ;
#472 = FACE_OUTER_BOUND ( 'NONE', #404, .T. ) ;
#473 = ADVANCED_FACE ( 'NONE', ( #634 ), #369, .T. ) ;
#474 = ORIENTED_EDGE ( 'NONE', *, *, #350, .F. ) ;
#475 = DIRECTION ( 'NONE',  ( -1.000000000000000000, -0.000000000000000000, -0.000000000000000000 ) ) ;
#476 = CYLINDRICAL_SURFACE ( 'NONE', #363, 3.000000000000002665 ) ;
#477 = EDGE_CURVE ( 'NONE', #211, #153, #45, .T. ) ;
#478 = ORIENTED_EDGE ( 'NONE', *, *, #86, .F. ) ;
#479 = VECTOR ( 'NONE', #660, 1000.000000000000000 ) ;
#480 = DIRECTION ( 'NONE',  ( 1.000000000000000000, -0.000000000000000000, 0.000000000000000000 ) ) ;
#481 = CIRCLE ( 'NONE', #196, 3.000000000000002665 ) ;
#482 = CARTESIAN_POINT ( 'NONE',  ( -2.000000000000000000, -10.72055387802186388, -10.12065922678444707 ) ) ;
#483 = EDGE_LOOP ( 'NONE', ( #610, #91, #709, #657, #318, #79, #144, #307, #406 ) ) ;
#484 = PLANE ( 'NONE',  #407 ) ;
#485 = DIRECTION ( 'NONE',  ( 0.000000000000000000, -0.8251612416382210213, -0.5648972696854441811 ) ) ;
#486 = EDGE_LOOP ( 'NONE', ( #304, #355, #107, #299 ) ) ;
#487 = DIRECTION ( 'NONE',  ( 0.000000000000000000, 0.000000000000000000, -1.000000000000000000 ) ) ;
#488 = DIRECTION ( 'NONE',  ( 0.000000000000000000, -1.000000000000000000, -9.400198098053353317E-17 ) ) ;
#489 = APPROVAL ( #676, 'UNSPECIFIED' ) ;
#490 = ORIENTED_EDGE ( 'NONE', *, *, #601, .T. ) ;
#491 = CIRCLE ( 'NONE', #516, 2.999999999999999112 ) ;
#492 = DIRECTION ( 'NONE',  ( 0.000000000000000000, 0.000000000000000000, -1.000000000000000000 ) ) ;
#493 = ADVANCED_FACE ( 'NONE', ( #626 ), #586, .T. ) ;
#494 = VECTOR ( 'NONE', #426, 1000.000000000000000 ) ;
#495 = ORIENTED_EDGE ( 'NONE', *, *, #669, .T. ) ;
#496 = APPLICATION_PROTOCOL_DEFINITION ( 'international standard', 'config_control_design', 1994, #617 ) ;
#497 = CARTESIAN_POINT ( 'NONE',  ( 0.000000000000000000, 39.32471264367816133, -50.81057643990185113 ) ) ;
#498 = VERTEX_POINT ( 'NONE', #72 ) ;
#499 = ADVANCED_FACE ( 'NONE', ( #80 ), #32, .F. ) ;
#500 = LINE ( 'NONE', #650, #552 ) ;
#501 = ORIENTED_EDGE ( 'NONE', *, *, #468, .F. ) ;
#502 = EDGE_CURVE ( 'NONE', #515, #14, #152, .T. ) ;
#503 = COORDINATED_UNIVERSAL_TIME_OFFSET ( 5, 30, .AHEAD. ) ;
#504 = LINE ( 'NONE', #723, #561 ) ;
#505 = APPROVAL_PERSON_ORGANIZATION ( #287, #590, #53 ) ;
#506 = CARTESIAN_POINT ( 'NONE',  ( 0.000000000000000000, 26.32471264367814712, 31.84583123957470008 ) ) ;
#507 = DATE_TIME_ROLE ( 'creation_date' ) ;
#508 = APPLICATION_CONTEXT ( 'configuration controlled 3d designs of mechanical parts and assemblies' ) ;
#509 = DIRECTION ( 'NONE',  ( -1.000000000000000000, 0.000000000000000000, -0.000000000000000000 ) ) ;
#510 = APPROVAL_STATUS ( 'not_yet_approved' ) ;
#511 = DIRECTION ( 'NONE',  ( -1.000000000000000000, 0.000000000000000000, -0.000000000000000000 ) ) ;
#512 = ORIENTED_EDGE ( 'NONE', *, *, #392, .T. ) ;
#513 = VECTOR ( 'NONE', #440, 1000.000000000000114 ) ;
#514 = VECTOR ( 'NONE', #135, 1000.000000000000114 ) ;
#515 = VERTEX_POINT ( 'NONE', #75 ) ;
#516 = AXIS2_PLACEMENT_3D ( 'NONE', #506, #298, #109 ) ;
#517 = DIRECTION ( 'NONE',  ( 0.000000000000000000, 0.000000000000000000, -1.000000000000000000 ) ) ;
#518 = ORIENTED_EDGE ( 'NONE', *, *, #130, .T. ) ;
#519 = ORIENTED_EDGE ( 'NONE', *, *, #464, .T. ) ;
#520 = ADVANCED_FACE ( 'NONE', ( #84 ), #642, .T. ) ;
#521 = CARTESIAN_POINT ( 'NONE',  ( -2.000000000000000000, 29.32471264367815778, -37.53525479967285605 ) ) ;
#522 = DIRECTION ( 'NONE',  ( 0.000000000000000000, 0.8251612416382210213, -0.5648972696854440700 ) ) ;
#523 = ORIENTED_EDGE ( 'NONE', *, *, #317, .T. ) ;
#524 = EDGE_CURVE ( 'NONE', #498, #625, #463, .T. ) ;
#525 = CARTESIAN_POINT ( 'NONE',  ( -2.000000000000000000, 36.32471264367816843, -50.81057643990185113 ) ) ;
#526 = CARTESIAN_POINT ( 'NONE',  ( 0.000000000000000000, -9.025862068965533780, 7.645175501869773349 ) ) ;
#527 = VECTOR ( 'NONE', #560, 1000.000000000000000 ) ;
#528 = LOCAL_TIME ( 17, 7, 5.000000000000000000, #4 ) ;
#529 = CARTESIAN_POINT ( 'NONE',  ( -2.000000000000000000, -22.02586206896553378, -12.91811742350841641 ) ) ;
#530 = LINE ( 'NONE', #26, #89 ) ;
#531 = VERTEX_POINT ( 'NONE', #128 ) ;
#532 = CARTESIAN_POINT ( 'NONE',  ( 0.000000000000000000, 39.32471264367814712, 50.81057643990185113 ) ) ;
#533 = DIRECTION ( 'NONE',  ( 0.000000000000000000, -0.5648972696854445141, 0.8251612416382209103 ) ) ;
#534 = ORIENTED_EDGE ( 'NONE', *, *, #375, .T. ) ;
#535 = LINE ( 'NONE', #252, #322 ) ;
#536 = DIRECTION ( 'NONE',  ( 0.000000000000000000, 0.000000000000000000, 1.000000000000000000 ) ) ;
#537 = ORIENTED_EDGE ( 'NONE', *, *, #34, .F. ) ;
#538 = CIRCLE ( 'NONE', #235, 3.000000000000000000 ) ;
#539 = CC_DESIGN_APPROVAL ( #590, ( #124 ) ) ;
#540 = CARTESIAN_POINT ( 'NONE',  ( -2.000000000000000000, -22.02586206896553378, 14.50000000000000533 ) ) ;
#541 = ORIENTED_EDGE ( 'NONE', *, *, #595, .T. ) ;
#542 = EDGE_CURVE ( 'NONE', #23, #94, #131, .T. ) ;
#543 = APPLICATION_PROTOCOL_DEFINITION ( 'international standard', 'config_control_design', 1994, #508 ) ;
#544 = DIRECTION ( 'NONE',  ( 1.000000000000000000, -0.000000000000000000, 0.000000000000000000 ) ) ;
#545 = ORIENTED_EDGE ( 'NONE', *, *, #71, .T. ) ;
#546 = EDGE_CURVE ( 'NONE', #596, #652, #481, .T. ) ;
#547 = MECHANICAL_CONTEXT ( 'NONE', #508, 'mechanical' ) ;
#548 = CARTESIAN_POINT ( 'NONE',  ( -2.000000000000000000, -12.02586206896553556, 9.227058078361363158 ) ) ;
#549 = ORIENTED_EDGE ( 'NONE', *, *, #30, .F. ) ;
#550 = DIRECTION ( 'NONE',  ( 0.000000000000000000, -1.000000000000000000, 0.000000000000000000 ) ) ;
#551 = PRODUCT_RELATED_PRODUCT_CATEGORY ( 'detail', '', ( #254 ) ) ;
#552 = VECTOR ( 'NONE', #207, 1000.000000000000000 ) ;
#553 = VERTEX_POINT ( 'NONE', #364 ) ;
#554 = CARTESIAN_POINT ( 'NONE',  ( 0.000000000000000000, 26.32471264367814712, 34.84583123957470008 ) ) ;
#555 = DIRECTION ( 'NONE',  ( 0.000000000000000000, 0.000000000000000000, -1.000000000000000000 ) ) ;
#556 = EDGE_CURVE ( 'NONE', #248, #133, #359, .T. ) ;
#557 = ORIENTED_EDGE ( 'NONE', *, *, #126, .F. ) ;
#558 = PERSON_AND_ORGANIZATION ( #718, #562 ) ;
#559 = CARTESIAN_POINT ( 'NONE',  ( -2.000000000000000000, 29.32471264367815778, -37.53525479967285605 ) ) ;
#560 = DIRECTION ( 'NONE',  ( 1.000000000000000000, 0.000000000000000000, -0.000000000000000000 ) ) ;
#561 = VECTOR ( 'NONE', #227, 1000.000000000000114 ) ;
#562 = ORGANIZATION ( 'UNSPECIFIED', 'UNSPECIFIED', '' ) ;
#563 = CARTESIAN_POINT ( 'NONE',  ( -2.000000000000000000, 36.32471264367816843, -50.81057643990185113 ) ) ;
#564 = PLANE ( 'NONE',  #257 ) ;
#565 = ORIENTED_EDGE ( 'NONE', *, *, #179, .T. ) ;
#566 = EDGE_LOOP ( 'NONE', ( #218, #545, #70, #69 ) ) ;
#567 = COORDINATED_UNIVERSAL_TIME_OFFSET ( 5, 30, .AHEAD. ) ;
#568 = CARTESIAN_POINT ( 'NONE',  ( -2.000000000000000000, 34.63002083462183123, -53.28606016481651864 ) ) ;
#569 = ORIENTED_EDGE ( 'NONE', *, *, #546, .F. ) ;
#570 = AXIS2_PLACEMENT_3D ( 'NONE', #329, #544, #326 ) ;
#571 = CC_DESIGN_APPROVAL ( #134, ( #106 ) ) ;
#572 = EDGE_LOOP ( 'NONE', ( #83, #383, #122, #470 ) ) ;
#573 = DIRECTION ( 'NONE',  ( 1.000000000000000000, 0.000000000000000000, 0.000000000000000000 ) ) ;
#574 = EDGE_LOOP ( 'NONE', ( #636, #663, #38, #390 ) ) ;
#575 = ADVANCED_FACE ( 'NONE', ( #583 ), #187, .T. ) ;
#576 = ORIENTED_EDGE ( 'NONE', *, *, #162, .T. ) ;
#577 = DIRECTION ( 'NONE',  ( 0.000000000000000000, 0.000000000000000000, -1.000000000000000000 ) ) ;
#578 = CARTESIAN_POINT ( 'NONE',  ( -2.000000000000000000, -12.02586206896553556, 7.645175501869773349 ) ) ;
#579 = CARTESIAN_POINT ( 'NONE',  ( -2.000000000000000000, -19.02586206896553733, -12.91811742350841641 ) ) ;
#580 = CARTESIAN_POINT ( 'NONE',  ( -2.000000000000000000, 26.32471264367814712, 31.84583123957470008 ) ) ;
#581 = AXIS2_PLACEMENT_3D ( 'NONE', #563, #403, #457 ) ;
#582 = ORIENTED_EDGE ( 'NONE', *, *, #342, .F. ) ;
#583 = FACE_OUTER_BOUND ( 'NONE', #372, .T. ) ;
#584 = CARTESIAN_POINT ( 'NONE',  ( 0.000000000000000000, -22.02586206896553378, 14.50000000000000533 ) ) ;
#585 = VERTEX_POINT ( 'NONE', #249 ) ;
#586 = CYLINDRICAL_SURFACE ( 'NONE', #421, 3.000000000000002665 ) ;
#587 = CARTESIAN_POINT ( 'NONE',  ( 0.000000000000000000, -20.72055387802187099, -15.39360114842307858 ) ) ;
#588 = ORIENTED_EDGE ( 'NONE', *, *, #86, .T. ) ;
#589 = DIRECTION ( 'NONE',  ( 0.000000000000000000, 0.000000000000000000, 1.000000000000000000 ) ) ;
#590 = APPROVAL ( #510, 'UNSPECIFIED' ) ;
#591 = ORIENTED_EDGE ( 'NONE', *, *, #141, .T. ) ;
#592 = VECTOR ( 'NONE', #200, 1000.000000000000000 ) ;
#593 = CIRCLE ( 'NONE', #352, 3.000000000000000888 ) ;
#594 = CARTESIAN_POINT ( 'NONE',  ( 0.000000000000000000, -12.02586206896553556, 7.645175501869773349 ) ) ;
#595 = EDGE_CURVE ( 'NONE', #380, #361, #312, .T. ) ;
#596 = VERTEX_POINT ( 'NONE', #24 ) ;
#597 = CARTESIAN_POINT ( 'NONE',  ( -2.000000000000000000, 26.32471264367815778, -31.84583123957470363 ) ) ;
#598 = CARTESIAN_POINT ( 'NONE',  ( -2.000000000000000000, 39.32471264367814712, 50.81057643990185113 ) ) ;
#599 = ORIENTED_EDGE ( 'NONE', *, *, #71, .F. ) ;
#600 = LINE ( 'NONE', #658, #697 ) ;
#601 = EDGE_CURVE ( 'NONE', #314, #628, #416, .T. ) ;
#602 = FACE_OUTER_BOUND ( 'NONE', #279, .T. ) ;
#603 = VERTEX_POINT ( 'NONE', #532 ) ;
#604 = FACE_OUTER_BOUND ( 'NONE', #574, .T. ) ;
#605 = AXIS2_PLACEMENT_3D ( 'NONE', #580, #609, #149 ) ;
#606 = EDGE_CURVE ( 'NONE', #23, #585, #535, .T. ) ;
#607 = CARTESIAN_POINT ( 'NONE',  ( -2.000000000000000000, 36.32471264367814712, 50.81057643990185113 ) ) ;
#608 = EDGE_LOOP ( 'NONE', ( #100, #127, #260, #576, #87, #534, #63, #192, #640 ) ) ;
#609 = DIRECTION ( 'NONE',  ( 1.000000000000000000, -0.000000000000000000, 0.000000000000000000 ) ) ;
#610 = ORIENTED_EDGE ( 'NONE', *, *, #179, .F. ) ;
#611 = APPROVAL_DATE_TIME ( #170, #489 ) ;
#612 = CARTESIAN_POINT ( 'NONE',  ( 0.000000000000000000, 36.32471264367814712, 50.81057643990185113 ) ) ;
#613 = CC_DESIGN_DATE_AND_TIME_ASSIGNMENT ( #232, #226, ( #225 ) ) ;
#614 = DATE_AND_TIME ( #455, #528 ) ;
#615 = CARTESIAN_POINT ( 'NONE',  ( 0.000000000000000000, -9.025862068965532004, -7.645175501869784007 ) ) ;
#616 = VECTOR ( 'NONE', #465, 1000.000000000000000 ) ;
#617 = APPLICATION_CONTEXT ( 'configuration controlled 3d designs of mechanical parts and assemblies' ) ;
#618 = EDGE_CURVE ( 'NONE', #223, #44, #297, .T. ) ;
#619 = CALENDAR_DATE ( 2025, 25, 12 ) ;
#620 = DIRECTION ( 'NONE',  ( 1.000000000000000000, -0.000000000000000000, 0.000000000000000000 ) ) ;
#621 = ORIENTED_EDGE ( 'NONE', *, *, #618, .F. ) ;
#622 = DIRECTION ( 'NONE',  ( 0.000000000000000000, 0.000000000000000000, 1.000000000000000000 ) ) ;
#623 = EDGE_CURVE ( 'NONE', #15, #690, #262, .T. ) ;
#624 = ADVANCED_BREP_SHAPE_REPRESENTATION ( 'SUPPORT2_Default_sldprt', ( #325, #446 ), #246 ) ;
#625 = VERTEX_POINT ( 'NONE', #654 ) ;
#626 = FACE_OUTER_BOUND ( 'NONE', #459, .T. ) ;
#627 = ADVANCED_FACE ( 'NONE', ( #604 ), #484, .F. ) ;
#628 = VERTEX_POINT ( 'NONE', #335 ) ;
#629 = AXIS2_PLACEMENT_3D ( 'NONE', #646, #313, #536 ) ;
#630 = AXIS2_PLACEMENT_3D ( 'NONE', #579, #315, #309 ) ;
#631 = VERTEX_POINT ( 'NONE', #42 ) ;
#632 = DIRECTION ( 'NONE',  ( 0.000000000000000000, 0.000000000000000000, -1.000000000000000000 ) ) ;
#633 = DIRECTION ( 'NONE',  ( -1.000000000000000000, -0.000000000000000000, -0.000000000000000000 ) ) ;
#634 = FACE_OUTER_BOUND ( 'NONE', #687, .T. ) ;
#635 = DIRECTION ( 'NONE',  ( 0.000000000000000000, -0.5648972696854441811, -0.8251612416382211324 ) ) ;
#636 = ORIENTED_EDGE ( 'NONE', *, *, #25, .T. ) ;
#637 = DIRECTION ( 'NONE',  ( 1.000000000000000000, 0.000000000000000000, 0.000000000000000000 ) ) ;
#638 = CARTESIAN_POINT ( 'NONE',  ( -2.000000000000000000, 36.32471264367814712, 50.81057643990185113 ) ) ;
#639 = AXIS2_PLACEMENT_3D ( 'NONE', #28, #244, #193 ) ;
#640 = ORIENTED_EDGE ( 'NONE', *, *, #300, .T. ) ;
#641 = AXIS2_PLACEMENT_3D ( 'NONE', #540, #37, #485 ) ;
#642 = CYLINDRICAL_SURFACE ( 'NONE', #665, 3.000000000000002665 ) ;
#643 = CARTESIAN_POINT ( 'NONE',  ( -2.000000000000000000, -20.72055387802187099, -15.39360114842307858 ) ) ;
#644 = EDGE_LOOP ( 'NONE', ( #157, #495, #351, #347 ) ) ;
#645 = PLANE ( 'NONE',  #35 ) ;
#646 = CARTESIAN_POINT ( 'NONE',  ( -2.000000000000000000, -9.025862068965533780, 7.645175501869773349 ) ) ;
#647 = EDGE_CURVE ( 'NONE', #44, #515, #439, .T. ) ;
#648 = ORIENTED_EDGE ( 'NONE', *, *, #542, .T. ) ;
#649 = CARTESIAN_POINT ( 'NONE',  ( -2.000000000000000000, -22.02586206896553378, 12.91811742350841641 ) ) ;
#650 = CARTESIAN_POINT ( 'NONE',  ( -2.000000000000000000, 39.32471264367816133, -56.50000000000000000 ) ) ;
#651 = ADVANCED_FACE ( 'NONE', ( #50, #387 ), #645, .T. ) ;
#652 = VERTEX_POINT ( 'NONE', #148 ) ;
#653 = CIRCLE ( 'NONE', #433, 2.999999999999999112 ) ;
#654 = CARTESIAN_POINT ( 'NONE',  ( -2.000000000000000000, 34.63002083462180991, 53.28606016481651153 ) ) ;
#655 = AXIS2_PLACEMENT_3D ( 'NONE', #597, #319, #145 ) ;
#656 = DIRECTION ( 'NONE',  ( 0.000000000000000000, 0.000000000000000000, -1.000000000000000000 ) ) ;
#657 = ORIENTED_EDGE ( 'NONE', *, *, #34, .T. ) ;
#658 = CARTESIAN_POINT ( 'NONE',  ( -2.000000000000000000, 24.63002083462182412, -34.32131496448936048 ) ) ;
#659 = CARTESIAN_POINT ( 'NONE',  ( -2.000000000000000000, -22.02586206896553378, 14.50000000000000533 ) ) ;
#660 = DIRECTION ( 'NONE',  ( 0.000000000000000000, 0.000000000000000000, -1.000000000000000000 ) ) ;
#661 = CARTESIAN_POINT ( 'NONE',  ( -2.000000000000000000, 29.32471264367814712, 31.84583123957470008 ) ) ;
#662 = FACE_OUTER_BOUND ( 'NONE', #52, .T. ) ;
#663 = ORIENTED_EDGE ( 'NONE', *, *, #721, .T. ) ;
#664 = CIRCLE ( 'NONE', #270, 3.000000000000002665 ) ;
#665 = AXIS2_PLACEMENT_3D ( 'NONE', #412, #471, #241 ) ;
#666 = PLANE ( 'NONE',  #641 ) ;
#667 = VERTEX_POINT ( 'NONE', #554 ) ;
#668 = DIRECTION ( 'NONE',  ( 1.000000000000000000, -0.000000000000000000, 0.000000000000000000 ) ) ;
#669 = EDGE_CURVE ( 'NONE', #667, #41, #216, .T. ) ;
#670 = CARTESIAN_POINT ( 'NONE',  ( -2.000000000000000000, -20.72055387802187099, -15.39360114842307858 ) ) ;
#671 = CALENDAR_DATE ( 2025, 25, 12 ) ;
#672 = LINE ( 'NONE', #8, #527 ) ;
#673 = AXIS2_PLACEMENT_3D ( 'NONE', #444, #550, #273 ) ;
#674 = AXIS2_PLACEMENT_3D ( 'NONE', #96, #93, #437 ) ;
#675 = CC_DESIGN_DATE_AND_TIME_ASSIGNMENT ( #1, #507, ( #106 ) ) ;
#676 = APPROVAL_STATUS ( 'not_yet_approved' ) ;
#677 = LINE ( 'NONE', #559, #136 ) ;
#678 = ORIENTED_EDGE ( 'NONE', *, *, #606, .F. ) ;
#679 = ORIENTED_EDGE ( 'NONE', *, *, #126, .T. ) ;
#680 = EDGE_CURVE ( 'NONE', #596, #15, #381, .T. ) ;
#681 = CARTESIAN_POINT ( 'NONE',  ( 0.000000000000000000, -12.02586206896553556, 9.227058078361363158 ) ) ;
#682 = ORIENTED_EDGE ( 'NONE', *, *, #208, .F. ) ;
#683 = CARTESIAN_POINT ( 'NONE',  ( -2.000000000000000000, 34.63002083462182412, 53.28606016481651864 ) ) ;
#684 = CARTESIAN_POINT ( 'NONE',  ( 0.000000000000000000, -12.02586206896553378, -7.645175501869785784 ) ) ;
#685 = VECTOR ( 'NONE', #633, 1000.000000000000000 ) ;
#686 = LOCAL_TIME ( 17, 7, 5.000000000000000000, #503 ) ;
#687 = EDGE_LOOP ( 'NONE', ( #31, #591, #386, #441 ) ) ;
#688 = DIRECTION ( 'NONE',  ( 0.000000000000000000, 9.400198098053353317E-17, -1.000000000000000000 ) ) ;
#689 = DIRECTION ( 'NONE',  ( -1.000000000000000000, 0.000000000000000000, -0.000000000000000000 ) ) ;
#690 = VERTEX_POINT ( 'NONE', #46 ) ;
#691 = CARTESIAN_POINT ( 'NONE',  ( -2.000000000000000000, -12.02586206896553556, 9.227058078361363158 ) ) ;
#692 = CARTESIAN_POINT ( 'NONE',  ( -2.000000000000000000, -20.72055387802187099, 15.39360114842307858 ) ) ;
#693 = ORIENTED_EDGE ( 'NONE', *, *, #647, .F. ) ;
#694 = CARTESIAN_POINT ( 'NONE',  ( 0.000000000000000000, -19.02586206896553733, 12.91811742350841641 ) ) ;
#695 = FACE_OUTER_BOUND ( 'NONE', #486, .T. ) ;
#696 = VECTOR ( 'NONE', #117, 1000.000000000000000 ) ;
#697 = VECTOR ( 'NONE', #429, 1000.000000000000000 ) ;
#698 = ORIENTED_EDGE ( 'NONE', *, *, #546, .T. ) ;
#699 = EDGE_CURVE ( 'NONE', #94, #125, #57, .T. ) ;
#700 = DIRECTION ( 'NONE',  ( 0.000000000000000000, 0.000000000000000000, -1.000000000000000000 ) ) ;
#701 = CARTESIAN_POINT ( 'NONE',  ( -2.000000000000000000, 26.32471264367814712, 31.84583123957470008 ) ) ;
#702 = ORIENTED_EDGE ( 'NONE', *, *, #647, .T. ) ;
#703 = EDGE_CURVE ( 'NONE', #631, #23, #593, .T. ) ;
#704 = DIRECTION ( 'NONE',  ( 1.000000000000000000, -0.000000000000000000, 0.000000000000000000 ) ) ;
#705 = CYLINDRICAL_SURFACE ( 'NONE', #674, 2.999999999999999112 ) ;
#706 = ORIENTED_EDGE ( 'NONE', *, *, #468, .T. ) ;
#707 = CARTESIAN_POINT ( 'NONE',  ( -2.000000000000000000, -9.025862068965532004, -7.645175501869784007 ) ) ;
#708 = CARTESIAN_POINT ( 'NONE',  ( 0.000000000000000000, -22.02586206896553378, -14.50000000000000533 ) ) ;
#709 = ORIENTED_EDGE ( 'NONE', *, *, #392, .F. ) ;
#710 = AXIS2_PLACEMENT_3D ( 'NONE', #238, #668, #460 ) ;
#711 = PERSON_AND_ORGANIZATION ( #718, #562 ) ;
#712 = CARTESIAN_POINT ( 'NONE',  ( 0.000000000000000000, -19.02586206896553733, -12.91811742350841641 ) ) ;
#713 = DIRECTION ( 'NONE',  ( 0.000000000000000000, -1.228122814850836818E-16, 1.000000000000000000 ) ) ;
#714 = CARTESIAN_POINT ( 'NONE',  ( -2.000000000000000000, 36.32471264367816843, -53.81057643990185824 ) ) ;
#715 = ORIENTED_EDGE ( 'NONE', *, *, #25, .F. ) ;
#716 = DIRECTION ( 'NONE',  ( 0.000000000000000000, -1.386475316527165199E-16, 1.000000000000000000 ) ) ;
#717 = FACE_OUTER_BOUND ( 'NONE', #205, .T. ) ;
#718 = PERSON ( 'UNSPECIFIED', 'UNSPECIFIED', 'UNSPECIFIED', ('UNSPECIFIED'), ('UNSPECIFIED'), ('UNSPECIFIED') ) ;
#719 = ORIENTED_EDGE ( 'NONE', *, *, #449, .T. ) ;
#720 = PERSON_AND_ORGANIZATION ( #718, #562 ) ;
#721 = EDGE_CURVE ( 'NONE', #652, #94, #600, .T. ) ;
#722 = VECTOR ( 'NONE', #475, 1000.000000000000000 ) ;
#723 = CARTESIAN_POINT ( 'NONE',  ( -2.000000000000000000, -22.02586206896553378, 14.50000000000000533 ) ) ;
ENDSEC;
END-ISO-10303-21;
