ISO-10303-21;
HEADER;
FILE_DESCRIPTION (( 'STEP AP203' ),
    '1' );
FILE_NAME ('square_block_model.STEP',
    '2025-11-10T10:36:37',
    ( '' ),
    ( '' ),
    'SwSTEP 2.0',
    'SolidWorks 2024',
    '' );
FILE_SCHEMA (( 'CONFIG_CONTROL_DESIGN' ));
ENDSEC;

DATA;
#1 = VERTEX_POINT ( 'NONE', #111 ) ;
#2 = CARTESIAN_POINT ( 'NONE',  ( -500.0000000000000000, -300.0000000000000000, 0.000000000000000000 ) ) ;
#3 = DIRECTION ( 'NONE',  ( -0.000000000000000000, 1.000000000000000000, -0.000000000000000000 ) ) ;
#4 = ORIENTED_EDGE ( 'NONE', *, *, #65, .T. ) ;
#5 = APPLICATION_CONTEXT ( 'configuration controlled 3d designs of mechanical parts and assemblies' ) ;
#6 = VECTOR ( 'NONE', #79, 1000.000000000000000 ) ;
#7 = CARTESIAN_POINT ( 'NONE',  ( 50.00000000000004263, 45.00000000000000000, 0.000000000000000000 ) ) ;
#8 = APPROVAL_DATE_TIME ( #11, #49 ) ;
#9 = VECTOR ( 'NONE', #131, 1000.000000000000000 ) ;
#10 = CALENDAR_DATE ( 2025, 10, 11 ) ;
#11 = DATE_AND_TIME ( #46, #105 ) ;
#12 = CC_DESIGN_APPROVAL ( #93, ( #124 ) ) ;
#13 = EDGE_CURVE ( 'NONE', #66, #1, #40, .T. ) ;
#14 = CC_DESIGN_APPROVAL ( #163, ( #33 ) ) ;
#15 = VERTEX_POINT ( 'NONE', #28 ) ;
#16 = LINE ( 'NONE', #39, #80 ) ;
#17 = CARTESIAN_POINT ( 'NONE',  ( -499.9999999999999432, 299.9999999999997726, 0.000000000000000000 ) ) ;
#18 = ORIENTED_EDGE ( 'NONE', *, *, #13, .F. ) ;
#19 = CC_DESIGN_DATE_AND_TIME_ASSIGNMENT ( #148, #90, ( #54 ) ) ;
#20 = APPROVAL_ROLE ( '' ) ;
#21 = PERSON_AND_ORGANIZATION_ROLE ( 'design_owner' ) ;
#22 = DATE_AND_TIME ( #10, #97 ) ;
#23 = COORDINATED_UNIVERSAL_TIME_OFFSET ( 5, 30, .AHEAD. ) ;
#24 = PRODUCT_DEFINITION_SHAPE ( 'NONE', 'NONE',  #54 ) ;
#25 = PRODUCT_RELATED_PRODUCT_CATEGORY ( 'detail', '', ( #62 ) ) ;
#26 = ORIENTED_EDGE ( 'NONE', *, *, #76, .F. ) ;
#27 = ORIENTED_EDGE ( 'NONE', *, *, #85, .T. ) ;
#28 = CARTESIAN_POINT ( 'NONE',  ( -249.9999999999999432, -45.00000000000000000, 0.000000000000000000 ) ) ;
#29 = CC_DESIGN_APPROVAL ( #49, ( #54 ) ) ;
#30 = DIRECTION ( 'NONE',  ( -1.000000000000000000, 0.000000000000000000, -0.000000000000000000 ) ) ;
#31 = CARTESIAN_POINT ( 'NONE',  ( 500.0000000000000000, -300.0000000000002274, 0.000000000000000000 ) ) ;
#32 = CARTESIAN_POINT ( 'NONE',  ( 0.000000000000000000, 0.000000000000000000, 0.000000000000000000 ) ) ;
#33 = SECURITY_CLASSIFICATION ( '', '', #123 ) ;
#34 = CALENDAR_DATE ( 2025, 10, 11 ) ;
#35 = CALENDAR_DATE ( 2025, 10, 11 ) ;
#36 = PERSON_AND_ORGANIZATION ( #107, #89 ) ;
#37 = CC_DESIGN_PERSON_AND_ORGANIZATION_ASSIGNMENT ( #152, #21, ( #62 ) ) ;
#38 = VECTOR ( 'NONE', #67, 1000.000000000000000 ) ;
#39 = CARTESIAN_POINT ( 'NONE',  ( -499.9999999999999432, 299.9999999999997726, 0.000000000000000000 ) ) ;
#40 = LINE ( 'NONE', #7, #129 ) ;
#41 = CARTESIAN_POINT ( 'NONE',  ( -249.9999999999999432, 45.00000000000000000, 0.000000000000000000 ) ) ;
#42 = EDGE_CURVE ( 'NONE', #132, #140, #52, .T. ) ;
#43 = CARTESIAN_POINT ( 'NONE',  ( -249.9999999999999432, 45.00000000000000000, 0.000000000000000000 ) ) ;
#44 = MANIFOLD_SURFACE_SHAPE_REPRESENTATION ( 'square_block_model', ( #91, #157 ), #83 ) ;
#45 = VECTOR ( 'NONE', #53, 1000.000000000000000 ) ;
#46 = CALENDAR_DATE ( 2025, 10, 11 ) ;
#47 = DIRECTION ( 'NONE',  ( 1.000000000000000000, 0.000000000000000000, 0.000000000000000000 ) ) ;
#48 = PERSON_AND_ORGANIZATION ( #107, #89 ) ;
#49 = APPROVAL ( #72, 'UNSPECIFIED' ) ;
#50 = LOCAL_TIME ( 16, 6, 37.00000000000000000, #149 ) ;
#51 = CC_DESIGN_PERSON_AND_ORGANIZATION_ASSIGNMENT ( #48, #161, ( #124 ) ) ;
#52 = LINE ( 'NONE', #120, #45 ) ;
#53 = DIRECTION ( 'NONE',  ( 1.000000000000000000, -2.220446049250313081E-16, 0.000000000000000000 ) ) ;
#54 = PRODUCT_DEFINITION ( 'UNKNOWN', '', #124, #95 ) ;
#55 = CC_DESIGN_SECURITY_CLASSIFICATION ( #33, ( #124 ) ) ;
#56 = ORIENTED_EDGE ( 'NONE', *, *, #112, .F. ) ;
#57 = MECHANICAL_CONTEXT ( 'NONE', #88, 'mechanical' ) ;
#58 = APPROVAL_DATE_TIME ( #22, #163 ) ;
#59 = APPROVAL_STATUS ( 'not_yet_approved' ) ;
#60 = CC_DESIGN_PERSON_AND_ORGANIZATION_ASSIGNMENT ( #36, #138, ( #124 ) ) ;
#61 = VECTOR ( 'NONE', #159, 1000.000000000000000 ) ;
#62 = PRODUCT ( 'square_block_model', 'square_block_model', '', ( #57 ) ) ;
#63 = PERSON_AND_ORGANIZATION_ROLE ( 'creator' ) ;
#64 = OPEN_SHELL ( 'NONE', ( #126 ) ) ;
#65 = EDGE_CURVE ( 'NONE', #139, #132, #16, .T. ) ;
#66 = VERTEX_POINT ( 'NONE', #156 ) ;
#67 = DIRECTION ( 'NONE',  ( 0.000000000000000000, -1.000000000000000000, 0.000000000000000000 ) ) ;
#68 = VERTEX_POINT ( 'NONE', #41 ) ;
#69 = CARTESIAN_POINT ( 'NONE',  ( -499.9999999999999432, 299.9999999999997726, 0.000000000000000000 ) ) ;
#70 =( LENGTH_UNIT ( ) NAMED_UNIT ( * ) SI_UNIT ( .MILLI., .METRE. ) );
#71 = APPLICATION_PROTOCOL_DEFINITION ( 'international standard', 'config_control_design', 1994, #88 ) ;
#72 = APPROVAL_STATUS ( 'not_yet_approved' ) ;
#73 = APPROVAL_PERSON_ORGANIZATION ( #136, #163, #102 ) ;
#74 = SHAPE_DEFINITION_REPRESENTATION ( #24, #44 ) ;
#75 = DATE_AND_TIME ( #101, #50 ) ;
#76 = EDGE_CURVE ( 'NONE', #1, #68, #109, .T. ) ;
#77 = COORDINATED_UNIVERSAL_TIME_OFFSET ( 5, 30, .AHEAD. ) ;
#78 = EDGE_LOOP ( 'NONE', ( #27, #4, #119, #142 ) ) ;
#79 = DIRECTION ( 'NONE',  ( -1.000000000000000000, -0.000000000000000000, -0.000000000000000000 ) ) ;
#80 = VECTOR ( 'NONE', #130, 1000.000000000000000 ) ;
#81 = CARTESIAN_POINT ( 'NONE',  ( -249.9999999999999432, -45.00000000000000000, 0.000000000000000000 ) ) ;
#82 = CARTESIAN_POINT ( 'NONE',  ( 500.0000000000000000, 299.9999999999996021, 0.000000000000000000 ) ) ;
#83 =( GEOMETRIC_REPRESENTATION_CONTEXT ( 3 ) GLOBAL_UNCERTAINTY_ASSIGNED_CONTEXT ( ( #133 ) ) GLOBAL_UNIT_ASSIGNED_CONTEXT ( ( #70, #94, #141 ) ) REPRESENTATION_CONTEXT ( 'NONE', 'WORKASPACE' ) );
#84 = APPROVAL_DATE_TIME ( #122, #93 ) ;
#85 = EDGE_CURVE ( 'NONE', #108, #139, #127, .T. ) ;
#86 = PERSON_AND_ORGANIZATION ( #107, #89 ) ;
#87 = PERSON_AND_ORGANIZATION_ROLE ( 'classification_officer' ) ;
#88 = APPLICATION_CONTEXT ( 'configuration controlled 3d designs of mechanical parts and assemblies' ) ;
#89 = ORGANIZATION ( 'UNSPECIFIED', 'UNSPECIFIED', '' ) ;
#90 = DATE_TIME_ROLE ( 'creation_date' ) ;
#91 = SHELL_BASED_SURFACE_MODEL ( 'NONE', ( #64 ) );
#92 = COORDINATED_UNIVERSAL_TIME_OFFSET ( 5, 30, .AHEAD. ) ;
#93 = APPROVAL ( #153, 'UNSPECIFIED' ) ;
#94 =( NAMED_UNIT ( * ) PLANE_ANGLE_UNIT ( ) SI_UNIT ( $, .RADIAN. ) );
#95 = DESIGN_CONTEXT ( 'detailed design', #5, 'design' ) ;
#96 = LINE ( 'NONE', #43, #38 ) ;
#97 = LOCAL_TIME ( 16, 6, 37.00000000000000000, #92 ) ;
#98 = FACE_OUTER_BOUND ( 'NONE', #78, .T. ) ;
#99 = FACE_BOUND ( 'NONE', #118, .T. ) ;
#100 = CARTESIAN_POINT ( 'NONE',  ( 0.000000000000000000, 0.000000000000000000, 0.000000000000000000 ) ) ;
#101 = CALENDAR_DATE ( 2025, 10, 11 ) ;
#102 = APPROVAL_ROLE ( '' ) ;
#103 = CC_DESIGN_PERSON_AND_ORGANIZATION_ASSIGNMENT ( #162, #87, ( #33 ) ) ;
#104 = LOCAL_TIME ( 16, 6, 37.00000000000000000, #160 ) ;
#105 = LOCAL_TIME ( 16, 6, 37.00000000000000000, #23 ) ;
#106 = ORIENTED_EDGE ( 'NONE', *, *, #128, .F. ) ;
#107 = PERSON ( 'UNSPECIFIED', 'UNSPECIFIED', 'UNSPECIFIED', ('UNSPECIFIED'), ('UNSPECIFIED'), ('UNSPECIFIED') ) ;
#108 = VERTEX_POINT ( 'NONE', #158 ) ;
#109 = LINE ( 'NONE', #117, #6 ) ;
#110 = AXIS2_PLACEMENT_3D ( 'NONE', #32, #144, #30 ) ;
#111 = CARTESIAN_POINT ( 'NONE',  ( 50.00000000000004263, 45.00000000000000000, 0.000000000000000000 ) ) ;
#112 = EDGE_CURVE ( 'NONE', #68, #15, #96, .T. ) ;
#113 = PERSON_AND_ORGANIZATION ( #107, #89 ) ;
#114 = DATE_TIME_ROLE ( 'classification_date' ) ;
#115 = PERSON_AND_ORGANIZATION ( #107, #89 ) ;
#116 = VECTOR ( 'NONE', #134, 1000.000000000000000 ) ;
#117 = CARTESIAN_POINT ( 'NONE',  ( -249.9999999999999432, 45.00000000000000000, 0.000000000000000000 ) ) ;
#118 = EDGE_LOOP ( 'NONE', ( #56, #26, #18, #106 ) ) ;
#119 = ORIENTED_EDGE ( 'NONE', *, *, #42, .T. ) ;
#120 = CARTESIAN_POINT ( 'NONE',  ( -500.0000000000000000, -300.0000000000000000, 0.000000000000000000 ) ) ;
#121 = CC_DESIGN_PERSON_AND_ORGANIZATION_ASSIGNMENT ( #113, #63, ( #54 ) ) ;
#122 = DATE_AND_TIME ( #34, #143 ) ;
#123 = SECURITY_CLASSIFICATION_LEVEL ( 'unclassified' ) ;
#124 = PRODUCT_DEFINITION_FORMATION_WITH_SPECIFIED_SOURCE ( 'ANY', '', #62, .NOT_KNOWN. ) ;
#125 = APPROVAL_ROLE ( '' ) ;
#126 = ADVANCED_FACE ( 'NONE', ( #98, #99 ), #147, .F. ) ;
#127 = LINE ( 'NONE', #69, #61 ) ;
#128 = EDGE_CURVE ( 'NONE', #15, #66, #146, .T. ) ;
#129 = VECTOR ( 'NONE', #3, 1000.000000000000000 ) ;
#130 = DIRECTION ( 'NONE',  ( -9.251858538542975279E-17, -1.000000000000000000, 0.000000000000000000 ) ) ;
#131 = DIRECTION ( 'NONE',  ( 1.000000000000000000, 0.000000000000000000, 0.000000000000000000 ) ) ;
#132 = VERTEX_POINT ( 'NONE', #2 ) ;
#133 = UNCERTAINTY_MEASURE_WITH_UNIT (LENGTH_MEASURE( 1.000000000000000082E-05 ), #70, 'distance_accuracy_value', 'NONE');
#134 = DIRECTION ( 'NONE',  ( -0.000000000000000000, 1.000000000000000000, -0.000000000000000000 ) ) ;
#135 = APPLICATION_PROTOCOL_DEFINITION ( 'international standard', 'config_control_design', 1994, #5 ) ;
#136 = PERSON_AND_ORGANIZATION ( #107, #89 ) ;
#137 = APPROVAL_PERSON_ORGANIZATION ( #86, #93, #20 ) ;
#138 = PERSON_AND_ORGANIZATION_ROLE ( 'design_supplier' ) ;
#139 = VERTEX_POINT ( 'NONE', #17 ) ;
#140 = VERTEX_POINT ( 'NONE', #31 ) ;
#141 =( NAMED_UNIT ( * ) SI_UNIT ( $, .STERADIAN. ) SOLID_ANGLE_UNIT ( ) );
#142 = ORIENTED_EDGE ( 'NONE', *, *, #150, .T. ) ;
#143 = LOCAL_TIME ( 16, 6, 37.00000000000000000, #77 ) ;
#144 = DIRECTION ( 'NONE',  ( 0.000000000000000000, 0.000000000000000000, -1.000000000000000000 ) ) ;
#145 = CC_DESIGN_DATE_AND_TIME_ASSIGNMENT ( #75, #114, ( #33 ) ) ;
#146 = LINE ( 'NONE', #81, #9 ) ;
#147 = PLANE ( 'NONE',  #110 ) ;
#148 = DATE_AND_TIME ( #35, #104 ) ;
#149 = COORDINATED_UNIVERSAL_TIME_OFFSET ( 5, 30, .AHEAD. ) ;
#150 = EDGE_CURVE ( 'NONE', #140, #108, #155, .T. ) ;
#151 = DIRECTION ( 'NONE',  ( 0.000000000000000000, 0.000000000000000000, 1.000000000000000000 ) ) ;
#152 = PERSON_AND_ORGANIZATION ( #107, #89 ) ;
#153 = APPROVAL_STATUS ( 'not_yet_approved' ) ;
#154 = APPROVAL_PERSON_ORGANIZATION ( #115, #49, #125 ) ;
#155 = LINE ( 'NONE', #82, #116 ) ;
#156 = CARTESIAN_POINT ( 'NONE',  ( 50.00000000000004263, -45.00000000000000000, 0.000000000000000000 ) ) ;
#157 = AXIS2_PLACEMENT_3D ( 'NONE', #100, #151, #47 ) ;
#158 = CARTESIAN_POINT ( 'NONE',  ( 500.0000000000000000, 299.9999999999996021, 0.000000000000000000 ) ) ;
#159 = DIRECTION ( 'NONE',  ( -1.000000000000000000, 1.665334536937734811E-16, -0.000000000000000000 ) ) ;
#160 = COORDINATED_UNIVERSAL_TIME_OFFSET ( 5, 30, .AHEAD. ) ;
#161 = PERSON_AND_ORGANIZATION_ROLE ( 'creator' ) ;
#162 = PERSON_AND_ORGANIZATION ( #107, #89 ) ;
#163 = APPROVAL ( #59, 'UNSPECIFIED' ) ;
ENDSEC;
END-ISO-10303-21;
