ISO-10303-21;
HEADER;
FILE_DESCRIPTION (( 'STEP AP214' ),
    '1' );
FILE_NAME ('c-d.STEP',
    '2025-05-29T02:21:48',
    ( '' ),
    ( '' ),
    'SwSTEP 2.0',
    'SolidWorks 2024',
    '' );
FILE_SCHEMA (( 'AUTOMOTIVE_DESIGN' ));
ENDSEC;

DATA;
#1 = CARTESIAN_POINT ( 'NONE',  ( 172.1739130434783078, -59.00000000000000000, 0.000000000000000000 ) ) ;
#2 = ORIENTED_EDGE ( 'NONE', *, *, #67, .T. ) ;
#3 = APPLICATION_PROTOCOL_DEFINITION ( 'draft international standard', 'automotive_design', 1998, #79 ) ;
#4 = APPLICATION_PROTOCOL_DEFINITION ( 'draft international standard', 'automotive_design', 1998, #54 ) ;
#5 = VERTEX_POINT ( 'NONE', #63 ) ;
#6 = CARTESIAN_POINT ( 'NONE',  ( 172.1739130434783078, -59.00000000000000000, 0.000000000000000000 ) ) ;
#7 = EDGE_CURVE ( 'NONE', #5, #15, #30, .T. ) ;
#8 = VERTEX_POINT ( 'NONE', #38 ) ;
#9 = ORIENTED_EDGE ( 'NONE', *, *, #7, .T. ) ;
#10 = AXIS2_PLACEMENT_3D ( 'NONE', #14, #50, #51 ) ;
#11 = PRODUCT_RELATED_PRODUCT_CATEGORY ( 'part', '', ( #23 ) ) ;
#12 =( NAMED_UNIT ( * ) PLANE_ANGLE_UNIT ( ) SI_UNIT ( $, .RADIAN. ) );
#13 = VECTOR ( 'NONE', #52, 1000.000000000000000 ) ;
#14 = CARTESIAN_POINT ( 'NONE',  ( 0.000000000000000000, 0.000000000000000000, 0.000000000000000000 ) ) ;
#15 = VERTEX_POINT ( 'NONE', #1 ) ;
#16 = AXIS2_PLACEMENT_3D ( 'NONE', #70, #48, #60 ) ;
#17 = PLANE ( 'NONE',  #16 ) ;
#18 = PRODUCT_DEFINITION ( 'UNKNOWN', '', #20, #26 ) ;
#19 = LINE ( 'NONE', #25, #40 ) ;
#20 = PRODUCT_DEFINITION_FORMATION_WITH_SPECIFIED_SOURCE ( 'ANY', '', #23, .NOT_KNOWN. ) ;
#21 = EDGE_CURVE ( 'NONE', #8, #49, #41, .T. ) ;
#22 = ORIENTED_EDGE ( 'NONE', *, *, #58, .T. ) ;
#23 = PRODUCT ( 'c-d', 'c-d', '', ( #44 ) ) ;
#24 = MANIFOLD_SURFACE_SHAPE_REPRESENTATION ( 'c-d', ( #64, #10 ), #62 ) ;
#25 = CARTESIAN_POINT ( 'NONE',  ( 172.1739130434783078, 59.00000000000000000, 0.000000000000000000 ) ) ;
#26 = PRODUCT_DEFINITION_CONTEXT ( 'detailed design', #79, 'design' ) ;
#27 = EDGE_CURVE ( 'NONE', #15, #8, #76, .T. ) ;
#28 = CARTESIAN_POINT ( 'NONE',  ( 324.3478260869565588, 75.00000000000000000, 0.000000000000000000 ) ) ;
#29 = ADVANCED_FACE ( 'NONE', ( #55 ), #17, .T. ) ;
#30 = LINE ( 'NONE', #77, #80 ) ;
#31 = CARTESIAN_POINT ( 'NONE',  ( 324.3478260869565588, 75.00000000000000000, 0.000000000000000000 ) ) ;
#32 = DIRECTION ( 'NONE',  ( 0.9945179016832264018, -0.1045664536626935287, 0.000000000000000000 ) ) ;
#33 =( NAMED_UNIT ( * ) SI_UNIT ( $, .STERADIAN. ) SOLID_ANGLE_UNIT ( ) );
#34 = VERTEX_POINT ( 'NONE', #61 ) ;
#35 = ORIENTED_EDGE ( 'NONE', *, *, #27, .T. ) ;
#36 = LINE ( 'NONE', #74, #59 ) ;
#37 = DIRECTION ( 'NONE',  ( -0.9945179016832264018, -0.1045664536626935287, -0.000000000000000000 ) ) ;
#38 = CARTESIAN_POINT ( 'NONE',  ( 324.3478260869565588, -75.00000000000000000, 0.000000000000000000 ) ) ;
#39 = ORIENTED_EDGE ( 'NONE', *, *, #21, .T. ) ;
#40 = VECTOR ( 'NONE', #37, 1000.000000000000114 ) ;
#41 = LINE ( 'NONE', #31, #72 ) ;
#42 = EDGE_LOOP ( 'NONE', ( #22, #9, #35, #39, #2, #66 ) ) ;
#43 = VERTEX_POINT ( 'NONE', #68 ) ;
#44 = PRODUCT_CONTEXT ( 'NONE', #54, 'mechanical' ) ;
#45 = PRODUCT_DEFINITION_SHAPE ( 'NONE', 'NONE',  #18 ) ;
#46 = OPEN_SHELL ( 'NONE', ( #29 ) ) ;
#47 = VECTOR ( 'NONE', #32, 1000.000000000000114 ) ;
#48 = DIRECTION ( 'NONE',  ( 0.000000000000000000, 0.000000000000000000, 1.000000000000000000 ) ) ;
#49 = VERTEX_POINT ( 'NONE', #28 ) ;
#50 = DIRECTION ( 'NONE',  ( 0.000000000000000000, 0.000000000000000000, 1.000000000000000000 ) ) ;
#51 = DIRECTION ( 'NONE',  ( 1.000000000000000000, 0.000000000000000000, 0.000000000000000000 ) ) ;
#52 = DIRECTION ( 'NONE',  ( 0.000000000000000000, -1.000000000000000000, 0.000000000000000000 ) ) ;
#53 = CARTESIAN_POINT ( 'NONE',  ( 1.307177344307284118E-14, 25.00000000000000000, 0.000000000000000000 ) ) ;
#54 = APPLICATION_CONTEXT ( 'automotive_design' ) ;
#55 = FACE_OUTER_BOUND ( 'NONE', #42, .T. ) ;
#56 = UNCERTAINTY_MEASURE_WITH_UNIT (LENGTH_MEASURE( 1.000000000000000082E-05 ), #57, 'distance_accuracy_value', 'NONE');
#57 =( LENGTH_UNIT ( ) NAMED_UNIT ( * ) SI_UNIT ( .MILLI., .METRE. ) );
#58 = EDGE_CURVE ( 'NONE', #43, #5, #75, .T. ) ;
#59 = VECTOR ( 'NONE', #78, 1000.000000000000000 ) ;
#60 = DIRECTION ( 'NONE',  ( 1.000000000000000000, 0.000000000000000000, -0.000000000000000000 ) ) ;
#61 = CARTESIAN_POINT ( 'NONE',  ( 172.1739130434783078, 59.00000000000000000, 0.000000000000000000 ) ) ;
#62 =( GEOMETRIC_REPRESENTATION_CONTEXT ( 3 ) GLOBAL_UNCERTAINTY_ASSIGNED_CONTEXT ( ( #56 ) ) GLOBAL_UNIT_ASSIGNED_CONTEXT ( ( #57, #12, #33 ) ) REPRESENTATION_CONTEXT ( 'NONE', 'WORKASPACE' ) );
#63 = CARTESIAN_POINT ( 'NONE',  ( 1.307177344307284118E-14, -25.00000000000000000, 0.000000000000000000 ) ) ;
#64 = SHELL_BASED_SURFACE_MODEL ( 'NONE', ( #46 ) );
#65 = DIRECTION ( 'NONE',  ( -0.000000000000000000, 1.000000000000000000, -0.000000000000000000 ) ) ;
#66 = ORIENTED_EDGE ( 'NONE', *, *, #69, .T. ) ;
#67 = EDGE_CURVE ( 'NONE', #49, #34, #19, .T. ) ;
#68 = CARTESIAN_POINT ( 'NONE',  ( 1.307177344307284118E-14, 25.00000000000000000, 0.000000000000000000 ) ) ;
#69 = EDGE_CURVE ( 'NONE', #34, #43, #36, .T. ) ;
#70 = CARTESIAN_POINT ( 'NONE',  ( 0.000000000000000000, 0.000000000000000000, 0.000000000000000000 ) ) ;
#71 = SHAPE_DEFINITION_REPRESENTATION ( #45, #24 ) ;
#72 = VECTOR ( 'NONE', #65, 1000.000000000000000 ) ;
#73 = DIRECTION ( 'NONE',  ( 0.9810542071647581075, -0.1937334318188991267, 0.000000000000000000 ) ) ;
#74 = CARTESIAN_POINT ( 'NONE',  ( 1.307177344307284118E-14, 25.00000000000000000, 0.000000000000000000 ) ) ;
#75 = LINE ( 'NONE', #53, #13 ) ;
#76 = LINE ( 'NONE', #6, #47 ) ;
#77 = CARTESIAN_POINT ( 'NONE',  ( 1.307177344307284118E-14, -25.00000000000000000, 0.000000000000000000 ) ) ;
#78 = DIRECTION ( 'NONE',  ( -0.9810542071647581075, -0.1937334318188991267, -0.000000000000000000 ) ) ;
#79 = APPLICATION_CONTEXT ( 'automotive_design' ) ;
#80 = VECTOR ( 'NONE', #73, 1000.000000000000000 ) ;
ENDSEC;
END-ISO-10303-21;
