ISO-10303-21;
HEADER;
FILE_DESCRIPTION (( 'STEP AP203' ),
    '1' );
FILE_NAME ('CompressionCorner.STEP',
    '2025-11-25T11:47:45',
    ( '' ),
    ( '' ),
    'SwSTEP 2.0',
    'SolidWorks 2024',
    '' );
FILE_SCHEMA (( 'CONFIG_CONTROL_DESIGN' ));
ENDSEC;

DATA;
#1 = VECTOR ( 'NONE', #92, 1000.000000000000000 ) ;
#2 = APPROVAL_STATUS ( 'not_yet_approved' ) ;
#3 = LOCAL_TIME ( 17, 17, 45.00000000000000000, #77 ) ;
#4 = DIRECTION ( 'NONE',  ( 1.387778780781445676E-16, -1.000000000000000000, 0.000000000000000000 ) ) ;
#5 =( NAMED_UNIT ( * ) SI_UNIT ( $, .STERADIAN. ) SOLID_ANGLE_UNIT ( ) );
#6 = CARTESIAN_POINT ( 'NONE',  ( -24.99999999999999289, 24.99999999999999645, 0.000000000000000000 ) ) ;
#7 = PERSON_AND_ORGANIZATION ( #80, #30 ) ;
#8 =( GEOMETRIC_REPRESENTATION_CONTEXT ( 3 ) GLOBAL_UNCERTAINTY_ASSIGNED_CONTEXT ( ( #63 ) ) GLOBAL_UNIT_ASSIGNED_CONTEXT ( ( #120, #110, #5 ) ) REPRESENTATION_CONTEXT ( 'NONE', 'WORKASPACE' ) );
#9 = APPROVAL_STATUS ( 'not_yet_approved' ) ;
#10 = PRODUCT_RELATED_PRODUCT_CATEGORY ( 'detail', '', ( #33 ) ) ;
#11 = DATE_AND_TIME ( #134, #96 ) ;
#12 = PRODUCT_DEFINITION_SHAPE ( 'NONE', 'NONE',  #88 ) ;
#13 = EDGE_CURVE ( 'NONE', #127, #16, #73, .T. ) ;
#14 = CARTESIAN_POINT ( 'NONE',  ( -24.99999999999999289, 24.99999999999999645, 0.000000000000000000 ) ) ;
#15 = CC_DESIGN_PERSON_AND_ORGANIZATION_ASSIGNMENT ( #122, #94, ( #123 ) ) ;
#16 = VERTEX_POINT ( 'NONE', #102 ) ;
#17 = DIRECTION ( 'NONE',  ( -0.000000000000000000, 0.000000000000000000, 1.000000000000000000 ) ) ;
#18 = LOCAL_TIME ( 17, 17, 45.00000000000000000, #69 ) ;
#19 = SECURITY_CLASSIFICATION_LEVEL ( 'unclassified' ) ;
#20 = DATE_AND_TIME ( #137, #68 ) ;
#21 = APPROVAL_PERSON_ORGANIZATION ( #7, #114, #36 ) ;
#22 = MANIFOLD_SURFACE_SHAPE_REPRESENTATION ( 'CompressionCorner', ( #130, #104 ), #8 ) ;
#23 = EDGE_LOOP ( 'NONE', ( #111, #112, #25, #121, #71 ) ) ;
#24 = CC_DESIGN_DATE_AND_TIME_ASSIGNMENT ( #136, #107, ( #88 ) ) ;
#25 = ORIENTED_EDGE ( 'NONE', *, *, #51, .T. ) ;
#26 = LINE ( 'NONE', #91, #1 ) ;
#27 = PERSON_AND_ORGANIZATION ( #80, #30 ) ;
#28 = APPROVAL_PERSON_ORGANIZATION ( #66, #43, #64 ) ;
#29 = APPROVAL_DATE_TIME ( #11, #114 ) ;
#30 = ORGANIZATION ( 'UNSPECIFIED', 'UNSPECIFIED', '' ) ;
#31 = CALENDAR_DATE ( 2025, 25, 11 ) ;
#32 = PERSON_AND_ORGANIZATION_ROLE ( 'creator' ) ;
#33 = PRODUCT ( 'CompressionCorner', 'CompressionCorner', '', ( #82 ) ) ;
#34 = VERTEX_POINT ( 'NONE', #14 ) ;
#35 = CC_DESIGN_APPROVAL ( #114, ( #88 ) ) ;
#36 = APPROVAL_ROLE ( '' ) ;
#37 = CC_DESIGN_PERSON_AND_ORGANIZATION_ASSIGNMENT ( #27, #57, ( #33 ) ) ;
#38 = PLANE ( 'NONE',  #58 ) ;
#39 = LINE ( 'NONE', #59, #42 ) ;
#40 = APPLICATION_PROTOCOL_DEFINITION ( 'international standard', 'config_control_design', 1994, #49 ) ;
#41 = COORDINATED_UNIVERSAL_TIME_OFFSET ( 5, 30, .AHEAD. ) ;
#42 = VECTOR ( 'NONE', #46, 1000.000000000000000 ) ;
#43 = APPROVAL ( #9, 'UNSPECIFIED' ) ;
#44 = COORDINATED_UNIVERSAL_TIME_OFFSET ( 5, 30, .AHEAD. ) ;
#45 = VERTEX_POINT ( 'NONE', #131 ) ;
#46 = DIRECTION ( 'NONE',  ( 1.000000000000000000, 0.000000000000000000, 0.000000000000000000 ) ) ;
#47 = FACE_OUTER_BOUND ( 'NONE', #23, .T. ) ;
#48 = APPROVAL_PERSON_ORGANIZATION ( #90, #124, #118 ) ;
#49 = APPLICATION_CONTEXT ( 'configuration controlled 3d designs of mechanical parts and assemblies' ) ;
#50 = CARTESIAN_POINT ( 'NONE',  ( -24.99999999999998579, -25.00000000000000355, 0.000000000000000000 ) ) ;
#51 = EDGE_CURVE ( 'NONE', #45, #127, #129, .T. ) ;
#52 = VECTOR ( 'NONE', #101, 1000.000000000000000 ) ;
#53 = VECTOR ( 'NONE', #100, 1000.000000000000114 ) ;
#54 = PERSON_AND_ORGANIZATION_ROLE ( 'design_supplier' ) ;
#55 = DATE_AND_TIME ( #95, #18 ) ;
#56 = CC_DESIGN_PERSON_AND_ORGANIZATION_ASSIGNMENT ( #89, #32, ( #74 ) ) ;
#57 = PERSON_AND_ORGANIZATION_ROLE ( 'design_owner' ) ;
#58 = AXIS2_PLACEMENT_3D ( 'NONE', #128, #17, #62 ) ;
#59 = CARTESIAN_POINT ( 'NONE',  ( -24.99999999999998579, -25.00000000000000355, 0.000000000000000000 ) ) ;
#60 = CARTESIAN_POINT ( 'NONE',  ( 25.00000000000000000, -15.90074414334492836, 0.000000000000000000 ) ) ;
#61 = CARTESIAN_POINT ( 'NONE',  ( 1.387778780781445676E-14, -25.00000000000000355, 0.000000000000000000 ) ) ;
#62 = DIRECTION ( 'NONE',  ( 1.000000000000000000, 0.000000000000000000, 0.000000000000000000 ) ) ;
#63 = UNCERTAINTY_MEASURE_WITH_UNIT (LENGTH_MEASURE( 1.000000000000000082E-05 ), #120, 'distance_accuracy_value', 'NONE');
#64 = APPROVAL_ROLE ( '' ) ;
#65 = PERSON_AND_ORGANIZATION ( #80, #30 ) ;
#66 = PERSON_AND_ORGANIZATION ( #80, #30 ) ;
#67 = ADVANCED_FACE ( 'NONE', ( #47 ), #38, .T. ) ;
#68 = LOCAL_TIME ( 17, 17, 45.00000000000000000, #41 ) ;
#69 = COORDINATED_UNIVERSAL_TIME_OFFSET ( 5, 30, .AHEAD. ) ;
#70 = EDGE_CURVE ( 'NONE', #34, #109, #83, .T. ) ;
#71 = ORIENTED_EDGE ( 'NONE', *, *, #84, .T. ) ;
#72 = DIRECTION ( 'NONE',  ( 0.000000000000000000, 0.000000000000000000, 1.000000000000000000 ) ) ;
#73 = LINE ( 'NONE', #60, #52 ) ;
#74 = PRODUCT_DEFINITION_FORMATION_WITH_SPECIFIED_SOURCE ( 'ANY', '', #33, .NOT_KNOWN. ) ;
#75 = PERSON_AND_ORGANIZATION_ROLE ( 'creator' ) ;
#76 = APPROVAL_STATUS ( 'not_yet_approved' ) ;
#77 = COORDINATED_UNIVERSAL_TIME_OFFSET ( 5, 30, .AHEAD. ) ;
#78 = PERSON_AND_ORGANIZATION ( #80, #30 ) ;
#79 = CC_DESIGN_PERSON_AND_ORGANIZATION_ASSIGNMENT ( #65, #75, ( #88 ) ) ;
#80 = PERSON ( 'UNSPECIFIED', 'UNSPECIFIED', 'UNSPECIFIED', ('UNSPECIFIED'), ('UNSPECIFIED'), ('UNSPECIFIED') ) ;
#81 = CARTESIAN_POINT ( 'NONE',  ( 25.00000000000000000, -15.90074414334492836, 0.000000000000000000 ) ) ;
#82 = MECHANICAL_CONTEXT ( 'NONE', #49, 'mechanical' ) ;
#83 = LINE ( 'NONE', #6, #135 ) ;
#84 = EDGE_CURVE ( 'NONE', #16, #34, #26, .T. ) ;
#85 = APPROVAL_DATE_TIME ( #115, #124 ) ;
#86 = OPEN_SHELL ( 'NONE', ( #67 ) ) ;
#87 = CC_DESIGN_APPROVAL ( #124, ( #123 ) ) ;
#88 = PRODUCT_DEFINITION ( 'UNKNOWN', '', #74, #97 ) ;
#89 = PERSON_AND_ORGANIZATION ( #80, #30 ) ;
#90 = PERSON_AND_ORGANIZATION ( #80, #30 ) ;
#91 = CARTESIAN_POINT ( 'NONE',  ( -24.99999999999999289, 24.99999999999999645, 0.000000000000000000 ) ) ;
#92 = DIRECTION ( 'NONE',  ( -1.000000000000000000, -6.938893903907228378E-17, -0.000000000000000000 ) ) ;
#93 = APPLICATION_CONTEXT ( 'configuration controlled 3d designs of mechanical parts and assemblies' ) ;
#94 = PERSON_AND_ORGANIZATION_ROLE ( 'classification_officer' ) ;
#95 = CALENDAR_DATE ( 2025, 25, 11 ) ;
#96 = LOCAL_TIME ( 17, 17, 45.00000000000000000, #125 ) ;
#97 = DESIGN_CONTEXT ( 'detailed design', #93, 'design' ) ;
#98 = EDGE_CURVE ( 'NONE', #109, #45, #39, .T. ) ;
#99 = CARTESIAN_POINT ( 'NONE',  ( 0.000000000000000000, 0.000000000000000000, 0.000000000000000000 ) ) ;
#100 = DIRECTION ( 'NONE',  ( 0.9396926207859080948, 0.3420201433256694901, 0.000000000000000000 ) ) ;
#101 = DIRECTION ( 'NONE',  ( 8.482601049492487896E-17, 1.000000000000000000, 0.000000000000000000 ) ) ;
#102 = CARTESIAN_POINT ( 'NONE',  ( 25.00000000000000355, 25.00000000000000000, 0.000000000000000000 ) ) ;
#103 = APPLICATION_PROTOCOL_DEFINITION ( 'international standard', 'config_control_design', 1994, #93 ) ;
#104 = AXIS2_PLACEMENT_3D ( 'NONE', #99, #72, #132 ) ;
#105 = DATE_TIME_ROLE ( 'classification_date' ) ;
#106 = SHAPE_DEFINITION_REPRESENTATION ( #12, #22 ) ;
#107 = DATE_TIME_ROLE ( 'creation_date' ) ;
#108 = CC_DESIGN_APPROVAL ( #43, ( #74 ) ) ;
#109 = VERTEX_POINT ( 'NONE', #50 ) ;
#110 =( NAMED_UNIT ( * ) PLANE_ANGLE_UNIT ( ) SI_UNIT ( $, .RADIAN. ) );
#111 = ORIENTED_EDGE ( 'NONE', *, *, #70, .T. ) ;
#112 = ORIENTED_EDGE ( 'NONE', *, *, #98, .T. ) ;
#113 = LOCAL_TIME ( 17, 17, 45.00000000000000000, #44 ) ;
#114 = APPROVAL ( #2, 'UNSPECIFIED' ) ;
#115 = DATE_AND_TIME ( #117, #3 ) ;
#116 = APPROVAL_DATE_TIME ( #55, #43 ) ;
#117 = CALENDAR_DATE ( 2025, 25, 11 ) ;
#118 = APPROVAL_ROLE ( '' ) ;
#119 = CC_DESIGN_SECURITY_CLASSIFICATION ( #123, ( #74 ) ) ;
#120 =( LENGTH_UNIT ( ) NAMED_UNIT ( * ) SI_UNIT ( .MILLI., .METRE. ) );
#121 = ORIENTED_EDGE ( 'NONE', *, *, #13, .T. ) ;
#122 = PERSON_AND_ORGANIZATION ( #80, #30 ) ;
#123 = SECURITY_CLASSIFICATION ( '', '', #19 ) ;
#124 = APPROVAL ( #76, 'UNSPECIFIED' ) ;
#125 = COORDINATED_UNIVERSAL_TIME_OFFSET ( 5, 30, .AHEAD. ) ;
#126 = CC_DESIGN_PERSON_AND_ORGANIZATION_ASSIGNMENT ( #78, #54, ( #74 ) ) ;
#127 = VERTEX_POINT ( 'NONE', #81 ) ;
#128 = CARTESIAN_POINT ( 'NONE',  ( 0.000000000000000000, 0.000000000000000000, 0.000000000000000000 ) ) ;
#129 = LINE ( 'NONE', #61, #53 ) ;
#130 = SHELL_BASED_SURFACE_MODEL ( 'NONE', ( #86 ) );
#131 = CARTESIAN_POINT ( 'NONE',  ( 1.387778780781445676E-14, -25.00000000000000355, 0.000000000000000000 ) ) ;
#132 = DIRECTION ( 'NONE',  ( 1.000000000000000000, 0.000000000000000000, 0.000000000000000000 ) ) ;
#133 = CC_DESIGN_DATE_AND_TIME_ASSIGNMENT ( #20, #105, ( #123 ) ) ;
#134 = CALENDAR_DATE ( 2025, 25, 11 ) ;
#135 = VECTOR ( 'NONE', #4, 1000.000000000000000 ) ;
#136 = DATE_AND_TIME ( #31, #113 ) ;
#137 = CALENDAR_DATE ( 2025, 25, 11 ) ;
ENDSEC;
END-ISO-10303-21;
